<?xml version="1.0" encoding="UTF-8" standalone="no"?>
<svg
   xmlns:dc="http://purl.org/dc/elements/1.1/"
   xmlns:cc="http://creativecommons.org/ns#"
   xmlns:rdf="http://www.w3.org/1999/02/22-rdf-syntax-ns#"
   xmlns:svg="http://www.w3.org/2000/svg"
   xmlns="http://www.w3.org/2000/svg"
   width="1000"
   height="1000"
   viewBox="0 0 999.99999 999.99999"
   id="svg7631"
   version="1.1">
  <defs
     id="defs7633">
    <pattern
       id="EMFhbasepattern"
       patternUnits="userSpaceOnUse"
       width="6"
       height="6"
       x="0"
       y="0" />
    <pattern
       id="EMFhbasepattern-8"
       patternUnits="userSpaceOnUse"
       width="6"
       height="6"
       x="0"
       y="0" />
    <pattern
       id="EMFhbasepattern-3"
       patternUnits="userSpaceOnUse"
       width="6"
       height="6"
       x="0"
       y="0" />
    <pattern
       id="EMFhbasepattern-6"
       patternUnits="userSpaceOnUse"
       width="6"
       height="6"
       x="0"
       y="0" />
  </defs>
  <metadata
     id="metadata7636">
    <rdf:RDF>
      <cc:Work
         rdf:about="">
        <dc:format>image/svg+xml</dc:format>
        <dc:type
           rdf:resource="http://purl.org/dc/dcmitype/StillImage" />
        <dc:title></dc:title>
      </cc:Work>
    </rdf:RDF>
  </metadata>
  <path
     id="path4796"
     d="m 512.20388,97.225459 c -15.61,0.4777 -30.6357,12.902191 -29.2109,37.017591 -7.5323,6.5879 -0.4132,28.1182 -3.1153,35.8222 -0.3671,0.3671 -1.1914,-0.3671 -1.5585,0 -26.2875,25.3926 -46.5758,58.4939 -73.2032,76.3164 0.1754,3.576 -3.2795,6.6546 -4.6718,9.3457 4.8424,21.6479 -34.0998,54.3601 -38.9375,66.9727 -8.7817,17.8192 -8.0224,35.8171 -15.5743,43.6094 -4.2705,21.312 -12.9564,23.4151 -23.3632,32.709 -0.3672,0.3671 0.3671,1.1895 0,1.5566 -0.7343,0.7342 -2.3811,-0.7342 -3.1153,0 -0.3671,0.3671 0.3671,1.1915 0,1.5586 -0.3671,0.3671 -1.1895,-0.3671 -1.5566,0 -0.3671,0.3671 0.3671,1.1895 0,1.5566 -0.7342,0.7342 -2.381,-0.7342 -3.1153,0 0,0.1754 -0.025,0.3571 -0.045,0.5371 0.1096,0.4691 0.3996,1.0196 0.045,1.0196 -0.07,0 -0.1182,-0.042 -0.1543,-0.1055 -0.041,0.3233 -0.066,0.6442 -0.037,0.9512 -11.7937,7.6845 -14.3047,18.9618 -18.33,29.8887 -2.7184,7.3792 5.6578,30.6839 1.0996,35.2421 -4.3631,4.363 -3.5036,12.3155 -8.127,15.7188 -18.0931,13.3187 -40.6054,18.4409 -40.6054,39.3477 0,19.3496 -4.5841,71.274 15.8046,130.207 3.3748,9.7546 -6.7286,28.7092 -5.8925,37.1933 1.4336,14.5485 18.5807,75.1746 8.8105,94.7149 -6.2386,12.4773 -27.9015,0 -41.8515,0 -12.409,0 -13.917,12.4396 -20.0254,23.8282 -6.23,11.6151 -23.4948,0 -35.2422,0 -8.1352,3.5043 -8.7911,-5.935 -21.8242,7.0078 -6.1687,6.1259 -4.8005,25.4039 -2.7305,42.8515 2.7947,23.5564 14.1485,48.458 27.373,38.4239 6.279,-4.7642 -1.1625,-9.4581 -1.375,-17.4981 -0.2406,-9.1069 2.4181,-18.0629 4.4668,-24.4082 38.7202,9.6801 86.3995,2.4805 126.4512,2.4805 4.2115,0 23.7515,2.6801 26.4316,0 3.3078,-3.3078 6.5529,-16.3619 13.3497,-16.7188 8.2661,-0.434 38.0695,-2.1861 63.3066,-1.1679 5.0246,0.2027 22.1438,-10.1043 20.5156,-10.7461 1.4075,-9.149 -13.056,-76.656 -49.3496,-121.6427 -3.7663,-4.6684 -1.5664,-11.6483 -1.5664,-17.125 0,-13.8169 -2.2031,-27.1449 -2.2031,-41.8496 0,-6.7281 -1.8189,-20.1549 2.0469,-21.8281 9.4228,-4.0784 31.4561,11.6533 42.1503,0.959 3.9587,-3.9587 0.1006,-11.814 -3.6269,-21.7715 -7.4787,-19.9783 -7.6774,-56.9598 -18.2774,-75.6562 -11.8207,-20.8495 -15.2157,-26.8152 -48.8476,-33.9532 -2.4489,-11.4569 -1.3582,-7.9035 3.6816,-15.0644 4.3672,-6.2052 14.1421,-2.7876 20.0371,-6.4453 3.2463,-2.0142 1.3263,-11.4742 2.2793,-15.7481 0.6636,-2.9757 8.77,-3.0979 8.0489,-4.7265 -2.7918,-6.3049 -6.2786,-11.1745 -3.8653,-17.7793 4.2193,-11.5472 -8.0527,-29.8067 -8.0527,-29.8067 -2.2162,-2.3485 -4.613,-4.3091 -7.1445,-5.9199 l 0,-11.3125 c 0,-2.6368 -1.1538,-8.5949 0,-10.9023 0,0 3.3463,-4.3842 4.6718,-7.7872 52.407,-57.8305 16.1451,-28.0472 44.584,-48.6718 0.3671,0.3671 17.545,15.2071 17.9121,15.5742 33.3154,-4.6362 29.4365,-1.7105 29.3985,14.4062 0,1.8708 0.8188,6.1494 0,7.7871 -13.4244,3.3667 -16.141,127.8207 -15.5762,186.9024 l 0,37.3789 c -1.0044,50.7632 1.6513,114.0422 -9.3457,160.4239 9.7921,7.463 5.6846,2.7924 15.5762,7.7871 8.7551,8.6969 24.3376,-24.3022 33.7773,-16.3536 2.6961,5.8297 2.9636,25.8088 0.4883,25.6993 -20.7761,21.1783 75.5744,19.7518 54.3652,-2.8535 -3.8233,-1.5259 -3.0746,-9.9428 -3.0097,-14.8555 -0.3671,-0.3671 -0.3888,-11.3341 -0.7559,-11.7012 -0.6101,-3.8118 8.3915,-0.525 10.1426,-0.1836 20.6444,1.7467 16.9279,6.9353 32.5957,2.2969 9.0073,-5.0529 7.6424,-8.9073 8.2519,-12.8301 -1.1043,-4.362 -2.7035,-8.0525 -9.6972,-25.2891 -3.7191,-3.7208 -1.6158,-10.4482 -1.5586,-15.5742 6.7297,-31.5105 3.4059,-58.6081 0,-96.5664 0.034,-37.0738 19.4963,-110.6332 6.2304,-204.0332 -0.9572,-1.9144 0,-11.1273 0,-14.0176 0.3038,-5.1796 -5.9249,-27.0725 -2.2968,-30.5371 4.8238,-2.3278 14.1471,0.6199 14.7578,-0.8066 1.6522,-3.3045 5.1516,-11.1888 7.7871,-13.8243 1.8539,-2.6622 4.9901,-2.5765 7.7871,-1.5566 12.44231,16.9993 21.05951,32.8371 40.30664,51.3984 0.3671,0.3671 11.78914,12.297 12.15625,12.6641 7.32894,16.3251 2.81361,14.9748 3.60742,20.043 0.3671,0.3671 1.18953,-0.3671 1.55664,0 0.0315,0.032 0.054,0.072 0.0781,0.1113 -8.55329,2.1541 -17.98524,7.742 -21.46876,20.6074 -1.25603,4.6389 -2.85546,13.6875 -2.85546,13.6875 -0.25423,3.6253 -1.74358,9.8209 0.82617,12.3906 4.09329,4.0933 -2.05112,5.0279 -4.40625,16.5196 0.0227,1.7894 5.92559,2.0914 8.09765,3.748 3.96561,3.0247 -2.10621,11.7787 1.72657,15.9024 4.88094,5.2513 19.26362,6.3591 21.01367,13.3906 -5.6646,25.9337 -57.39604,82.3426 -44.05274,109.0293 6.12483,12.2496 25.44338,5.6211 30.83594,11.0137 5.19626,5.1963 2.75391,23.6777 2.75391,23.6777 26.91915,22.3783 -9.9062,68.828 -29.18555,88.1074 -8.75164,8.7516 -70.8734,83.861 -58.3691,96.3653 11.9784,11.9784 28.7692,16.036 45.1543,24.2285 5.78594,2.893 16.07509,-1.8736 22.02535,1.1016 13.71372,6.8568 24.98809,11.9432 38.54687,18.7226 12.93177,6.4659 29.75536,4.4158 42.95117,11.0137 17.13544,8.5677 38.7208,5.042 55.06641,13.2149 9.66211,4.831 4.13477,-20.7173 16.51953,-17.6211 14.84496,3.7112 40.50179,28.2071 61.67383,17.6211 17.17777,-8.5889 -27.44113,-46.0737 -31.9375,-55.0665 -9.96138,-19.9227 -29.7058,-4.3737 -37.44531,-12.1132 -7.56072,-7.5608 -14.44824,-23.7447 -24.22852,-28.6348 -14.92233,-7.4612 -38.19677,23.8252 -52.86328,-5.5078 -3.00446,-6.0089 3.29303,-9.8908 4.4043,-12.1133 6.8569,-13.7138 14.23728,-24.0703 24.22851,-35.2422 9.36514,-10.4718 12.43437,-20.4626 19.27344,-34.1407 9.20975,-18.4196 -9.54402,-67.547 -15.96875,-80.3964 -3.95944,-7.9189 0.66046,-84.2072 1.10156,-90.3086 0.6866,-9.4972 -2.8715,-23.3622 -4.40625,-26.4317 -4.32043,-8.6409 -12.51753,-16.252 -19.17382,-25.7578 -1.84092,-2.629 -4.11505,-8.9821 -5.60547,-11.9629 -1.86875,-3.7375 -1.39202,-10.2389 0.55078,-14.0429 8.73725,-17.1076 15.32738,-38.0934 -3.24219,-52.4024 0.94262,0.2149 1.74591,0.405 2.76953,0.6328 -11.27616,-14.3588 -17.47058,-9.5128 -29.20312,-30.7597 -9.54858,-31.1861 -25.36979,-56.7001 -27.64453,-64.6368 -10.11379,-42.5395 -51.53894,-71.0499 -52.33204,-105.3515 -19.1657,-20.2961 -39.3757,-22.3388 -42.6758,-32.877 -0.5191,-0.5192 -1.0394,-4.1527 -1.5586,-4.6719 -0.3671,-0.367 -1.1895,0.3671 -1.5566,0 -22.1249,-25.4364 5.5174,-42.2465 -17.1328,-68.5312 -6.3594,-8.36959 -15.9348,-12.382291 -25.3008,-12.095691 z M 314.62768,405.14145 c 0.038,-0.3055 0.076,-0.6098 0.1094,-0.9141 -0.051,-0.2176 -0.071,-0.4207 0.045,-0.5371 0,-0.4492 -0.3859,1.0405 -0.1543,1.4512 z"
     style="fill:#000000;fill-rule:evenodd;stroke:#000000;stroke-width:1px;stroke-linecap:butt;stroke-linejoin:miter;stroke-opacity:1" />
</svg>
