<?xml version="1.0" encoding="UTF-8" standalone="no"?>
<svg
   xmlns:dc="http://purl.org/dc/elements/1.1/"
   xmlns:cc="http://creativecommons.org/ns#"
   xmlns:rdf="http://www.w3.org/1999/02/22-rdf-syntax-ns#"
   xmlns:svg="http://www.w3.org/2000/svg"
   xmlns="http://www.w3.org/2000/svg"
   xmlns:sodipodi="http://sodipodi.sourceforge.net/DTD/sodipodi-0.dtd"
   xmlns:inkscape="http://www.inkscape.org/namespaces/inkscape"
   width="1000"
   height="1000"
   viewBox="0 0 999.99999 999.99999"
   id="svg7631"
   version="1.1"
   inkscape:version="0.91 r13725"
   sodipodi:docname="act-well-thy-part.svg">
  <sodipodi:namedview
     pagecolor="#ffffff"
     bordercolor="#666666"
     borderopacity="1"
     objecttolerance="10"
     gridtolerance="10"
     guidetolerance="10"
     inkscape:pageopacity="0"
     inkscape:pageshadow="2"
     inkscape:window-width="1366"
     inkscape:window-height="706"
     id="namedview10"
     showgrid="false"
     inkscape:zoom="0.944"
     inkscape:cx="566.85705"
     inkscape:cy="219.33889"
     inkscape:window-x="-8"
     inkscape:window-y="-8"
     inkscape:window-maximized="1"
     inkscape:current-layer="svg7631" />
  <defs
     id="defs7633">
    <pattern
       id="EMFhbasepattern"
       patternUnits="userSpaceOnUse"
       width="6"
       height="6"
       x="0"
       y="0" />
    <pattern
       id="EMFhbasepattern-8"
       patternUnits="userSpaceOnUse"
       width="6"
       height="6"
       x="0"
       y="0" />
    <pattern
       id="EMFhbasepattern-3"
       patternUnits="userSpaceOnUse"
       width="6"
       height="6"
       x="0"
       y="0" />
    <pattern
       id="EMFhbasepattern-6"
       patternUnits="userSpaceOnUse"
       width="6"
       height="6"
       x="0"
       y="0" />
  </defs>
  <metadata
     id="metadata7636">
    <rdf:RDF>
      <cc:Work
         rdf:about="">
        <dc:format>image/svg+xml</dc:format>
        <dc:type
           rdf:resource="http://purl.org/dc/dcmitype/StillImage" />
        <dc:title />
      </cc:Work>
    </rdf:RDF>
  </metadata>
  <path
     id="path4760"
     d="m 500.05185,82.566416 -68.2253,22.167994 -42.1661,58.036 0,71.7369 42.1661,58.0363 68.2253,22.1677 68.2256,-22.1677 42.1662,-58.0363 0,-71.7369 -42.1662,-58.036 z m -315.9748,11.1209 -110.391499,80.204094 42.165799,129.7731 136.4513,0 42.1658,-129.7731 z m 271.9061,7.530394 44.0687,76.3292 44.0686,-76.3292 18.2666,10.5458 -50.1576,86.8755 50.1576,86.8751 -18.2666,10.5463 -44.0686,-76.3292 -44.0687,76.3292 -18.2662,-10.5463 50.1577,-86.8751 -50.1577,-86.8755 z m 360.0442,10.5236 -100.5218,174.1086 201.0433,0 z m -635.9034,7.8379 c 1.7223,0.02 3.502,0.2767 5.2913,0.8429 5.453,1.7258 10.2742,5.9772 14.3005,12.4403 l 1.0655,1.7111 0.1937,8 c 4.5872,-2.3122 9.641,-3.2145 14.4993,-2.5218 10.6516,1.519 19.877,11.3895 19.9142,24.7225 l 0.108,38.656 c 1.5794,-1.6388 3.2093,-3.1194 4.9073,-4.4016 7.4708,-5.6415 16.0756,-7.4606 23.8843,-6.6355 6.1451,0.6494 11.9624,2.28 14.8715,7.901 2.9091,5.6209 0.8351,10.864 -1.3063,15.1905 -4.2829,8.653 -12.0818,18.3007 -19.213,30.8589 l -12.8432,-7.2929 c 7.756,-13.6583 15.9861,-24.3933 18.8194,-30.1176 0.2991,-0.6043 0.4627,-1.0433 0.6036,-1.4369 -0.5749,-0.142 -1.3545,-0.2958 -2.4839,-0.4152 -4.7675,-0.5037 -8.8641,0.2849 -13.4319,3.7342 -4.5679,3.4493 -9.6367,10.0147 -14.2712,21.504 l -14.2334,-2.7421 -0.1806,-64.7616 c -0.021,-7.4355 -3.2686,-9.577 -7.2298,-10.1419 -3.6894,-0.5261 -8.3738,1.0359 -11.5339,6.8099 l 0.9216,55.5517 0,0.056 -14.7665,0.3012 -1.8951,-78.3163 c -2.2959,-3.2207 -4.0939,-4.236 -5.1578,-4.5727 -1.2232,-0.3871 -2.1985,-0.2401 -3.7657,0.5302 -1.5672,0.7703 -3.3448,2.2574 -4.5741,3.5617 -0.2784,0.2953 -0.409,0.4791 -0.6285,0.7372 l -1.927,79.4282 -14.7669,-0.076 -0.7398,-52.9302 c -2.7649,-3.1241 -4.9777,-4.3284 -6.4574,-4.7489 -1.7385,-0.494 -2.907,-0.2511 -4.4509,0.5384 -1.544,0.7894 -3.1998,2.3086 -4.2911,3.7178 -0.4695,0.6064 -0.8082,1.1538 -1.0243,1.5453 l 1.7641,77.8655 -14.6982,1.1791 -5.9035,-42.6855 0,-0.5046 c -0.01,-8.3325 -5.002,-10.5821 -7.6743,-10.4019 -1.3361,0.09 -2.2459,0.4124 -3.2941,2.3525 -1.0483,1.9402 -1.9798,6.0687 -0.5681,13.0358 l 8.7914,43.3863 -14.4752,2.9332 -8.791399,-43.3864 c -1.8776,-9.266 -1.1871,-17.0008 2.0487,-22.9898 3.2359,-5.989 9.272399,-9.6616 15.295199,-10.0677 4.6646,-0.3144 9.2195,1.1217 13.0624,3.8615 l -0.3576,-15.7931 0.014,-0.2767 c 0.1405,-2.6845 0.8128,-3.6462 1.5018,-4.9994 0.689,-1.3531 1.5544,-2.7064 2.6312,-4.097 2.1536,-2.7811 5.1324,-5.7225 9.2447,-7.8253 4.1124,-2.1028 9.6215,-3.1839 15.2121,-1.5953 1.6494,0.4687 3.2639,1.1673 4.8494,2.0435 l 0.2972,-12.2525 c 0.075,-3.1013 0.5678,-2.6931 0.7164,-3.0078 0.1486,-0.3146 0.2352,-0.4619 0.3124,-0.5958 0.1544,-0.2679 0.2602,-0.4292 0.3747,-0.6018 0.2291,-0.3452 0.4726,-0.6852 0.7714,-1.0796 0.5975,-0.7888 1.3969,-1.7613 2.4134,-2.8397 2.033,-2.1569 4.8881,-4.7597 8.8073,-6.6859 2.4492,-1.2038 5.4628,-2.107 8.7098,-2.1938 0.2435,-0.01 0.4885,-0.01 0.7346,-0.01 z M 184.07705,374.6297 68.004351,490.702 184.07705,606.77471 300.14925,490.7024 Z m 315.9751,0 -100.5218,58.0364 0,116.07231 100.5215,58.0363 100.5219,-58.0363 0,-116.07231 z m 315.9752,0 -82.0757,33.997 -33.9969,82.0753 33.9969,82.07581 82.0757,33.9969 82.0754,-33.9969 33.9969,-82.07541 -33.9969,-82.0757 z m -315.9752,294.30021 c -68.6268,-4e-5 -124.25988,55.6329 -124.26,124.2597 -10e-5,68.62696 55.63304,124.26014 124.26,124.2601 68.62684,-1.2e-4 124.2598,-55.63326 124.2597,-124.2601 -1.2e-4,-68.62669 -55.63301,-124.25958 -124.2597,-124.2597 z m -315.9751,11.6975 -74.61,27.1559 -39.699299,68.7607 13.7874,78.192 60.822599,51.0362 79.3982,0 60.8226,-51.0362 13.7873,-78.192 -39.6989,-68.7607 z m 631.9503,2.2546 -90.7491,43.7025 -22.4133,98.1986 62.8004,78.749 100.7241,0 62.8,-78.749 -22.4129,-98.1986 z m -364.9827,3.9038 21.0922,0 0,212.8077 -21.0922,0 z m 76.9229,0 21.0921,0 0,212.8077 -21.0921,0 z"
     style="color:#000000;clip-rule:nonzero;display:inline;overflow:visible;visibility:visible;opacity:1;isolation:auto;mix-blend-mode:normal;color-interpolation:sRGB;color-interpolation-filters:linearRGB;solid-color:#000000;solid-opacity:1;fill:#000000;fill-opacity:1;fill-rule:nonzero;stroke:#000000;stroke-width:0.62685418;stroke-linecap:butt;stroke-linejoin:miter;stroke-miterlimit:4;stroke-dasharray:none;stroke-dashoffset:0;stroke-opacity:1;color-rendering:auto;image-rendering:auto;shape-rendering:auto;text-rendering:auto;enable-background:accumulate"
     inkscape:connector-curvature="0"
     sodipodi:nodetypes="ccccccccccccccccccccccccccccccccccccccccscscssccsccsccccccccccscccccccccccccccsccscccccccssccccccccccccccccccccccccccccccccccccccccccccccccccccccccccccccccc" />
</svg>
