<?xml version="1.0" encoding="UTF-8" standalone="no"?>
<svg
   xmlns:dc="http://purl.org/dc/elements/1.1/"
   xmlns:cc="http://creativecommons.org/ns#"
   xmlns:rdf="http://www.w3.org/1999/02/22-rdf-syntax-ns#"
   xmlns:svg="http://www.w3.org/2000/svg"
   xmlns="http://www.w3.org/2000/svg"
   width="1000"
   height="1000"
   viewBox="0 0 999.99999 999.99999"
   id="svg7631"
   version="1.1">
  <defs
     id="defs7633">
    <pattern
       id="EMFhbasepattern"
       patternUnits="userSpaceOnUse"
       width="6"
       height="6"
       x="0"
       y="0" />
    <pattern
       id="EMFhbasepattern-8"
       patternUnits="userSpaceOnUse"
       width="6"
       height="6"
       x="0"
       y="0" />
    <pattern
       id="EMFhbasepattern-3"
       patternUnits="userSpaceOnUse"
       width="6"
       height="6"
       x="0"
       y="0" />
    <pattern
       id="EMFhbasepattern-6"
       patternUnits="userSpaceOnUse"
       width="6"
       height="6"
       x="0"
       y="0" />
  </defs>
  <metadata
     id="metadata7636">
    <rdf:RDF>
      <cc:Work
         rdf:about="">
        <dc:format>image/svg+xml</dc:format>
        <dc:type
           rdf:resource="http://purl.org/dc/dcmitype/StillImage" />
        <dc:title></dc:title>
      </cc:Work>
    </rdf:RDF>
  </metadata>
  <path
     id="path3903"
     d="m 352.56951,21.28059 c -7.2544,-0.0148 -13.395,0.0177 -17.963,0.0177 l 0,0.0177 c -65.2491,0 -134.9064,7.55544 -195.2501,27.66992 l -0.029,0 -0.03,0 c -14.2885,5.24734 -29.3608,18.2497 -41.816005,34.302427 -12.4205,16.00793 -22.2018,35.055603 -25.6378,52.680083 -26.09869,78.31632 -17.02429,118.21098 -17.02459,192.44641 0,8.91967 0.5754,52.27061 1.7678,94.63404 0.5961,21.18157 1.348,42.10551 2.2568,58.33952 0.4543,8.11671 0.948,15.05904 1.4854,20.29488 0.2683,2.61792 0.5442,4.80635 0.8404,6.52313 0.296,1.7168 0.5415,2.89266 1.0365,3.84009 4.93689,9.4494 10.05659,14.69231 15.07289,17.47355 1.3256,0.73487 2.6371,1.28552 3.9264,1.7044 -0.6656,4.55845 0.8531,13.49877 4.157,21.4059 3.1856,7.62384 3.6148,12.60912 1.5487,18.04366 -1.6351,4.30081 -2.3656,6.58829 -1.353,6.91461 -39.39649,79.36365 -18.6368,162.85425 -18.6368,240.58365 0,9.7911 0.4546,27.5111 2.0611,45.1379 1.6066,17.6268 4.2693,35.0627 9.0969,44.7174 6.6664,13.3328 9.5635,21.5961 13.2131,29.023 3.6497,7.4269 8.0663,13.9392 17.514005,23.3865 0.7581,0.7582 1.6168,1.4701 2.5218,2.1589 1.1859,2.4638 4.3276,4.3171 9.4305,5.5445 0.5701,0.1385 1.4164,0.2975 2.09,0.4434 2.3517,0.8696 4.8461,1.6696 7.4959,2.395 9.2336,2.5284 20.1083,4.2198 31.3376,5.3659 22.4585,2.2925 46.3264,2.3874 60.9247,2.378 17.1985,-0.03 40.0403,-0.2975 59.7904,-1.4509 9.8749,-0.5769 18.9726,-1.366 26.2363,-2.4644 4.3604,-0.6591 7.924,-1.3972 10.7836,-2.3258 13.2412,0.4434 31.7112,0.7081 54.4994,0.7081 60.9859,0 85.0506,-1.4804 80.4479,-5.2046 29.4039,1.952 62.253,6.5402 91.0933,1.445 -0.2214,0.3926 -0.2624,0.7523 -0.069,1.065 2.1396,3.461 94.7712,3.55 96.9083,0.091 0.4004,-0.6479 0.2051,-1.9464 -0.403,-3.535 8.8257,2.6183 21.9453,5.0239 33.0761,4.4388 12.2186,2.113 62.3257,2.2839 71.6046,-0.2004 l 1.969,-0.5241 c 35.1988,0.4215 63.8406,-0.3196 89.1128,-6.1373 27.9634,-6.4371 51.8435,-19.1358 75.8593,-43.1517 5.5799,-5.5799 7.3782,-13.2783 6.6958,-20.5825 -0.6824,-7.3043 -3.784,-14.3026 -8.3194,-18.8381 -9.0077,-9.0078 -14.8144,-22.4812 -25.9543,-31.0091 0.01,-0.035 0.015,-0.069 0.024,-0.1038 9.1047,-4.5779 16.4995,-8.4012 26.9791,-11.8949 12.559,-4.1861 21.49579,-13.3413 26.97329,-24.5783 5.4777,-11.2363 7.558,-24.5674 6.5462,-37.3881 -1.0118,-12.8211 -5.1111,-25.1543 -12.1826,-34.3717 -5.03949,-6.5689 -11.73659,-11.3343 -19.74209,-13.5816 0.6358,-1.099 1.2571,-2.2524 1.8654,-3.5294 1.8947,-3.9775 3.2179,-7.6171 3.8459,-10.1619 5.6216,-7.9457 9.4176,-17.5263 11.0081,-27.5087 2.76779,-17.3695 -0.8801,-35.7409 -12.8677,-47.7287 -3.9294,-3.9294 -11.1353,-5.8887 -18.5388,-7.5077 -3.9589,-0.8654 -7.5874,-1.5985 -10.9505,-2.3143 l -3.7538,-3.4834 c 14.3186,-13.9341 21.2468,-31.05158 34.8667,-44.6715 2.0914,-2.09116 3.0166,-5.02036 3.4314,-8.23286 0.4147,-3.21279 0.3217,-6.77989 0.1786,-10.398 -0.2862,-7.23621 -0.6668,-14.67759 1.5372,-19.08569 25.42239,-50.8445 14.51959,-103.78692 -19.9263,-131.77492 6.1411,-1.18117 4.613,-5.07755 -4.6404,-9.86238 -8.6892,-4.4936 -15.3404,-5.42539 -19.1779,-2.87291 0.6056,-2.06699 1.1651,-4.33175 1.6639,-6.82264 l 0.012,-0.046 0.01,-0.0574 c 0.7373,-5.81774 1.1037,-9.32383 1.3876,-12.29225 1.9925,3.61723 5.2121,3.40382 11.3362,1.05384 2.5993,-0.99752 3.5088,-1.89984 2.4987,-4.58291 0.037,-0.0148 0.072,-0.0235 0.1093,-0.0403 l 0.8694,-0.35698 0.04,-0.94418 c 1.6597,-38.42343 13.1146,-93.13895 21.3138,-141.99427 4.0997,-24.42765 7.3868,-47.40059 8.2158,-66.23307 0.8235,-18.70721 -0.6254,-33.33763 -6.7074,-41.52214 0,0.003 0.046,0.0864 0.046,0.0864 l -0.1612,-0.25912 c 0.041,0.0542 0.074,0.11791 0.1153,0.17275 -0.2332,-0.49876 -23.1423,-49.34555 -62.7843,-62.55986 -9.8689,-3.28942 -19.0864,-4.82875 -27.359,-5.28507 -24.8181,-1.36954 -41.1423,6.99507 -41.1423,6.99507 l 0.6794,1.31855 c -0.2606,0.0571 -0.5221,0.12171 -0.8003,0.23022 -2.088,0.81506 -8.9481,12.18112 -15.2456,25.257767 -6.2974,13.076643 -15.2513,27.937583 -19.8975,33.024273 -4.6462,5.08699 -8.4461,10.42188 -8.4461,11.85449 0,6.06035 -43.6724,46.96493 -61.8976,57.97666 -25.3054,15.28983 -34.129,17.69257 -65.0008,17.69257 -22.7573,0 -26.5203,-0.82686 -38.3385,-8.44038 -21.8833,-14.09716 -37.216,-30.32764 -40.7622,-43.14577 -1.7941,-6.48511 -3.2729,-25.38775 -3.2817,-42.00587 -0.012,-23.784753 -0.8821,-30.214743 -4.0993,-30.214743 -4.352,0 -6.0577,8.64496 -9.3672,47.544443 -4.5567,53.55704 15.3899,76.12288 74.8574,84.6968 39.8722,5.74877 89.0385,-4.42816 108.7743,-22.5169 4.8169,-4.4149 13.5974,-11.73394 19.5175,-16.26468 5.9201,-4.53104 13.3791,-13.3614 16.5755,-19.62691 3.1964,-6.26551 11.1536,-17.56023 17.6809,-25.10242 6.5274,-7.5413 11.8718,-16.12259 11.8718,-19.0624 0,-5.67123 12.7663,-30.668413 19.9896,-39.13886 3.7053,-4.34502 3.4055,-10.54274 0.57,-12.35532 6.7949,-2.87675 31.5578,-11.51639 64.189,-0.63909 38.0697,12.68991 61.0974,61.10897 61.0974,61.10897 l 0.063,0.14377 0.092,0.12084 c 5.2479,6.91666 7.0423,21.19424 6.2237,39.78942 -0.8186,18.59489 -4.0832,41.48647 -8.1755,65.87021 -8.0553,47.99751 -19.2392,101.63738 -21.1929,140.39362 -0.6335,-1.12429 -1.2193,-2.18578 -2.1705,-3.72511 -4.1455,-6.70738 -5.4782,-11.1712 -5.6941,-31.77471 0.1417,-1.43292 0.3991,-3.63698 0.4145,-4.21445 0.048,-1.81878 0.033,-2.96162 -0.086,-3.77109 -0.03,-0.2034 -0.059,-0.38291 -0.1382,-0.61049 -0.04,-0.1144 -0.071,-0.27149 -0.1786,-0.44334 0.01,-6.29469 0.015,-12.48002 0.1153,-21.49787 0.6234,-56.44968 -1.6566,-80.06317 -7.1967,-74.51221 -3.4878,3.4949 -3.5635,101.32257 -0.1038,133.41594 0.2798,2.5958 0.5752,4.73826 0.8924,6.67289 -0.5032,4.92042 -1.1417,10.70015 -2.2281,19.27553 -1.5313,7.62797 -3.5992,12.92011 -5.8437,16.54118 -4.4392,3.26318 -11.2184,4.89272 -14.9059,2.61379 -6.0848,-3.76048 -9.024,-25.02577 -9.4133,-68.12143 -0.2187,-24.22338 -1.2998,-50.67646 -2.4009,-58.78286 l -2.0035,-14.7389 -2.349,15.5796 c -1.2929,8.56891 -1.8895,42.83508 -1.3242,76.14706 l 1.0305,60.56775 -6.9606,5.65354 c -8.3443,6.77901 -13.264,7.11742 -19.0627,1.31854 -5.0033,-5.00326 -6.9265,-21.17066 -9.8221,-82.62421 -2.7966,-59.35237 -6.4833,-40.0789 -6.7707,35.37336 -0.2229,58.48867 -1.6481,66.26433 -13.5759,74.10336 -5.1399,3.37874 -6.9623,3.35133 -11.7911,-0.18423 -5.3386,-3.90906 -5.7179,-8.29035 -5.7574,-67.05641 l -0.04,-62.87054 -12.0502,-25.26335 c -11.1838,-23.45431 -13.2353,-25.93458 -28.6948,-34.65942 -9.1586,-5.16894 -16.6503,-10.19784 -16.6503,-11.17503 0,-0.97837 4.9743,-0.92355 11.0541,0.12083 l 11.0542,1.89424 -7.3694,-5.92445 c -7.8949,-6.34951 -19.1296,-7.92864 -22.1084,-3.10902 -2.5913,4.19292 -15.3437,3.59305 -32.1607,-1.50838 -7.9588,-2.41453 -21.887,-4.36212 -30.9517,-4.3297 -38.6527,0.13705 -98.749,13.59516 -113.0059,25.30964 -4.4498,3.65613 -10.7973,7.51124 -14.1056,8.56124 -3.3083,1.04999 -8.9487,6.25872 -12.5396,11.57799 -3.5909,5.31927 -13.092,19.36043 -21.1123,31.1993 -14.4382,21.31275 -28.1594,58.44978 -28.1594,76.21634 0,9.44528 -9.9622,29.36961 -18.2336,36.47288 -3.7557,3.22517 -10.8761,5.15861 -19.0051,5.15861 -18.4234,0 -20.9411,-6.42674 -16.2646,-41.55102 1.9491,-14.63956 5.5827,-32.17149 8.0718,-38.96022 2.4891,-6.78873 6.5678,-20.96608 9.0679,-31.50439 2.5001,-10.53832 8.1819,-28.44609 12.6202,-39.79504 4.4383,-11.34895 9.7573,-28.51123 11.8199,-38.13691 2.0626,-9.62597 6.1845,-22.22772 9.1657,-28.00389 2.9812,-5.77648 6.9941,-17.13398 8.9125,-25.24037 1.9183,-8.1064 6.0249,-22.69791 9.1312,-32.42558 3.1063,-9.72768 6.7892,-21.66618 8.1812,-26.53003 1.3921,-4.86383 6.4775,-20.1186 11.3017,-33.89946 4.8243,-13.780883 9.5519,-29.36726 10.5073,-34.63642 1.6411,-9.05087 1.2553,-9.58028 -7.0298,-9.58028 -7.5719,0 -8.7893,1.10718 -8.8951,8.10638 -0.074,4.91927 -4.1009,12.60943 -10.2424,19.563537 l -10.1215,11.46304 -61.2413,-2.02661 c -81.6859,-2.70193 -132.6973,1.21656 -164.8452,12.666323 -30.7996,10.96957 -67.1608,35.06827 -65.6459,43.50835 1.0795,6.01348 -0.5179,9.89127 -4.0762,9.89127 -2.1074,0 -9.0715,10.76413 -15.4759,23.92183 l -11.6413,23.92213 0.04,63.77432 c 0.029,44.99934 1.2233,67.89651 4.0647,77.77658 5.8422,20.31464 10.2488,17.75832 7.8587,-4.55992 -3.7784,-35.28226 -4.4293,-97.85126 -1.1917,-114.76178 3.8931,-20.33585 30.5369,-69.26163 41.3034,-75.84786 4.0823,-2.49736 13.0395,-8.78733 19.909,-13.97306 14.83,-11.19508 24.2584,-14.52136 51.8222,-18.29127 11.349,-1.55201 29.6353,-4.70555 40.6356,-7.00658 11.0004,-2.30103 26.4117,-3.56858 34.2507,-2.81543 7.9323,0.7623 15.0617,0.0592 16.0804,-1.58915 2.8287,-4.57671 50.6336,-0.89406 74.109,5.71133 30.5393,8.59279 40.0655,24.34454 22.8971,37.8492 -6.9561,5.47167 -11.6632,6.29498 -34.6364,6.068 -30.6206,-0.30391 -101.294,1.97443 -116.4891,3.75401 -22.7462,2.66331 -35.7601,8.24906 -47.5674,20.41573 -32.8955,33.89682 -48.3177,73.53708 -46.7156,120.09314 0.4186,12.15959 1.1697,70.83987 1.664,130.39888 0.9946,119.80074 1.3802,117.21465 -17.681,117.21465 -15.7701,0 -18.7025,-6.15467 -20.381,-42.74281 -2.6005,-56.68788 -10.8322,-123.68473 -16.3684,-133.20281 -2.4036,-4.13279 -3.1651,-0.66709 -3.3508,15.2916 -1.3887,119.93426 -2.6957,133.07489 -14.1458,142.23039 -6.4491,5.15685 -36.368205,4.71233 -43.451105,-0.64498 -0.1252,-0.0947 -0.2535,-0.17716 -0.38,-0.2703 0.1527,-0.006 0.3216,0.003 0.4722,-0.006 l -0.1668,-2.94188 c -1.6687,0.0964 -3.4029,0.0693 -5.1819,-0.14975 -1.1588,-0.60665 -2.1531,-1.03231 -2.6713,-1.05382 -0.3278,-0.0148 -0.6064,0.11528 -0.8578,0.30539 -1.1844,-0.37289 -2.3824,-0.85102 -3.6098,-1.53168 -4.3872,-2.4325 -9.129,-7.15219 -13.887,-16.25877 -0.1179,-0.22697 -0.4655,-1.36925 -0.7426,-2.97666 -0.2771,-1.60743 -0.553,-3.74959 -0.81769,-6.32711 -0.5288,-5.1548 -1.0208,-12.06498 -1.4739,-20.15664 -0.9058,-16.18301 -1.6552,-37.09251 -2.2509,-58.25904 -1.1915,-42.33365 -1.7675,-85.75623 -1.7678,-94.54768 0,-74.48628 -9.0674,-113.68644 16.88669,-191.54822 l 0.029,-0.0919 0.029,-0.0979 c 3.2844,-17.01688 12.8951,-35.82696 25.1136,-51.574593 C 112.04221,69.36303 126.88931,56.70349 140.31051,51.76654 c 59.9033,-19.96384 129.287,-27.52047 194.3003,-27.52047 18.3308,0 61.6928,-0.54269 100.4088,3.63313 19.3579,2.08792 37.5602,5.3747 50.7628,10.4151 6.6013,2.52007 11.9371,5.48523 15.5449,8.85484 3.6079,3.3696 5.4926,7.04254 5.4926,11.33628 l 1.4624,0 1.042,1.07063 c 20.6107,-20.10593 44.0299,-27.22246 65.5191,-27.17469 l 0.01,0 c 2.0332,0 3.8761,1.11337 5.6077,3.05713 1.7315,1.94407 3.2422,4.66045 4.4216,7.40984 1.121,2.61291 1.9316,5.21639 2.4584,7.24269 -1.2889,2.2297 -1.7965,5.08876 -1.186,7.59408 0.8195,3.36283 -0.427,8.69005 -2.7635,11.8371 -2.3366,3.14735 -4.2432,8.17213 -4.2432,11.16944 0,2.997297 -2.653,10.651217 -5.8956,17.007207 -7.8343,15.356463 -7.4514,33.170783 1.2781,58.973003 3.948,11.66909 7.5959,21.5633 8.1064,21.9872 0.5106,0.4236 6.902,2.89649 14.1978,5.4926 27.5321,9.79635 66.3483,-1.6369 87.6216,-25.80458 16.252,-18.46312 20.3085,-26.90498 15.6312,-32.54053 -5.5461,-6.68263 -7.4712,-5.81479 -19.4023,8.74547 -8.9959,10.97841 -10.2421,14.03113 -7.2083,17.68668 2.9507,3.55531 2.8864,4.41577 -0.3224,4.41577 -2.1931,0 -11.7103,4.77127 -21.1526,10.59933 -25.6932,15.85877 -41.8421,9.23245 -27.1691,-11.14615 7.1493,-9.92959 28.0293,-44.71723 43.1689,-71.927013 7.917,-14.229227 14.3603,-30.202957 15.3894,-37.256107 0.4145,-0.17244 0.7678,-0.39501 1.094,-0.65647 0.8261,-0.66178 1.5985,-1.55407 2.3432,-2.48143 0.7447,-0.92709 1.4386,-1.88393 1.9575,-2.6253 0.2594,-0.37053 0.4732,-0.68506 0.6276,-0.90969 0.024,-0.0354 0.037,-0.051 0.057,-0.0805 0.1344,-0.0412 0.3387,-0.091 0.6218,-0.13823 0.6234,-0.10607 1.5264,-0.19984 2.5908,-0.27059 2.1287,-0.14144 4.9125,-0.19633 7.7149,-0.17275 2.8024,0.0295 5.6317,0.12317 7.8588,0.2765 1.1136,0.0767 2.075,0.16449 2.7923,0.26472 0.7174,0.0973 1.2956,0.29743 1.117,0.20723 5.7596,2.87998 7.4285,6.38518 8.6879,10.33462 1.149,3.60336 1.8034,7.6769 4.675,11.13465 -3.6877,6.04324 -7.8358,15.51417 -7.8358,19.41968 0,2.178397 -2.0786,5.682727 -4.6175,7.789817 -6.4417,5.34608 -13.6702,20.066133 -11.5435,23.507363 4.0446,6.54407 10.2633,1.93521 17.0246,-12.614443 3.9553,-8.51171 8.0971,-19.455347 9.2003,-24.319187 1.0132,-4.46707 2.3855,-9.88803 3.2644,-12.98291 1.4607,-0.62965 3.1343,-1.53785 4.8477,-2.53893 3.5709,-2.08673 7.4027,-4.59087 8.4576,-5.11851 9.0971,-4.54843 18.3406,-3.80736 26.6682,-1.08214 8.3276,2.72493 15.637,7.45375 20.5539,10.73169 l 1.6351,-2.45255 c -4.947,-3.29827 -12.4758,-8.20397 -21.2735,-11.08307 -8.7978,-2.8791 -18.9708,-3.71627 -28.9021,1.24927 -1.6683,0.83422 -5.1619,3.18361 -8.6303,5.2105 -0.945,0.55212 -1.8596,1.05531 -2.7175,1.50278 0,-1.52194 -0.4826,-2.59669 -1.4336,-2.59669 -0.6918,0 -1.754,1.08565 -2.9478,2.71165 -1.8448,-2.64062 -2.4876,-5.82982 -3.6156,-9.36716 -1.3555,-4.2507 -3.7203,-8.83803 -10.1791,-12.06762 -0.689,-0.3443 -1.2099,-0.38262 -2.0323,-0.49494 -0.8225,-0.11206 -1.8382,-0.2084 -2.9939,-0.288 -2.3114,-0.15917 -5.1825,-0.25851 -8.0373,-0.28209 -2.8548,-0.0295 -5.6851,0.0295 -7.9336,0.17863 -1.1243,0.0736 -2.1006,0.16803 -2.896,0.3051 -0.3978,0.0678 -0.7487,0.14709 -1.0824,0.25321 -0.3337,0.10607 -0.6527,0.17981 -1.0709,0.5987 -0.319,0.31894 -0.1984,0.23877 -0.2532,0.31688 -0.055,0.0767 -0.1229,0.17275 -0.2016,0.28771 -0.1568,0.22698 -0.3666,0.5303 -0.6161,0.88668 -0.4989,0.71278 -1.1572,1.62983 -1.8366,2.47555 -0.5105,0.63584 -0.9789,1.09451 -1.422,1.52017 0,-0.002 0,-0.003 -0.01,-0.006 -0.4149,-0.41476 -0.9196,-0.59103 -1.4682,-0.6102 -4.7417,-5.30422 -6.6817,-10.2226 -10.0697,-14.25546 -1.8684,-2.22381 -4.273,-4.11216 -7.7494,-5.36584 -3.4763,-1.25341 -7.9976,-1.91134 -14.2956,-1.91134 -8.1388,0 -22.3594,2.24414 -34.7746,6.45977 -6.2075,2.10765 -11.9464,4.7014 -16.2415,7.85317 -4.0777,2.99171 -6.932,6.61217 -7.214,10.83515 -0.5243,0.2379 -1.0815,0.58072 -1.6812,1.04234 -0.5098,-1.78605 -1.1153,-3.72334 -2.0151,-5.82097 -1.2577,-2.93187 -2.8643,-5.89292 -4.9283,-8.20988 -2.0627,-2.31577 -4.6924,-4.03964 -7.807,-4.0417 l -0.01,0 c -21.3908,-0.0457 -44.7547,6.91668 -65.3924,25.98881 -0.7486,-3.92231 -2.8994,-7.42988 -6.1143,-10.43248 -4.0318,-3.7655 -9.6901,-6.84328 -16.5122,-9.44764 -13.6442,-5.20901 -32.006,-8.48608 -51.494,-10.58784 -29.2321,-3.15294 -60.9989,-3.63195 -82.7624,-3.67323 z m 296.9428,2.98227 c 6.0912,0 10.2869,0.64643 13.2996,1.733 3.0127,1.08625 4.875,2.57605 6.4886,4.49654 2.8013,3.33423 4.7223,8.19218 9.3384,13.57571 -2.6268,2.01538 -5.1701,6.14848 -5.1701,9.77601 0,3.04418 -2.5234,8.05069 -5.6019,11.12905 -5.8265,5.82659 -34.9698,49.36529 -41.6374,62.20288 -6.0774,11.70121 -26.9975,35.37335 -31.2626,35.37335 -11.1824,0 -18.01,-45.08187 -10.0121,-66.117813 1.6642,-4.37746 3.0284,-11.14527 3.0284,-15.038097 0,-3.89284 2.1743,-11.64403 4.8362,-17.22625 4.0861,-8.56889 4.1954,-16.10166 1.4163,-17.77864 0.3097,-2.93835 2.4088,-5.74965 6.0049,-8.3888 3.9008,-2.8623 9.4109,-5.3909 15.4414,-7.43842 12.0608,-4.09506 26.2474,-6.29852 33.8303,-6.29852 z m -117.7672,26.69126 c -3.2053,0.16154 -5.786,4.67605 -3.9726,9.40165 1.0372,2.70311 2.9285,4.91689 4.2029,4.91689 3.963,0 6.245,-9.66842 3.0399,-12.87354 -1.0671,-1.0671 -2.2018,-1.49894 -3.2702,-1.445 z m -160.1474,123.62813 c 5.8701,-0.0655 12.519,0.17716 20.5769,0.63347 30.1899,1.70942 45.4718,6.37871 45.4718,13.8867 0,1.5582 -3.6479,6.8415 -8.1064,11.73925 -6.9729,7.66009 -11.8159,9.53813 -34.6364,13.42625 -79.8452,13.60311 -116.8226,34.88519 -128.0386,73.69449 -6.8017,23.53537 -9.5349,63.85511 -10.4036,153.61265 -0.489,50.51227 -1.7878,93.29193 -2.8844,95.06591 -3.1915,5.16421 -17.9641,3.72451 -23.398,-2.27982 -4.3878,-4.8485 -5.1474,-16.54442 -6.379,-98.01369 -0.7694,-50.87957 -1.9691,-105.7746 -2.6657,-121.98739 -1.2401,-28.86997 -1.024,-30.08562 10.559,-58.95559 6.5045,-16.2128 13.6299,-32.27407 15.8328,-35.69585 7.2241,-11.22072 30.1829,-24.0928 46.5254,-26.08077 8.4508,-1.0279 21.3357,-4.325 28.6315,-7.32937 20.6937,-8.52173 31.3044,-11.51991 48.9147,-11.71624 z m 25.4361,60.11879 c 25.125,0.62228 33.8646,13.19485 17.7673,31.10113 -7.45,8.2871 -10.3308,9.24778 -35.5806,11.83741 -20.7982,2.13301 -30.8267,4.72854 -41.2689,10.67981 -22.4687,12.80574 -27.0562,18.16215 -27.1231,31.71162 -0.033,6.60775 -1.3811,20.63799 -2.9996,31.17631 -5.1573,33.5823 -6.7871,119.98821 -2.7578,146.15684 3.0596,19.8704 2.9858,25.25185 -0.4375,32.42557 -4.5162,9.46385 -17.0755,13.12884 -22.4136,6.54054 -6.8851,-8.49786 -11.0556,-130.67125 -5.3888,-157.82709 2.0661,-9.90483 3.1164,-24.6906 2.3317,-32.85743 -0.9262,-9.63953 0.1913,-18.88997 3.1839,-26.36878 2.5354,-6.33655 3.8651,-14.35599 2.9592,-17.81932 -5.9657,-22.81318 42.3972,-57.15276 91.8188,-65.19635 7.4398,-1.21094 14.1109,-1.70411 19.909,-1.56026 z m 229.2245,23.63382 c 9.563,0.097 19.4144,0.98721 29.5238,2.66568 13.7809,2.28836 31.4243,6.91903 39.2078,10.29424 20.9588,9.0883 44.7719,30.94786 51.9834,47.71158 5.5678,12.94252 5.8129,16.16357 2.7981,37.18684 -5.2814,36.82927 -11.6043,38.5269 -36.3349,9.75303 -40.6918,-47.34489 -47.7455,-51.52278 -87.1322,-51.52278 -35.3676,-0.006 -51.7067,6.19506 -64.0163,24.30769 -16.8035,24.72538 -30.3126,54.31197 -30.3126,66.38254 0,15.56811 -3.7328,21.23226 -17.6637,26.80651 -6.5652,2.62677 -12.2419,4.57113 -12.6144,4.32941 -0.3725,-0.2429 -4.1849,-0.976 -8.4749,-1.63514 -19.2647,-2.96016 -23.8017,-21.78085 -14.0998,-58.50636 5.3138,-20.11506 9.4725,-29.00969 19.0742,-40.79697 6.753,-8.29005 15.0276,-20.46468 18.3891,-27.05385 7.0785,-13.8749 9.4078,-16.03061 31.9304,-29.59306 22.928,-13.80652 49.0528,-20.61972 77.742,-20.32936 z m -241.1365,32.3681 c 14.8466,0.62611 20.0368,14.21655 6.6152,24.77403 -12.9387,10.1775 -24.9069,29.39939 -27.7966,44.63706 -1.5213,8.02149 -2.985,40.13902 -3.2529,71.3743 -0.5852,68.24376 -2.7845,83.82838 -13.1038,92.90105 -7.0643,6.21067 -24.7484,9.33414 -25.0331,4.42167 -0.07,-1.21596 -0.7368,-24.0981 -1.4855,-50.84921 -0.7486,-26.75109 -1.8967,-61.90338 -2.5505,-78.11617 -0.6538,-16.21278 -0.099,-33.4573 1.2379,-38.32114 1.3364,-4.86383 3.2699,-13.83422 4.295,-19.9379 1.0853,-6.46183 5.4979,-14.81761 10.5648,-20.00098 4.7859,-4.89567 8.7051,-10.89469 8.7051,-13.32839 0,-4.72234 18.677,-13.81742 34.8782,-16.98421 2.4891,-0.48668 4.8052,-0.65943 6.9262,-0.57011 z m 229.3223,37.44034 c 2.0526,-0.0466 4.2449,0.0988 6.7246,0.39707 30.9562,3.72687 37.8058,6.74835 54.5743,24.06037 l 16.2588,16.7826 -1.9057,26.81212 c -1.0972,15.45757 -3.7224,29.58746 -6.2007,33.36976 -6.4167,9.7931 -35.6326,25.63183 -42.9789,23.30013 -3.5616,-1.13047 -8.9929,0.003 -13.1786,2.74645 -8.5519,5.60344 -5.0027,6.08156 -27.7851,-3.74811 -10.4389,-4.5039 -19.5607,-10.09408 -20.2718,-12.41869 -0.7111,-2.32492 -4.0648,-7.26657 -7.45,-10.98521 -8.329,-9.14902 -12.1365,-45.3339 -6.0856,-57.80979 2.2833,-4.7076 4.1511,-10.89942 4.1511,-13.76024 0,-8.48519 3.281,-14.52578 7.8934,-14.52578 2.375,0 10.2058,-3.44771 17.3988,-7.66305 7.7815,-4.55962 12.6976,-6.4182 18.8554,-6.55763 z m 20.7324,23.19638 c -3.233,-0.22168 -6.0174,0.57481 -7.1853,2.46434 -3.1745,5.13652 -17.7945,5.84839 -23.0583,1.12252 -10.3717,-9.31233 -3.4551,8.55918 9.114,23.54774 6.5381,7.79659 11.3537,6.35248 24.3306,-7.28897 10.8848,-11.4424 11.4263,-12.74973 6.6901,-16.21279 -2.9726,-2.17368 -6.6582,-3.41116 -9.8911,-3.63284 z m 265.7377,61.75363 c 35.21909,26.48699 47.11839,79.07214 21.6075,130.09408 -2.8104,5.62083 -2.126,13.34667 -1.8424,20.51921 0.1417,3.58627 0.2102,7.03134 -0.1612,9.90837 -0.3715,2.87704 -1.1802,5.11263 -2.5908,6.52315 -12.8476,12.8476 -23.1951,17.4028 -35.8685,26.45515 -0.815,-1.35275 -4.5503,0.46133 -11.3594,5.47519 -13.3031,9.7961 -50.9592,28.0213 -57.9019,28.0213 -7.4442,0 -12.5742,-5.6556 -12.5742,-13.8581 0,-10.2895 -4.0409,-8.1547 -10.8987,5.7517 -7.7427,15.7008 -25.5594,36.4697 -35.8282,41.7698 -9.4441,4.8741 -68.2081,20.498 -94.7838,25.2002 -13.3386,2.36 -23.1655,2.4947 -32.2701,0.449 -7.1994,-1.6166 -13.9217,-2.426 -14.9404,-1.7964 -1.0188,0.6297 -43.5408,1.794 -94.4902,2.5852 -82.5172,1.2811 -94.0794,0.8879 -105.8956,-3.6042 -11.2105,-4.2622 -13.4024,-6.4106 -14.1401,-13.8752 -0.6613,-6.6915 1.3333,-10.9493 8.2273,-17.5544 l 9.1024,-8.7165 18.9361,6.7937 c 20.7859,7.4546 30.9344,6.4648 30.9344,-3.0226 0,-4.1759 -1.3517,-5.4682 -4.4217,-4.226 -2.4319,0.9843 -6.3287,2.5607 -8.6591,3.5061 -6.6131,2.6819 -18.0554,-22.1467 -16.7367,-36.3175 0.1866,-2.0063 5.9286,-7.1767 12.7641,-11.4917 17.2506,-10.88995 46.7182,-12.95752 60.5331,-4.24889 11.9355,7.52359 12.447,16.39109 1.9806,34.25059 -8.5155,14.5308 -7.5451,19.0397 4.105,19.0397 4.3735,0 12.2555,1.2324 17.514,2.7405 5.2584,1.5081 9.563,2.3232 9.563,1.8079 0,-0.5156 -4.0868,-9.6664 -9.0794,-20.3353 -4.9926,-10.6692 -8.6313,-21.7643 -8.0834,-24.6531 1.4057,-7.4102 13.4346,-8.0174 30.635,-1.5485 16.48,6.198 17.6668,11.5355 5.4408,24.463 -3.9171,4.142 -7.1219,8.9598 -7.1219,10.7087 0,4.3029 11.4447,7.0155 20.266,4.8017 5.733,-1.4391 8.8231,0.2107 15.3377,8.1927 12.3712,15.1578 12.9991,8.7738 1.3645,-13.8981 -5.7248,-11.1556 -10.4178,-21.9416 -10.4267,-23.9682 -0.01,-2.6214 6.3677,-3.6847 22.0969,-3.6847 15.7588,0 22.089,1.0583 22.0392,3.6847 -0.039,2.0266 -3.3507,11.6438 -7.3579,21.3715 -4.0072,9.7276 -7.2915,18.6815 -7.3004,19.8975 -0.021,3.3472 11.6166,2.6515 22.7071,-1.3587 8.3797,-3.0303 11.3381,-2.7871 19.5061,1.6119 5.2947,2.8514 11.6266,4.4155 14.071,3.4775 7.0592,-2.7087 14.5046,-17.3147 11.3593,-22.2867 -6.5722,-10.3901 2.8818,-20.0443 10.0409,-10.2539 2.1888,2.9935 9.2339,5.7114 17.0994,6.5977 12.8651,1.4501 13.6389,1.0916 20.1278,-9.4075 5.2848,-8.5509 8.2123,-10.6406 13.5184,-9.6263 13.9183,2.6607 14.2169,-2.6671 0.9096,-16.1783 -15.7926,-16.03443 -20.2832,-21.72954 -20.2832,-25.72378 0,-1.68966 -1.4188,-3.07453 -3.1493,-3.07453 -1.7389,0 -2.3982,2.63767 -1.4739,5.89556 l 3.345,11.79113 c 0.9199,3.24255 2.9097,5.89556 4.4217,5.89556 4.2998,0 3.2268,7.72696 -1.6351,11.76226 -2.4918,2.0678 -4.084,7.4988 -3.6847,12.5684 1.056,13.408 -5.4485,13.1232 -18.1703,-0.7944 -9.4109,-10.2954 -12.5021,-12.0172 -18.3315,-10.1964 -9.7062,3.0321 -11.3362,6.4837 -11.3881,24.0716 -0.026,8.5276 -1.5857,16.2529 -3.5236,17.4505 -4.3011,2.6584 -35.1099,-30.8741 -34.0606,-37.0715 0.4432,-2.6174 7.9709,-6.1523 19.126,-8.9816 10.1172,-2.5661 20.0539,-6.4421 22.0853,-8.61313 3.0446,-3.25347 2.4016,-3.58362 -3.6732,-1.89425 -44.7521,12.44408 -78.5805,13.05778 -122.3329,2.22234 -12.9702,-3.21221 -34.8575,-7.45554 -48.6383,-9.43055 -22.1565,-3.17534 -26.2501,-3.02148 -35.3734,1.34154 -17.5001,8.36935 -29.8324,15.71965 -36.4269,21.71685 -16.2563,14.7832 -28.3393,15.0349 -34.2737,0.7081 -4.3254,-10.4422 -2.0054,-15.04164 12.5625,-24.92379 34.7334,-23.5616 54.81,-27.09746 108.2504,-19.0512 21.8872,3.29532 50.7828,8.54266 64.2178,11.65876 13.4351,3.11581 28.4165,5.66535 33.2892,5.66535 14.2162,0 51.883,-8.60547 65.4212,-14.94614 13.3599,-6.25726 17.0707,-8.31244 54.4936,-30.19765 31.7731,-18.58132 40.0513,-20.90182 52.8816,-14.81348 14.819,7.03193 18.9046,17.53311 18.8554,48.43085 -0.045,28.5605 3.8495,32.8996 7.0297,7.83579 2.8076,-22.12633 4.416,-26.44336 9.1715,-24.61838 4.9385,1.89512 5.4702,-1.62335 0.9327,-6.16058 -2.3293,-2.32933 -2.2832,-4.9732 0.1669,-9.55138 2.7772,-5.18928 2.2614,-8.16064 -2.8787,-16.47751 -10.5916,-17.1378 -21.6102,-23.08907 -38.9314,-21.03771 -15.921,1.88569 -48.0252,15.58903 -62.6519,26.74314 -13.52,10.31044 -41.9367,23.91063 -64.4999,30.87121 -27.1862,8.38673 -68.8529,8.77968 -78.7783,0.74255 l -6.7822,-5.4926 6.241,-3.33925 c 5.872,-3.14262 15.1386,-3.93616 43.8367,-3.7652 19.0303,0.11382 65.626,-17.33707 86.1074,-32.24723 9.853,-7.17314 18.6687,-15.15572 19.5924,-17.73857 3.2554,-9.10274 27.2219,-23.04102 50.2102,-29.20129 14.1849,-3.80117 29.0462,-10.33992 38.8277,-17.08209 8.7164,-6.00758 20.1306,-13.21637 25.3613,-16.02296 5.2307,-2.80629 11.5836,-7.62531 14.1171,-10.7028 2.5335,-3.07777 8.7903,-6.51134 13.9041,-7.63445 5.1137,-1.1234 14.0396,-5.26385 19.8399,-9.20032 5.8004,-3.93617 14.4666,-7.15632 19.2585,-7.15632 0.1294,0 0.2134,-0.0148 0.3397,-0.0177 z m -166.4747,3.43151 c 2.0824,0.1277 4.1585,1.05324 6.8916,2.51593 16.2734,8.70922 5.3084,46.58702 -20.4733,70.71223 -7.7967,7.29577 -25.0728,19.71771 -38.3902,27.60656 -20.834,12.34177 -27.9894,14.9137 -51.2465,18.40652 -49.9416,7.49975 -66.7534,3.8896 -77.0337,-16.52937 -4.684,-9.30085 -7.5043,-30.56437 -4.6635,-35.16054 2.8897,-4.67577 36.6934,-9.33562 53.1982,-7.33496 7.2957,0.88434 20.6694,-0.14144 29.7196,-2.27392 21.5016,-5.06575 61.1982,-26.77232 81.2079,-44.40683 11.6104,-10.23233 16.2086,-13.81654 20.7899,-13.53562 z m -257.4759,37.8722 c 14.774,0.0235 21.053,1.6876 33.6404,8.90643 13.1861,7.56222 15.4758,10.16393 15.4758,17.6003 0,6.93613 -1.5126,9.0435 -7.3695,10.25975 -26.0336,5.40504 -25.0086,4.29314 -10.5129,11.36517 14.5214,7.08469 19.7489,13.46546 16.967,20.71493 -1.2298,3.20483 -5.3393,4.82463 -12.2575,4.82463 -14.4701,0 -12.9912,5.09053 3.5926,12.37272 16.0377,7.04224 19.7278,11.15882 14.6007,16.28766 -2.8458,2.84697 -6.6582,2.69133 -18.0494,-0.73694 -18.3833,-5.52384 -41.8348,-5.51176 -68.0407,0.0345 l 0,-0.0117 c -11.3484,2.40187 -28.5877,5.14035 -38.3154,6.0857 -15.7201,1.52783 -18.6413,0.93357 -26.2652,-5.34874 -8.212,-6.76723 -8.4963,-7.81133 -6.6785,-24.50902 3.7002,-33.98967 13.0786,-53.66405 30.4105,-63.78614 11.7392,-6.85624 49.2147,-14.0948 72.8021,-14.05943 z m -360.1533,107.01237 c 9.5396,-0.52323 28.7881,9.88214 31.6371,17.6348 2.7019,7.35265 2.184,29.15385 -2.355,99.36677 -5.2739,81.5821 -5.617,94.8542 -2.7002,104.3466 1.545,5.0281 4.0093,18.1059 5.4811,29.0578 3.2789,24.3961 17.4718,58.9008 30.2089,73.4525 16.5892,18.9529 64.7807,40.1982 75.773,33.4044 1.7256,-1.0665 25.9844,-2.3517 53.9064,-2.8558 47.8496,-0.8643 51.1498,-0.5689 57.4011,5.1586 7.7372,7.0892 8.9508,22.9453 2.2684,29.6276 -2.3998,2.3998 -10.0271,5.2951 -16.9497,6.4368 -6.9226,1.1419 -13.9121,3.0913 -15.5334,4.3294 -1.6213,1.2377 -10.5547,3.1709 -19.8515,4.2952 -9.2968,1.1243 -17.6702,3.2764 -18.6021,4.7842 -0.363,0.5875 3.3308,1.1004 10.11,1.5199 -7.0226,1.0326 -15.8125,1.802 -25.3785,2.3606 -19.6455,1.1476 -42.4545,1.4305 -59.6236,1.4453 -14.1856,0 -37.066,-0.097 -58.7884,-2.1938 0.1689,-0.1445 0.093,-0.3431 -0.311,-0.6045 -2.4319,-1.5718 -7.4405,-8.5548 -11.1291,-8.5843 -3.6882,-0.03 -14.0379,-2.6247 -23.0006,-5.7747 -14.229,-5.0012 -16.5176,-5.1595 -18.0092,-1.2722 -0.1533,0.3991 -0.2181,0.7711 -0.311,1.1514 -0.05,-0.05 -0.112,-0.094 -0.1612,-0.1444 -9.2958,-9.2958 -13.410905,-15.4025 -16.949805,-22.6036 -3.5385,-7.2008 -6.4933,-15.5781 -13.2246,-29.04 -4.3718,-8.7437 -7.2082,-26.1656 -8.8029,-43.6639 -1.5951,-17.4987 -2.044,-35.1733 -2.044,-44.8732 0,-79.249 -21.05099,-163.1116 19.84,-242.2707 1.909,-1.15199 4.4715,-2.86377 7.8529,-5.15861 6.033205,-4.09447 13.900505,-8.18128 17.479405,-9.07946 0.5421,-0.13588 1.1317,-0.21843 1.7675,-0.25321 z m 193.834,1.21478 c 5.5015,0.11499 11.3592,1.96382 15.2628,5.4926 5.3986,4.88064 6.0017,7.75562 4.4332,21.12379 -0.9987,8.51173 -0.6939,15.47585 0.6736,15.47585 1.3675,0 5.6875,-6.61806 9.6033,-14.71001 5.3371,-11.02882 8.5784,-14.53462 12.9426,-14.00196 11.2168,1.36924 12.5807,10.92035 11.8084,82.64722 -1.1096,103.0579 -10.0458,140.7176 -38.5457,162.479 -17.6864,13.5046 -37.0611,13.8607 -47.838,0.8752 -2.5675,-3.0923 -7.0467,-4.0084 -14.6525,-2.9882 -14.8574,1.993 -18.5551,-3.0975 -27.1921,-37.4344 -5.0979,-20.2678 -6.7451,-33.7041 -5.9533,-48.6384 2.0749,-39.1421 -0.6683,-137.06914 -3.9899,-142.44353 -3.598,-5.82187 2.2542,-12.99618 15.0903,-18.4985 16.6933,-7.15662 25.9484,-7.10149 31.0437,0.17274 3.4442,4.91719 3.3784,9.07592 -0.4664,27.95232 -3.4041,16.71247 -3.6826,23.01447 -1.1284,25.56847 5.0976,5.0979 14.3292,-12.034 18.556,-34.43509 1.9388,-10.27479 5.186,-20.95606 7.2198,-23.73759 2.4829,-3.39556 7.631,-5.01447 13.1326,-4.89951 z m 448.195,3.7711 c -4.9658,0 -5.244,0.90201 -2.2972,7.36945 3.8703,8.49432 6.9098,9.35714 9.4709,2.68306 2.4078,-6.27493 -0.2871,-10.05251 -7.1737,-10.05251 z m -561.6501,8.84334 c 10.8844,0 12.4099,21.02297 11.0023,151.81065 -0.5963,55.4183 1.8639,70.24 17.0246,102.4354 9.8883,20.9988 13.3638,25.7981 18.6943,25.8276 3.6013,0.018 12.6318,1.8777 20.0646,4.1339 13.3207,4.0432 24.1967,3.6184 69.1519,-2.6831 18.121,-2.5401 24.1801,2.1575 19.8342,15.3665 -2.3143,7.0337 -5.4035,8.8793 -21.6478,12.9311 -28.8622,7.1993 -83.3624,9.1325 -101.4683,3.5983 -16.28,-4.9764 -47.7222,-28.5708 -50.3769,-37.8029 -0.9327,-3.2426 -3.4003,-9.8751 -5.4811,-14.7389 -2.5148,-5.8779 -4.853,-38.4965 -6.9721,-97.2768 -3.1011,-86.0232 -1.7333,-126.1658 4.8821,-143.35876 3.3065,-8.59307 17.8618,-20.24299 25.2922,-20.24299 z m 275.0591,46.23185 c -1.8366,0.047 -3.2873,3.4486 -6.1892,12.3208 -2.6582,8.1267 -4.8305,15.3565 -4.8305,16.063 0,0.7066 4.3112,0.3712 9.5803,-0.7428 8.6109,-1.8203 9.5292,-3.0156 9.1024,-11.7911 -0.2611,-5.3697 -2.3942,-11.6806 -4.744,-14.0306 -1.1661,-1.1661 -2.0842,-1.8406 -2.919,-1.8193 z m 418.2969,12.3727 c 2.8304,0.5465 5.7403,1.0862 8.6706,1.7271 7.2691,1.5894 14.1669,3.792 17.0879,6.713 11.1291,11.1293 14.6919,28.5268 12.0387,45.1782 -1.3835,8.6824 -4.4673,17.1086 -8.9642,24.2962 -4.3223,-0.7086 -17.0718,5.3343 -20.6691,10.2483 -3.2022,4.3745 -9.4856,5.028 -47.4062,4.9396 -27.619,-0.066 -47.7489,-1.4934 -54.6722,-3.8805 -10.3181,-3.5577 -25.8852,-18.1819 -25.8852,-24.3133 0,-6.1815 24.6987,-29.0191 39.1387,-36.1911 27.0526,-13.4359 56.2763,-24.7469 69.5492,-26.9099 l 11.1118,-1.8076 z m -401.9862,21.1468 c -1.1206,-0.069 -2.094,0.1479 -2.7003,0.754 -0.9031,0.9032 -0.7635,3.0554 0.3052,4.7845 2.4879,4.0252 10.4381,4.1045 10.4381,0.1038 0,-2.6468 -4.6815,-5.4354 -8.043,-5.6424 z m 231.1992,60.1818 c 8.5529,0.055 17.2769,2.5065 22.6725,7.1104 13.0225,11.111 17.6169,29.0185 17.1398,66.7973 -0.2939,23.2594 -2.0044,39.9008 -4.9572,48.2699 -2.4786,7.0251 -4.5022,17.0089 -4.5022,22.1888 0,12.4815 -19.9085,58.6021 -32.6271,75.5886 -5.5652,7.4329 -12.7687,17.1476 -16.0113,21.5846 -4.2841,5.8619 -9.3065,8.5111 -18.366,9.7011 -1.5195,0.2005 -2.8945,0.4616 -4.1799,0.7426 l -37.5094,-1.1688 c -0.7835,-1.6968 -1.9105,-3.6007 -3.3623,-5.4464 -7.7538,-9.8573 -7.4424,-12.0248 2.9881,-20.8015 4.8639,-4.0927 8.8434,-9.0279 8.8434,-10.9735 0,-1.9452 3.22,-6.5255 7.1621,-10.1789 7.4058,-6.8634 10.4771,-15.7091 19.4255,-55.9388 2.8849,-12.9702 7.581,-32.0618 10.4323,-42.4262 4.8442,-17.6086 4.8719,-20.1469 0.4203,-38.6952 -7.4487,-31.0363 -2.7003,-51.435 14.4338,-62.0243 4.7986,-2.9657 11.3453,-4.3727 17.9976,-4.3297 z m -186.9998,11.3363 c 9.7239,-0.1627 19.0453,0.3629 30.5947,1.4105 43.7283,3.9669 55.4203,9.8615 73.9363,37.2735 l 14.0595,20.8128 -0.1497,30.9517 c -0.1429,29.2865 -0.8433,32.7602 -13.0405,64.5576 -16.022,41.7688 -36.7573,68.7975 -56.9232,74.2011 -12.273,3.2883 -21.8894,6.433 -28.1133,9.0851 -32.1816,8.1689 -71.7441,1.4627 -106.0683,-0.1887 -8.0593,-4.987 -20.0829,-21.3233 -22.379,-31.2164 -1.1651,-5.0203 -8.1989,-14.5779 -16.2703,-22.1083 -25.2501,-23.558 -32.1837,-51.6654 -22.2005,-89.9936 7.4946,-28.7736 34.0121,-66.2181 55.4436,-78.283 6.7136,-3.7797 18.8439,-7.9181 26.9503,-9.2003 30.6318,-4.8456 47.9538,-7.029 64.1603,-7.3005 z m 380.2809,4.957 c 7.7001,2.0027 14.0019,6.654 18.9014,13.0407 6.63109,8.6432 10.60979,20.4623 11.58389,32.8055 0.9741,12.3433 -1.0554,25.1947 -6.2583,35.8686 -5.20289,10.673 -13.51999,19.1571 -25.25759,23.0697 -9.1254,3.0421 -15.9266,6.3052 -23.3692,10.0351 1.444,-1.514 3.4198,-2.9829 5.9128,-4.272 4.8638,-2.515 8.8433,-5.6473 8.8433,-6.9605 0,-1.3133 -19.8689,-2.5434 -44.1533,-2.735 -45.9928,-0.3617 -64.3034,-3.5954 -72.6582,-12.8273 -5.3914,-5.9574 -5.978,-13.2723 -3.1032,-38.7644 3.7908,-33.6151 9.2558,-36.7341 65.3981,-37.2732 45.0817,-0.4334 57.0541,-1.96 64.1603,-11.9872 z m -405.1989,34.9704 c -5.5681,-0.1468 -10.118,0.7841 -14.1344,2.729 -29.2427,14.163 -52.3626,50.5692 -48.7593,76.7691 3.0995,22.5358 15.3933,41.9325 32.5005,51.2752 18.7514,10.2404 39.7289,10.8415 61.3506,1.7618 22.3353,-9.3795 29.6636,-15.2603 41.8217,-33.5772 12.2125,-18.3989 12.4438,-23.9649 2.0957,-50.6246 -9.2553,-23.8446 -15.4059,-30.333 -36.2773,-38.2867 -17.2046,-6.5564 -29.3174,-9.8019 -38.5975,-10.0466 z m 13.7717,30.1861 c 14.3618,0.3196 26.4114,7.4243 32.8861,20.5826 10.7268,21.7989 10.8415,29.7319 0.6506,43.5892 l 0,0.01 -8.947,12.1654 -19.6441,-0.092 c -12.5791,-0.06 -21.6969,-1.6501 -25.3613,-4.4216 -3.1471,-2.3807 -9.2445,-4.3297 -13.5471,-4.3297 -10.713,0 -17.5773,-8.553 -17.5773,-21.8953 0,-17.9204 7.7853,-30.5272 23.8931,-38.6896 9.5792,-4.8544 19.0299,-7.1065 27.647,-6.9146 z m 335.949,59.2492 c 2.1683,-0.2228 3.6266,1.0309 5.8323,4.0474 3.0305,4.1445 7.7907,5.6983 17.6521,5.7573 6.2342,0.038 10.6762,-1.0341 12.6893,-2.5561 5.2589,6.9132 9.8225,14.7681 16.0746,21.0201 3.9253,3.9252 6.8468,10.3891 7.4673,17.0305 0.6204,6.6409 -0.9981,13.3763 -5.8438,18.2219 -23.6941,23.6943 -46.9392,36.0328 -74.4372,42.3628 -24.0914,5.546 -51.4856,6.4392 -85.1459,6.1087 l -4.4677,-4.7556 c -7.8412,-8.3467 -5.197,-18.9044 15.3837,-61.4084 18.8986,-39.0304 23.7726,-42.4 59.5659,-41.1537 14.3576,0.5 26.1903,-0.5715 30.2493,-2.7405 2.1262,-1.1361 3.6791,-1.8008 4.9801,-1.9344 z"
     style="fill:#181818" />
</svg>
