<?xml version="1.0" encoding="UTF-8" standalone="no"?>
<svg
   xmlns:dc="http://purl.org/dc/elements/1.1/"
   xmlns:cc="http://creativecommons.org/ns#"
   xmlns:rdf="http://www.w3.org/1999/02/22-rdf-syntax-ns#"
   xmlns:svg="http://www.w3.org/2000/svg"
   xmlns="http://www.w3.org/2000/svg"
   width="1000"
   height="1000"
   viewBox="0 0 999.99999 999.99999"
   id="svg7631"
   version="1.1">
  <defs
     id="defs7633">
    <pattern
       id="EMFhbasepattern"
       patternUnits="userSpaceOnUse"
       width="6"
       height="6"
       x="0"
       y="0" />
    <pattern
       id="EMFhbasepattern-8"
       patternUnits="userSpaceOnUse"
       width="6"
       height="6"
       x="0"
       y="0" />
  </defs>
  <metadata
     id="metadata7636">
    <rdf:RDF>
      <cc:Work
         rdf:about="">
        <dc:format>image/svg+xml</dc:format>
        <dc:type
           rdf:resource="http://purl.org/dc/dcmitype/StillImage" />
        <dc:title></dc:title>
      </cc:Work>
    </rdf:RDF>
  </metadata>
  <path
     style="fill:#000000;fill-opacity:1;fill-rule:nonzero;stroke:none"
     d="m 177.5209,36.41142 c -36.21022,19.386927 -74.4232,52.392598 -61.92587,103.42339 6.96964,28.35921 16.4228,48.86776 18.74602,63.12765 -15.38136,10.01395 -22.11071,44.7023 -20.34823,64.4087 l 11.69617,132.18314 c 2.88402,23.39258 14.3399,43.66083 34.84837,51.99242 8.17128,4.64649 17.86469,5.20725 27.71841,7.29018 l 139.47382,32.36509 c 21.62908,87.16039 15.78092,265.9685 14.41903,377.96352 19.78758,27.55839 38.77405,43.5807 55.99803,51.91233 l -2.0028,-231.20113 c -0.48067,-56.31743 4.48628,-106.22696 58.32129,-114.63868 -25.31528,-42.69843 -50.39025,-69.45574 -50.47032,-115.19946 0,-60.24393 35.88998,-92.60801 96.13286,-92.60801 51.35158,0 81.47353,33.16516 93.00962,80.91169 2.0028,8.25152 11.29573,18.66603 11.29573,27.55842 0,0 -9.77361,47.5062 -22.75168,64.6501 -8.49185,11.0543 -30.122,9.69243 -37.8928,15.94113 -9.93385,7.93106 -4.96695,21.9506 -4.96695,21.9506 44.94263,5.92824 63.28821,102.54289 63.28821,102.54289 l -29.32086,28.67892 c -14.17976,-32.44415 -29.32086,-63.44736 -63.76888,-86.11897 -17.3842,-2.88402 -26.11638,0.1601 -29.32085,3.44481 l -10.65377,10.89517 c -10.17418,10.41451 -13.37864,46.62496 -6.32884,59.28157 l 61.36448,138.91248 c 7.12992,12.73775 23.07215,17.22403 35.72977,10.09407 l 49.74933,-37.01048 c 0,0 7.93106,-38.53371 0.24034,-64.24955 -3.76523,-12.49742 -0.56079,-48.78798 -4.64649,-60.40313 l 34.60717,-27.63851 c 5.68791,-3.60502 12.17695,-4.72658 18.26546,-3.76523 -2.56356,-11.45595 -3.84536,-24.1937 -3.84536,-37.25191 0,-43.18016 14.17976,-78.268 31.80432,-78.268 17.54445,0 31.72421,35.08784 31.72421,78.268 0,8.41172 -0.56079,16.74332 -1.60226,24.67436 -1.76243,-0.0802 -3.52489,-0.0802 -5.28737,-0.0802 -30.04186,0 -54.39577,11.85649 -54.39577,26.43684 0.0802,11.29573 14.90077,21.38874 36.93146,24.99376 -0.0802,0 -0.0802,0 -0.0802,0.0802 l 18.58591,29.16065 c 7.85093,12.25707 4.24591,28.35952 -8.01117,36.21044 l -91.64664,54.71627 0.64088,119.20503 c 6.16753,-0.56076 12.65657,-2.16302 19.46608,-5.04705 18.10524,-7.77079 39.01438,-25.39537 61.44561,-58.88204 l 7.12996,-10.65482 7.0498,10.65482 c 3.36469,4.96694 6.64929,9.5333 9.85373,13.69909 l 0,-166.63112 c 28.43965,1.28179 55.67655,-18.74613 58.0799,-47.82559 l 19.30689,-230.48011 c 2.56361,-31.00317 -16.50298,-59.36164 -47.26479,-63.92799 L 605.31418,323.76974 590.33329,304.62307 c 12.57753,14.5803 32.04356,-51.43167 57.91966,-77.78733 0,-19.78759 8.41171,-38.13317 8.33158,-58.32129 C 656.42444,102.42288 638.55943,40.016444 552.76091,42.099302 l -1.44201,3.524894 c -8.17138,-1.762433 -20.18812,-6.488996 -25.39537,-5.768 -73.38107,9.372996 -120.56683,76.105454 -105.10527,164.147734 4.48624,7.61059 -1.12158,19.06654 5.36745,24.11357 24.67441,18.98645 40.53651,75.38397 49.02727,73.62155 l -20.90808,21.95056 c -60.24394,37.49225 -91.72782,30.20211 -138.91248,29.24078 l -80.27187,-0.80113 -2.5636,-74.2635 c -6.88958,-20.58867 -4.48624,-61.60475 -21.22925,-71.37841 1.2818,-2.72376 10.73465,-7.21004 11.8562,-10.09406 9.45318,-6.96971 11.85652,-16.98365 20.6688,-28.35952 21.63014,-28.03875 33.40655,-47.18531 23.2324,-55.11625 -7.3703,-5.60782 -25.79596,-1.2818 -43.01996,14.98078 C 218.29741,78.629937 207.56247,36.491551 177.5209,36.41142 Z m 525.04784,835.39776 -7.12996,10.65483 c -22.43123,33.5668 -43.34036,51.11124 -61.36548,58.88206 -18.10419,7.77083 -33.56571,6.2487 -47.66539,0.32056 -28.19926,-11.93661 -49.74932,-44.54208 -54.63611,-54.63614 l -7.29017,-14.90077 -7.93106,14.58035 c -6.56915,12.09683 -30.68274,42.61937 -61.28433,53.1941 -15.30131,5.28737 -32.12476,6.16861 -50.95101,-1.60223 -18.82621,-7.85092 -39.89559,-24.67436 -62.00641,-55.99803 l -6.88958,-9.85373 -6.96866,9.7736 c -23.87323,33.16623 -45.42329,49.26867 -63.60862,55.35717 -18.10525,6.08849 -33.40656,2.88401 -47.10534,-4.56637 -13.77906,-7.45039 -25.47528,-19.46713 -34.0472,-30.20207 -4.24595,-5.44762 -7.69061,-10.49465 -10.25422,-14.4201 -2.64367,-4.00561 -4.00556,-6.56917 -5.28736,-8.41172 l -14.17964,9.45314 c 0.24033,0.40059 2.32323,3.92549 5.04703,8.1714 2.8039,4.32602 6.56905,9.85372 11.29562,15.78201 9.37296,11.8565 22.43105,25.47549 39.25438,34.60822 16.82314,9.13273 37.89249,13.37864 60.72431,5.76805 20.6688,-6.96972 42.37907,-23.2324 64.96948,-52.31293 21.06936,27.47831 42.05862,44.14154 62.48708,52.63335 22.67157,9.37305 44.54205,8.41172 63.04783,2.0028 29.23969,-10.09406 50.70961,-32.12475 62.80649,-48.9482 10.49461,16.18253 29.32086,38.93425 56.15825,50.23 17.54444,7.45038 38.77294,9.21282 61.044,-0.32057 19.9478,-8.57193 40.6166,-25.87605 61.76607,-54.95658 18.34555,25.07493 36.69113,40.29615 54.87645,47.98687 20.50753,8.65206 40.61555,7.12992 57.75944,0.32057 34.3679,-13.53888 59.04228,-46.46476 71.61981,-62.08654 l -13.37863,-10.65485 c -12.73776,15.94222 -36.53091,45.82387 -64.48988,56.87928 -13.93943,5.44758 -28.51973,6.64926 -44.86251,-0.24033 -16.34171,-6.88963 -34.8475,-22.35114 -54.39476,-51.83226 l -7.12992,-10.65482 z"
     id="path3350" />
</svg>
