<?xml version="1.0" encoding="UTF-8" standalone="no"?>
<svg
   xmlns:dc="http://purl.org/dc/elements/1.1/"
   xmlns:cc="http://creativecommons.org/ns#"
   xmlns:rdf="http://www.w3.org/1999/02/22-rdf-syntax-ns#"
   xmlns:svg="http://www.w3.org/2000/svg"
   xmlns="http://www.w3.org/2000/svg"
   xmlns:sodipodi="http://sodipodi.sourceforge.net/DTD/sodipodi-0.dtd"
   xmlns:inkscape="http://www.inkscape.org/namespaces/inkscape"
   version="1.1"
   id="svg7631"
   viewBox="0 0 999.99999 999.99999"
   height="1000"
   width="1000"
   inkscape:version="0.91 r13725"
   sodipodi:docname="bee-charm.svg">
  <sodipodi:namedview
     pagecolor="#ffffff"
     bordercolor="#666666"
     borderopacity="1"
     objecttolerance="10"
     gridtolerance="10"
     guidetolerance="10"
     inkscape:pageopacity="0"
     inkscape:pageshadow="2"
     inkscape:window-width="1366"
     inkscape:window-height="706"
     id="namedview10"
     showgrid="false"
     inkscape:zoom="1.3350176"
     inkscape:cx="386.68278"
     inkscape:cy="590.55458"
     inkscape:window-x="1432"
     inkscape:window-y="124"
     inkscape:window-maximized="1"
     inkscape:current-layer="svg7631" />
  <defs
     id="defs7633">
    <pattern
       y="0"
       x="0"
       height="6"
       width="6"
       patternUnits="userSpaceOnUse"
       id="EMFhbasepattern" />
    <pattern
       y="0"
       x="0"
       height="6"
       width="6"
       patternUnits="userSpaceOnUse"
       id="EMFhbasepattern-8" />
    <pattern
       y="0"
       x="0"
       height="6"
       width="6"
       patternUnits="userSpaceOnUse"
       id="EMFhbasepattern-3" />
    <pattern
       y="0"
       x="0"
       height="6"
       width="6"
       patternUnits="userSpaceOnUse"
       id="EMFhbasepattern-6" />
  </defs>
  <metadata
     id="metadata7636">
    <rdf:RDF>
      <cc:Work
         rdf:about="">
        <dc:format>image/svg+xml</dc:format>
        <dc:type
           rdf:resource="http://purl.org/dc/dcmitype/StillImage" />
        <dc:title />
      </cc:Work>
    </rdf:RDF>
  </metadata>
  <path
     id="path3382"
     d="m 501.82018,109.36553 c -133.83058,0 -99.34154,171.82712 -83.54192,257.0061 18.225,-27.9919 137.49302,-53.98917 173.41757,2.29004 14.99559,-75.10963 38.05373,-261.87351 -89.87565,-259.29614 z m 0.7509,13.17586 c 111.13901,0.002 54.08547,113.36671 51.15029,126.80068 -33.12975,-6.04216 -66.44173,-2.27264 -100.31371,-0.35913 -0.53118,-9.26927 -65.84419,-126.44315 49.16342,-126.44155 z M 817.47164,318.183 c -83.92872,1.03063 -173.48734,43.21382 -220.61274,72.6141 -6.36358,6.36358 3.26021,37.17666 0.61564,47.75488 81.29304,19.77567 155.39765,53.73026 235.62622,76.25672 32.85318,-1.39398 60.52798,-50.91957 72.67942,-95.07602 9.94033,-36.12157 -29.55579,-91.03694 -42.5685,-97.5433 -14.85122,-2.97389 -30.19767,-4.19725 -45.74004,-4.00638 z m -621.96091,0.55033 c -15.54235,-0.1908 -30.8888,1.02784 -45.74002,4.00173 -13.01271,6.50635 -52.508857,61.42638 -42.56852,97.54796 12.15144,44.15645 39.82624,93.68205 72.67942,95.07604 80.22857,-22.52647 154.3332,-56.48573 235.62624,-76.26138 -2.64457,-10.57822 6.97922,-41.39132 0.61564,-47.7549 -47.1254,-29.40028 -136.68404,-71.57879 -220.61276,-72.60945 z m 307.23293,37.05564 c -12.28848,0.2427 -24.31197,3.24978 -34.96615,8.74504 -35.09809,18.09954 -47.20341,58.27105 -27.04665,89.75438 20.15721,31.48474 64.95547,42.37326 100.08984,24.32752 43.1503,-22.35564 42.22098,-66.48095 27.09319,-89.90834 -13.38392,-20.82368 -31.16909,-34.26985 -65.17033,-32.91865 z m 94.42305,87.97274 c -2.40596,2.60294 -10.97756,23.51124 -16.44066,27.83018 48.80112,48.14567 110.93754,101.13943 168.21717,147.97999 5.04162,2.52075 14.24508,1.26861 20.23716,1.26861 46.24505,0 64.39299,-48.57777 61.97549,-94.86148 z m -181.35105,0.55033 -233.98917,82.21267 c -2.41749,46.28372 15.73045,94.86149 61.9755,94.86149 5.9921,0 15.19556,1.25679 20.23718,-1.26396 57.27963,-46.84057 119.41605,-99.83898 168.21717,-147.98465 -5.4631,-4.31894 -14.03472,-25.22261 -16.44068,-27.82555 z m 136.97757,57.57266 c -9.45531,6.08703 -54.59041,25.17265 -96.54051,1.84228 -52.49085,26.24545 -60.48652,78.24779 -87.84214,146.89329 2.05531,79.04445 74.10152,174.21933 94.63761,279.47732 7.80147,12.8607 60.00364,14.46924 69.63381,1.04474 C 571.0087,818.62369 632.6862,735.32186 636.56834,646.01221 615.39713,601.35156 592.57052,526.45561 552.79323,501.8847 Z m 98.96582,139.41219 c 0,66.37073 -23.56325,114.16245 -48.0627,163.16137 -1.18117,2.36219 10.56649,48.95853 12.6488,53.12316 3.54149,7.08298 -3.54149,19.47862 0,26.5616 4.07683,8.15375 13.91277,18.5819 13.91277,30.35344 0,0.0991 2.73165,-18.43853 11.38487,-22.76507 6.85706,-3.42866 35.4139,-48.11976 35.4139,-58.18365 0,-20.63427 -48.03918,-26.60847 -32.88599,-56.91501 10.11175,-20.22354 36.68249,-57.11899 36.68249,-75.88826 0,-27.51905 -8.43555,-44.0733 -29.09414,-59.44758 z m -296.65493,1.59042 c -20.65858,15.37428 -29.08948,31.92855 -29.08948,59.4476 0,18.76927 26.56611,55.66469 36.67785,75.88824 15.1532,30.30654 -32.88601,36.28541 -32.88601,56.91969 0,10.06389 28.56153,54.75031 35.41858,58.17897 8.65322,4.32654 11.3802,22.86885 11.3802,22.76975 0,-11.77154 9.83594,-22.20435 13.91276,-30.3581 3.54149,-7.08298 -3.54149,-19.47862 0,-26.5616 2.08232,-4.16463 13.83,-50.76097 12.64883,-53.12316 -24.49945,-48.99892 -48.06273,-96.79066 -48.06273,-163.16139 z"
     style="fill:#000000;fill-rule:evenodd;stroke:#000000;stroke-width:2.3879776px;stroke-linecap:butt;stroke-linejoin:miter;stroke-opacity:1"
     inkscape:connector-curvature="0"
     sodipodi:nodetypes="ccccsccsscccscsscscccsccccccccccsccccsccccccccccccssscsssccssscssscc" />
</svg>
