<?xml version="1.0" encoding="UTF-8" standalone="no"?>
<svg
   xmlns:dc="http://purl.org/dc/elements/1.1/"
   xmlns:cc="http://creativecommons.org/ns#"
   xmlns:rdf="http://www.w3.org/1999/02/22-rdf-syntax-ns#"
   xmlns:svg="http://www.w3.org/2000/svg"
   xmlns="http://www.w3.org/2000/svg"
   width="1000"
   height="1000"
   viewBox="0 0 999.99999 999.99999"
   id="svg7631"
   version="1.1">
  <defs
     id="defs7633">
    <pattern
       id="EMFhbasepattern"
       patternUnits="userSpaceOnUse"
       width="6"
       height="6"
       x="0"
       y="0" />
    <pattern
       id="EMFhbasepattern-8"
       patternUnits="userSpaceOnUse"
       width="6"
       height="6"
       x="0"
       y="0" />
    <pattern
       id="EMFhbasepattern-3"
       patternUnits="userSpaceOnUse"
       width="6"
       height="6"
       x="0"
       y="0" />
    <pattern
       id="EMFhbasepattern-6"
       patternUnits="userSpaceOnUse"
       width="6"
       height="6"
       x="0"
       y="0" />
  </defs>
  <metadata
     id="metadata7636">
    <rdf:RDF>
      <cc:Work
         rdf:about="">
        <dc:format>image/svg+xml</dc:format>
        <dc:type
           rdf:resource="http://purl.org/dc/dcmitype/StillImage" />
        <dc:title></dc:title>
      </cc:Work>
    </rdf:RDF>
  </metadata>
  <path
     id="rect5033"
     d="m 467.51825,198.45465 c -35.24118,0 -63.61156,20.6313 -63.61156,46.2591 0,6.1411 1.63182,11.995 4.59434,17.3472 l -21.61292,0 c -35.24118,0 -63.61294,20.6326 -63.61294,46.2603 0,15.9941 11.05187,30.0404 27.92614,38.3419 l -46.76057,0 c -35.24118,0 -63.61295,20.6314 -63.61295,46.259 0,25.6277 28.37177,46.259 63.61295,46.259 l -53.58767,0 c -35.24118,0 -63.61294,20.6314 -63.61294,46.2591 0,19.0209 15.63592,35.281 38.10239,42.405 l -27.29316,0 c -35.24118,0 -63.61294,20.6314 -63.61294,46.259 0,21.0093 19.07359,38.6517 45.36163,44.3314 l -3.41147,0 c -35.24118,0 -63.61294,20.6314 -63.61294,46.259 0,21.0107 19.07509,38.6541 45.36579,44.3326 l -2.09841,0 c -35.24118,0 -63.611565,20.6314 -63.611565,46.2591 0,25.6276 28.370385,46.259 63.611565,46.259 l 290.94191,0 0,-22.3506 c 0,-30.7491 23.64544,-55.5043 53.01702,-55.5043 29.37161,0 53.01703,24.7553 53.01703,55.5043 l 0,22.3506 290.94192,0 c 35.24118,0 63.61164,-20.6314 63.61164,-46.259 0,-25.6277 -28.37046,-46.259 -63.61164,-46.259 l -2.0984,0 c 26.29071,-5.6786 45.36585,-23.322 45.36577,-44.3327 0,-25.6276 -28.37171,-46.259 -63.61293,-46.259 l -3.41148,0 c 26.28805,-5.6797 45.36168,-23.3221 45.36168,-44.3314 0,-25.6276 -28.3718,-46.259 -63.61298,-46.259 l -27.29315,0 c 22.46646,-7.124 38.10239,-23.3841 38.10239,-42.405 0,-25.6277 -28.37177,-46.2591 -63.61295,-46.2591 l -53.58767,0 c 35.24118,0 63.61294,-20.6313 63.61294,-46.259 0,-25.6276 -28.37176,-46.259 -63.61294,-46.259 l -46.76058,0 c 16.87428,-8.3015 27.92615,-22.3478 27.92615,-38.3419 0,-25.6277 -28.37176,-46.2603 -63.61295,-46.2603 l -21.61291,0 c 2.96252,-5.3522 4.59433,-11.2061 4.59433,-17.3472 0,-25.6277 -28.37038,-46.259 -63.61156,-46.259 l -64.9634,0 z"
     style="color:#000000;clip-rule:nonzero;display:inline;overflow:visible;visibility:visible;opacity:1;isolation:auto;mix-blend-mode:normal;color-interpolation:sRGB;color-interpolation-filters:linearRGB;solid-color:#000000;solid-opacity:1;fill:#000000;fill-opacity:1;fill-rule:nonzero;stroke:none;stroke-width:8;stroke-linecap:butt;stroke-linejoin:miter;stroke-miterlimit:4;stroke-dasharray:none;stroke-dashoffset:0;stroke-opacity:1;color-rendering:auto;image-rendering:auto;shape-rendering:auto;text-rendering:auto;enable-background:accumulate" />
</svg>
