<?xml version="1.0" encoding="UTF-8" standalone="no"?>
<svg
   xmlns:dc="http://purl.org/dc/elements/1.1/"
   xmlns:cc="http://creativecommons.org/ns#"
   xmlns:rdf="http://www.w3.org/1999/02/22-rdf-syntax-ns#"
   xmlns:svg="http://www.w3.org/2000/svg"
   xmlns="http://www.w3.org/2000/svg"
   width="1000"
   height="1000"
   viewBox="0 0 999.99999 999.99999"
   id="svg7631"
   version="1.1">
  <defs
     id="defs7633">
    <pattern
       id="EMFhbasepattern"
       patternUnits="userSpaceOnUse"
       width="6"
       height="6"
       x="0"
       y="0" />
    <pattern
       id="EMFhbasepattern-8"
       patternUnits="userSpaceOnUse"
       width="6"
       height="6"
       x="0"
       y="0" />
    <pattern
       id="EMFhbasepattern-3"
       patternUnits="userSpaceOnUse"
       width="6"
       height="6"
       x="0"
       y="0" />
  </defs>
  <metadata
     id="metadata7636">
    <rdf:RDF>
      <cc:Work
         rdf:about="">
        <dc:format>image/svg+xml</dc:format>
        <dc:type
           rdf:resource="http://purl.org/dc/dcmitype/StillImage" />
        <dc:title></dc:title>
      </cc:Work>
    </rdf:RDF>
  </metadata>
  <path
     style="fill:#000000;fill-opacity:1;fill-rule:nonzero;stroke:none"
     d="m 507.77245,39.061544 c -19.46573,0.07621 -35.88993,3.649788 -49.65281,10.036935 -42.42816,19.997828 -67.82481,60.069531 -67.82481,120.443141 2.28114,16.19609 10.11301,50.10903 10.11301,50.10903 23.11556,4.25812 27.2216,60.06895 51.85689,73.07144 l -2.12907,5.32266 -24.93942,12.31816 c -61.81885,22.27909 -91.09315,20.98646 -136.10723,46.61123 -25.62458,14.67534 -47.3713,31.25059 -44.78604,60.75332 l 19.00939,218.07579 c 2.4331,27.52475 28.13384,46.61027 55.12711,45.39365 l 0,180.74121 c 0,31.4797 13.53466,59.76582 35.20505,79.23051 -0.22812,-16.87943 6.69134,-34.06398 14.67532,-51.0965 10.7974,-22.65928 24.25613,-45.77483 30.33914,-67.59772 7.45171,-26.30913 8.97249,-58.24407 11.78587,-84.32506 1.44474,-13.00248 3.04153,-24.56027 6.46324,-33.91294 1.74886,-4.71434 3.95399,-8.89644 7.29965,-12.39417 3.4217,-3.42171 8.28814,-5.85494 13.45871,-6.15906 l 0.83641,16.19607 c -1.21659,0.0762 -1.67281,0.22812 -2.66131,1.29264 -1.06453,1.14057 -2.4332,3.34566 -3.72588,6.69134 -2.4332,6.6153 -4.18207,17.41268 -5.55074,30.03498 -2.66135,25.24459 -4.10606,58.01593 -12.24214,86.98638 -6.99548,24.7884 -20.98647,48.43619 -31.32761,70.18306 -10.26512,21.74682 -16.27213,40.75531 -11.17757,55.88684 l -1.52079,0.53228 c 4.71438,2.88942 9.73289,5.32267 14.90345,7.4517 3.87794,-47.90285 31.63178,-85.69374 78.92638,-93.0694 5.24662,-18.55327 14.75135,-11.70986 9.2006,-18.55327 -7.83191,-9.73285 -15.58779,-20.98647 -26.76436,-33.07651 -7.67981,-8.36416 -13.99099,-20.15007 -12.09003,-31.02247 0,-1.82491 14.21911,-9.35267 14.21911,-11.17758 0.75935,-36.65028 -3.57381,-59.23355 18.78034,-72.08397 5.32267,2.35719 11.02551,3.49776 16.88042,3.5738 8.13609,0 16.12007,-2.43323 23.0395,-6.84341 7.45175,5.85491 16.5763,9.04851 26.08103,9.04851 7.07152,0 14.06701,-1.82492 20.22608,-5.24663 22.20309,12.77438 20.98648,37.8669 21.82291,73.90889 0.0762,1.5968 12.31712,6.08302 12.31712,7.75587 0,10.64429 -13.15355,29.12152 -13.15355,29.12152 -13.0025,13.15455 -13.30662,23.34366 -22.96345,34.14102 -4.03,4.56228 8.21209,17.86893 4.71434,21.74687 40.45119,5.32267 66.45617,38.32312 78.69826,76.34108 0.83641,-0.22812 1.5968,-0.45623 2.43321,-0.76039 l 0.0761,3.72586 c 2.66132,-1.8249 5.17057,-3.87793 7.67983,-6.007 4.86643,-15.43469 -0.15196,-31.9349 -9.12456,-51.32458 -9.0485,-19.69383 -21.89893,-41.4407 -28.89441,-66.15301 -8.13604,-28.89445 -9.58078,-61.7418 -12.2421,-86.98642 -1.36867,-12.62227 -3.11757,-23.34362 -5.55077,-30.03498 -1.29263,-3.34565 -2.66132,-5.55077 -3.72484,-6.6153 -0.98851,-1.06451 -1.44473,-1.21661 -2.66135,-1.29263 l 0.83645,-16.19608 c 5.16956,0.22811 10.03596,2.66131 13.45767,6.15908 3.34569,3.4217 5.55078,7.67981 7.29965,12.31814 3.4217,9.35267 5.01849,20.91043 6.46323,33.91291 2.81342,26.08103 4.33417,58.09198 11.78587,84.40112 6.15907,21.89893 18.40121,42.96141 27.98198,63.71978 5.77887,12.6223 10.79737,25.47272 12.09005,38.47522 12.24209,-17.33666 19.31362,-38.47522 19.31362,-61.36263 l 0,-180.7412 c 27.06949,1.29267 52.84536,-17.79288 55.12649,-45.3176 l 18.2491,-222.10581 c 2.4332,-29.42669 -20.75836,-49.04348 -44.78533,-60.67728 -41.82087,-20.22608 -102.27104,-41.0605 -135.27049,-42.65729 l -19.92196,-12.69833 0.68435,-2.73736 c 17.79287,-7.22359 10.56928,-24.71235 47.44667,-67.67276 8.2121,-9.58077 15.89191,-50.41315 16.80438,-66.83735 -5.70296,-81.740094 -39.46277,-119.910831 -87.8229,-120.519149 -8.74438,0.45622 -13.83893,1.292666 -16.27213,2.357181 -2.73737,-0.912453 -5.6268,-1.824906 -8.82039,-2.813378 z m -58.39615,153.823736 40.37515,0.53228 0.53224,6.61529 c -8.97245,10.03702 -48.96741,10.64531 -40.90739,-7.14757 z m 72.69127,0.0762 43.34163,0.0761 c 7.60381,15.13157 -36.57427,19.23762 -44.17804,6.76737 l 0.83641,-6.84341 z m -13.45871,60.44915 c 8.97248,-0.0762 17.64081,1.74887 20.53024,5.55075 10.87341,21.4427 -48.13202,21.82291 -42.20106,-0.22812 3.64982,-3.49771 12.77437,-5.32263 21.67082,-5.32263 z m 181.80571,204.54103 6.08302,6.08306 -20.30213,138.38804 -66.7613,23.0395 -3.3457,-2.28113 c -14.29511,-9.58079 -33.07545,-15.43573 -49.57571,-16.04403 -16.57625,-0.68434 -30.18707,3.95398 -36.4982,12.16609 l -7.75588,10.11302 -5.85491,-11.32965 c -1.44473,-2.81341 -5.0185,-5.0185 -11.70985,-6.08301 -6.69136,-1.14057 -15.58779,-0.83645 -24.25612,0.30427 -17.33665,2.28113 -33.53173,7.37569 -33.53173,7.37569 l -2.50925,0.83641 -78.01493,-25.4727 -31.40327,-132.07691 15.73979,-3.72584 29.35031,123.18043 64.55621,21.06252 c 3.42171,-1.06451 16.87942,-5.09455 33.68383,-7.29964 9.6568,-1.21662 19.76986,-1.74886 29.04647,-0.22811 5.93097,0.98851 11.70986,3.19359 16.50025,6.84341 11.17758,-9.2006 26.99348,-12.54626 43.26558,-11.86192 18.4012,0.68435 38.01795,6.46324 54.44215,16.57626 l 50.03298,-17.18454 17.64081,-120.59517 -0.22811,-0.30427 11.40569,-11.48174 z M 553.77539,771.60618 c 0,0 0,0 0,0 0,0 0,0 0,0 l 0,0 z m 0,0 c -0.0762,0.0762 -0.30428,0.15195 -0.53227,0.22812 -0.53225,0.0762 -1.29265,0.15195 -2.2051,0.30426 -1.8249,0.15197 -4.41021,0.38018 -7.22359,0.53226 -5.70285,0.30426 -12.62231,0.38021 -18.32515,0 l -0.53228,7.98398 c 6.15907,0.45622 13.30664,0.30427 19.31366,0 2.96548,-0.15197 5.55075,-0.30428 7.67981,-0.53225 1.06453,-0.15195 1.97698,-0.30427 2.73738,-0.38021 0.76039,-0.15196 1.21662,-0.15196 2.4332,-0.76036 l -3.72583,-7.14757 c 0.38017,-0.15196 0.45622,-0.22812 0.38017,-0.22812 z m -88.81234,0.45623 0,0 c -0.0762,0 0,0 0.38022,0.22812 l -3.72587,7.14757 c 1.21662,0.6083 1.67284,0.53224 2.4332,0.68434 0.76039,0.15197 1.67284,0.30428 2.73737,0.38018 2.12908,0.22812 4.71438,0.45623 7.67985,0.60829 5.93096,0.30428 13.15456,0.38022 19.31364,0 l -0.53228,-8.05999 c -5.70285,0.38018 -12.62228,0.30427 -18.32513,0.0762 -2.81341,-0.15195 -5.39872,-0.38018 -7.22363,-0.60829 -0.91245,-0.0761 -1.6728,-0.22811 -2.20508,-0.30427 -0.22812,0 -0.45623,-0.0762 -0.53229,-0.15195 z m 57.78886,47.67479 c -2.4332,2.20508 -8.06003,2.88943 -11.10152,3.04149 -5.09457,0.38022 -7.22363,0.45622 -11.32969,-2.12904 l -6.23509,5.70285 c 6.15908,3.72583 11.55776,4.8664 18.09701,4.48622 5.85495,-0.53227 14.8274,-2.4332 17.56476,-7.29964 l -6.99547,-3.80188 z"
     id="path3363" />
</svg>
