<?xml version="1.0" encoding="UTF-8" standalone="no"?>
<svg
   xmlns:dc="http://purl.org/dc/elements/1.1/"
   xmlns:cc="http://creativecommons.org/ns#"
   xmlns:rdf="http://www.w3.org/1999/02/22-rdf-syntax-ns#"
   xmlns:svg="http://www.w3.org/2000/svg"
   xmlns="http://www.w3.org/2000/svg"
   xmlns:sodipodi="http://sodipodi.sourceforge.net/DTD/sodipodi-0.dtd"
   xmlns:inkscape="http://www.inkscape.org/namespaces/inkscape"
   width="1000"
   height="1000"
   viewBox="0 0 999.99999 999.99999"
   id="svg7631"
   version="1.1"
   inkscape:version="0.91 r13725"
   sodipodi:docname="blessing.svg">
  <sodipodi:namedview
     pagecolor="#ffffff"
     bordercolor="#666666"
     borderopacity="1"
     objecttolerance="10"
     gridtolerance="10"
     guidetolerance="10"
     inkscape:pageopacity="0"
     inkscape:pageshadow="2"
     inkscape:window-width="1920"
     inkscape:window-height="1017"
     id="namedview9"
     showgrid="false"
     inkscape:zoom="0.236"
     inkscape:cx="-93.901758"
     inkscape:cy="754.83533"
     inkscape:window-x="3832"
     inkscape:window-y="-8"
     inkscape:window-maximized="1"
     inkscape:current-layer="svg7631" />
  <defs
     id="defs7633">
    <pattern
       id="EMFhbasepattern"
       patternUnits="userSpaceOnUse"
       width="6"
       height="6"
       x="0"
       y="0" />
    <pattern
       id="EMFhbasepattern-8"
       patternUnits="userSpaceOnUse"
       width="6"
       height="6"
       x="0"
       y="0" />
    <pattern
       id="EMFhbasepattern-3"
       patternUnits="userSpaceOnUse"
       width="6"
       height="6"
       x="0"
       y="0" />
  </defs>
  <metadata
     id="metadata7636">
    <rdf:RDF>
      <cc:Work
         rdf:about="">
        <dc:format>image/svg+xml</dc:format>
        <dc:type
           rdf:resource="http://purl.org/dc/dcmitype/StillImage" />
        <dc:title />
      </cc:Work>
    </rdf:RDF>
  </metadata>
  <path
     style="fill:#000000;fill-opacity:1;fill-rule:nonzero;stroke:none"
     d="M 489.24805 18.472656 C 462.15868 18.346416 442.60245 29.208934 422.28711 52.527344 C 403.05832 74.597714 399.66213 85.20138 400.04102 121.92383 C 400.53382 169.60028 408.78524 175.3926 419.68945 135.71094 C 427.10563 108.72181 429.98749 106.92703 452.44727 115.31055 C 481.47134 126.14423 511.61879 123.78798 530.65625 109.19727 C 556.91977 89.068808 569.64548 95.10522 585.94727 135.42383 C 596.81348 162.29916 601.95194 156.79035 601.92578 118.29688 C 601.88588 59.036067 593.32953 45.08226 547.93945 30.25 C 524.47041 22.58091 505.50136 18.548906 489.24805 18.472656 z M 561.62891 177.43164 C 561.5288 177.53175 561.22724 177.63235 560.92773 177.73242 C 560.22849 177.83253 559.22996 177.93272 558.03125 178.13281 C 555.63383 178.33246 552.23898 178.63029 548.54297 178.83008 C 541.05098 179.22979 531.96072 179.32957 524.46875 178.83008 L 523.76953 189.31836 C 531.86086 189.91771 541.251 189.71809 549.14258 189.31836 C 553.03841 189.11872 556.43541 188.92058 559.23242 188.62109 C 560.63092 188.42147 561.82721 188.22085 562.82617 188.12109 C 563.82511 187.92146 564.42519 187.92232 566.02344 187.12305 L 561.12891 177.73242 C 561.62835 177.53279 561.72881 177.43164 561.62891 177.43164 z M 444.95312 178.03125 C 444.85302 178.03125 444.95363 178.03234 445.45312 178.33203 L 440.55859 187.7207 C 442.1569 188.51984 442.75501 188.42127 443.75391 188.62109 C 444.75286 188.82073 445.95111 189.01943 447.34961 189.11914 C 450.14664 189.41883 453.54559 189.72015 457.44141 189.91992 C 465.23307 190.31966 474.72115 190.41942 482.8125 189.91992 L 482.11523 179.33008 C 474.62324 179.82954 465.53105 179.72927 458.03906 179.42969 C 454.34301 179.23007 450.94821 178.93248 448.55078 178.63281 C 447.35207 178.53281 446.35357 178.33247 445.6543 178.23242 C 445.35461 178.23242 445.05305 178.13076 444.95312 178.03125 z M 520.87305 240.66211 C 517.67649 243.55899 510.28279 244.4604 506.28711 244.66016 C 499.59423 245.15967 496.79659 245.2596 491.40234 241.86328 L 483.21289 249.35352 C 491.30424 254.24824 498.3975 255.74554 506.98828 255.24609 C 514.68009 254.54683 526.46636 252.05137 530.0625 245.6582 L 520.87305 240.66211 z M 386.05469 314.57617 C 385.56718 314.56657 385.07086 314.57132 384.56445 314.5918 C 377.19856 314.88961 367.7554 318.31384 353.95898 323.25195 C 330.2959 333.32557 305.29466 355.18612 293.42188 369.02344 C 268.15477 416.6276 251.59287 483.33797 259.42578 525.13867 L 263.3125 635.80273 C 265.7456 663.32748 291.44618 682.41389 318.43945 681.19727 L 318.43945 861.9375 C 318.43945 893.4172 331.97414 921.70328 353.64453 941.16797 C 353.41641 924.28854 360.33633 907.10479 368.32031 890.07227 C 379.11771 867.41299 392.57519 844.2975 398.6582 822.47461 C 406.10991 796.16548 407.63193 764.22943 410.44531 738.14844 C 411.89005 725.14596 413.48649 713.589 416.9082 704.23633 C 418.65706 699.52199 420.86137 695.33953 424.20703 691.8418 C 427.62873 688.42009 432.49545 685.98771 437.66602 685.68359 L 438.50195 701.87891 C 437.28536 701.95511 436.8303 702.10734 435.8418 703.17188 C 434.77727 704.31245 433.40791 706.5176 432.11523 709.86328 C 429.68203 716.47858 427.93312 727.27614 426.56445 739.89844 C 423.9031 765.14303 422.45835 797.91432 414.32227 826.88477 C 407.32679 851.67317 393.33723 875.32149 382.99609 897.06836 C 372.73097 918.81518 366.7238 937.82355 371.81836 952.95508 L 370.29688 953.48633 C 375.01126 956.37575 380.03061 958.80847 385.20117 960.9375 C 389.07911 913.03465 416.83235 875.2448 464.12695 867.86914 C 469.37357 849.31587 478.87888 856.15982 473.32812 849.31641 C 465.49622 839.58356 457.73907 828.33027 446.5625 816.24023 C 438.88269 807.87607 432.5717 796.0892 434.47266 785.2168 C 434.47266 783.39189 448.69141 775.86397 448.69141 774.03906 C 449.45076 737.38878 445.11851 714.8055 467.47266 701.95508 C 472.79533 704.31227 478.49861 705.45326 484.35352 705.5293 C 492.48961 705.5293 500.47315 703.09573 507.39258 698.68555 C 514.84433 704.54046 523.96793 707.73438 533.47266 707.73438 C 540.54418 707.73438 547.54015 705.90999 553.69922 702.48828 C 575.90231 715.26266 574.68505 740.35449 575.52148 776.39648 C 575.59768 777.99328 587.83984 782.47949 587.83984 784.15234 C 587.83984 794.79663 574.68555 813.27344 574.68555 813.27344 C 561.68305 826.42799 561.37949 836.6167 551.72266 847.41406 C 547.69266 851.97634 559.93525 865.28417 556.4375 869.16211 C 596.88869 874.48478 622.89268 907.48399 635.13477 945.50195 C 635.97118 945.27383 636.73195 945.04635 637.56836 944.74219 L 637.64453 948.46875 C 640.30585 946.64385 642.81496 944.59001 645.32422 942.46094 C 650.19065 927.02625 645.17182 910.5264 636.19922 891.13672 C 627.15072 871.44289 614.30017 849.69669 607.30469 824.98438 C 599.16865 796.08992 597.72382 763.24267 595.0625 737.99805 C 593.69383 725.37578 591.94492 714.65425 589.51172 707.96289 C 588.21909 704.61724 586.85063 702.41219 585.78711 701.34766 C 584.7986 700.28315 584.34357 700.13071 583.12695 700.05469 L 583.96289 683.85742 C 589.13245 684.08553 593.99821 686.51981 597.41992 690.01758 C 600.76561 693.43928 602.97183 697.69761 604.7207 702.33594 C 608.1424 711.68861 609.73885 723.24557 611.18359 736.24805 C 613.99701 762.32908 615.51705 794.34125 622.96875 820.65039 C 629.12782 842.54932 641.3704 863.61077 650.95117 884.36914 C 656.73004 896.99144 661.74834 909.84125 663.04102 922.84375 C 675.28311 905.50709 682.35547 884.36983 682.35547 861.48242 L 682.35547 680.74023 C 709.42496 682.0329 744.18957 670.43878 746.4707 642.91406 C 755.16194 599.19438 759.75129 566.04753 760.39453 541.25586 C 760.62559 541.21126 761.41602 541.06055 761.41602 541.06055 L 760.75195 483.19922 C 759.87171 483.19922 757.84364 465.11606 756.23633 443.01562 C 753.74721 408.64805 751.54204 400.50422 741.00391 386.72852 C 716.06399 354.12662 650.34039 316.35437 616.95508 315.43555 C 600.87073 314.99274 600.18926 315.5883 594.66602 334.88867 C 588.86272 355.17099 554.69775 434.59728 547.00391 445.69727 C 544.97874 448.61833 541.10317 452.97989 536.61328 456.82617 L 536.20117 410.20898 C 535.03928 394.99615 521.54385 383.21073 505.28516 383.21094 C 489.0387 383.22594 475.56071 395.00711 474.40039 410.20898 L 472.11328 459.00781 C 463.66324 454.73347 450.09905 427.85308 427.23633 375.20312 C 407.55404 329.8763 401.16735 314.87395 386.05469 314.57617 z M 474.38477 336.23438 C 475.54621 359.9665 489.04172 378.3517 505.30078 378.35156 C 521.54753 378.32706 535.02493 359.94853 536.18555 336.23438 L 474.38477 336.23438 z M 351.18164 523.04297 C 354.21953 523.25381 358.4124 534.92382 363.38477 554.37305 L 370.06836 582.42578 L 434.625 603.48828 C 438.04671 602.42377 451.50418 598.39259 468.30859 596.1875 C 477.96539 594.97088 488.07886 594.43823 497.35547 595.95898 C 503.28644 596.94749 509.06508 599.15291 513.85547 602.80273 C 525.03305 593.60213 540.84899 590.25707 557.12109 590.94141 C 575.52229 591.62576 595.1383 597.40456 611.5625 607.51758 L 661.5957 590.33203 L 668.07031 536.83008 C 673.62204 536.09816 677.68145 554.81183 683.29492 554.02734 L 676.19531 602.42188 L 609.43359 625.46289 L 606.08789 623.18164 C 591.79278 613.60085 573.01393 607.74502 556.51367 607.13672 C 539.93742 606.45238 526.3248 611.09062 520.01367 619.30273 L 512.25781 629.41602 L 506.4043 618.08594 C 504.95957 615.27253 501.38471 613.06842 494.69336 612.00391 C 488.002 610.86334 479.10583 611.16787 470.4375 612.30859 C 453.10085 614.58972 436.90625 619.68359 436.90625 619.68359 L 434.39648 620.51953 L 356.38281 595.04688 L 346.09375 551.77539 C 346.72003 531.59256 348.50115 522.85693 351.18164 523.04297 z M 553.77539 771.60547 C 553.69919 771.68167 553.47018 771.75781 553.24219 771.83398 C 552.70994 771.91018 551.94956 771.98636 551.03711 772.13867 C 549.21221 772.29064 546.62783 772.51784 543.81445 772.66992 C 538.1116 772.97418 531.19307 773.05013 525.49023 772.66992 L 524.95703 780.6543 C 531.1161 781.11052 538.26446 780.95857 544.27148 780.6543 C 547.23696 780.50233 549.82211 780.35102 551.95117 780.12305 C 553.0157 779.9711 553.9271 779.81813 554.6875 779.74219 C 555.44789 779.59023 555.90451 779.59082 557.12109 778.98242 L 553.39453 771.83398 C 553.7747 771.68202 553.85144 771.60547 553.77539 771.60547 z M 464.96289 772.0625 C 464.88669 772.0625 464.96353 772.0629 465.34375 772.29102 L 461.61719 779.4375 C 462.83381 780.0458 463.29042 779.97095 464.05078 780.12305 C 464.81117 780.27502 465.72258 780.42605 466.78711 780.50195 C 468.91619 780.73007 471.50328 780.95927 474.46875 781.11133 C 480.39971 781.41561 487.62217 781.49155 493.78125 781.11133 L 493.25 773.05078 C 487.54715 773.43096 480.62668 773.35499 474.92383 773.12695 C 472.11042 772.975 469.52608 772.74764 467.70117 772.51953 C 466.78872 772.44343 466.02837 772.291 465.49609 772.21484 C 465.26797 772.21484 465.03895 772.13824 464.96289 772.0625 z M 522.75195 819.73633 C 520.31875 821.94141 514.69188 822.62724 511.65039 822.7793 C 506.55582 823.15952 504.42637 823.23565 500.32031 820.65039 L 494.08594 826.35156 C 500.24502 830.07739 505.64434 831.21807 512.18359 830.83789 C 518.03854 830.30562 527.01069 828.4055 529.74805 823.53906 L 522.75195 819.73633 z "
     id="path3363" />
</svg>
