<?xml version="1.0" encoding="UTF-8" standalone="no"?>
<svg
   xmlns:dc="http://purl.org/dc/elements/1.1/"
   xmlns:cc="http://creativecommons.org/ns#"
   xmlns:rdf="http://www.w3.org/1999/02/22-rdf-syntax-ns#"
   xmlns:svg="http://www.w3.org/2000/svg"
   xmlns="http://www.w3.org/2000/svg"
   width="1000"
   height="1000"
   viewBox="0 0 999.99999 999.99999"
   id="svg7631"
   version="1.1">
  <defs
     id="defs7633">
    <pattern
       id="EMFhbasepattern"
       patternUnits="userSpaceOnUse"
       width="6"
       height="6"
       x="0"
       y="0" />
    <pattern
       id="EMFhbasepattern-8"
       patternUnits="userSpaceOnUse"
       width="6"
       height="6"
       x="0"
       y="0" />
    <pattern
       id="EMFhbasepattern-3"
       patternUnits="userSpaceOnUse"
       width="6"
       height="6"
       x="0"
       y="0" />
    <pattern
       id="EMFhbasepattern-6"
       patternUnits="userSpaceOnUse"
       width="6"
       height="6"
       x="0"
       y="0" />
  </defs>
  <metadata
     id="metadata7636">
    <rdf:RDF>
      <cc:Work
         rdf:about="">
        <dc:format>image/svg+xml</dc:format>
        <dc:type
           rdf:resource="http://purl.org/dc/dcmitype/StillImage" />
        <dc:title></dc:title>
      </cc:Work>
    </rdf:RDF>
  </metadata>
  <path
     id="path4384"
     d="m 364.67509,192.90072 c -169.51874,0 -307.05684,137.4746 -307.05684,307.0781 0,169.6035 137.5381,307.12046 307.05684,307.12046 132.64574,0 245.67938,-84.08166 288.58853,-201.85946 -3.02867,3.431 -6.50186,6.6713 -10.18702,9.467 l 0,0.043 -1.16506,0.72 -2.83797,1.9484 -1.73676,1.1651 -0.42352,0.3387 0,-0.042 c -12.47455,7.5187 -27.70248,11.9028 -45.02715,11.9028 -50.74549,0 -80.69294,-33.548 -80.69294,-81.159 l 0,-104.7737 21.32769,0.021 c 13.74526,0 24.82195,10.992 25.07614,24.6103 l 0,81.5613 c 0,10.3143 3.70625,34.6282 34.28911,34.6282 20.41682,0 35.22116,-14.4867 35.22116,-34.6282 l 0,-106.1926 9.80599,0 0,-0.043 29.92625,0 C 640.87375,301.48702 515.47141,192.90092 364.67509,192.90092 Z m -224.09784,169.646 21.9842,0 c 13.2794,0.36 23.996,11.0131 24.4619,24.3349 l 0,69.0656 c 13.47,-7.7728 29.41811,-12.4111 47.18758,-12.4111 20.88271,0 39.41469,6.4385 54.30369,17.0917 l 0.80482,0.5506 3.93927,3.071 4.55357,3.9818 0.74124,0.5929 c 17.38815,16.7528 28.06252,40.8124 28.06252,67.7736 0,51.1479 -38.1015,94.163 -93.04052,94.163 -54.62137,0 -92.99827,-43.015 -92.99827,-95.7302 l 0,-172.4838 z m 556.78177,36.0894 0.12684,155.7522 c 0,22.4712 6.71386,41.5962 19.80263,54.9391 13.06764,13.4488 31.83262,20.565 53.96496,20.8404 l 19.4426,0 3.9815,0 -10.5049,-28.8038 -2.0119,0 c -10.2932,0 -10.7168,0 -11.0345,-0.043 l -0.127,-0.042 c -14.61375,-0.3177 -26.02928,-5.549 -33.59023,-14.9526 -6.14202,-7.7516 -9.76371,-17.4305 -9.76371,-30.4557 l -0.0848,-81.8791 58.09484,0 56.6331,156.3241 32.8281,0 67.2652,-185.5302 -32.3408,0 -51.0843,144.8026 -0.36,0 -51.169,-144.8026 -79.86714,0 0,-46.1496 -30.20153,0 z m -382.73055,46.1707 24.86444,0.021 c 13.97825,0 28.93092,11.2886 33.6327,25.2034 l 35.66598,99.7966 42.86678,-125.0212 49.8136,0 -98.12353,263.7453 -49.32645,0 29.92635,-79.7398 -69.31987,-184.0055 z m -80.41754,44.5189 c -25.987,0 -46.89088,22.0476 -46.89088,49.5806 l 0.064,1.5461 -0.064,0 c 2.4144,25.3516 22.15349,45.1965 46.25547,45.1965 25.7963,0 46.46728,-21.9205 46.46728,-49.03 0,-7.7304 -1.80035,-14.8679 -4.82892,-21.1157 -2.73222,-5.1466 -6.09944,-9.6154 -10.08117,-13.3641 -1.99088,-1.8426 -4.21482,-3.664 -6.50215,-5.0618 l 0.12714,-0.1694 c -7.13735,-4.8289 -15.43976,-7.5822 -24.54677,-7.5822 z"
     style="fill:#000000" />
</svg>
