<?xml version="1.0" encoding="UTF-8" standalone="no"?>
<svg
   xmlns:dc="http://purl.org/dc/elements/1.1/"
   xmlns:cc="http://creativecommons.org/ns#"
   xmlns:rdf="http://www.w3.org/1999/02/22-rdf-syntax-ns#"
   xmlns:svg="http://www.w3.org/2000/svg"
   xmlns="http://www.w3.org/2000/svg"
   version="1.1"
   id="svg7631"
   viewBox="0 0 999.99999 999.99999"
   height="1000"
   width="1000">
  <defs
     id="defs7633" />
  <metadata
     id="metadata7636">
    <rdf:RDF>
      <cc:Work
         rdf:about="">
        <dc:format>image/svg+xml</dc:format>
        <dc:type
           rdf:resource="http://purl.org/dc/dcmitype/StillImage" />
        <dc:title></dc:title>
      </cc:Work>
    </rdf:RDF>
  </metadata>
  <g
     transform="translate(0,-52.362271)"
     id="layer1">
    <path
       style="fill:#020202"
       d="m 368.34208,1026.5095 c -10.1731,-1.3268 -16.7894,-4.0359 -18.7347,-7.6706 -2.2331,-4.1724 1.5217,-10.3349 14.7056,-24.13423 11.367,-11.8973 13.8657,-16.872 8.4754,-16.872 -6.2979,0 -6.7494,-2.8747 -6.5388,-41.6278 0.2163,-39.8931 3.1222,-116.8688 7.9176,-209.7592 4.1155,-79.7224 5.2189,-69.9645 -8.8681,-78.4348 -15.8155,-9.5097 -27.5,-19.3497 -37.5204,-31.5976 -16.5275,-20.2012 -25.531,-38.0525 -32.6499,-64.7328 l -4.1669,-15.6172 -8.9725,-4.2742 c -14.35801,-6.8397 -16.43771,-6.8522 -20.02101,-0.1209 -1.6785,3.153 -5.4553,8.1051 -8.3928,11.005 -7.469,7.3734 -31.3454,27.2439 -35.2429,29.3297 -4.4195,2.3653 -6.8429,-0.1511 -4.4502,-4.6226 2.5458,-4.7573 1.4065,-5.0537 -6.3059,-1.6422 -6.4223,2.8407 -7.2939,2.8764 -15.8771,0.6501 -11.1806,-2.9001 -18.3744,-7.1625 -19.5269,-11.5703 -0.4797,-1.8363 0.4278,-6.279 2.017,-9.8723 2.9252,-6.6135 7.833,-10.5551 23.47,-18.8508 7.1215,-3.7779 8.9612,-6.0524 4.8952,-6.0524 -1.2048,0 -4.0701,-0.7153 -6.3682,-1.5888 -3.6889,-1.4023 -3.914,-1.8534 -1.9206,-3.8468 1.242,-1.2419 10.4594,-4.0648 20.4834,-6.2731 10.0241,-2.2087 20.0557,-5.2895 22.2926,-6.847 11.953,-8.3222 42.47511,-69.8288 42.47511,-85.594 0,-9.9474 10.5831,-36.37319 30.3095,-75.68249 13.7838,-27.4671 30.3724,-55.9691 36.9059,-63.4103 3.9778,-4.5305 4.3912,-5.8992 3.5765,-11.8428 -0.8228,-6.004 -0.3685,-7.4457 4.2697,-13.5259 6.7614,-8.8648 19.7949,-19.3508 38.1159,-30.666 13.0521,-8.0611 15.4973,-10.2899 21.2193,-19.3407 l 6.4673,-10.2298 1.1539,-21.36361 c 1.2162,-22.511 2.3886,-29.4353 7.474,-44.1431 7.1867,-20.78569 27.4242,-45.583585 39.3956,-48.273485 12.09789,-2.7182 37.82199,5.5351 47.52729,15.2485 6.1163,6.1215 15.1652,22.634595 19.1799,35.001285 2.8548,8.7938 3.7853,27.4262 1.896,37.9654 -1.044,5.8221 -0.7576,6.8299 2.8195,9.9189 6.3596,5.4923 10.185,14.52801 10.4543,24.69311 l 0.2405,9.0959 7.5572,4.472 c 4.1566,2.4597 11.6774,6.8968 16.7132,9.8602 19.0645,11.2192 27.7821,20.5362 23.7551,25.3886 -1.54,1.8555 0.145,5.5872 9.4979,21.0273 22.1714,36.6031 36.9184,69.7945 46.1521,103.8744 8.9562,33.05639 16.024,43.12029 42.1515,60.02079 17.3745,11.2387 19.5976,14.4244 16.7319,23.9751 -3.5383,11.7927 -3.472,11.9291 8.1667,16.8015 l 10.6433,4.4555 18.5816,-2.478 c 16.7328,-2.2314 19.7733,-2.2498 30.5579,-0.1872 6.5871,1.2602 14.573,2.2918 17.7467,2.2918 3.9625,4e-4 6.0741,0.7915 6.7399,2.5268 1.2299,3.2056 -4.6134,8.1552 -9.6274,8.1552 -3.152,0 -5.5873,3.0007 -2.5014,3.0823 2.6543,0.073 22.7019,3.1492 24.8485,3.8162 2.7818,0.8652 7.2828,8.1132 9.2095,14.8311 1.8722,6.5281 -1.3696,11.1859 -10.5037,15.093 -3.9325,1.6822 -8.7058,4.5152 -10.6074,6.296 -3.3489,3.136 -3.8998,3.1758 -17.5487,1.2596 -26.743,-3.7537 -46.8125,-9.9364 -60.1745,-18.5367 -6.5533,-4.2178 -10.205,-2.1776 -12.5138,6.9916 -1.5835,6.2887 -1.2212,9.1701 3.6036,28.6621 16.1099,65.0804 16.4975,113.7286 1.2122,152.1203 -4.335,10.8879 -4.4191,9.1969 2.1262,42.7485 1.7137,8.7843 2.5778,21.5899 2.6771,39.6751 0.1402,25.5823 -0.012,27.0254 -3.6683,34.3344 -2.777,5.554 -5.417,8.4123 -9.7032,10.5054 -5.6449,2.7564 -6.2442,2.7679 -14.4968,0.2683 -4.7346,-1.4327 -11.7431,-2.7641 -15.5745,-2.9575 -7.6488,-0.3867 -16.5577,-5.0648 -20.1822,-10.5963 -2.0134,-3.0729 -4.3055,-3.6993 -19.2548,-5.2624 -11.2822,-1.1793 -20.1583,-3.0734 -26.4844,-5.651 l -9.5152,-3.877 -3.4457,4.2066 c -5.3267,6.5031 -6.5149,12.8274 -4.1516,22.0963 3.9332,15.4261 6.0592,44.7531 6.0652,83.6722 0.01,45.9275 -0.024,46.0254 -12.5503,46.4665 -6.2722,0.2175 -20.7901,3.2746 -44.2604,9.3102 -3.499,0.9063 -0.3613,4.3802 12.9256,14.3333 17.773,13.3147 23.2907,18.22543 23.2907,20.72433 0,3.4389 -7.2509,7.1473 -18.0665,9.2414 -19.8784,3.8497 -24.3301,3.1296 -53.5746,-8.6529 -29.305,-11.80803 -35.562,-15.65053 -38.4381,-23.60503 -2.268,-6.2713 -2.2454,-6.2688 -30.83359,-3.6153 -19.3929,1.7992 -22.3666,2.8263 -22.3666,7.7213 0,4.1796 -9.3503,23.63633 -15.1036,31.42773 -9.0735,12.2864 -14.6965,13.8947 -37.9872,10.8569 z"
       id="path3834" />
  </g>
</svg>
