<?xml version="1.0" encoding="UTF-8" standalone="no"?>
<svg
   xmlns:dc="http://purl.org/dc/elements/1.1/"
   xmlns:cc="http://creativecommons.org/ns#"
   xmlns:rdf="http://www.w3.org/1999/02/22-rdf-syntax-ns#"
   xmlns:svg="http://www.w3.org/2000/svg"
   xmlns="http://www.w3.org/2000/svg"
   width="1000"
   height="1000"
   viewBox="0 0 999.99999 999.99999"
   id="svg7631"
   version="1.1">
  <defs
     id="defs7633">
    <pattern
       id="EMFhbasepattern"
       patternUnits="userSpaceOnUse"
       width="6"
       height="6"
       x="0"
       y="0" />
    <pattern
       id="EMFhbasepattern-8"
       patternUnits="userSpaceOnUse"
       width="6"
       height="6"
       x="0"
       y="0" />
    <pattern
       id="EMFhbasepattern-3"
       patternUnits="userSpaceOnUse"
       width="6"
       height="6"
       x="0"
       y="0" />
    <pattern
       id="EMFhbasepattern-6"
       patternUnits="userSpaceOnUse"
       width="6"
       height="6"
       x="0"
       y="0" />
  </defs>
  <metadata
     id="metadata7636">
    <rdf:RDF>
      <cc:Work
         rdf:about="">
        <dc:format>image/svg+xml</dc:format>
        <dc:type
           rdf:resource="http://purl.org/dc/dcmitype/StillImage" />
        <dc:title></dc:title>
      </cc:Work>
    </rdf:RDF>
  </metadata>
  <path
     id="path3435-3"
     d="m 498.90455,24.882713 -45.137,27.2207 c -57.967,35.0599 -154.16,81.272597 -216.8,104.091797 -35.204,12.8241 -72.386,21.9687 -130.627,32.0078 -58.546001,10.0917 -82.272001,15.9092 -84.807001,20.791 -8.305,15.9916 34.86,165.9379 72.633,252.2286 37.546001,85.7737 108.112001,201.7737 167.556001,275.3437 50.6,62.6241 135.63,152.3365 185.618,195.8731 26.89,23.4197 49.463,42.6255 50.199,42.6777 0.736,0.058 19.448,-14.4729 41.582,-32.1445 79.172,-63.2102 215.599,-219.428 279.586,-320.209 30.172,-47.5229 75.819,-132.0105 92.599,-171.2539 31.096,-72.7238 73.875,-226.5017 67.573,-242.9258 -1.865,-4.86 -19.318,-9.465 -63.196,-16.5508 -78.429,-12.6656 -107.516,-19.8915 -163.045,-40.4883 -62.134,-23.047 -123.153,-51.4483 -174.259,-81.113297 -23.529,-13.6575 -51.049,-29.4368 -61.145,-35.1523 z m -1.504,52.9356 c 3.564,0 16.094,6.9322 27.77,15.3203 75.871,54.508097 239.472,118.624097 347.564,136.236297 31.047,5.0587 47.501,9.7703 49.106,13.9512 3.746,9.762 -6.755,59.3928 -23.252,110.1113 -19.877,61.1074 -84.887,192.8703 -126.799,256.8789 -38.772,59.2125 -77.602,108.8916 -143.074,183.1523 -44.863,50.8844 -125.874,129.3613 -133.229,128.9864 -1.989,-0.1015 -23.353,-19.3051 -47.465,-42.6758 -55.029,-53.3383 -131.948,-139.6655 -180.277,-202.4395 -27.271,-35.4224 -93.868,-145.5396 -121.604,-200.9355 -37.269,-74.4379 -71.220001,-174.8845 -73.451001,-217.4844 l -1.095,-20.6543 42.677001,-7.5234 c 125.514,-22.4442 279.348,-82.6437 359.604,-140.613297 9.389,-6.7817 19.961,-12.3105 23.525,-12.3105 z m -42.678,139.723397 c -3.434,181.8706 -3.516,355.9201 -1.554,551.6364 51.862,2.6591 103.721,0.7641 155.561,-1.418 l -1.291,-77.7173 -78.737,6.0009 -1.113,-478.3513 z m 197.009,-5.6221 -94.661,1.3406 -0.413,72.8242 30.864,1.0309 1.212,279.7452 -32.272,0.3035 -0.783,90.4469 c 0,0 29.984,-0.664 58.914,-0.1 60.115,-3.5986 190.188,-69.905 192.758,-179.6459 0.201,-8.5964 3.229,-38.1129 -17.897,-54.8416 -15.253,-12.0782 -31.384,-22.5773 -50.285,-28.0897 66.55,-22.6952 56.874,-49.4262 58.994,-76.2718 -1.689,-17.3029 -2.404,-45.4695 -26.544,-68.2347 -14.926,-14.0761 -26.943,-17.7885 -46.478,-24.8398 -10.194,-3.6796 -48.99,-13.7642 -73.409,-13.6682 z m -380.797,5.6655 c -34.709,4.4191 -66.024,20.8352 -81.029,36.015 -30.907,30.6043 -41.916,58.3898 -44.225,102.3691 -2.07,72.1727 17.201,138.8549 102.912,229.5368 27.855,29.4707 103.342,72.0123 154.539,72.9499 l 22.61,-0.5696 -0.265,-91.1425 c -72.853,-3.813 -109.453,-38.5143 -122.1,-48.5712 -49.088,-39.0345 -76.176,-84.2048 -78.934,-154.7053 0.872,-46.2528 58.594,-88.8831 96.62,-80.4552 38.026,8.428 42.719,37.508 42.719,37.508 0.223,15.0876 4.036,20.4956 -21.819,35.1027 l -18.412,0.7907 c -0.268,23.7779 0.198,47.5408 1.449,71.2872 0,0 13.872,-2.0242 30.787,-5.7991 19.608,-4.3757 29.174,-5.1809 47.508,-20.8963 32.09,-27.5055 35.747,-82.434 15.575,-123.6157 -26.333,-53.7584 -91.562,-63.4055 -147.935,-59.8045 z m 457.912,105.4181 c -1.275,17.9464 -14.003,31.5441 -32.954,37.2351 l -35.379,0.04 0.501,-76.0169 27.933,-0.1557 c 18.771,1.6799 40.418,11.7166 39.899,38.8978 z m -1.623,197.9528 c -18.392,40.5476 -74.783,41.3637 -74.783,41.3637 l -0.02,-137.6354 c 56.508,4.6436 70.595,21.3949 75.279,34.4345 9.578,26.6649 8.716,36.0933 -0.479,61.8372 z"
     style="fill:#000000" />
</svg>
