<?xml version="1.0" encoding="UTF-8" standalone="no"?>
<svg
   xmlns:dc="http://purl.org/dc/elements/1.1/"
   xmlns:cc="http://creativecommons.org/ns#"
   xmlns:rdf="http://www.w3.org/1999/02/22-rdf-syntax-ns#"
   xmlns:svg="http://www.w3.org/2000/svg"
   xmlns="http://www.w3.org/2000/svg"
   width="1000"
   height="1000"
   viewBox="0 0 999.99999 999.99999"
   id="svg7631"
   version="1.1">
  <defs
     id="defs7633">
    <pattern
       id="EMFhbasepattern"
       patternUnits="userSpaceOnUse"
       width="6"
       height="6"
       x="0"
       y="0" />
    <pattern
       id="EMFhbasepattern-8"
       patternUnits="userSpaceOnUse"
       width="6"
       height="6"
       x="0"
       y="0" />
    <pattern
       id="EMFhbasepattern-3"
       patternUnits="userSpaceOnUse"
       width="6"
       height="6"
       x="0"
       y="0" />
    <pattern
       id="EMFhbasepattern-6"
       patternUnits="userSpaceOnUse"
       width="6"
       height="6"
       x="0"
       y="0" />
  </defs>
  <metadata
     id="metadata7636">
    <rdf:RDF>
      <cc:Work
         rdf:about="">
        <dc:format>image/svg+xml</dc:format>
        <dc:type
           rdf:resource="http://purl.org/dc/dcmitype/StillImage" />
        <dc:title></dc:title>
      </cc:Work>
    </rdf:RDF>
  </metadata>
  <path
     id="path3435"
     d="m 498.90673,24.882715 -45.1368,27.2207 c -57.9669,35.0599 -154.1626,81.272595 -216.8027,104.091795 -35.2033,12.8241 -72.386,21.9687 -130.6269,32.0078 -58.546002,10.0917 -82.271402,15.9092 -84.806702,20.791 -8.304997,15.9916 34.8601,165.9378 72.6328,252.2285 37.546302,85.7737 108.114402,201.7738 167.558602,275.3438 50.5999,62.6241 135.6279,152.3364 185.6153,195.873 26.8899,23.4198 49.4631,42.6256 50.1992,42.6778 0.7362,0.058 19.4478,-14.473 41.582,-32.1446 79.1726,-63.2101 215.5995,-219.4279 279.5859,-320.209 30.1725,-47.5228 75.8214,-132.0104 92.6016,-171.2539 31.096,-72.7237 73.8729,-226.5016 67.5703,-242.9257 -1.8649,-4.86 -19.3154,-9.465 -63.1933,-16.5508 -78.4289,-12.6656 -107.5163,-19.8916 -163.045,-40.4883 -62.1348,-23.047 -123.1557,-51.4484 -174.2617,-81.113295 -23.529,-13.6575 -51.0462,-29.4368 -61.1426,-35.1523 l -18.33,-10.3965 z m -1.5039,52.9355 c 3.5642,0 16.092,6.9323 27.7675,15.3204 75.8714,54.508095 239.4748,118.624095 347.5664,136.236295 31.0466,5.0587 47.4992,9.7703 49.1036,13.9511 3.7461,9.7621 -6.7549,59.3929 -23.252,110.1114 -19.8762,61.1074 -84.887,192.8703 -126.7988,256.8789 -38.7714,59.2124 -77.602,108.8915 -143.0742,183.1523 -44.8623,50.8844 -125.8719,129.3613 -133.2266,128.9864 -1.9886,-0.1015 -23.3534,-19.3051 -47.4648,-42.6758 -55.0288,-53.3383 -131.9506,-139.6655 -180.2793,-202.4395 -27.2711,-35.4225 -93.8661,-145.5396 -121.6016,-200.9355 -37.2694,-74.4379 -71.220002,-174.8845 -73.451202,-217.4844 l -1.0957,-20.6543 42.677802,-7.5234 c 125.5135,-22.4442 279.3457,-82.6437 359.6015,-140.613295 9.3889,-6.7817 19.9631,-12.3106 23.5274,-12.3106 z m 50.0351,97.113295 c -15.8959,0.024 -33.8608,0.1263 -54.0019,0.2774 l -150.461,1.0937 0,35.0156 0,35.0176 56.7637,1.2305 c 38.6454,0.8391 57.74,2.9329 60.0488,6.5664 1.8639,2.9335 3.5199,88.4808 3.5567,189.9922 0.058,143.512 1.2166,185 5.4707,186.709 8.6677,3.4817 34.6303,-1.9475 52.5254,-10.9434 9.0276,-4.5382 16.8369,-8.6111 17.3711,-9.1641 0.5347,-0.5521 2.0117,-81.8499 3.2832,-180.5527 l 2.3242,-179.4609 52.3886,-1.2305 c 35.1405,-0.8333 53.3993,-2.9929 55.67,-6.5664 5.9549,-9.3713 4.0657,-58.4603 -2.461,-63.877 -3.2067,-2.6612 -29.1537,-3.9767 -87.2675,-4.1035 -4.8428,-0.011 -9.9123,-0.012 -15.211,0 z m 190.3692,64.6973 c -15.4152,0.118 -31.8089,2.3175 -49.1817,6.707 -31.7032,8.0102 -100.7707,41.3699 -117.0859,56.4902 l -11.9004,10.9434 0,223.0938 c 0,122.6946 1.2744,226.2603 2.7363,230.0683 3.956,10.3093 30.6689,8.5207 56.9004,-3.6933 36.8205,-17.1446 36.6582,-16.6302 36.6582,-128.0274 0,-53.4884 1.7168,-98.2721 3.8301,-99.5781 9.0869,-5.6161 43.1519,28.0728 59.0918,58.4062 8.9583,17.0478 17.771,30.9121 19.5586,30.9121 7.8526,0 35.9701,-34.4869 41.9922,-51.5664 l 6.5664,-18.7402 -21.7481,-26.9453 c -11.9597,-14.8418 -21.75,-30.5833 -21.75,-35.0176 0,-5.6572 8.1607,-11.7354 27.3574,-20.3808 65.7798,-29.6247 109.1569,-97.3636 95.3379,-148.6836 -6.7489,-25.0636 -36.7634,-56.5601 -67.8437,-71.2637 -17.43,-8.2459 -36.4874,-12.5029 -57.4492,-12.7207 -1.019,-0.011 -2.0427,-0.012 -3.0703,0 z m -430.8086,16.6914 c -43.9002,0.044 -72.2912,10.8736 -99.8496,38.1621 -30.9072,30.6043 -42.6936,56.8313 -45.002,100.8105 -4.4419,84.6276 39.9071,179.4434 121.5996,260.2989 78.9632,78.1539 158.6363,119.1266 227.7441,116.9492 l 28.4512,-0.959 1.2305,-65.1074 1.2305,-64.9727 -14.3614,3.0098 c -7.89,1.6447 -30.5145,4.0429 -50.3359,5.334 -33.381,2.1745 -38.0631,1.3208 -63.4688,-10.6699 -98.8491,-46.6518 -164.8805,-149.6983 -148.4101,-231.711 9.8585,-49.0894 33.6587,-71.3728 76.3262,-71.4004 21.8313,-0.013 26.8773,1.6634 36.1113,11.627 22.8267,24.6303 8.9014,55.9898 -22.5703,50.8828 l -14.9082,-2.3242 0,28.5879 c 0,32.7034 1.3244,33.8292 36.5195,33.7851 20.09,-0.029 24.8902,-2.0659 43.2246,-17.7812 32.0898,-27.5055 38.7807,-67.1544 18.3281,-108.1973 -23.527,-47.2125 -73.9684,-76.3898 -131.8574,-76.3242 l 0,0 z m 437.5722,67.9824 c 3.7882,0.013 7.1694,0.2619 9.9844,0.6836 18.5483,2.7814 37.0684,17.7021 37.0684,29.9551 0,15.0612 -19.9121,42.9927 -39.668,55.6699 -33.2825,21.3574 -92.1786,37.3548 -101.9024,27.6309 -1.6049,-1.605 -2.873,-22.2052 -2.873,-45.8223 0,-40.4359 0.6906,-43.3397 10.5332,-49.7891 13.8226,-9.0568 60.3407,-18.4078 86.8574,-18.3281 z"
     style="fill:#000000" />
</svg>
