<?xml version="1.0" encoding="UTF-8" standalone="no"?>
<svg
   xmlns:dc="http://purl.org/dc/elements/1.1/"
   xmlns:cc="http://creativecommons.org/ns#"
   xmlns:rdf="http://www.w3.org/1999/02/22-rdf-syntax-ns#"
   xmlns:svg="http://www.w3.org/2000/svg"
   xmlns="http://www.w3.org/2000/svg"
   version="1.1"
   id="svg7631"
   viewBox="0 0 999.99999 999.99999"
   height="1000"
   width="1000">
  <defs
     id="defs7633">
    <pattern
       y="0"
       x="0"
       height="6"
       width="6"
       patternUnits="userSpaceOnUse"
       id="EMFhbasepattern" />
    <pattern
       y="0"
       x="0"
       height="6"
       width="6"
       patternUnits="userSpaceOnUse"
       id="EMFhbasepattern-8" />
    <pattern
       y="0"
       x="0"
       height="6"
       width="6"
       patternUnits="userSpaceOnUse"
       id="EMFhbasepattern-3" />
    <pattern
       y="0"
       x="0"
       height="6"
       width="6"
       patternUnits="userSpaceOnUse"
       id="EMFhbasepattern-6" />
  </defs>
  <metadata
     id="metadata7636">
    <rdf:RDF>
      <cc:Work
         rdf:about="">
        <dc:format>image/svg+xml</dc:format>
        <dc:type
           rdf:resource="http://purl.org/dc/dcmitype/StillImage" />
        <dc:title></dc:title>
      </cc:Work>
    </rdf:RDF>
  </metadata>
  <path
     id="path3497"
     d="m 84.492024,348.85671 0,302.28658 204.420576,0 0,-57.65415 -128.90173,0 0,-76.33091 118.75137,0 0,-57.65423 -118.75137,0 0,-52.97685 128.90173,0 0,-57.67044 -204.420576,0 z m 626.595306,0 0,57.65423 128.90181,0 0,52.99306 -118.75137,0 0,57.65423 118.75137,0 0,76.33091 -128.90181,0 0,57.65415 204.42065,0 0,-302.28658 -204.42065,0 z m -402.06884,60.46385 0,46.1233 71.4587,0 0,195.69943 60.73992,0 0,-195.69943 46.10709,0 25.35161,0 46.10709,0 0,195.69943 60.73992,0 0,-195.69943 71.4587,0 0,-46.1233 -178.30571,0 -25.35161,0 -178.30571,0 z"
     style="font-style:normal;font-variant:normal;font-weight:normal;font-stretch:normal;font-size:50px;line-height:125%;font-family:Tahoma;-inkscape-font-specification:Tahoma;letter-spacing:0px;word-spacing:0px;fill:#000000;fill-opacity:1;stroke:none;stroke-width:1px;stroke-linecap:butt;stroke-linejoin:miter;stroke-opacity:1" />
</svg>
