<?xml version="1.0" encoding="UTF-8" standalone="no"?>
<svg
   xmlns:dc="http://purl.org/dc/elements/1.1/"
   xmlns:cc="http://creativecommons.org/ns#"
   xmlns:rdf="http://www.w3.org/1999/02/22-rdf-syntax-ns#"
   xmlns:svg="http://www.w3.org/2000/svg"
   xmlns="http://www.w3.org/2000/svg"
   width="1000"
   height="1000"
   viewBox="0 0 999.99999 999.99999"
   id="svg7631"
   version="1.1">
  <defs
     id="defs7633">
    <pattern
       id="EMFhbasepattern"
       patternUnits="userSpaceOnUse"
       width="6"
       height="6"
       x="0"
       y="0" />
    <pattern
       id="EMFhbasepattern-8"
       patternUnits="userSpaceOnUse"
       width="6"
       height="6"
       x="0"
       y="0" />
    <pattern
       id="EMFhbasepattern-3"
       patternUnits="userSpaceOnUse"
       width="6"
       height="6"
       x="0"
       y="0" />
    <pattern
       id="EMFhbasepattern-6"
       patternUnits="userSpaceOnUse"
       width="6"
       height="6"
       x="0"
       y="0" />
  </defs>
  <metadata
     id="metadata7636">
    <rdf:RDF>
      <cc:Work
         rdf:about="">
        <dc:format>image/svg+xml</dc:format>
        <dc:type
           rdf:resource="http://purl.org/dc/dcmitype/StillImage" />
        <dc:title></dc:title>
      </cc:Work>
    </rdf:RDF>
  </metadata>
  <path
     id="path5306"
     d="m 266.36804,262.21635 c -52.5463,0 -96.1896,13.429 -128.0606,23.2207 l -10.6679,3.252 c -12.1916,3.5639 -20.711,14.9751 -20.711,27.8027 l -1.0918,15.1309 -0.7793,0.2519 c -5.3998,1.6799 -10.4399,3.3249 -14.8437,4.8008 -11.5317,3.9599 -19.2832,15.0463 -19.2832,27.6699 l -24,319.5743 c 0,15.3115 13.4037,29.2675 28.1152,29.2675 2.6279,0 5.2552,-0.4441 7.7871,-1.332 l 0.012,0.023 c 32.723,-10.7877 116.8404,-35.8554 191.8379,-35.8554 58.7861,0 99.165,15.3111 120.2363,46.1621 l 0,7.332 1.2129,-0.035 -1.0449,8.3027 c 3.4799,-0.24 6.9239,-1.3311 10.0078,-3.2031 l 0.625,-0.3731 0.6231,0.3731 c 3.0839,1.884 6.5159,2.9631 10.0078,3.2031 l -0.8887,-6.8984 0.8281,-1.3086 0.2403,0 0.1914,-8.0645 c 20.8553,-30.1791 61.2357,-45.4785 120.0097,-45.4785 74.9616,0 159.0773,25.0678 191.8243,35.8555 l 0.012,-0.024 c 2.5319,0.8879 5.1491,1.3321 7.789,1.3321 7.0678,0 14.2439,-3.3011 19.6797,-9.0489 5.3638,-5.6878 8.4589,-13.0549 8.459,-20.1347 l -24,-319.7539 c 0,-12.5276 -7.7399,-23.6024 -19.2715,-27.5743 -4.3918,-1.4759 -9.43,-3.0971 -14.8418,-4.789 l -0.7812,-0.252 -1.0918,-15.2265 c 0,-12.7436 -8.5194,-24.1426 -20.711,-27.7305 l -10.6679,-3.252 c -31.859,-9.8037 -75.5124,-23.2207 -128.0586,-23.2207 -69.0578,0 -115.5803,23.5448 -138.2715,69.9473 l -1.0801,2.207 -1.0801,-2.207 c -22.6912,-46.4025 -69.2137,-69.9473 -138.2715,-69.9473 z m 0.012,19.2129 c 72.4296,0 114.7647,26.7583 129.4043,82.4004 0,0 -0.7573,2.8205 -0.8653,3.2285 l 0,320.9043 -1.9668,-1.6425 c -39.1187,-32.7109 -97.9302,-49.3201 -174.7636,-49.3321 -43.8346,0 -74.1327,5.5325 -100.8438,10.4043 l -3.9355,0.7207 -1.6797,0.059 c -4.9559,0 -9.2522,-4.1518 -9.5762,-9.4316 l 23.9277,-320.8692 0.047,-1.4629 c 0,-4.2719 2.88,-8.1122 7.0078,-9.3242 l 9.959,-3 c 35.0149,-10.6197 74.7108,-22.6543 123.2852,-22.6543 z m 278.6914,0 c 48.5624,0 88.2795,12.0346 123.3183,22.6543 l 10.0078,3.0235 c 4.0799,1.2 6.9121,5.0288 6.9121,9.3007 0,0.48 0.012,0.9593 0.061,1.4512 l 23.9141,321.0625 c -0.324,5.1118 -4.6184,9.2637 -9.5742,9.2637 l -1.6446,-0.049 -3.9121,-0.7207 c -26.7471,-4.8838 -57.0577,-10.4278 -100.9043,-10.4278 -76.8214,0 -135.619,16.5835 -174.7617,49.3184 l -1.9687,1.6445 0.023,-320.6523 c -0.132,-0.648 -0.2988,-1.2611 -0.4668,-1.8731 l -0.4082,-2.1719 c 14.6275,-55.0661 56.9507,-81.8242 129.4043,-81.8242 z m 352.54682,36.3457 -29.9746,10.9922 -5.7226,31.4024 24.1426,20.8437 31.3554,5.6992 29.9258,-10.9922 5.7246,-31.3789 -24.1445,-20.83 -31.3067,-5.7364 z m -671.89252,8.7598 -13.9317,2.2793 c -16.0914,2.6399 -31.1999,6.3374 -44.5195,9.6133 l -4.3906,1.0801 -9.1563,2.2304 0,9.4199 0,50.3985 0,15.2754 14.8438,-3.6231 4.4277,-1.0918 c 12.8996,-3.1679 27.5027,-6.7445 42.6582,-9.2285 l 10.0684,-1.6308 0,-10.2012 0,-50.3985 0,-14.123 z m 43.4707,0.01 c -2.4357,0.019 -4.8953,0.065 -7.377,0.1367 -2.3879,0.072 -4.6551,1.0803 -6.2871,2.8203 -1.6439,1.7279 -2.5212,4.0555 -2.4492,6.4434 l 0.072,2.3867 c 0.144,4.9558 4.4169,8.9283 9.2168,8.7363 36.5868,-0.984 67.6285,3.8643 91.9277,14.5079 1.14,0.492 2.3656,0.7441 3.6016,0.7441 1.1039,0 2.2188,-0.2033 3.2988,-0.6113 2.2079,-0.864 3.9971,-2.5815 4.957,-4.7774 l 0.959,-2.207 c 1.992,-4.5598 -0.097,-9.8518 -4.6445,-11.8438 -25.4017,-11.1033 -56.7399,-16.628 -93.2754,-16.3359 z m 648.19922,1.5156 c 2.1522,-0.06 4.4781,0.1148 6.875,0.5528 9.5517,1.7399 16.6064,7.0077 15.7305,11.7715 -0.888,4.7878 -9.3236,7.248 -18.8633,5.496 -9.5877,-1.7279 -16.5945,-7.0311 -15.7305,-11.7949 0.63,-3.5638 5.5316,-5.8465 11.9883,-6.0254 z m -703.66992,12.5996 0,50.3985 c -17.3635,2.8319 -33.5626,6.9721 -47.9981,10.5 l 0,-50.3985 c 14.4355,-3.5278 30.6346,-7.6681 47.9981,-10.5 z m 341.9882,15.5997 c -62.1939,0 -112.7968,50.6028 -112.7968,112.7968 0,62.1939 50.6029,112.7969 112.7968,112.7969 62.194,0 112.7969,-50.603 112.7969,-112.7969 0,-62.194 -50.6029,-112.7968 -112.7969,-112.7968 z m 302.99032,21.5156 -49.127,260.2715 24.7676,92.7089 c 1.104,2.904 3.6593,3.3475 5.6992,1.0196 l 54.959,-78.1641 49.127,-260.2715 -29.9278,11.0157 -31.3301,-5.7129 -24.1679,-20.8672 z m -596.60942,8.9043 c -4.9678,0 -8.998,4.0321 -8.998,9 l 0,2.3867 c 0,4.9678 4.5477,9 9.5156,9 36.2988,0 67.1366,5.4478 91.6758,16.1875 1.1519,0.492 2.3773,0.7441 3.6132,0.7441 1.104,0 2.2195,-0.203 3.2754,-0.623 2.22,-0.864 4.0069,-2.5814 4.9668,-4.7774 l 0.961,-2.207 c 1.9799,-4.5479 -0.097,-9.8518 -4.6446,-11.8437 -27.1191,-11.8556 -60.7065,-17.8672 -100.3652,-17.8672 z m 265.8516,3.8515 c 25.4511,0 38.0389,18.7427 31.2832,35.4942 0.252,-0.036 0.5644,-0.084 0.8164,-0.084 3.9838,0 4.1033,4.5491 3.1914,9.457 -0.864,4.6078 -4.26,10.0196 -8.2559,10.0196 -0.144,0 -0.2511,-0.06 -0.3711,-0.072 -1.7399,4.8719 -3.9125,9.4305 -6.5644,13.3183 0,0 -2.3882,10.8003 -0.072,15.8282 2.3399,5.0398 28.9443,13.7753 33.3242,15.6953 4.3799,1.9079 10.1031,8.3519 10.8711,13.3437 l 3.8887,25.2227 c 0,0.06 0.07,0.1211 0.07,0.2051 0,7.4637 -26.903,13.5117 -68.1817,13.5117 -17.8048,0 -32.8589,-1.1286 -44.289,-3.0117 -8.6749,-8.8768 -15.7302,-19.3404 -20.6778,-30.9141 l 0.7461,-5.0137 c 0.768,-4.9918 6.5147,-11.4358 10.8946,-13.3437 4.3798,-1.908 30.9829,-10.6555 33.2988,-15.6953 2.3159,-5.0279 -0.072,-15.8281 -0.072,-15.8282 -2.6279,-3.8878 -4.8226,-8.4464 -6.5625,-13.3183 -0.12,0.012 -0.2397,0.072 -0.3477,0.072 -3.9838,0 -7.3799,-5.4118 -8.2558,-10.0196 -0.912,-4.9079 -0.7685,-9.457 3.1914,-9.457 0.24,0 0.5404,0.048 0.8164,0.084 -6.7438,-16.7515 5.8066,-35.4942 31.2578,-35.4942 z m 75.9336,19.5586 c 19.6673,0 31.0315,12.036 30.6836,25.0196 0.168,1.6439 0.1685,3.3474 -0.1915,5.2793 -4.0078,24.2032 13.7989,26.5683 13.7989,26.5683 0,0 -2.4598,13.8835 -26.459,18.7793 l 0,0.1797 c 0,0 19.1755,9.5154 22.7754,11.1113 2.2859,1.0062 4.583,3.2195 6.2109,5.7598 -3.1706,8.9006 -7.5563,17.229 -12.9609,24.7832 -8.4977,1.405 -19.8327,2.2895 -33.4121,2.3008 l -4.7403,-27.4199 c -1.2239,-7.8238 -8.4842,-16.176 -15,-18.5879 -13.4995,-5.0039 -19.7395,-7.0669 -24.2754,-16.8946 0,0 17.112,-2.3632 13.0801,-26.5664 -0.324,-1.9079 -0.3234,-3.6359 -0.1914,-5.2558 -0.348,-13.0196 11.0143,-25.0567 30.6817,-25.0567 z m -381.5157,29.0137 c -1.0004,-0.017 -2.0092,0.3552 -2.7832,1.1172 l -31.9179,31.5234 c -1.548,1.5239 -4.0333,1.4882 -5.5332,-0.096 l -9.6348,-10.1875 c -1.488,-1.5839 -3.9964,-1.6447 -5.5684,-0.1328 l -9.9238,9.5293 c -1.5719,1.512 -1.6082,4.0071 -0.072,5.543 l 25.5,25.7265 c 1.536,1.5359 4.0439,1.5477 5.5918,0.012 l 46.4375,-46.1504 c 1.548,-1.536 1.5957,-4.0782 0.096,-5.6621 l -9.4551,-10.0079 c -0.744,-0.7919 -1.7358,-1.1983 -2.7363,-1.2148 z m 39.0313,7.584 c -2.1872,0.1143 -3.9549,1.0479 -5.4668,2.4863 -1.728,1.632 -2.7369,3.9112 -2.7969,6.2871 l -0.061,2.3887 c -0.108,4.9679 3.8173,9.0946 8.7852,9.2266 36.2988,0.888 67.4002,6.8998 92.4433,17.8554 1.14,0.492 2.3656,0.7442 3.6016,0.7442 1.104,0 2.2189,-0.2154 3.2988,-0.6114 2.208,-0.8639 3.9971,-2.5794 4.9571,-4.7754 l 0.9589,-2.2089 c 1.992,-4.5599 -0.097,-9.8519 -4.6445,-11.8438 -27.4911,-12.0116 -61.1726,-18.5869 -100.1113,-19.5469 -0.33,-0.018 -0.6524,-0.018 -0.9649,0 z m 0.3183,59.9746 c -2.081,0.06 -4.0398,0.9349 -5.5937,2.3418 -1.7759,1.608 -2.8312,3.8507 -2.9512,6.2266 l -0.1211,2.3886 c -0.24,4.9678 3.5752,9.1797 8.543,9.4317 35.9868,1.8119 67.1741,8.387 92.6973,19.5586 1.1519,0.492 2.3773,0.7441 3.6132,0.7441 1.104,0 2.2189,-0.2033 3.2989,-0.6113 2.2079,-0.864 3.997,-2.5795 4.957,-4.7754 l 0.959,-2.209 c 1.9799,-4.5478 -0.097,-9.8515 -4.6445,-11.8438 -27.7911,-12.1551 -61.3887,-19.2945 -99.8594,-21.2265 -0.3015,-0.025 -0.6012,-0.034 -0.8985,-0.025 z m -71.9882,28.3926 a 35.998814,35.998814 0 0 0 -35.9981,35.998 35.998814,35.998814 0 0 0 35.9981,36 35.998814,35.998814 0 0 0 36,-36 35.998814,35.998814 0 0 0 -36,-35.998 z m 72.2363,31.625 c -4.5766,0.1948 -8.3744,3.639 -8.7344,8.2851 l -0.1914,2.3887 c -0.18,2.3759 0.5888,4.7505 2.1367,6.5625 1.56,1.8119 3.7664,2.9291 6.1543,3.1211 35.1949,2.6879 67.3415,10.0303 92.9727,21.25 1.1399,0.492 2.3656,0.7441 3.6015,0.7441 1.104,0 2.2189,-0.2147 3.2989,-0.6347 2.2079,-0.864 3.997,-2.5814 4.957,-4.7774 l 0.959,-2.207 c 1.9919,-4.5598 -0.097,-9.8519 -4.6445,-11.8438 -28.1031,-12.2756 -61.6053,-19.9788 -99.584,-22.8828 -0.3113,-0.016 -0.6207,-0.019 -0.9258,-0.01 z m 560.86332,90.207 54.0703,9.8633 -19.0801,23.1953 c -3.8399,0.948 -8.3625,1.1517 -13.1504,0.2637 -4.6438,-0.84 -8.6993,-2.5685 -11.9512,-4.7285 l -9.8886,-28.5938 z"
     style="fill:#333331" />
</svg>
