<?xml version="1.0" encoding="UTF-8" standalone="no"?>
<svg
   xmlns:dc="http://purl.org/dc/elements/1.1/"
   xmlns:cc="http://creativecommons.org/ns#"
   xmlns:rdf="http://www.w3.org/1999/02/22-rdf-syntax-ns#"
   xmlns:svg="http://www.w3.org/2000/svg"
   xmlns="http://www.w3.org/2000/svg"
   width="1000"
   height="1000"
   viewBox="0 0 999.99999 999.99999"
   id="svg7631"
   version="1.1">
  <defs
     id="defs7633">
    <pattern
       id="EMFhbasepattern"
       patternUnits="userSpaceOnUse"
       width="6"
       height="6"
       x="0"
       y="0" />
    <pattern
       id="EMFhbasepattern-8"
       patternUnits="userSpaceOnUse"
       width="6"
       height="6"
       x="0"
       y="0" />
    <pattern
       id="EMFhbasepattern-3"
       patternUnits="userSpaceOnUse"
       width="6"
       height="6"
       x="0"
       y="0" />
    <pattern
       id="EMFhbasepattern-6"
       patternUnits="userSpaceOnUse"
       width="6"
       height="6"
       x="0"
       y="0" />
  </defs>
  <metadata
     id="metadata7636">
    <rdf:RDF>
      <cc:Work
         rdf:about="">
        <dc:format>image/svg+xml</dc:format>
        <dc:type
           rdf:resource="http://purl.org/dc/dcmitype/StillImage" />
        <dc:title></dc:title>
      </cc:Work>
    </rdf:RDF>
  </metadata>
  <path
     id="path4992"
     d="m 665.27245,192.3516 c -12.8959,0 -23.375,10.479 -23.375,23.375 l 0,59.5078 -107.6055,0 c -18.8943,0 -34.291,15.3966 -34.291,34.291 l 0,148.3301 -113.789,0 0,-59.5059 c 0,-12.8959 -10.4791,-23.375 -23.375,-23.375 l -231.3965,0 c -12.8819,0 -23.375,10.4791 -23.375,23.375 l 0,203.3008 c 0,12.8959 10.4791,23.375 23.375,23.375 l 231.4101,0 c 12.8819,0 23.377,-10.4791 23.377,-23.375 l 0,-59.5078 113.7734,0 0,148.332 c 0,18.9084 15.3826,34.291 34.291,34.291 l 107.6055,0 0,59.5059 c 0,12.8959 10.4791,23.3769 23.375,23.3769 l 203.3145,0 c 12.8678,0 23.3476,-10.481 23.3476,-23.3769 l 0,-175.2051 c 0,-12.8959 -10.4798,-23.375 -23.3476,-23.375 l -203.3145,0 c -12.8959,0 -23.375,10.4791 -23.375,23.375 l 0,59.5078 -85.7051,0 0,-337.1484 85.7051,0 0,59.5058 c 0,12.896 10.4791,23.377 23.375,23.377 l 203.3145,0 c 12.8678,0 23.3476,-10.481 23.3476,-23.377 l 0,-175.205 c 0,-12.896 -10.4798,-23.375 -23.3476,-23.375 l -203.3145,0 z"
     style="fill:#333331" />
</svg>
