<?xml version="1.0" encoding="UTF-8" standalone="no"?>
<svg
   xmlns:dc="http://purl.org/dc/elements/1.1/"
   xmlns:cc="http://creativecommons.org/ns#"
   xmlns:rdf="http://www.w3.org/1999/02/22-rdf-syntax-ns#"
   xmlns:svg="http://www.w3.org/2000/svg"
   xmlns="http://www.w3.org/2000/svg"
   width="1000"
   height="1000"
   viewBox="0 0 999.99999 999.99999"
   id="svg7631"
   version="1.1">
  <defs
     id="defs7633">
    <pattern
       id="EMFhbasepattern"
       patternUnits="userSpaceOnUse"
       width="6"
       height="6"
       x="0"
       y="0" />
    <pattern
       id="EMFhbasepattern-8"
       patternUnits="userSpaceOnUse"
       width="6"
       height="6"
       x="0"
       y="0" />
    <pattern
       id="EMFhbasepattern-3"
       patternUnits="userSpaceOnUse"
       width="6"
       height="6"
       x="0"
       y="0" />
    <pattern
       id="EMFhbasepattern-6"
       patternUnits="userSpaceOnUse"
       width="6"
       height="6"
       x="0"
       y="0" />
  </defs>
  <metadata
     id="metadata7636">
    <rdf:RDF>
      <cc:Work
         rdf:about="">
        <dc:format>image/svg+xml</dc:format>
        <dc:type
           rdf:resource="http://purl.org/dc/dcmitype/StillImage" />
        <dc:title></dc:title>
      </cc:Work>
    </rdf:RDF>
  </metadata>
  <path
     id="rect3250"
     d="m 397.27705,30.414042 0,88.046898 0,88.0488 88.0488,0 88.0469,0 0,-88.0488 0,-88.046898 -88.0469,0 -88.0488,0 z m 139.4082,35.998096 0,51.820302 0,51.5898 -47.9199,0 c -33.7946,0 -48.8732,-3.0033 -51.5918,-10.0878 -2.1203,-5.5254 -2.8415,-27.8132 -1.6035,-49.5274 l 2.0625,-39.437502 49.5273,-2.0645 49.5254,-2.2929 z m -308.164,74.060502 0,69.7051 0,69.7031 66.0351,0 66.0352,0 0,-69.7031 0,-69.7051 -66.0352,0 -66.0351,0 z m 36.6855,36.6875 29.3496,0 29.3496,0 0,33.0176 0,33.0176 -29.3496,0 -29.3496,0 0,-33.0176 0,-33.0176 z m 344.8516,29.3496 0,106.3907 0,106.3886 106.3906,0 106.3906,0 0,-106.3886 0,-106.3907 -106.3906,0 -106.3906,0 z m -212.7813,36.6856 0,88.0469 c 0,82.5191 0.9838,88.0468 14.4453,88.0468 13.4918,0 13.0812,2.7117 -7.1074,45.4004 -11.8207,24.9949 -25.4309,63.7907 -30.2656,86.2129 -4.835,22.4223 -9.8614,42.2999 -11.2363,44.0235 -3.3836,4.2413 -46.545,-37.4265 -46.545,-44.9414 0,-3.2805 9.9053,-5.961 22.0118,-5.961 l 22.0117,0 0,-113.7265 0,-113.7286 -110.0586,0 -110.0581,0 0,113.7286 0,113.7265 68.3276,0 68.5567,0 12.1523,25.9102 c 6.7545,14.1642 25.5423,39.9887 41.7305,57.5508 24.9612,27.0797 29.4862,36.8958 29.5781,64.2011 0.2447,72.6348 38.3115,179.4351 88.0488,246.7168 l 23.1582,31.18362 64.8887,0 64.8887,0 -41.961,-39.89652 c -23.0443,-21.9806 -54.1201,-60.5745 -69.0156,-85.7539 l -27.0566,-45.8594 31.1836,-30.7246 c 17.1653,-16.9228 37.7611,-42.713 45.6289,-57.3222 l 14.2168,-26.5977 79.1035,0 78.8769,0 0,-113.7285 0,-113.7266 -113.7285,0 -113.7266,0 0,113.7266 c 0,108.8363 0.6308,113.7285 14.6739,113.7285 8.071,0 14.6738,3.3278 14.6738,7.3379 0,11.1455 -60.3311,52.4774 -66.9512,45.8574 -3.1991,-3.1991 -9.0356,-27.6935 -12.8418,-54.5703 -10.6667,-75.3207 6.0702,-175.3168 40.586,-242.5898 9.5457,-18.605 13.6923,-20.1778 54.1113,-20.1778 l 43.7949,0 0,-88.0468 0,-88.0469 -88.0469,0 -88.0488,0 z m 264.1426,14.6738 55.0293,0 55.0293,0 0,55.0313 0,55.0293 -55.0293,0 -55.0293,0 0,-55.0293 0,-55.0313 z m -124.7344,21.3242 0,51.8203 0,51.5899 -47.9199,0 c -33.7946,0 -48.8732,-3.0035 -51.5918,-10.0879 -2.1203,-5.5254 -2.8415,-27.8131 -1.6035,-49.5273 l 2.0625,-39.4375 49.5273,-2.0645 49.5254,-2.293 z m -352.1875,88.7364 62.3653,0 62.3671,0 0,62.3672 0,62.3652 -57.3222,0 c -31.6115,0 -59.6769,-2.1241 -62.3672,-4.8145 -2.6903,-2.6903 -5.043,-30.7557 -5.043,-62.3672 l 0,-57.5507 z m 564.9688,88.0468 0,55.0293 0,55.0293 55.0293,0 55.0293,0 0,-55.0293 0,-55.0293 -55.0293,0 -55.0293,0 z m 55.0293,36.6856 c 14.6745,0 18.3437,3.6692 18.3437,18.3437 0,14.6746 -3.6692,18.3438 -18.3437,18.3438 -14.6746,0 -18.3418,-3.6692 -18.3418,-18.3438 0,-14.6745 3.6672,-18.3437 18.3418,-18.3437 z m -267.8106,14.6758 62.3672,0 62.3672,0 0,62.3652 0,62.3672 -57.3223,0 c -31.6114,0 -59.6769,-2.1241 -62.3672,-4.8145 -2.6903,-2.6903 -5.0449,-30.7557 -5.0449,-62.3672 l 0,-57.5507 z"
     style="fill:#000000;stroke:none" />
</svg>
