<?xml version="1.0" encoding="UTF-8" standalone="no"?>
<svg
   xmlns:dc="http://purl.org/dc/elements/1.1/"
   xmlns:cc="http://creativecommons.org/ns#"
   xmlns:rdf="http://www.w3.org/1999/02/22-rdf-syntax-ns#"
   xmlns:svg="http://www.w3.org/2000/svg"
   xmlns="http://www.w3.org/2000/svg"
   width="1000"
   height="1000"
   viewBox="0 0 999.99999 999.99999"
   id="svg7631"
   version="1.1">
  <defs
     id="defs7633">
    <pattern
       id="EMFhbasepattern"
       patternUnits="userSpaceOnUse"
       width="6"
       height="6"
       x="0"
       y="0" />
    <pattern
       id="EMFhbasepattern-8"
       patternUnits="userSpaceOnUse"
       width="6"
       height="6"
       x="0"
       y="0" />
    <pattern
       id="EMFhbasepattern-3"
       patternUnits="userSpaceOnUse"
       width="6"
       height="6"
       x="0"
       y="0" />
    <pattern
       id="EMFhbasepattern-6"
       patternUnits="userSpaceOnUse"
       width="6"
       height="6"
       x="0"
       y="0" />
  </defs>
  <metadata
     id="metadata7636">
    <rdf:RDF>
      <cc:Work
         rdf:about="">
        <dc:format>image/svg+xml</dc:format>
        <dc:type
           rdf:resource="http://purl.org/dc/dcmitype/StillImage" />
        <dc:title></dc:title>
      </cc:Work>
    </rdf:RDF>
  </metadata>
  <path
     id="path5506"
     d="m 499.97325,200.35435 c -229.5138,0 -416.2332,191.0492 -416.2332,425.9002 0,37.4443 4.7639,74.5824 14.1529,110.35 1.8024,6.8462 6.2602,12.7137 12.4077,16.2626 4.0659,2.3472 8.649,3.5482 13.2736,3.5482 2.3473,0 4.7068,-0.3069 6.9982,-0.9217 l 206.7126,-56.486 c 30.2908,61.1823 92.5075,100.638 162.7016,100.638 70.0823,0 132.3543,-39.458 162.6591,-100.5843 l 206.9206,56.1818 c 6.8462,1.8581 14.1404,0.8948 20.274,-2.64 6.1196,-3.5767 10.5908,-9.4176 12.3653,-16.2917 9.333,-35.6978 14.0543,-72.7243 14.0543,-110.0569 -0.028,-234.851 -186.759,-425.9002 -416.2867,-425.9002 z m -23.9476,53.9736 6.7901,126.5142 c -26.5044,1.914 -51.9204,7.9081 -75.3371,17.8419 l -55.6067,-112.7103 c 38.3524,-17.6601 80.1847,-28.6838 124.1537,-31.6458 z m 47.8794,0 c 43.983,2.962 85.8282,13.9851 124.1806,31.6594 l -55.5777,112.6967 c -23.4445,-9.9199 -48.845,-15.9418 -75.3773,-17.8419 l 6.7744,-126.5142 z m -196.9717,44.2349 55.5933,112.6812 c -22.6481,12.9099 -42.8652,29.4529 -60.0924,48.7898 l -94.2553,-80.6437 c 28.0274,-32.4564 61.3799,-59.9395 98.7544,-80.8273 z m 346.1066,0.014 c 37.3744,20.8738 70.7252,48.3575 98.7386,80.8138 l -94.2261,80.6438 c -17.2131,-19.3368 -37.4566,-35.8659 -60.0768,-48.7898 l 55.5643,-112.6678 z m -188.7297,109.9428 6.8168,127.494 c -19.8537,2.1237 -37.5681,11.3575 -50.6736,25.0639 l -96.9779,-82.9907 c 35.2646,-39.3863 84.9756,-65.4176 140.8347,-69.5672 z m 31.3237,0 c 55.859,4.1496 105.6131,30.1512 140.8638,69.5515 l -97.0049,83.022 c -13.1054,-13.7202 -30.8219,-22.9558 -50.6758,-25.0795 l 6.8169,-127.494 z m -316.2214,8.7342 101.9804,69.8848 c -14.1674,21.4187 -24.7442,45.2981 -31.4088,70.7687 l -121.8203,-24.2138 c 10.5348,-42.1388 28.0835,-81.3986 51.2487,-116.4397 z m 601.1347,0 c 23.1792,35.0411 40.7274,74.301 51.2621,116.4397 l -121.7912,24.1981 c -6.6646,-25.4705 -17.2711,-49.3482 -31.4244,-70.753 l 101.9535,-69.8848 z m -476.2561,85.5769 105.4169,72.2608 c -7.6706,12.5048 -12.1685,27.1474 -12.1685,42.8657 0,1.3412 0.14,2.6813 0.2238,4.0225 l -124.5163,33.9951 c -2.2773,-12.4768 -3.4945,-25.2189 -3.4946,-38.031 0,-42.4881 12.7568,-82.0141 34.5387,-115.1131 z m 351.4178,0 c 21.768,33.099 34.5386,72.611 34.5386,115.1131 0,12.84 -1.2166,25.5961 -3.508,38.0869 l -124.5431,-33.7847 c 0.07,-1.4391 0.2081,-2.8358 0.2081,-4.2888 0,-15.7183 -4.4979,-30.3609 -12.1684,-42.8657 l 105.4728,-72.2608 z m -533.1896,58.2199 121.9724,24.2539 c -1.467,10.7024 -2.5012,21.5301 -2.5012,32.6236 0,15.299 1.4537,30.5016 4.3179,45.4094 l -122.9659,33.6147 c -4.3172,-23.1792 -6.4968,-46.8473 -6.4968,-70.6971 0,-22.243 2.013,-44.0233 5.6736,-65.2045 z m 714.9055,0 c 3.6606,21.1812 5.6737,42.9476 5.6737,65.2045 0.028,23.738 -2.1378,47.3518 -6.4411,70.489 l -123.0083,-33.4066 c 2.8781,-14.8659 4.3313,-30.0965 4.3313,-45.4094 0,-11.0936 -1.0197,-21.9207 -2.5147,-32.637 l 121.9591,-24.2406 z m -357.4516,27.5651 c 16.1793,0 29.3392,13.1482 29.3392,29.3415 0,16.1933 -13.1461,29.3414 -29.3392,29.3414 -16.1933,0 -29.3415,-13.1481 -29.3415,-29.3414 0,-16.1793 13.1622,-29.3415 29.3415,-29.3415 z m -62.4685,82.9929 c 15.1314,17.5765 37.501,28.7957 62.4685,28.7957 24.8556,0 47.125,-11.1073 62.2424,-28.572 l 72.724,19.7281 c -26.4905,48.8452 -77.6125,80.1426 -134.9664,80.1426 -57.4659,0 -108.5621,-31.3266 -135.0246,-80.2836 l 72.5561,-19.8108 z"
     style="fill:#333331" />
</svg>
