<?xml version="1.0" encoding="UTF-8" standalone="no"?>
<svg
   xmlns:dc="http://purl.org/dc/elements/1.1/"
   xmlns:cc="http://creativecommons.org/ns#"
   xmlns:rdf="http://www.w3.org/1999/02/22-rdf-syntax-ns#"
   xmlns:svg="http://www.w3.org/2000/svg"
   xmlns="http://www.w3.org/2000/svg"
   version="1.1"
   id="svg7631"
   viewBox="0 0 999.99999 999.99999"
   height="1000"
   width="1000">
  <defs
     id="defs7633">
    <pattern
       y="0"
       x="0"
       height="6"
       width="6"
       patternUnits="userSpaceOnUse"
       id="EMFhbasepattern" />
    <pattern
       y="0"
       x="0"
       height="6"
       width="6"
       patternUnits="userSpaceOnUse"
       id="EMFhbasepattern-8" />
    <pattern
       y="0"
       x="0"
       height="6"
       width="6"
       patternUnits="userSpaceOnUse"
       id="EMFhbasepattern-3" />
    <pattern
       y="0"
       x="0"
       height="6"
       width="6"
       patternUnits="userSpaceOnUse"
       id="EMFhbasepattern-6" />
  </defs>
  <metadata
     id="metadata7636">
    <rdf:RDF>
      <cc:Work
         rdf:about="">
        <dc:format>image/svg+xml</dc:format>
        <dc:type
           rdf:resource="http://purl.org/dc/dcmitype/StillImage" />
        <dc:title></dc:title>
      </cc:Work>
    </rdf:RDF>
  </metadata>
  <path
     id="path3349"
     d="m 276.16874,206.46435 c -11.04073,11.04071 -10.97093,42.32461 -20.38462,61.15199 -41.6531,85.00461 -21.6328,185.19222 63.19082,226.25651 39.06651,18.91263 26.40021,3.97864 46.88199,24.46042 8.57674,8.57674 -26.25606,120.15183 -28.53809,120.77249 -157.90209,42.94508 -194.47127,-42.0484 -218.10304,-94.27324 -5.56124,-10.71455 -52.801872,9.39396 -73.381254,26.49926 -5.961576,5.96157 4.797897,21.82695 6.114635,24.46042 45.562296,84.14162 204.890829,98.03161 295.561969,73.37937 46.86484,-15.06436 56.79519,-22.62976 88.46677,-39.59292 9.20612,15.53873 27.46491,33.24547 39.94995,43.67059 10.94916,10.94916 9.72004,30.10284 18.34578,55.03547 10.12625,29.26986 32.11541,44.59392 65.22779,61.15011 13.64343,6.82171 74.83822,5.38709 89.68631,-2.03697 17.08774,-8.54386 -2.06504,-65.25583 -12.22927,-75.42009 -11.21745,-11.21744 -28.59051,-28.56336 -44.84316,-36.68968 -18.46312,-9.23156 -70.60406,-4.71758 -105.90307,-13.61981 -19.86977,-5.01106 -46.19648,-33.48162 -37.80211,-39.3787 28.73451,-20.18612 32.6949,-31.59309 55.03546,-37.70817 28.54676,4.98678 57.63033,19.94382 78.80813,24.1654 4.38701,0.87451 5.47363,10.0181 10.88007,14.56313 42.79906,27.37931 189.30547,55.78355 247.66149,41.78584 41.16206,-9.87344 83.73483,-26.08951 114.91153,-57.58354 1.45891,-2.91782 -3.94678,-7.13328 -5.5772,-8.03134 -76.34346,-7.02804 -279.27001,29.07601 -360.97203,-0.54682 135.72583,16.32335 266.76262,-7.30352 360.3632,-0.91325 -10.20736,-10.14143 -56.00282,-37.84686 -61.8435,-38.92019 -12.48453,-14.22482 -163.005,-31.96317 -260.91112,0 -39.93913,7.32537 -34.05225,29.97643 -42.80432,38.72852 -11.40893,11.40892 -67.74137,-18.81865 -71.34429,-22.42157 -7.84334,-7.84334 38.42497,-32.16791 46.88388,-36.68969 39.41478,-21.06954 68.02741,-21.61993 101.91746,-34.65273 13.41463,-7.00933 55.25216,-19.15929 122.30209,-22.42158 -68.21716,-31.9062 -118.17034,-19.9747 -191.60567,10.1923 -13.8265,-13.8265 21.56165,-79.98833 4.03258,-69.36558 -34.26865,20.76707 -42.75771,32.67929 -46.83877,28.59823 -2.94535,-2.94534 -13.26595,-13.79203 -12.23115,-18.34578 7.00615,-30.83158 -17.41055,-156.90269 -21.80335,-117.91437 -9.44408,83.82106 -25.65969,87.89784 -6.56751,145.17654 3.71971,30.65236 19.57738,49.47043 -69.46893,139.88307 -22.12875,22.12873 -73.90881,40.2398 -81.53473,32.61389 -6.74364,-6.74364 0.99957,-47.88223 32.61389,-122.30209 82.11815,-181.78134 -6.23093,-223.73682 -67.26662,-260.90924 -11.84442,-11.62278 -37.06368,-25.86 -46.88199,-42.8062 z m 4.0758,14.26811 c 52.25533,74.70036 110.79518,207.3396 96.24066,282.46267 0,3.98937 -4.24415,4.75736 -7.64424,3.05732 14.08279,-95.48859 -41.02659,-182.3104 -88.59642,-285.51999 z m 453.88288,4.77482 c 0.59874,24.62679 5.87158,46.49289 -1.36611,66.56947 3.1317,-24.53542 -0.92446,-44.15321 -7.3417,-66.24249 -11.0576,1.31067 -28.25514,4.58436 -40.67528,7.76073 8.15426,19.75208 -29.78921,155.79141 -40.50053,166.232 17.06184,-40.30369 29.36051,-124.18792 33.87478,-166.11549 -48.9065,13.75204 -101.94013,43.37441 -128.80945,78.748 -19.42779,18.54604 -16.36886,18.9621 -11.8591,34.05516 2.31776,7.75694 4.27657,62.98557 7.49203,85.52221 0.99131,6.94788 6.39804,12.87408 6.91514,11.38554 34.79621,-22.40908 36.16224,-25.65508 59.05489,-38.45228 3.89015,30.95215 -14.34216,57.71931 -10.13406,72.59577 1.08185,3.82453 100.69468,-24.94769 105.48402,-30.57504 43.27353,-50.84534 65.75245,-72.39304 68.90333,-137.96074 -27.67942,-0.16803 -65.97171,0.27774 -91.83226,6.9452 24.04738,-14.6505 68.46946,-12.61322 91.45643,-13.06736 -1.42908,-25.8568 -4.2364,-60.1207 -17.56782,-74.02203 -6.76849,-2.08553 -14.5676,-3.1716 -23.09431,-3.37865 z"
     style="opacity:1;fill:#000000;fill-rule:evenodd;stroke:#000000;stroke-width:0.96210599px;stroke-linecap:butt;stroke-linejoin:miter;stroke-opacity:1" />
</svg>
