<?xml version="1.0" encoding="UTF-8" standalone="no"?>
<svg
   xmlns:dc="http://purl.org/dc/elements/1.1/"
   xmlns:cc="http://creativecommons.org/ns#"
   xmlns:rdf="http://www.w3.org/1999/02/22-rdf-syntax-ns#"
   xmlns:svg="http://www.w3.org/2000/svg"
   xmlns="http://www.w3.org/2000/svg"
   width="1000"
   height="1000"
   viewBox="0 0 999.99999 999.99999"
   id="svg7631"
   version="1.1">
  <defs
     id="defs7633">
    <pattern
       id="EMFhbasepattern"
       patternUnits="userSpaceOnUse"
       width="6"
       height="6"
       x="0"
       y="0" />
    <pattern
       id="EMFhbasepattern-8"
       patternUnits="userSpaceOnUse"
       width="6"
       height="6"
       x="0"
       y="0" />
    <pattern
       id="EMFhbasepattern-3"
       patternUnits="userSpaceOnUse"
       width="6"
       height="6"
       x="0"
       y="0" />
  </defs>
  <metadata
     id="metadata7636">
    <rdf:RDF>
      <cc:Work
         rdf:about="">
        <dc:format>image/svg+xml</dc:format>
        <dc:type
           rdf:resource="http://purl.org/dc/dcmitype/StillImage" />
        <dc:title></dc:title>
      </cc:Work>
    </rdf:RDF>
  </metadata>
  <path
     id="path4910-2"
     d="m 456.88407,166.09367 c -0.69137,-0.1112 -1.38893,-0.2102 -2.09216,-0.296 -11.25139,-1.3731 -24.00349,0.5545 -37.77829,7.5281 -10.73742,5.436 -17.87227,15.3123 -22.66004,27.8142 -4.78776,12.5018 -7.3377,27.723 -8.98131,44.4779 -3.0545,31.1376 -2.95629,67.6098 -7.35213,101.2498 l -318.317741,43.4253 c -4.198,1.1768 -6.31569,2.8757 -6.46976,5.0693 l -27.07401,370.1759 c -5.66325,19.6665 7.8288,20.8619 52.99286,63.6311 13.819366,5.9466 20.432096,5.6286 27.030841,5.2998 l 373.63972,-51.7208 c 3.12035,-0.2791 15.61504,-3.6953 13.32531,-11.9112 -5.62314,-20.1771 -48.35288,-207.5466 -49.74982,-223.6133 l -2.08673,53.2689 -0.0754,53.4865 c 0.34274,6.1786 -12.95686,14.143 -21.28734,4.5269 0.58725,-24.5763 0.21982,-38.7732 6.91284,-114.8831 l -3.54244,-37.4522 9.77238,-55.2481 c 0.48474,3.1062 0.84527,5.3487 0.84529,5.3486 5.68343,-11.2556 29.3687,-47.0665 70.84595,-37.0198 43.66179,11.263 50.95911,49.2939 54.91666,64.2345 l 4.31372,48.165 c -4.20497,5.5593 -10.13396,8.7832 -23.97884,1.2852 2.33154,-25.7963 7.26223,-51.2509 -16.02861,-80.4142 -11.17248,-6.7294 -34.9656,-15.568 -46.13263,-10.8149 -20.59752,8.1081 -24.49986,28.6132 -27.33002,49.9145 l -1.27763,54.9835 50.72169,213.6904 c 2.81855,10.1036 4.56674,21.932 11.91703,24.7358 l 411.7491,-25.6295 c 2.25769,-1.5551 4.58047,-0.1483 6.7534,-5.5021 l 44.62734,-168.0685 -162.14403,-341.951 c -3.46371,-3.5666 -10.36835,-8.2936 -15.72976,-7.5272 l -292.09555,-23.3577 c -0.49016,-4.2032 -1.95344,-8.7748 -4.21048,-13.4208 -3.66787,-7.5498 -9.52314,-15.2731 -17.29171,-21.5018 -7.28298,-5.8396 -16.3072,-10.3113 -26.67767,-11.9789 z m -0.707,4.6775 0,0 c 9.46539,1.5406 17.63158,5.7011 24.34905,11.0871 7.16529,5.745 12.61406,12.9461 15.9606,19.8345 3.34652,6.8884 4.48913,13.4824 3.56977,17.6237 l 1.87803,0.4175 c -0.74161,15.4656 0.16691,51.2088 -1.99704,52.2173 -4.80058,2.2372 -7.99588,2.9553 -12.49367,2.0822 -0.41545,-0.1141 -0.82896,-0.24 -1.24576,-0.3439 -0.58976,-0.148 -1.1808,-0.285 -1.7727,-0.4141 -1.3587,-0.4055 -2.84322,-0.9164 -4.51956,-1.5458 0.50681,-1.2311 1.89122,-9.705 3.12542,-19.5117 l 1.09851,0.3324 c 4.85707,-16.0224 4.36318,-35.3286 -3.30731,-49.8618 -4.79408,-9.0831 -12.62188,-16.1536 -23.43513,-18.9945 -1.21648,-0.3196 -2.47101,-0.5862 -3.763,-0.7957 -5.59874,-0.907 -11.90534,-0.7499 -18.91427,0.73 -10.82392,2.2851 -18.00951,11.3875 -22.65973,23.9103 -4.65026,12.523 -7.03903,28.7601 -8.3909,46.7028 -2.70368,35.8851 0.63187,78.785 -2.02196,110.854 l -0.0981,-0.017 c -0.69793,8.4321 -0.27758,17.0619 -0.0239,25.6622 -7.02245,8.5271 -13.3999,12.3437 -21.44885,6.2111 l 1.46738,-41.7362 0.20564,0.026 c 5.60399,-36.2529 5.21942,-76.0557 8.46639,-109.1555 1.62349,-16.5498 4.16363,-31.4116 8.68426,-43.2158 4.52062,-11.8044 10.91236,-20.4581 20.31653,-25.219 13.84719,-7.0103 26.24331,-8.6289 36.97073,-6.8828 z m -1.847,18.1374 c 11.12227,1.7943 17.47818,7.1073 22.19825,16.0503 1.22064,2.3127 2.23855,4.7952 3.06946,7.3937 l -20.18719,-0.6493 -13.38522,65.691 c -16.58002,7.3753 -30.07052,21.7405 -34.92827,40.6187 l -0.0459,0.178 -4.09107,29.4902 -1.22302,-0.4362 c 1.20791,-29.3248 1.72045,-62.7461 3.92086,-91.9514 1.33575,-17.7289 3.77055,-33.7943 8.12927,-45.5322 4.35871,-11.7378 10.85225,-17.97 19.56849,-19.8102 8.67605,-1.614 8.24766,-0.873 16.97437,-1.0425 z m 21.94685,90.3872 c 1.56955,0.2502 2.25125,0.451 0.74361,0.3788 -2.06474,-0.099 29.34466,2.1172 41.30277,28.2561 10.20365,14.1985 13.82509,37.3883 13.18993,62.4142 -0.21648,8.5295 -2.14934,17.3717 -3.04579,18.4808 -4.21445,5.2138 -19.20351,1.6943 -21.70884,-2.5734 12.51206,-39.066 3.00272,-68.5742 -10.8709,-77.5757 -4.9947,-3.2406 -11.37237,-7.5329 -17.43416,-9.6071 0,0 -21.04633,-2.7019 -30.9655,7.5615 -9.54609,9.8774 -10.18538,28.4558 -13.06059,48.1111 -0.5287,3.6141 -0.0355,7.2784 -0.62969,10.8197 -3.30725,19.709 -2.96096,58.9084 -5.14059,82.3038 0.58018,27.7352 -8.65309,46.048 -9.02554,71.2262 2.23683,-0.036 -18.17277,6.2896 -21.53864,-7.1565 1.40405,-9.6474 5.13811,-34.0338 7.90218,-71.6177 l 3.94151,-73.7099 0.91507,0.1263 6.55066,-47.216 c 5.54452,-21.3554 23.57682,-36.3184 43.91834,-40.1807 2.10853,-0.4005 4.24019,-0.6766 6.38255,-0.8374 0.91951,0.024 1.76219,0.064 2.50193,0.1117 2.0452,0.1317 4.50227,0.4333 6.07172,0.684 z"
     style="fill:#000000;fill-rule:evenodd;stroke:#000000;stroke-width:0.80927837px;stroke-linecap:butt;stroke-linejoin:miter;stroke-opacity:1" />
</svg>
