<?xml version="1.0" encoding="UTF-8" standalone="no"?>
<svg
   xmlns:dc="http://purl.org/dc/elements/1.1/"
   xmlns:cc="http://creativecommons.org/ns#"
   xmlns:rdf="http://www.w3.org/1999/02/22-rdf-syntax-ns#"
   xmlns:svg="http://www.w3.org/2000/svg"
   xmlns="http://www.w3.org/2000/svg"
   width="1000"
   height="1000"
   viewBox="0 0 999.99999 999.99999"
   id="svg7631"
   version="1.1">
  <defs
     id="defs7633">
    <pattern
       id="EMFhbasepattern"
       patternUnits="userSpaceOnUse"
       width="6"
       height="6"
       x="0"
       y="0" />
    <pattern
       id="EMFhbasepattern-8"
       patternUnits="userSpaceOnUse"
       width="6"
       height="6"
       x="0"
       y="0" />
    <pattern
       id="EMFhbasepattern-3"
       patternUnits="userSpaceOnUse"
       width="6"
       height="6"
       x="0"
       y="0" />
    <pattern
       id="EMFhbasepattern-6"
       patternUnits="userSpaceOnUse"
       width="6"
       height="6"
       x="0"
       y="0" />
  </defs>
  <metadata
     id="metadata7636">
    <rdf:RDF>
      <cc:Work
         rdf:about="">
        <dc:format>image/svg+xml</dc:format>
        <dc:type
           rdf:resource="http://purl.org/dc/dcmitype/StillImage" />
        <dc:title></dc:title>
      </cc:Work>
    </rdf:RDF>
  </metadata>
  <path
     id="path5027"
     d="m 812.09196,269.3319 c -2.1359,0 -4.1685,0.4508 -5.8926,1.2872 l -84.7012,41.3789 c -5.7385,2.792 -8.2609,10.0614 -5.3144,16.8808 30.3525,68.5923 60.7045,137.1337 91.0957,205.6875 2.2388,4.9665 7.746,8.4414 13.3945,8.4414 1.158,0 2.2895,-0.1423 3.3574,-0.4512 15.8003,-4.3231 25.8885,-8.581 35.6543,-12.6855 9.9974,-4.2202 19.442,-8.197 34.2773,-12.0957 5.9445,-1.5826 9.8033,-8.3894 8.5938,-15.1445 l -2.0703,-11.3867 c -14.2949,-78.7185 -27.8051,-153.0742 -75.9395,-216.0567 -2.7534,-3.6155 -7.5271,-5.8555 -12.455,-5.8555 z m -625.38676,0.014 c -4.8507,0 -9.5597,2.2125 -12.2617,5.7637 -47.5167,62.1591 -60.8453,135.5257 -74.9472,213.2148 l -2.0586,11.2832 c -1.1838,6.6649 2.6116,13.3698 8.4531,14.9395 14.668,3.86 23.9836,7.7835 33.8652,11.9394 9.6372,4.053 19.5958,8.2486 35.2031,12.5332 1.0551,0.283 2.1615,0.4375 3.3067,0.4375 5.5841,0 10.9998,-3.4231 13.2129,-8.3125 0,0 63.6918,-143.7719 90.1972,-203.705 2.6248,-6.0473 0.1411,-13.2142 -5.5332,-15.9805 l -83.582,-40.8516 c -1.7241,-0.8235 -3.7453,-1.2617 -5.8555,-1.2617 z m 236.9532,38.7031 c -8.7365,0.064 -13.9213,2.869 -19.9043,6.1114 -8.016,4.336 -17.0999,9.2519 -36.9532,9.2519 -3.8728,0 -8.1436,-0.1808 -12.9043,-0.6055 -1.544,-0.1418 -3.0244,-0.205 -4.414,-0.205 -7.8873,0 -13.6898,2.0971 -17.2539,6.2402 -4.4648,5.1724 -4.4646,12.4406 -3.6797,17.6387 0.9393,6.5492 3.486,12.8667 7.539,18.7597 l -1.6464,1.879 c -5.1467,-2.6249 -9.4953,-5.5574 -14.1016,-8.6583 -2.9851,-2.0072 -6.087,-4.0915 -9.5996,-6.2402 0,0 -4.8631,-2.793 -5.6094,-3.2305 l -13.7793,29.3243 3.7559,2.2773 c 23.3916,14.2177 47.5562,28.9102 73.1738,28.9102 3.7699,0 7.5647,-0.3216 11.2832,-0.9649 8.1575,-1.4025 16.3672,-3.2808 24.5762,-5.1465 16.508,-3.7442 33.5558,-7.6289 49.8965,-7.6289 15.4271,0 30.6356,5.5954 43.6953,10.8321 31.2918,12.5837 56.5626,29.2204 77.2265,50.875 l 90.9414,95.5351 c 10.8595,15.3371 7.5145,37.1471 -7.4238,48.6113 -2.5733,2.0073 -5.4167,3.6032 -8.7363,4.877 -1.9943,0.7592 -4.2859,1.3378 -6.7949,1.7109 0.4632,10.8852 -4.31,21.8082 -12.6348,28.7305 -2.9593,2.419 -6.2527,4.3115 -9.791,5.6367 -3.6413,1.3768 -7.4619,2.084 -11.3477,2.084 -4.1044,0 -8.1066,-0.7586 -11.9023,-2.2383 -1.7628,6.7422 -5.4426,12.8533 -10.4863,17.3438 -3.2296,2.985 -6.8061,5.1586 -10.8848,6.664 -3.6541,1.4025 -7.5528,2.1114 -11.5801,2.1114 -3.0494,0 -5.9962,-0.4113 -8.7754,-1.209 -1.5826,6.7164 -5.095,12.904 -9.9843,17.5488 -3.4998,3.3197 -7.4255,5.7909 -11.6329,7.3477 -3.6798,1.3639 -7.5523,2.0586 -11.541,2.0586 -9.2897,0 -18.2057,-4.0284 -24.2402,-10.8477 l -22.4395,-14.9238 0.1407,-0.8106 c 3.2938,-19.21 12.495,-46.3719 12.5722,-46.6035 5.2882,-17.8589 -4.5687,-36.8508 -21.9902,-42.332 -3.1652,-1.0036 -6.3683,-1.5176 -9.5078,-1.5176 -2.6377,0 -5.3013,0.3465 -7.9004,1.0156 l -1.2617,0.3223 -0.3086,-1.2481 c -2.805,-10.911 -10.6411,-19.6228 -20.9473,-23.3027 -3.474,-1.2352 -7.1017,-1.8652 -10.7558,-1.8652 -8.3119,0 -16.2764,3.2425 -22.4395,9.1484 l -1.1719,1.1192 -0.8222,-1.3887 c -3.7443,-6.279 -9.2257,-11.0019 -15.8907,-13.6524 -3.8471,-1.6084 -7.9132,-2.4062 -12.082,-2.4062 -7.2182,0 -14.3595,2.4572 -20.0723,6.9219 l -1.1699,0.9277 -0.7461,-1.3008 c -3.5254,-6.1632 -8.9822,-11.1036 -15.3769,-13.8828 -4.1817,-1.8271 -8.543,-2.7539 -12.9434,-2.7539 -11.6701,0 -22.5942,6.7052 -28.5,17.4746 l -0.9004,1.6465 -1.209,-1.4277 c -13.8703,-16.2763 -27.5101,-31.5119 -41.7793,-38.7559 -2.9593,-1.4925 -6.5107,-3.19 -10.3964,-4.9785 l -13.7676,29.3867 c 4.0272,1.8528 7.6692,3.5774 10.6543,5.0957 10.1518,5.1724 23.3912,20.8049 35.0742,34.5723 l 1.9297,2.2773 7.5801,9.2774 c 0.2316,13.42 8.0548,25.4764 19.9179,30.6875 4.3104,1.8142 8.6836,2.7402 12.8653,2.7402 l 4.1308,-0.09 4.4766,3.7696 c 0.3088,4.1817 1.108,7.7966 2.459,11.039 3.474,8.2733 9.9074,14.6818 18.1035,18.0528 3.9758,1.5955 8.0791,2.4062 12.1836,2.4062 3.1137,0 6.4855,-0.591 11.0918,-1.6074 l 1.3379,0.8477 0,0.7089 c 0,5.1853 1.0942,10.0862 3.2558,14.6153 3.8086,8.1446 10.4736,14.2835 18.7598,17.2558 3.4869,1.2866 7.1659,1.9551 10.9101,1.9551 4.1303,0 8.4399,-0.9001 12.4414,-2.6113 l 1.3008,-0.5547 0.4239,1.3379 c 3.281,10.332 11.2329,22.2224 21.6035,25.4648 5.018,1.647 9.5591,2.4434 13.8437,2.4434 6.5234,0 11.9165,-1.8904 17.6035,-3.8848 2.5476,-0.8878 5.1843,-1.8144 8.0664,-2.625 1.7628,-0.476 2.9719,-1.1961 5.0821,-2.457 l 0.6953,-0.3867 6.5234,4.3613 c 11.9146,11.4385 27.3935,17.7305 43.6055,17.7305 7.5141,0 14.8599,-1.3256 21.8594,-3.9375 8.1189,-3.0237 15.543,-7.6689 22.0664,-13.8321 2.599,-2.4318 5.0968,-5.2363 8.2363,-8.8261 3.8986,-0.6305 7.8475,-1.673 11.7461,-3.127 6.0087,-2.2388 11.8514,-7.8221 16.998,-12.75 1.3382,-1.2739 2.6247,-2.5217 3.8985,-3.6797 2.3417,-2.123 4.5293,-4.3757 7.4629,-7.3222 5.5584,-0.4889 11.1022,-1.7757 16.4804,-3.8086 6.4334,-2.3675 12.765,-6.0605 18.3106,-10.6153 9.4184,-7.8487 16.559,-18.1658 21.2168,-30.4921 0.8749,-0.5147 1.1578,-1.0181 1.5566,-1.7129 0.3989,-0.7077 0.9006,-1.5958 2.0586,-2.4707 14.7967,-11.387 23.2891,-27.6374 23.2891,-44.5957 l 0,-0.7969 0.5156,-0.3867 c 16.14766,-12.1076 28.98756,-26.4151 39.30656,-37.918 6.2147,-6.9351 11.5926,-12.93 16.5977,-17.3047 3.0108,-2.6376 7.8364,-5.2629 12.9316,-8.0293 l 1.879,-1.0293 -66.418,-152.0723 c -13.76736,6.2532 -26.26116,9.2911 -38.17576,9.2911 -4.3489,0 -8.6073,-0.3997 -13.5996,-1.4805 -34.457,-28.3968 -128.3843,-52.7285 -144.3262,-52.7285 l -0.025,0 c -3.8471,0.4889 -7.5786,0.709 -11.207,0.709 -15.7231,0 -29.62,-4.1302 -41.8691,-7.7715 -10.2548,-3.0494 -19.9557,-5.9317 -29.5157,-5.9317 l -0.014,0 z"
     style="fill:#333331" />
</svg>
