<?xml version="1.0" encoding="UTF-8" standalone="no"?>
<svg
   xmlns:dc="http://purl.org/dc/elements/1.1/"
   xmlns:cc="http://creativecommons.org/ns#"
   xmlns:rdf="http://www.w3.org/1999/02/22-rdf-syntax-ns#"
   xmlns:svg="http://www.w3.org/2000/svg"
   xmlns="http://www.w3.org/2000/svg"
   width="1000"
   height="1000"
   viewBox="0 0 999.99999 999.99999"
   id="svg7631"
   version="1.1">
  <defs
     id="defs7633">
    <pattern
       id="EMFhbasepattern"
       patternUnits="userSpaceOnUse"
       width="6"
       height="6"
       x="0"
       y="0" />
    <pattern
       id="EMFhbasepattern-8"
       patternUnits="userSpaceOnUse"
       width="6"
       height="6"
       x="0"
       y="0" />
    <pattern
       id="EMFhbasepattern-3"
       patternUnits="userSpaceOnUse"
       width="6"
       height="6"
       x="0"
       y="0" />
    <pattern
       id="EMFhbasepattern-6"
       patternUnits="userSpaceOnUse"
       width="6"
       height="6"
       x="0"
       y="0" />
  </defs>
  <metadata
     id="metadata7636">
    <rdf:RDF>
      <cc:Work
         rdf:about="">
        <dc:format>image/svg+xml</dc:format>
        <dc:type
           rdf:resource="http://purl.org/dc/dcmitype/StillImage" />
        <dc:title></dc:title>
      </cc:Work>
    </rdf:RDF>
  </metadata>
  <path
     id="path3435-3-9"
     d="m 498.90384,24.882711 -45.1367,27.2207 c -57.967,35.0599 -154.1589,81.272609 -216.7989,104.091809 -35.204,12.8241 -72.3859,21.9687 -130.6269,32.0078 -58.546002,10.0917 -82.273602,15.9092 -84.808602,20.791 -8.305,15.9916 34.8618,165.9378 72.6348,252.2285 37.546002,85.7737 108.110602,201.7738 167.554602,275.3438 50.6,62.6241 135.6312,152.3364 185.6192,195.873 26.89,23.4197 49.4632,42.6256 50.1992,42.6778 0.736,0.058 19.448,-14.473 41.582,-32.1446 79.172,-63.2102 215.599,-219.428 279.586,-320.209 30.172,-47.5229 75.8176,-132.0105 92.5976,-171.2539 31.096,-72.7238 73.8762,-226.5016 67.5742,-242.9257 -1.8649,-4.86 -19.3192,-9.465 -63.1972,-16.5508 -78.429,-12.6656 -107.5159,-19.8915 -163.0449,-40.4883 -62.134,-23.047 -123.1519,-51.44831 -174.2579,-81.113309 -23.5289,-13.6575 -51.0504,-29.4368 -61.1464,-35.1523 z m -1.5039,52.9355 c 3.564,0 16.0955,6.9322 27.7715,15.3203 75.871,54.508109 239.4705,118.624209 347.5625,136.236409 31.047,5.0587 47.5024,9.7702 49.1074,13.9511 3.746,9.762 -6.755,59.3929 -23.252,110.1114 -19.877,61.1074 -84.8868,192.8703 -126.7988,256.8789 -38.772,59.2125 -77.6022,108.8916 -143.0742,183.1523 -44.863,50.8844 -125.8755,129.3613 -133.2305,128.9864 -1.989,-0.1015 -23.3528,-19.3051 -47.4648,-42.6758 -55.029,-53.3383 -131.9484,-139.6655 -180.2774,-202.4395 -27.271,-35.4224 -93.8675,-145.5396 -121.6035,-200.9355 -37.269,-74.4379 -71.220202,-174.8845 -73.451202,-217.4844 l -1.0937,-20.6543 42.675802,-7.5234 c 125.514,-22.4442 279.3494,-82.6437 359.6054,-140.613309 9.389,-6.7817 19.9595,-12.3106 23.5235,-12.3106 z m -45.6821,115.582109 c -3.434,181.8706 -3.5148,364.5646 -1.5528,560.2809 l 138.3169,0.1406 -1.0078,-22.4489 -111.8223,-2.2422 -5.6914,-535.5781 z m -97.3453,7.5605 0,194.6875 -117.2597,0 -41.9825,-156.6816 -24.0722,6.4492 105.8183,394.9141 24.0704,-6.4512 -57.1563,-213.3106 110.582,0 0,256.9883 24.92,0 0,-476.5957 z m 262.6524,15.1563 -12.4434,21.5918 67.9199,39.1464 -5.2519,348.3575 c -10.5251,30.0077 -29.7675,33.6083 -44.4277,33.6425 -16.8675,0.039 -30.5066,0.6466 -36.6778,0.3926 -9.6571,-0.3974 -27.8814,-11.761 -27.0254,-32.4492 l -0.4629,-73.3301 -24.9199,0 2.9942,86.375 c 3.7876,17.5771 12.852,34.7922 41.5429,41.586 l 59.1953,0 c 24.2759,-4.0932 51.1382,-16.1469 59.9551,-55 l 0,-335.211 57.6797,33.2442 12.4434,-21.5899 z"
     style="fill:#000000" />
</svg>
