<?xml version="1.0" encoding="UTF-8" standalone="no"?>
<svg
   xmlns:dc="http://purl.org/dc/elements/1.1/"
   xmlns:cc="http://creativecommons.org/ns#"
   xmlns:rdf="http://www.w3.org/1999/02/22-rdf-syntax-ns#"
   xmlns:svg="http://www.w3.org/2000/svg"
   xmlns="http://www.w3.org/2000/svg"
   width="1000"
   height="1000"
   viewBox="0 0 999.99999 999.99999"
   id="svg7631"
   version="1.1">
  <defs
     id="defs7633">
    <pattern
       id="EMFhbasepattern"
       patternUnits="userSpaceOnUse"
       width="6"
       height="6"
       x="0"
       y="0" />
    <pattern
       id="EMFhbasepattern-8"
       patternUnits="userSpaceOnUse"
       width="6"
       height="6"
       x="0"
       y="0" />
    <pattern
       id="EMFhbasepattern-3"
       patternUnits="userSpaceOnUse"
       width="6"
       height="6"
       x="0"
       y="0" />
    <pattern
       id="EMFhbasepattern-6"
       patternUnits="userSpaceOnUse"
       width="6"
       height="6"
       x="0"
       y="0" />
  </defs>
  <metadata
     id="metadata7636">
    <rdf:RDF>
      <cc:Work
         rdf:about="">
        <dc:format>image/svg+xml</dc:format>
        <dc:type
           rdf:resource="http://purl.org/dc/dcmitype/StillImage" />
        <dc:title></dc:title>
      </cc:Work>
    </rdf:RDF>
  </metadata>
  <path
     id="path5027-4"
     d="m 403.33709,192.6984 c -4.0985,-2.5946 -9.2607,-3.2439 -13.4432,-1.6887 -73.3959,27.1041 -123.9,81.9643 -177.3696,140.0631 l -7.7745,8.4324 c -4.5652,4.9981 -4.9447,12.6934 -0.8486,17.1442 10.3287,11.107 16.1011,19.4049 22.2274,28.2018 5.9749,8.5792 12.145,17.4509 23.0403,29.4191 0.7401,0.8035 1.5923,1.5258 2.5599,2.1384 4.7181,2.9868 11.125,2.9913 15.6101,0.044 0,0 130.7159,-87.4092 185.1682,-123.8711 5.4523,-3.7056 7.1872,-11.0896 3.8725,-16.462 l -48.7699,-79.2231 c -1.0163,-1.618 -2.4897,-3.0693 -4.2726,-4.198 z m 74.9253,160.926 -2.3961,0.707 c -2.9446,-4.9707 -5.0503,-9.7745 -7.2837,-14.8583 -1.4486,-3.2926 -2.9546,-6.7129 -4.7732,-10.4072 0,0 -2.615,-4.9611 -3.0116,-5.7299 l -27.3275,17.4066 1.9554,3.9331 c 12.1594,24.5247 24.7179,49.864 46.3629,63.5664 3.1853,2.0164 6.5637,3.7744 10.0496,5.2199 7.6427,3.1783 15.584,5.9824 23.5179,8.7969 15.9507,5.6663 32.4327,11.5025 46.2394,20.2429 13.0348,8.2516 22.892,21.1141 31.1255,32.5241 19.7085,27.3697 32.1618,54.9434 38.0386,84.2927 l 25.739,129.3631 c 0.9719,18.7673 -13.5201,35.406 -32.274,37.1021 -3.2479,0.3197 -6.504,0.1472 -9.9901,-0.5521 -2.0912,-0.4253 -4.3369,-1.1621 -6.6564,-2.1889 -5.4309,9.4449 -15.3064,16.121 -26.0429,17.517 -3.7942,0.461 -7.5892,0.2985 -11.2876,-0.4744 -3.8131,-0.7844 -7.4195,-2.2304 -10.7027,-4.3088 -3.4679,-2.1954 -6.4437,-4.9771 -8.8593,-8.2576 -5.0958,4.7538 -11.4736,7.949 -18.1371,9.0453 -4.3254,0.7947 -8.5099,0.7182 -12.7613,-0.1914 -3.8376,-0.7695 -7.5109,-2.2559 -10.9137,-4.41 -2.5765,-1.6311 -4.8463,-3.5548 -6.7679,-5.7154 -4.9296,4.8284 -11.207,8.1777 -17.8225,9.4871 -4.7327,0.9329 -9.3715,0.9211 -13.7591,-0.014 -3.8387,-0.8159 -7.4823,-2.3003 -10.8524,-4.4337 -7.8491,-4.9689 -13.2278,-13.1416 -14.679,-22.1312 l -10.9773,-24.612 0.5525,-0.6096 c -34.2503,-73.4743 -52.6755,-65.3857 -99.9625,-199.7712 l -1.6414,0.9096 -0.2579,-1.853 c -3.0135,-21.1713 -6.3889,-41.3399 -14.5706,-55.0929 -1.7021,-2.8439 -3.7948,-6.1778 -6.1213,-9.7673 l -27.351,17.4656 c 2.4116,3.7195 4.5664,7.1247 6.2765,10.0043 7.9251,22.2077 8.6402,31.7614 14.9456,53.163 30.39,103.1496 38.6676,84.5608 64.0351,129.797 3.3589,4.0756 -248.564,92.6243 -138.6825,69.7422 0,0 59.6322,74.1648 31.6304,111.2935 l 155.766,-67.0235 c 3.9487,16.0376 7.888,10.5653 21.5859,19.2368 6.3489,4.0192 13.2646,6.8283 20.5757,8.3653 8.4772,1.7879 17.2347,1.834 26.043,0.1158 3.4967,-0.6645 7.1073,-1.6981 11.68,-3.0519 3.6313,1.5525 7.5255,2.7839 11.5972,3.6407 6.2744,1.3223 14.1975,-0.27 21.1818,-1.6809 1.8121,-0.3606 3.5665,-0.7268 5.2622,-1.0239 3.1141,-0.5412 6.1674,-1.2745 10.2221,-2.1949 4.9579,2.56 10.3303,4.438 15.9619,5.597 6.7021,1.4408 14.0271,1.7071 21.149,0.8249 12.156,-1.5938 23.7077,-6.4917 34.2363,-14.4151 1.0146,0.033 1.5229,-0.241 2.2314,-0.6147 0.7156,-0.3846 1.6146,-0.8666 3.0609,-0.9864 18.593,-1.7067 34.4605,-10.8947 43.5312,-25.2232 l 0.4262,-0.6734 0.6425,-0.051 c 10.4901,-0.8305 25.1931,-45.2864 25.1931,-45.2864 0.7594,-8.7508 -14.6406,-40.0348 -7.5229,-42.0448 l 65.3325,-24.4335 33.911,-16.9998 c 36.6341,-56.4199 -5.4315,-116.8066 -47.89,-120.8681 l -87.0165,35.085 c 3.5566,-7.9266 -2.36,-3.385 -5.4353,-14.4147 -10.3754,-37.2106 -36.405,-63.1808 -65.2951,-87.2784 -20.0562,-16.729 -44.1698,-19.3791 -69.0788,-31.7647 -9.8055,-4.8757 -18.0675,-20.3637 -31.9571,-29.0368 z"
     style="fill:#333331" />
</svg>
