<?xml version="1.0" encoding="UTF-8" standalone="no"?>
<svg
   xmlns:dc="http://purl.org/dc/elements/1.1/"
   xmlns:cc="http://creativecommons.org/ns#"
   xmlns:rdf="http://www.w3.org/1999/02/22-rdf-syntax-ns#"
   xmlns:svg="http://www.w3.org/2000/svg"
   xmlns="http://www.w3.org/2000/svg"
   width="1000"
   height="1000"
   viewBox="0 0 999.99999 999.99999"
   id="svg7631"
   version="1.1">
  <defs
     id="defs7633">
    <pattern
       id="EMFhbasepattern"
       patternUnits="userSpaceOnUse"
       width="6"
       height="6"
       x="0"
       y="0" />
    <pattern
       id="EMFhbasepattern-8"
       patternUnits="userSpaceOnUse"
       width="6"
       height="6"
       x="0"
       y="0" />
    <pattern
       id="EMFhbasepattern-3"
       patternUnits="userSpaceOnUse"
       width="6"
       height="6"
       x="0"
       y="0" />
  </defs>
  <metadata
     id="metadata7636">
    <rdf:RDF>
      <cc:Work
         rdf:about="">
        <dc:format>image/svg+xml</dc:format>
        <dc:type
           rdf:resource="http://purl.org/dc/dcmitype/StillImage" />
        <dc:title></dc:title>
      </cc:Work>
    </rdf:RDF>
  </metadata>
  <path
     style="fill:#080808"
     d="m 49.965355,889.63518 c 0,-94.9646 0.3751,-98.0845 11.8015,-98.0845 6.491,0 18.1746,-6.3729 25.9636,-14.1621 l 14.161795,-14.1618 -0.024,-218.0675 c -0.024,-207.7554 -0.5663,-218.9607 -11.539295,-236.9582 -14.5111,-23.8 -14.4498,-24.3816 2.5657,-24.3816 7.746095,0 15.688295,-2.5964 17.649495,-5.7698 1.9613,-3.1732 0.6742,-5.7697 -2.8604,-5.7697 -4.0668,0 -5.7806,-10.0622 -4.6678,-27.4059 3.8935,-60.6762 108.4975,-56.1069 108.4975,4.7394 0,12.4667 -2.5963,22.6665 -5.7698,22.6665 -3.1733,0 -5.7695,2.5965 -5.7695,5.7697 0,3.1734 7.7891,5.7698 17.309,5.7698 20.2052,0 21.0812,3.504 5.7696,23.0787 -10.3993,13.29471 -11.2928,24.2505 -11.4109,139.9144 l -0.1275,125.4905 17.309,0 17.309,0 0,-195.9127 0,-195.9126 -14.3419,-21.134 c -14.5108,-21.3827 -14.2811,-34.66759 0.5013,-28.9952 9.1694,3.5187 10.5216,-6.8108 2.543,-19.4258 -2.9432,-4.6535 -3.2417,-11.144497 -0.6632,-14.424297 2.5784,-3.2797 7.7811,-15.5696 11.5617,-27.3109 24.4312,-75.8757 132.149,-75.8757 156.5803,0 3.7808,11.7413 8.9833,24.0312 11.5616,27.3109 2.5783,3.2798 2.2797,9.770797 -0.6644,14.424297 -7.9786,12.615 -6.6263,22.9445 2.543,19.4258 14.7824,-5.6724 15.0121,7.6125 0.5014,28.9952 -14.1476,20.8475 -14.342,22.7728 -14.342,142.0409 l 0,120.9069 18.0127,0 c 17.6304,0 17.8125,-0.27589 8.573,-12.98179 -21.4675,-29.52271 -14.9317,-42.9636 29.0614,-59.7648 30.5989,-11.6858 36.3125,-8.0779 20.0163,12.63919 -19.9043,25.3043 -16.2476,31.259 19.1955,31.259 37.5489,0 40.8084,-3.6108 25.6943,-28.4642 -18.1328,-29.817 11.4869,-28.6296 49.6521,1.9905 l 17.3089,13.887 -12.9816,17.5991 c -16.6445,22.5646 -16.4138,23.836 4.3272,23.836 l 17.3091,0 0,-124.0481 c 0,-68.2263 -2.1155,-124.04789 -4.7011,-124.04789 -7.7793,0 -24.3596,-39.5755 -18.1803,-43.3946 3.0649,-1.8941 8.4468,-1.6673 11.9601,0.5038 5.9779,3.6946 4.4737,-5.6981 -4.9121,-30.67281 -1.4906,-3.966697 0.1643,-7.212197 3.6767,-7.212197 3.5128,0 6.3871,-4.19 6.3871,-9.3113 0,-84.4604 139.3838,-96.0885 161.627,-13.4839 3.3038,12.2694 8.5397,23.8734 11.6354,25.7867 3.6422,2.2509 3.5868,7.293397 -0.1581,14.288497 -7.8309,14.632 -7.54279,15.5326 6.10889,19.1026 11.7121,3.0628 11.6677,3.469 -2.88479,26.5219 l -14.7789,23.4113 0,196.2835 0,196.2836 17.309,0 17.30909,0 -0.037,-122.6056 c -0.037,-112.6436 -0.9672,-124.0118 -11.499,-139.9145 -14.83829,-22.4053 -14.48969,-25.9635 2.5443,-25.9635 7.746,0 15.6882,-2.5963 17.6495,-5.7698 1.9612,-3.1732 0.8164,-5.76959 -2.5442,-5.76959 -18.957,0 -6.0279,-52.5503 15.10101,-61.3786 24.5667,-10.26451 65.9001,-6.4668 79.689,7.322 9.66799,9.66799 12.0935,54.0566 2.9537,54.0566 -3.1732,0 -5.7695,2.5964 -5.7695,5.76959 0,3.1735 7.789,5.7698 17.30899,5.7698 20.20521,0 21.08121,3.5041 5.76961,23.0787 -18.0643,23.0939 -17.6867,446.43271 0.4193,469.45021 7.051,8.964 17.7052,15.2024 25.9634,15.2024 l 14.0055,0 0,98.0844 0,98.0844 -450.03439,0 -450.034505,0 0,-98.0844 z m 256.189595,36.0604 c 2.1548,-21.4199 5.4415,-48.6817 7.3038,-60.5816 3.3247,-21.2424 3.0464,-21.6363 -15.2855,-21.6363 -16.4821,0 -18.2901,1.5226 -15.4155,12.9819 1.7911,7.1399 5.0424,34.4016 7.2247,60.5815 4.8133,57.7372 10.9071,60.9983 16.1725,8.6545 z m 52.0124,-5.2082 c 2.2006,-24.2843 5.4797,-51.5461 7.2866,-60.5815 3.0703,-15.3504 2.0608,-16.4282 -15.3865,-16.4282 -17.8913,0 -18.5356,0.7833 -15.3988,18.7515 1.8004,10.3132 5.0213,37.5749 7.1573,60.5815 5.0216,54.0874 11.3107,53.1933 16.3414,-2.3233 z m 300.2519,-8.5986 c 2.2696,-29.0138 5.4786,-56.2754 7.1313,-60.5815 2.149,-5.601 -2.3214,-7.8296 -15.7063,-7.8296 l -18.7106,0 3.8327,27.4061 c 2.108,15.0731 5.4272,42.3349 7.3759,60.5815 5.154,48.2584 11.3617,40.6995 16.077,-19.5765 z m 51.427,-7.5159 c 7.7117,-60.816 7.6963,-60.8952 -11.7545,-60.8952 -15.7531,0 -15.8394,0.8777 -6.9146,70.4711 7.9621,62.0835 9.6954,61.1944 18.6691,-9.5759 z m -541.6547,-43.0677 4.1079,-40.9061 -15.7552,0 -15.7553,0 4.0052,41.8301 c 2.2031,23.0065 5.5882,48.3211 7.5226,56.2543 l 3.5173,14.4242 4.1247,-15.3482 c 2.2687,-8.4415 5.9733,-33.7559 8.2328,-56.2543 z m 70.3905,34.0747 c 6.0815,-37.762 5.3422,-40.3628 -11.4734,-40.3628 -9.8849,0 -10.8757,2.7642 -7.7565,21.6363 1.967,11.9 3.605,28.7763 3.6399,37.5028 0.1103,28.4566 9.8771,16.698 15.59,-18.7763 z m 188.4608,-33.1507 3.595,-53.3694 -14.75,0 c -11.3088,0 -14.0719,2.3556 -11.8427,10.0969 1.599,5.5533 4.7085,33.1863 6.9096,61.4068 4.8135,61.7096 11.1943,54.5171 16.0881,-18.1343 z m 49.8781,48.4861 c 0,-10.619 1.687,-43.0734 3.749,-72.121 3.7133,-52.3147 3.6237,-52.8133 -9.489,-52.8133 -12.8596,0 -13.1324,1.1118 -9.5593,38.9453 2.0228,21.4199 3.6965,53.8743 3.7191,72.1209 0.025,18.2466 2.6373,33.1756 5.8107,33.1756 3.1733,0 5.7695,-8.6884 5.7695,-19.3075 z m 59.6861,-65.7951 3.8383,-59.1392 -14.8419,0 c -11.3664,0 -14.1796,2.3644 -12.013,10.0969 1.5558,5.5533 4.7028,38.6568 6.9928,73.5634 4.7962,73.1035 10.227,64.7928 16.0238,-24.5211 z m 49.9376,68.6641 c 0,-9.0411 1.6793,-36.3028 3.7317,-60.5815 3.6552,-43.2423 3.4618,-44.143 -9.4766,-44.143 -12.7336,0 -13.0747,1.2734 -9.501,35.4643 2.0386,19.5054 3.7068,46.7671 3.7068,60.5816 0,13.8144 2.5963,25.1171 5.7696,25.1171 3.1733,0 5.7695,-7.3973 5.7695,-16.4385 z m 192.36979,-31.5552 c 3.4994,-26.3894 3.0308,-27.7067 -9.23889,-25.9635 -7.4092,1.053 -12.515,5.5297 -11.9637,10.4908 7.8915,71.0116 13.3134,74.9682 21.20259,15.4727 z m 75.3833,-19.7999 4.1204,-41.8301 -15.5186,0 -15.5186,0 4.0898,46.884 c 7.0613,80.9487 14.5181,79.2978 22.827,-5.0539 z m -611.04849,-116.836 c 0,-88.3495 -0.1569,-89.4522 -12.9817,-91.2737 l -12.9818,-1.8437 0,93.1174 0,93.1174 12.9818,-1.8436 c 12.8249,-1.8215 12.9817,-2.9242 12.9817,-91.2738 z m 539.46439,-0.4009 0,-92.716 -12.98169,1.8437 c -12.7566,1.8118 -13.0094,3.4207 -14.5707,92.716 l -1.5891,90.8725 14.5708,0 14.57069,0 0,-92.7162 z M 315.37015,523.05768 c 0,-288.6569 -0.1103,-291.5104 -11.4071,-285.4665 -22.51,12.047 -23.2109,21.184 -23.2109,302.5992 l 0,274.4389 17.3091,0 17.3089,0 0,-291.5716 z m 51.9271,12.6366 c 0,-258.5026 -0.7392,-279.5701 -10.0968,-287.606 -25.4363,-21.8445 -24.5212,-32.1008 -24.5212,274.8319 l 0,291.7091 17.3089,0 17.3091,0 0,-278.935 z m 300.0229,-9.5488 c 0,-301.26059 0.049,-300.7545 -24.0667,-278.9348 -9.9446,8.9998 -10.5513,25.5835 -10.5513,288.4836 l 0,278.935 17.3091,0 17.3089,0 0,-288.4838 z m 47.4905,10.3935 c 1.3414,-240.37719 0.3788,-279.4663 -7.1027,-288.2385 -22.8193,-26.7585 -22.9532,-25.2497 -24.4882,276.4025 l -1.4753,289.9263 15.7573,0 15.7574,0 1.5515,-278.0903 z m -545.0553,37.2064 c -1.4816,-213.45489 -1.7422,-217.80519 -13.0511,-217.80519 -11.3088,0 -11.5696,4.3503 -13.0511,217.80519 l -1.5118,217.8052 14.5629,0 14.563,0 -1.5119,-217.8052 z m 686.59099,0 -1.5118,-217.80519 -12.9817,-1.84371 -12.9818,-1.8437 0,219.6488 0,219.649 14.4936,0 14.4936,0 -1.5119,-217.8052 z m -426.92429,69.236 c -1.49609,-138.4386 -1.8957,-142.7994 -13.08259,-142.7994 -11.2624,0 -11.5015,3.32251 -9.9675,138.47221 0.8642,76.1596 1.5134,140.41929 1.4423,142.79939 -0.074,2.38001 5.1088,4.3272 11.511,4.3272 11.4016,0 11.6084,-2.9242 10.0968,-142.7994 z m 162.89251,-1.4424 c 0,-140.3953 -0.3076,-144.2419 -11.5394,-144.2419 -11.2316,0 -11.5394,3.8466 -11.5394,144.2419 0,140.39541 0.30769,144.2418 11.5394,144.2418 11.23159,0 11.5394,-3.8464 11.5394,-144.2418 z m -109.62391,-11.5393 c 0,-128.856 -0.3347,-132.7026 -11.5392,-132.7026 -11.2049,0 -11.5393,3.8466 -11.5393,132.7026 0,128.856 0.3347,132.7024 11.5393,132.7024 11.2048,0 11.5392,-3.8464 11.5392,-132.7024 z m 56.3628,1.4423 c -1.4992,-126.8966 -1.9344,-131.26 -13.09029,-131.26 -11.1327,0 -11.5942,4.3668 -13.1003,123.9052 -1.7061,135.4393 -1.3416,138.6149 15.9125,138.6149 11.624,0 11.802,-2.2717 10.2781,-131.2601 z"
     id="path3901" />
</svg>
