<?xml version="1.0" encoding="UTF-8" standalone="no"?>
<svg
   xmlns:dc="http://purl.org/dc/elements/1.1/"
   xmlns:cc="http://creativecommons.org/ns#"
   xmlns:rdf="http://www.w3.org/1999/02/22-rdf-syntax-ns#"
   xmlns:svg="http://www.w3.org/2000/svg"
   xmlns="http://www.w3.org/2000/svg"
   width="1000"
   height="1000"
   viewBox="0 0 999.99999 999.99999"
   id="svg7631"
   version="1.1">
  <defs
     id="defs7633">
    <pattern
       id="EMFhbasepattern"
       patternUnits="userSpaceOnUse"
       width="6"
       height="6"
       x="0"
       y="0" />
    <pattern
       id="EMFhbasepattern-8"
       patternUnits="userSpaceOnUse"
       width="6"
       height="6"
       x="0"
       y="0" />
    <pattern
       id="EMFhbasepattern-3"
       patternUnits="userSpaceOnUse"
       width="6"
       height="6"
       x="0"
       y="0" />
    <pattern
       id="EMFhbasepattern-6"
       patternUnits="userSpaceOnUse"
       width="6"
       height="6"
       x="0"
       y="0" />
  </defs>
  <metadata
     id="metadata7636">
    <rdf:RDF>
      <cc:Work
         rdf:about="">
        <dc:format>image/svg+xml</dc:format>
        <dc:type
           rdf:resource="http://purl.org/dc/dcmitype/StillImage" />
        <dc:title></dc:title>
      </cc:Work>
    </rdf:RDF>
  </metadata>
  <path
     id="path5154"
     d="m 166.6583,275.55675 c -20.1257,0 -38.6411,16.343 -41.1172,36.3223 L 73.922,688.13295 c -2.4761,19.9671 11.9407,36.3106 32.0664,36.3106 l 655.8907,0 c 20.1257,0 34.5415,-16.3435 32.041,-36.3106 l -14.3184,-114.668 -23.0781,23.0762 c -2.3053,2.3175 -4.9763,4.0984 -7.7695,5.6231 l 11.0019,88.1269 -651.6817,-0.012 51.3379,-374.168 c 0.3537,-2.8542 4.3675,-6.3789 7.2461,-6.3789 l 534.5391,0 c 2.8786,0 6.8783,3.5247 7.2442,6.3789 l 21.1992,133.1953 3.5488,3.4532 27.8223,-27.836 -18.6973,-113.0449 c -2.5004,-19.9793 -20.9915,-36.3223 -41.1172,-36.3223 l -534.5391,0 z m 37.543,59.7774 0,48.791 457.4278,0 0,-48.791 -457.4278,0 z m 672.9063,7.8203 c -3.5494,0 -6.8667,1.3652 -9.3672,3.8535 l -134.3906,134.416 -59.207,-57.914 c -2.4883,-2.4882 -5.7944,-3.8536 -9.3438,-3.8536 -3.5494,0 -6.8667,1.3771 -9.3672,3.8653 l -36.0195,36.0078 c -5.1473,5.1595 -5.1473,13.5514 0,18.7109 l 103.959,103.9082 c 2.5126,2.4883 5.8177,3.8555 9.3672,3.8555 3.5494,0 6.8799,-1.3667 9.3925,-3.8672 l 180.3633,-180.4121 c 5.1473,-5.1595 5.1473,-13.5514 0,-18.7109 l -36.043,-36.0059 c -2.4882,-2.5005 -5.7943,-3.8535 -9.3437,-3.8535 z m -614.9688,79.123 c -6.0499,0 -10.9766,4.9287 -10.9766,10.9786 0,6.0499 4.9267,10.9765 10.9766,10.9765 l 0,0.014 329.8418,0 20.7247,-20.7129 c -1.5857,-0.8416 -3.1346,-1.2559 -4.6836,-1.2559 l -345.8829,0 z m -4.0488,47.2286 c -6.733,0 -12.1973,5.452 -12.1973,12.1972 0,6.7451 5.4643,12.1973 12.1973,12.1973 l 273.416,0 c 6.733,0 12.1973,-5.4522 12.1973,-12.1973 0,-6.7452 -5.4643,-12.1972 -12.1973,-12.1972 l -273.416,0 z m -75.7461,85.3828 c -6.733,0 -12.1973,5.4521 -12.1973,12.1972 0,6.7452 5.4643,12.1973 12.1973,12.1973 l 63.2812,0 c 6.7452,0 12.1973,-5.4521 12.1973,-12.1973 0,-6.7451 -5.4643,-12.1972 -12.1973,-12.1972 l -63.2812,0 z m 112.082,0 c -6.733,0 -12.1973,5.4521 -12.1973,12.1972 0,6.7452 5.4643,12.1973 12.1973,12.1973 l 65.3165,0 c 6.7329,0 12.1972,-5.4521 12.1972,-12.1973 0,-6.7451 -5.4643,-12.1972 -12.1972,-12.1972 l -65.3165,0 z m 168.9942,0 c -6.7452,0 -12.1973,5.4521 -12.1973,12.1972 0,6.7452 5.4521,12.1973 12.1973,12.1973 l 216.0781,0 -24.3965,-24.3945 -191.6816,0 z m -285.6368,48.789 c -6.733,0 -12.1992,5.4521 -12.1992,12.1973 0,6.7451 5.4662,12.1973 12.1992,12.1973 l 114.3496,0 c 6.7329,0 12.1973,-5.4522 12.1973,-12.1973 0,-6.7452 -5.4644,-12.1973 -12.1973,-12.1973 l -114.3496,0 z m 163.1387,0 c -6.733,0 -12.1973,5.4521 -12.1973,12.1973 0,6.7451 5.4643,12.1973 12.1973,12.1973 l 63.5372,0 c 6.7329,0 12.1972,-5.4522 12.1972,-12.1973 0,-6.7452 -5.4643,-12.1973 -12.1972,-12.1973 l -63.5372,0 z m 308.0704,0.098 c -14.1368,0 -20.8831,11.3056 -24.9082,18.0508 -1.2564,2.1101 -3.3546,5.6353 -3.4766,6.3183 -1.0612,-0.6708 -3.146,-4.1946 -4.4023,-6.3047 -4.0252,-6.7452 -10.7578,-18.0527 -24.8946,-18.0527 -14.1489,0 -20.8694,11.2953 -24.8945,18.0527 -1.2441,2.1101 -3.3419,5.6339 -3.4395,6.3047 -1.0611,-0.6708 -3.1479,-4.1946 -4.4043,-6.3047 -4.0251,-6.7452 -10.7577,-18.0527 -24.8945,-18.0527 -14.1368,0 -20.8581,11.3066 -24.8711,18.0762 -1.2441,2.0979 -3.3418,5.6236 -3.3906,6.3066 -1.0612,-0.683 -3.1465,-4.1965 -4.3906,-6.3066 -4.013,-6.7574 -10.7349,-18.0762 -24.8594,-18.0762 -6.733,0 -12.4531,5.3661 -12.4531,12.1113 0,6.7451 5.2084,12.1133 11.9414,12.1133 1.0612,0.683 3.1465,4.1946 4.3906,6.3047 4.0129,6.7574 10.7348,18.0781 24.8594,18.0781 14.1367,0 20.8562,-11.3085 24.8691,-18.0781 1.2563,-2.0979 3.3545,-5.6222 3.4277,-6.293 1.0612,0.6708 3.148,4.1966 4.4043,6.3067 4.0252,6.7452 10.7456,18.0508 24.8946,18.0508 14.1489,0 20.8694,-11.2934 24.8945,-18.0508 1.2563,-2.1101 3.3536,-5.6359 3.4512,-6.3067 1.0611,0.683 3.1479,4.1966 4.4043,6.3067 4.0251,6.7452 10.7577,18.0508 24.8945,18.0508 14.1368,0 20.8831,-11.3056 24.9082,-18.0508 1.2563,-2.1101 3.3658,-5.6354 3.5,-6.3184 1.0612,0.683 3.1597,4.2068 4.416,6.3047 4.0252,6.7452 10.7573,18.0527 24.9063,18.0527 6.7451,0 12.4287,-5.3783 12.4043,-12.1113 0,-6.7329 -5.2202,-12.1133 -11.9532,-12.1133 -1.0733,-0.683 -3.1714,-4.2082 -4.4277,-6.3183 -4.0251,-6.7452 -10.7573,-18.0508 -24.9062,-18.0508 z"
     style="fill:#333331" />
</svg>
