<?xml version="1.0" encoding="UTF-8" standalone="no"?>
<svg
   xmlns:dc="http://purl.org/dc/elements/1.1/"
   xmlns:cc="http://creativecommons.org/ns#"
   xmlns:rdf="http://www.w3.org/1999/02/22-rdf-syntax-ns#"
   xmlns:svg="http://www.w3.org/2000/svg"
   xmlns="http://www.w3.org/2000/svg"
   xmlns:sodipodi="http://sodipodi.sourceforge.net/DTD/sodipodi-0.dtd"
   xmlns:inkscape="http://www.inkscape.org/namespaces/inkscape"
   width="1000"
   height="1000"
   viewBox="0 0 999.99999 999.99999"
   id="svg7631"
   version="1.1"
   inkscape:version="0.48.4 r9939"
   sodipodi:docname="just-server.svg">
  <sodipodi:namedview
     pagecolor="#ffffff"
     bordercolor="#666666"
     borderopacity="1"
     objecttolerance="10"
     gridtolerance="10"
     guidetolerance="10"
     inkscape:pageopacity="0"
     inkscape:pageshadow="2"
     inkscape:window-width="640"
     inkscape:window-height="480"
     id="namedview10"
     showgrid="false"
     inkscape:zoom="0.236"
     inkscape:cx="500"
     inkscape:cy="500"
     inkscape:window-x="762"
     inkscape:window-y="367"
     inkscape:window-maximized="0"
     inkscape:current-layer="svg7631" />
  <defs
     id="defs7633">
    <pattern
       id="EMFhbasepattern"
       patternUnits="userSpaceOnUse"
       width="6"
       height="6"
       x="0"
       y="0" />
    <pattern
       id="EMFhbasepattern-8"
       patternUnits="userSpaceOnUse"
       width="6"
       height="6"
       x="0"
       y="0" />
    <pattern
       id="EMFhbasepattern-3"
       patternUnits="userSpaceOnUse"
       width="6"
       height="6"
       x="0"
       y="0" />
    <pattern
       id="EMFhbasepattern-6"
       patternUnits="userSpaceOnUse"
       width="6"
       height="6"
       x="0"
       y="0" />
  </defs>
  <metadata
     id="metadata7636">
    <rdf:RDF>
      <cc:Work
         rdf:about="">
        <dc:format>image/svg+xml</dc:format>
        <dc:type
           rdf:resource="http://purl.org/dc/dcmitype/StillImage" />
        <dc:title></dc:title>
      </cc:Work>
    </rdf:RDF>
  </metadata>
  <path
     inkscape:connector-curvature="0"
     id="path3000"
     d="M 318.39422,887.93113 C 189.61953,829.93515 99.29459,717.55274 69.374275,578.10009 61.115308,539.60671 60.495805,460.79973 68.131152,419.96252 84.298957,333.48998 125.54651,255.1512 187.56159,193.13612 222.73714,157.96058 258.0703,132.73141 303.70118,110.20813 342.59769,91.008935 369.2426,81.797573 413.63133,72.204395 c 41.30458,-8.926636 126.23894,-8.926636 167.54352,0 44.38873,9.593178 71.03364,18.80454 109.93015,38.003735 45.63088,22.52328 80.96404,47.75245 116.13959,82.92799 62.01505,62.01508 103.2626,140.35386 119.43043,226.8264 6.95329,37.18927 7.07435,113.51651 0.23825,150.22731 -26.0728,140.01521 -122.83753,262.31278 -252.16258,318.69957 l -21.13542,9.21521 -77.651,-51.75843 -77.65103,-51.75842 -7.37301,4.76642 c -4.05515,2.62154 -36.01323,24.93398 -71.01793,49.58324 -35.0047,24.64926 -66.24649,46.17377 -69.42619,47.83225 -4.75608,2.48071 -10.44864,0.91339 -32.10192,-8.83854 z m 66.24669,-117.07545 c 18.64381,-12.7859 33.89783,-24.76263 33.89783,-26.61494 0,-1.85229 -10.27312,-10.79756 -22.82915,-19.87836 -54.27071,-39.24971 -103.55163,-87.10766 -134.85239,-130.95856 -20.22887,-28.3397 -31.09654,-49.25602 -42.02335,-80.87965 -8.47985,-24.54181 -9.03254,-28.44637 -8.98932,-63.50636 0.0429,-34.89017 0.60374,-38.82487 8.49214,-59.59049 10.97214,-28.88322 19.92473,-43.0482 40.70494,-64.404 20.70048,-21.27383 40.43059,-33.66608 69.59067,-43.70894 19.23388,-6.62422 26.43137,-7.62682 55.31684,-7.70558 39.18047,-0.10681 58.69962,4.31018 91.39238,20.6812 l 22.21312,11.1233 22.0616,-11.13927 c 32.32552,-16.32165 51.97575,-20.77226 91.24084,-20.66523 28.88547,0.0789 36.08296,1.08136 55.31684,7.70558 29.46571,10.14812 49.32309,22.6303 69.54269,43.71395 21.1807,22.08581 30.23551,36.50445 40.44214,64.39899 37.41778,102.2621 -26.25829,223.59869 -174.98676,333.44242 -12.93652,9.55429 -23.52095,18.77711 -23.52095,20.49516 0,3.80389 78.44128,57.08351 84.04161,57.08351 6.82216,0 56.24418,-34.53838 77.24691,-53.9837 53.57244,-49.59984 95.53295,-129.8282 105.543,-201.79782 11.79395,-84.7953 -7.92584,-170.28259 -55.89462,-242.3091 -19.60203,-29.43297 -72.65966,-80.8305 -102.40954,-99.20526 -117.3657,-72.48994 -260.18488,-72.48994 -377.55058,0 -30.11843,18.60239 -82.81288,69.78468 -102.93043,99.97664 -79.13873,118.76971 -78.12666,271.07237 2.57707,387.81443 30.61896,44.29185 75.75336,84.76044 120.32035,107.88206 9.46651,4.91128 4.44908,7.41524 56.04612,-27.96998 z M 526.541,673.10302 c 134.00885,-90.10736 198.08284,-191.03687 167.59712,-263.99946 -6.70466,-16.04654 -27.56481,-36.01471 -46.65947,-44.66433 -14.7722,-6.69163 -20.63158,-7.78688 -40.77234,-7.62129 -38.9205,0.32 -67.87611,15.05797 -95.48776,48.60188 l -13.08493,15.89621 -21.11904,-21.71734 c -52.21243,-53.69153 -119.43751,-58.48604 -161.65564,-11.52933 -51.79893,57.61287 -12.73629,154.33897 98.90184,244.89865 32.97512,26.74907 76.34902,56.52485 82.55667,56.67438 2.72179,0.0656 16.09737,-7.37716 29.72355,-16.53937 z"
     style="fill:#767676" />
</svg>
