<?xml version="1.0" encoding="UTF-8" standalone="no"?>
<svg
   xmlns:dc="http://purl.org/dc/elements/1.1/"
   xmlns:cc="http://creativecommons.org/ns#"
   xmlns:rdf="http://www.w3.org/1999/02/22-rdf-syntax-ns#"
   xmlns:svg="http://www.w3.org/2000/svg"
   xmlns="http://www.w3.org/2000/svg"
   width="1000"
   height="1000"
   viewBox="0 0 999.99999 999.99999"
   id="svg7631"
   version="1.1">
  <defs
     id="defs7633">
    <pattern
       id="EMFhbasepattern"
       patternUnits="userSpaceOnUse"
       width="6"
       height="6"
       x="0"
       y="0" />
    <pattern
       id="EMFhbasepattern-8"
       patternUnits="userSpaceOnUse"
       width="6"
       height="6"
       x="0"
       y="0" />
    <pattern
       id="EMFhbasepattern-3"
       patternUnits="userSpaceOnUse"
       width="6"
       height="6"
       x="0"
       y="0" />
    <pattern
       id="EMFhbasepattern-6"
       patternUnits="userSpaceOnUse"
       width="6"
       height="6"
       x="0"
       y="0" />
  </defs>
  <metadata
     id="metadata7636">
    <rdf:RDF>
      <cc:Work
         rdf:about="">
        <dc:format>image/svg+xml</dc:format>
        <dc:type
           rdf:resource="http://purl.org/dc/dcmitype/StillImage" />
        <dc:title></dc:title>
      </cc:Work>
    </rdf:RDF>
  </metadata>
  <path
     id="path4814"
     d="m 495.18519,45.760662 c -1.8168,-0.034 -3.8036,0.062 -5.9904,0.301 -40.0493,6.2507 -32.8803,71.768398 -44.6593,95.274798 -3.7192,7.4222 -15.9424,15.9423 -20.8407,20.8405 -5.9547,5.9547 -25.5807,-1.3464 -29.7747,5.9561 -30.5366,53.1686 -15.6234,-6.7802 -2.9754,-26.7966 2.0503,-3.2449 0,-22.5323 0,-26.7968 0,-9.735 13.0144,-7.8237 2.9754,-17.862608 -5.8184,-5.8185 -36.1889,-13.6302 -44.6594,-17.8654 -1.0906,-0.5452 -14.8874,0.4127 -14.8874,0 -28.9187,4.6582 -33.6695,31.461108 -43.06479,60.433908 -6.4874,6.4874 -17.7949,17.2788 -22.4352,25.9095 -6.7327,12.5223 -44.5146,50.323 -59.5467,80.3875 -7.2235,14.4468 0.9774,42.7621 -4.739,62.16289 -10.1525,162.9214 -12.4023,288.0603 -4.1951,438.0323 0,24.4549 -13.1857,110.3537 2.4684,126.0078 1.7314,1.7312 10.178,7.1999 11.9094,8.9313 36.5976,24.8455 49.6423,32.0293 103.84439,32.0293 48.234,-4.2852 73.5058,-17.1364 84.0618,-7.1195 0.073,-0.1944 0.1363,-0.386 0.2112,-0.5808 1.0955,-2.8498 1.6177,-3.8705 3.638,-8.6991 2.0204,-4.8285 4.8148,-11.5584 8.0866,-19.6183 6.5435,-16.1199 14.9953,-37.5585 22.9238,-59.589 7.9283,-22.0306 24.2672,-41.7511 28.6796,-59.8669 2.2062,-9.058 3.6403,-17.0033 4.108,-22.6545 0.4675,-5.6511 -0.9596,-9.0246 0.227,-6.8034 -3.6426,-6.8185 -9.6154,-16.121 -13.0842,-28.2883 -2.1935,-7.6944 -2.737,-16.8325 -1.122,-26.3321 -8.6262,-4.6895 -15.6884,-10.9366 -20.347,-18.2587 -7.3002,-11.4736 -9.5761,-24.1745 -9.7973,-35.6938 -0.2213,-11.5191 1.6215,-22.1246 3.844,-30.6089 1.1111,-4.2421 2.3194,-7.9341 3.5402,-11.0566 0.8896,-2.2751 1.6463,-4.0828 3.0494,-6.352 0.014,0.2598 0.2063,0.2408 0.2349,-0.4039 -0.067,0.1136 -0.1298,0.2254 -0.2033,0.3432 0.026,-0.092 0.1436,-0.273 0.2086,-0.4039 0,-0.055 0.014,-0.085 0.014,-0.1505 -0.042,-2.0859 -0.5422,-6.0171 -1.2118,-10.2487 -0.6697,-4.2317 -1.4891,-8.7527 -1.8323,-13.5806 -0.1715,-2.4139 -0.2738,-4.9016 0.169,-8.0389 0.3347,-2.3712 0.8918,-5.4968 3.0837,-8.8285 5.1766,-14.8494 14.39,-25.064 23.3356,-30.2366 9.1277,-5.2782 15.9305,-7.1595 19.1774,-9.0739 9.03,-8.2291 19.116,-10.6494 24.8113,-12.4981 6.0132,-1.9519 5.9147,-1.781 6.748,-3.448 -0.1646,0.3293 1.2609,-5.3022 1.0877,-9.8395 -0.087,-2.2687 -0.4105,-4.3988 -0.6891,-5.4887 -0.063,-0.2426 -0.078,-0.148 -0.153,-0.2561 -2.8249,-3.4055 -2.5289,-4.9793 -2.8222,-6.1487 -0.3465,-1.3812 -0.4575,-2.269 -0.5598,-3.1338 -0.2046,-1.7294 -0.2754,-3.2529 -0.3221,-4.9527 -0.093,-3.3997 -0.03,-7.3118 0.1584,-11.3259 0.1875,-4.0142 0.4879,-8.0316 0.9848,-11.7166 0.2485,-1.8426 0.5231,-3.5686 1.0243,-5.5442 0.5013,-1.9757 -0.5639,-3.8132 5.0742,-9.4515 5.1341,-5.1338 14.51,-20.0936 31.0104,-28.3437 5.5036,-2.7518 10.0729,-3.6261 14.2562,-3.6856 l 0,0 c 4.1834,-0.059 7.9801,0.6967 11.9331,1.1959 6.0738,0.7671 11.0413,1.4847 16.2522,3.39 l 17.0047,-13.4512 c 6.7441,-8.3995 6.4709,-7.4524 16.0491,-9.8872 9.6589,-1.0997 18.7972,-3.0862 18.7972,-3.0862 l 0.8395,-0.1848 0.8528,-0.092 c 7.013,-0.7773 10.0922,-2.7114 15.1645,-7.3234 5.0725,-4.6121 11.1826,-12.3243 20.1675,-20.9912 l 0.027,-0.024 0.027,-0.026 c 15.4833,-15.2149 8.6115,-27.26049 40.4248,-50.83989 l 19.2512,-2.8882 c -12.1458,41.95339 -21.7423,62.33239 -37.2328,77.15329 l -0.027,0.027 c -7.0645,6.8244 -12.7962,14.3049 -20.8117,21.5931 -8.036,7.3067 -19.3241,14.0011 -33.4154,15.5633 l 1.6924,-0.28 c 0,0 -10.3777,-7.3763 -22.0869,-6.0431 -5.8546,0.6667 -11.3164,7.1008 -17.53,6.7851 -1.8281,-0.093 -3.7871,0.2123 -5.8267,0.4936 5.351,2.9854 10.5962,6.5957 15.2411,12.1073 7.1148,8.4422 10.4811,20.2695 10.4811,33.7084 0,-1.1057 0.1903,1.4866 0.3775,4.2216 0.1871,2.7349 1.9274,5.4193 -2.0882,13.451 -2.3785,4.7572 -5.7374,11.4183 -7.4028,16.6668 -0.6663,2.0996 -0.7936,3.352 -0.8923,4.2479 8.0678,8.7029 13.5058,17.7353 20.1437,24.3732 3.0675,3.0674 13.2508,8.7864 22.3296,17.8652 l 0.998,0.9979 0.8105,1.1564 c 12.5223,17.8513 18.1136,32.2734 20.7299,46.3807 2.6162,14.1074 2.8978,26.9096 6.8351,47.4104 l 0.014,0.066 0.014,0.066 c 2.3199,12.6415 -1.7039,25.3549 -8.7702,33.307 -7.0664,7.9522 -15.6924,11.9779 -23.4176,14.7977 -4.0554,1.4802 -7.907,2.583 -11.3786,3.4795 0.014,0.039 0.014,0.066 0.022,0.1055 1.2432,6.8767 2.1528,14.7711 2.2969,22.7838 0.1439,8.0127 -0.2623,16.0065 -2.9648,24.0905 -1.1646,3.484 -3.0174,7.083 -5.8319,10.5261 1.4921,3.6067 2.9029,7.0366 5.2511,12.4004 6.6814,15.2614 15.6774,35.88 21.7014,56.97 2.2941,8.0315 4.8562,20.2395 7.627,32.1033 2.7708,11.8637 6.7073,24.5606 6.9672,25.0806 2.85,5.6997 2.4469,9.1935 2.4131,12.1152 -0.034,2.9218 -0.2892,5.313 -0.4435,7.2523 -0.074,0.8593 -0.05,0.9591 -0.074,1.5629 0,0 0.074,-1.5623 -7.4768,10.2778 l -17.7042,23.684 c 0,-1.6629 -0.5025,-7.2389 -1.3544,-11.6136 -0.4261,-2.1873 -0.9481,-4.1948 -1.3147,-5.2723 0,-0.014 -0.014,-0.02 -0.014,-0.031 -0.1027,-0.1243 -0.093,-0.1377 -0.1584,-0.2271 -4.0322,-4.9479 -4.2136,-9.4986 -4.43,-12.5773 -0.2428,-3.4526 0,-6.0924 0.1848,-8.3742 0.1699,-2.1352 0.299,-3.79 0.3247,-4.7283 -3.9142,-8.7978 -5.8873,-18.5326 -8.5116,-29.7695 -2.8647,-12.2655 -5.6639,-25.0847 -7.2312,-30.5719 -5.196,-18.191 -13.5882,-37.7068 -20.2256,-52.8675 -3.3187,-7.5802 -6.1688,-13.9735 -8.1735,-19.386 -1.0023,-2.7063 -1.8669,-4.9005 -2.4051,-8.5563 -0.2691,-1.8281 -0.8312,-4.0532 0.5543,-8.5618 1.0015,-3.2593 5.1568,-7.7241 9.639,-10.1722 0.6411,-2.183 1.3157,-7.165 1.2144,-12.7701 -0.1055,-5.8614 -0.8372,-12.3537 -1.7847,-17.596 -2.1914,-11.6987 1.9062,-29.3497 1.9062,-29.3497 2.8854,-2.548 4.7234,-3.1326 6.278,-3.7488 3.1094,-1.2324 5.3834,-1.7113 7.9624,-2.3339 5.1579,-1.2451 10.9742,-2.5595 16.012,-4.3984 5.0379,-1.8387 8.8708,-4.2731 10.2911,-5.8714 1.4201,-1.5983 1.912,-1.5262 1.1088,-5.9032 l 0.027,0.1325 c -4.3372,-22.5823 -4.9061,-37.0001 -6.8749,-47.6164 -1.8943,-10.2137 -4.6687,-17.9811 -14.3857,-32.119 -4.0809,-3.7261 -13.0918,-8.8228 -21.5245,-17.2555 -10.9962,-10.9962 -17.8215,-22.2858 -22.3323,-26.7968 -5.759,-5.7588 -7.4984,-13.4057 -7.5373,-19.2354 -0.039,-5.8298 1.1852,-10.7628 2.6373,-15.3389 2.4685,-7.7794 5.7238,-14.2259 8.002,-18.718 -0.123,-1.2238 -0.4091,-2.5371 -0.4091,-5.8134 0,-8.9255 -1.3004,-10.9703 -2.8461,-12.8044 -1.5457,-1.8342 -5.6788,-4.5092 -13.4933,-8.4165 1.4589,0.7294 -5.3484,-1.6304 -10.6263,-2.2969 -3.8382,-0.4846 -8.0966,0.3866 -8.6805,0.1584 -3.6168,2.52 -11.0219,10.5905 -18.4383,18.2323 -0.279,2.1836 -0.546,5.3081 -0.6943,8.4826 -0.1486,3.1819 -0.179,6.3091 -0.1298,8.5274 1.4966,2.7191 2.2198,5.2725 2.8513,7.7433 1.0376,4.0596 1.5173,8.1169 1.6764,12.2868 0.3182,8.34 0,16.5996 -4.4881,25.5823 -6.1822,12.3646 -18.4225,17.419 -25.7512,19.7979 -7.3288,2.3789 -10.9619,3.5776 -13.3878,6.0035 l -0.9979,1.0007 -1.1564,0.8105 c -9.7752,6.857 -17.9151,8.4924 -22.2215,10.9827 -4.3063,2.4901 -6.8174,4.0074 -9.8052,14.7104 l -0.6283,2.2545 c 0.1766,2.2654 0.7888,6.1903 1.4811,10.5657 0.7083,4.4757 1.4977,9.3395 1.6052,14.6681 0.096,4.7823 0.7149,11.021 -4.6836,17.7783 -0.2429,0.4069 -0.5753,0.9862 -0.8368,1.6553 -0.682,1.7442 -1.5622,4.3763 -2.3708,7.4635 -1.6173,6.1737 -2.9351,14.2412 -2.7906,21.7647 0.1446,7.5235 1.7621,14.2364 4.731,18.9029 2.969,4.6664 6.9037,8.2072 16.3421,10.3781 l 12.2895,3.3133 -3.7832,22.1158 c -4.0767,8.1534 -3.7598,13.2156 -1.9194,19.6712 1.8405,6.4557 1.4467,10.8124 3.2025,20.0777 1.8671,9.8538 6.7367,0.7865 6.0431,9.169 -0.6937,8.3825 -1.6702,15.7964 -4.1211,25.8594 -4.9022,20.1258 -19.0803,47.3501 -27.2245,69.9803 -17.3927,48.5695 -40.2941,72.6711 -32.7764,125.9551 17.6718,9.2692 41.3536,18.0025 55.8216,-1.2489 3.6098,-3.6097 11.0609,-9.9368 16.8409,-18.7471 14.398,-21.9459 41.6403,-133.6947 77.4122,-50.2431 5.5105,12.8554 13.1187,60.8344 26.6145,69.7743 45.3658,30.0514 70.7771,-55.0525 72.1161,-51.0377 3.7631,11.2833 68.9168,16.9914 82.8876,16.9914 7.8472,0 29.7596,-8.9194 41.6813,-71.4561 -1.6213,-192.5707 -21.8423,-289.3338 -16.7696,-471.5478 0,-5.217 0.3737,-18.9797 3.7014,-63.1399 3.2007,-42.47699 -10.8579,-78.02049 -19.6818,-84.60099 -21.9578,-16.3754 -27.7857,-7.3162 -37.9616,-12.6538 -2.1374,-1.1211 -0.2871,-9.3127 -3.0095,-14.1218 -2.0272,-3.5807 -8.7458,-3.9592 -10.0165,-5.2299 -0.3048,-0.3048 -5.2113,-12.0992 -5.5811,-12.6538 -8.256,-12.384 -11.9093,-25.3077 -11.9093,-25.3077 -2.0462,-7.6847 -6.0054,-33.5425 -20.8435,-42.4258 -39.166,-14.682508 -61.7775,5.2088 -61.7775,5.2088 -13.2875,13.2875 -4.7194,14.6349 0,19.3544 4.7817,4.7817 3.2894,6.0224 2.9912,21.572 -0.3686,19.2321 9.5366,53.6038 1.4731,53.6038 -2.3797,0 -9.2101,16.3763 -14.1427,16.3763 -15.3348,0 -14.742,-30.3739 -21.5853,-37.2171 -5.0715,-5.0716 -36.3984,-18.5328 -37.9616,-20.096 -6.1477,-6.1475 -11.6923,-30.084 -13.3983,-51.3598 -1.661,-20.714308 -8.6615,-42.847808 -19.6976,-53.884008 -6.3302,-7.37639 -10.7207,-13.91359 -23.4386,-14.15079 z m -30.5509,541.934688 c 0.3904,-0.654 0.4863,-0.7395 -0.792,0.887 l -1.2857,1.4467 c 0.7844,-0.7844 1.4608,-1.5616 2.0777,-2.3337 z m 190.0981,294.2302 c 0.039,0.049 0.081,0.097 0.1217,0.1453 -0.2573,-0.6296 -0.6028,-0.8014 -0.1217,-0.1453 z m 0.1217,0.1453 c 0.014,0.028 0.026,0.051 0.037,0.082 0.066,0.081 0.2433,0.2573 0.3273,0.3538 -0.127,-0.1456 -0.2439,-0.2907 -0.3644,-0.4356 z m -175.2504,-391.5089 c -0.5039,0.4593 -1.0057,0.9264 -1.5021,1.4229 l 2.1542,-1.8084 c -0.1849,0.1297 -0.4343,0.2571 -0.6521,0.3855 z m -42.7294,80.1577 c -6e-4,0.023 0,0.039 0,0.061 0.3569,-0.6024 0.67,-1.1732 1.2857,-1.9721 -0.6594,0.834 -1.0523,1.452 -1.2805,1.9115 z m -7.8067,-333.19239 c 17.4017,0.8454 25.1656,22.9532 33.2754,24.7744 5.5873,27.3772 14.0451,34.0045 30.9521,51.99339 4.5068,4.49 11.9758,11.2413 19.5154,16.4529 7.6289,5.2735 15.7338,8.084 17.2344,8.084 3.8802,0 5.3031,0.3998 8.3426,0.8659 3.0395,0.4661 6.5472,1.0872 10.027,1.8005 1.6261,0.3348 3.3962,0.6049 5.2194,0.8607 0.6436,-1.3438 1.36,-2.6527 2.1491,-3.9099 1.3313,-2.1206 -1.3317,-8.3922 -0.039,-23.1165 7.0673,-51.39209 8.2487,-49.73069 25.2444,-57.84399 0.908,20.4729 4.4733,37.5578 6.8245,52.94669 2.2722,14.8724 4.2774,29.7792 -3.7648,43.7934 1.6534,3.5746 0.7955,5.3911 -1.6077,6.4735 -3.6928,13.1092 -11.1876,9.7864 -25.0147,6.2252 -3.3872,1.7543 -6.5377,4.2488 -9.0607,7.9044 -1.4523,-0.4201 -3.8081,-1.0103 -6.4655,-1.555 -2.8866,-0.5916 -5.9807,-1.1372 -8.4299,-1.5127 -2.449,-0.3762 -5.4009,-0.4911 -3.4241,-0.4911 -14.563,0 -25.6318,-6.8932 -35.6806,-13.8392 -10.0486,-6.9461 -18.6293,-14.804 -24.212,-20.3866 l -0.1637,-0.1637 -0.1583,-0.169 c -23.9204,-25.3265 -34.9026,-70.47379 -40.7627,-99.18729 z m -120.3212,12.358 c 1.8673,0.066 7.6096,2.8707 19.4046,8.2344 25.0397,24.1813 36.1973,57.41549 67.5435,67.85769 l 2.5265,0.8423 2.1253,1.6052 c 15.5621,11.7576 32.4939,21.2912 52.1203,29.0511 3.0089,0.8289 11.2695,5.7159 19.6024,6.2386 35.0571,2.1972 34.0271,18.3885 -3.6117,20.7984 -8.2437,-0.5171 -15.9123,1.4992 -25.1993,-1.2988 l -11.6745,-1.2383 c -12.2118,-5.3189 -42.0285,-18.3981 -49.018,-26.4192 -42.4171,-15.4567 -33.5892,-45.5505 -53.1315,-64.42279 -10.1554,-28.2824 -24.7954,-41.3933 -20.6876,-41.2486 z m 232.5689,174.30269 c 0,-0.014 -0.127,0.7286 -0.2349,1.3939 0.4266,-0.9963 0.2336,-1.3939 0.2349,-1.3939 z m 54.1796,13.8286 c -0.2139,0.9433 0.055,0.8546 0,0.045 0,-0.014 7e-4,-0.031 0,-0.045 z"
     style="fill:#000000;fill-rule:evenodd;stroke:#000000;stroke-width:1.35171485px;stroke-linecap:butt;stroke-linejoin:miter;stroke-opacity:1" />
</svg>
