<?xml version="1.0" encoding="UTF-8" standalone="no"?>
<svg
   xmlns:dc="http://purl.org/dc/elements/1.1/"
   xmlns:cc="http://creativecommons.org/ns#"
   xmlns:rdf="http://www.w3.org/1999/02/22-rdf-syntax-ns#"
   xmlns:svg="http://www.w3.org/2000/svg"
   xmlns="http://www.w3.org/2000/svg"
   xmlns:sodipodi="http://sodipodi.sourceforge.net/DTD/sodipodi-0.dtd"
   xmlns:inkscape="http://www.inkscape.org/namespaces/inkscape"
   version="1.1"
   id="svg7631"
   viewBox="0 0 999.99999 999.99999"
   height="1000"
   width="1000"
   inkscape:version="0.91 r13725"
   sodipodi:docname="missionaries.svg">
  <sodipodi:namedview
     pagecolor="#ffffff"
     bordercolor="#666666"
     borderopacity="1"
     objecttolerance="10"
     gridtolerance="10"
     guidetolerance="10"
     inkscape:pageopacity="0"
     inkscape:pageshadow="2"
     inkscape:window-width="1366"
     inkscape:window-height="706"
     id="namedview7"
     showgrid="false"
     inkscape:zoom="0.236"
     inkscape:cx="-210.97904"
     inkscape:cy="294.76723"
     inkscape:window-x="-8"
     inkscape:window-y="-8"
     inkscape:window-maximized="1"
     inkscape:current-layer="svg7631" />
  <defs
     id="defs7633">
    <pattern
       y="0"
       x="0"
       height="6"
       width="6"
       patternUnits="userSpaceOnUse"
       id="EMFhbasepattern" />
    <pattern
       y="0"
       x="0"
       height="6"
       width="6"
       patternUnits="userSpaceOnUse"
       id="EMFhbasepattern-8" />
    <pattern
       y="0"
       x="0"
       height="6"
       width="6"
       patternUnits="userSpaceOnUse"
       id="EMFhbasepattern-3" />
    <pattern
       y="0"
       x="0"
       height="6"
       width="6"
       patternUnits="userSpaceOnUse"
       id="EMFhbasepattern-6" />
  </defs>
  <metadata
     id="metadata7636">
    <rdf:RDF>
      <cc:Work
         rdf:about="">
        <dc:format>image/svg+xml</dc:format>
        <dc:type
           rdf:resource="http://purl.org/dc/dcmitype/StillImage" />
        <dc:title></dc:title>
      </cc:Work>
    </rdf:RDF>
  </metadata>
  <path
     style="fill:#000000"
     d="m 279.53906,184.40871 c -30.15121,-0.13282 -51.91777,11.2944 -74.5293,35.82618 -21.40218,23.21879 -25.18537,34.37454 -24.76367,73.00781 0.54851,50.15727 9.73635,56.25038 21.87304,14.5039 8.25442,-28.3935 11.45869,-30.28264 36.45704,-21.46289 32.30458,11.3974 65.86156,8.92025 87.05078,-6.42968 29.23203,-21.17583 43.39472,-14.82673 61.53906,27.58984 12.0944,28.27378 17.81428,22.48085 17.78516,-18.01562 -0.0444,-62.34441 -9.56747,-77.02487 -60.0879,-92.62891 -26.12169,-8.06816 -47.23382,-12.31041 -65.32421,-12.39063 z m 391.94921,33.8418 c -30.15121,-0.13282 -51.91776,11.29244 -74.52929,35.82422 -21.40218,23.21879 -25.18537,34.37455 -24.76367,73.00781 0.54851,50.15727 9.73635,56.25039 21.87304,14.50391 8.25442,-28.39349 11.45869,-30.28068 36.45703,-21.46094 32.30459,11.3974 65.86156,8.91828 87.05079,-6.43164 29.23203,-21.17583 43.39472,-14.82476 61.53906,27.5918 12.0944,28.27378 17.81427,22.47889 17.78515,-18.01758 -0.0444,-62.34439 -9.56746,-77.02487 -60.08789,-92.62891 -26.12169,-8.06816 -47.23383,-12.30845 -65.32422,-12.38867 z M 185.80273,517.57668 c -7.16868,-0.0209 -16.40124,3.67995 -30.20703,9.13477 -22.55157,10.5978 -46.38022,33.59501 -57.695323,48.15234 -31.260093,40.21718 -20.561893,84.8475 -33.761693,152.89063 2.184,21.84871 2.1808,21.84722 24.0293,27.30273 33.155096,8.27825 96.384636,18.87764 135.462866,22.70508 0,0 123.3439,8.98783 184.01953,-0.0137 12.5991,-1.22179 30.70726,-3.60228 49.54102,-6.38281 1.78279,12.22884 4.9908,13.05489 22.92578,17.5332 33.15509,8.27825 96.38466,18.87572 135.46289,22.70312 0,0 123.3439,8.9875 184.01953,-0.0137 33.42057,-3.2409 105.59611,-14.61691 127.29297,-20.06247 2.76643,-0.50335 8.96875,-1.83398 8.96875,-1.83398 l -0.63086,-60.8711 c -0.83889,0 -2.77288,-19.02301 -4.30469,-42.27343 -2.37221,-36.15588 -4.47444,-44.72429 -14.51757,-59.2168 -23.76845,-34.29833 -86.40552,-74.03532 -118.22266,-75.00195 -15.32882,-0.46585 -15.97839,0.16017 -21.24219,20.46484 -5.53071,21.3377 -38.08942,104.89667 -45.42187,116.57422 -1.93004,3.07307 -5.62336,7.66256 -9.90235,11.70898 l -0.39257,-49.04492 c -1.10732,-16.00443 -13.9679,-28.40255 -29.46289,-28.40234 -15.48332,0.0157 -28.32974,12.40944 -29.43555,28.40234 l -2.17969,51.33789 c -8.05312,-4.49674 -20.98071,-32.77449 -42.76953,-88.16406 -28.16415,-71.59802 -27.75919,-71.2785 -69.83399,-54.6543 -10.90781,5.12598 -22.10227,13.1586 -32.04687,21.72852 -27.95625,-31.19448 -80.86922,-62.93038 -109.26172,-63.79297 -15.32882,-0.46585 -15.97839,0.16017 -21.24219,20.46484 -5.53071,21.3377 -38.08942,104.89862 -45.42187,116.57617 -1.93004,3.07307 -5.62336,7.66062 -9.90235,11.70704 l -0.39257,-49.04297 c -1.10732,-16.00443 -13.9679,-28.40451 -29.46289,-28.4043 -15.48332,0.0157 -28.32974,12.4114 -29.43555,28.4043 l -2.17969,51.33789 c -8.05312,-4.49674 -20.98071,-32.7745 -42.76953,-88.16406 -18.92279,-48.10492 -24.94824,-63.74632 -39.62695,-63.78907 z m 84.5625,22.79102 c 1.10689,24.967 13.96754,44.30873 29.46289,44.30859 15.4836,-0.0258 28.32749,-19.36049 29.43359,-44.30859 l -58.89648,0 z m 391.94922,33.83984 c 1.10689,24.967 13.96754,44.30874 29.46289,44.3086 15.4836,-0.0258 28.32749,-19.3605 29.43359,-44.3086 l -58.89648,0 z m -254.12891,94.50781 58.77734,0 c -1.68434,12.28484 -2.63069,25.46431 -3.88086,39.76368 l -54.89648,0 0,-39.76368 z m 391.94922,33.83985 63.62109,0 0,39.76367 -63.62109,0 0,-39.76367 z"
     id="path4801-7"
     inkscape:connector-curvature="0" />
</svg>
