<?xml version="1.0" encoding="UTF-8" standalone="no"?>
<svg
   xmlns:dc="http://purl.org/dc/elements/1.1/"
   xmlns:cc="http://creativecommons.org/ns#"
   xmlns:rdf="http://www.w3.org/1999/02/22-rdf-syntax-ns#"
   xmlns:svg="http://www.w3.org/2000/svg"
   xmlns="http://www.w3.org/2000/svg"
   width="1000"
   height="1000"
   viewBox="0 0 999.99999 999.99999"
   id="svg7631"
   version="1.1">
  <defs
     id="defs7633">
    <pattern
       id="EMFhbasepattern"
       patternUnits="userSpaceOnUse"
       width="6"
       height="6"
       x="0"
       y="0" />
  </defs>
  <metadata
     id="metadata7636">
    <rdf:RDF>
      <cc:Work
         rdf:about="">
        <dc:format>image/svg+xml</dc:format>
        <dc:type
           rdf:resource="http://purl.org/dc/dcmitype/StillImage" />
        <dc:title></dc:title>
      </cc:Work>
    </rdf:RDF>
  </metadata>
  <path
     style="fill:#000000;fill-opacity:1;fill-rule:nonzero;stroke:none"
     d="m 206.57389,30.132349 c -72.75694,0 -129.437217,77.094101 -109.920625,149.477471 9.571325,35.66843 32.901415,49.12822 84.870795,49.20297 24.52643,0 43.96833,3.21542 51.14689,8.52356 11.14171,8.07586 9.87051,10.24438 -25.34927,44.64163 -43.36996,42.32354 -61.61532,71.48643 -87.71216,140.27991 -18.02103,47.63271 -24.825643,67.07461 -24.825643,134.67169 0,73.28107 13.235353,128.09136 48.454863,198.157 35.51868,70.73771 93.54494,126.07239 182.45331,174.15274 48.90391,26.39616 79.63709,34.77111 144.46742,39.40728 98.70414,7.10378 180.88365,-16.60039 263.80991,-76.04681 59.89606,-43.07133 75.44961,-58.02664 103.41507,-99.45291 53.46525,-79.41172 79.78663,-191.65045 66.40162,-283.32655 -7.702,-52.94086 -34.84591,-130.70852 -59.22308,-169.59138 C 806.35312,279.13647 698.37671,196.43455 627.93715,174.30066 547.55326,148.95138 424.6963,152.4659 354.33149,182.15219 c -23.77896,9.9453 -30.20974,10.69308 -38.06129,4.18752 -16.37608,-13.60937 -26.69426,-40.30462 -26.69426,-69.16799 0,-56.605478 -29.0881,-87.039371 -83.00205,-87.039371 z m 25.72318,36.116821 c 12.26336,0 27.14392,24.077974 27.14392,43.81878 0,25.2741 -15.40401,50.54858 -43.22091,70.66352 -54.063,39.18292 -112.08925,8.3002 -96.23668,-51.14693 6.80457,-25.42384 19.06793,-26.54549 19.06793,-1.79464 0,29.83559 11.29117,42.17373 36.4159,39.78086 22.95605,-2.16852 29.38682,-18.32027 8.74879,-22.05909 -18.32008,-3.29019 -22.88146,-10.46873 -15.4039,-24.45166 8.82366,-16.52551 32.52744,-16.37597 48.00621,0.22433 l 12.03902,12.93606 7.55241,-16.60002 c 6.28125,-13.83356 5.90736,-19.292256 -2.46762,-33.948378 C 225.79151,69.53933 225.49239,66.24917 232.29707,66.24917 Z m 33.79903,106.92984 c 5.45869,0.1495 15.70308,11.14173 33.19982,35.29456 16.15174,22.43299 31.55572,44.26674 34.24768,48.6038 8.15066,13.385 -0.14951,8.82365 -33.20081,-18.09594 -33.19984,-27.06812 -48.22993,-53.3895 -36.86386,-64.75554 0.74773,-0.74777 1.5703,-1.04688 2.61717,-1.04688 z m 235.91821,31.40617 c 54.13828,0.3739 109.02331,13.16071 159.34798,38.06029 90.47868,44.71642 155.38479,123.08233 185.81788,224.32884 11.66515,38.88283 14.05799,141.17723 3.96314,174.22751 -5.98212,19.89057 -19.06701,23.10598 -64.8303,15.85263 -20.56358,-3.21537 -24.37719,-6.20644 -26.02226,-19.96535 -0.9721,-8.97221 2.61717,-23.0302 8.0011,-31.25561 15.03009,-22.88165 19.8158,-124.27774 7.10376,-149.85134 -5.30913,-10.69305 -11.1417,-28.93855 -12.93634,-40.5289 -10.91737,-69.61605 -91.89946,-106.70524 -143.79444,-65.952 -8.22541,6.50558 -18.69416,11.73996 -23.40509,11.73996 -13.08588,0 -39.2567,30.95648 -44.93972,53.09038 l -5.01005,19.89057 -35.21979,-34.84591 -35.14498,-34.91969 3.88839,-33.79901 c 3.06582,-27.51778 1.79463,-36.04232 -6.95423,-45.91282 -13.75891,-15.55356 -67.74665,-37.837 -91.60038,-37.837 -34.47203,0 -20.4888,-15.6273 26.17182,-29.23663 30.80698,-8.89841 63.03569,-13.23547 95.56351,-13.08592 z m -103.34028,65.87719 c 7.17856,0.14951 17.72207,3.73886 32.15294,10.61829 28.2656,13.45979 28.86378,27.96644 0.89731,22.73211 -12.26236,-2.31809 -21.98333,-1.19645 -24.37616,2.69195 -6.50558,10.5435 -13.75891,7.70197 -17.64727,-6.95423 -5.30918,-19.8906 -2.91629,-29.23767 8.97318,-29.08812 z m -107.97645,6.50557 c 15.17865,0 34.99447,18.61936 34.99447,32.82694 0,7.702 -16.37608,39.03339 -36.41519,69.54125 -20.04015,30.50886 -45.01555,70.6639 -55.48427,89.28328 -10.5435,18.54458 -24.30241,38.95761 -30.65839,45.31361 -10.02008,10.02008 -11.06664,17.72205 -8.3002,60.34471 5.75778,89.13275 39.40726,147.30896 104.1628,180.13587 23.70418,11.96427 43.29566,27.06814 51.96973,39.92973 7.62721,11.44082 26.02226,27.81688 40.97761,36.49097 25.34928,14.80577 27.21866,17.64729 28.93855,44.04343 l 0,0 c 2.1685,34.02237 -2.54242,35.144 -55.70859,13.23545 C 261.90861,845.64007 181.29974,753.74061 154.23078,647.48305 c -11.73982,-45.98662 -11.73982,-129.06344 0,-175.05003 15.92732,-62.66282 46.66012,-117.09919 89.43233,-158.15155 21.38612,-20.4888 42.54788,-37.31353 47.03447,-37.31353 z m 65.12946,54.21306 c 16.00216,0 15.85263,20.04011 -0.22434,30.88272 -7.47766,5.00902 -23.92854,38.6585 -41.87492,85.54344 -16.30128,42.47312 -32.75114,81.13162 -36.63953,85.76779 l 0,0 c -9.12273,10.99217 -14.50664,10.69304 -26.39613,-1.12165 -15.03009,-15.03009 -2.54242,-44.79019 57.12833,-135.56902 19.74104,-30.13395 35.96753,-57.20308 35.96753,-60.19415 0,-2.91629 5.38391,-5.30913 12.03906,-5.30913 z m 46.43627,61.68967 c 2.09372,0.0748 4.26227,0.52345 6.50557,1.34599 4.56135,1.71988 16.82473,3.2154 27.29246,3.2154 24.30241,0.0748 118.22182,73.58019 118.74527,92.94734 0.52345,16.89851 19.88958,86.88942 29.61054,107.0043 6.43078,13.23546 6.50556,18.17072 0.29923,25.5736 -8.59928,10.39397 -28.78798,11.96427 -42.24777,3.21542 -5.01004,-3.21542 -21.98432,-5.90737 -37.7622,-5.90737 -25.49881,-0.0748 -29.91062,-2.16851 -39.93071,-18.69412 -15.85263,-26.02227 -51.96875,-48.82916 -82.92626,-52.26886 -14.50669,-1.64509 -27.51781,-5.01005 -29.08813,-7.40288 -1.49552,-2.46763 3.96319,-33.9486 12.11382,-69.98992 12.86159,-56.97977 22.95642,-79.0389 37.38832,-79.0389 z m 238.01198,11.29129 c 9.34707,-0.1495 17.42293,2.01897 21.83474,7.3281 6.65514,8.07586 4.93526,10.09483 -12.33814,14.58144 -15.77785,4.11272 -20.0401,8.3002 -20.0401,19.8158 0,18.39505 17.64726,22.65733 33.72422,8.15067 10.91741,-9.87051 12.56248,-9.9453 21.61044,-0.89732 8.9732,8.9732 8.9732,10.91737 -0.22431,24.97536 -5.45871,8.375 -9.9453,24.45097 -9.9453,35.74224 0,11.29126 -3.36496,23.33031 -7.55244,26.69527 -4.11272,3.43969 -22.6573,8.07586 -41.12714,10.31916 -33.42514,4.18748 -33.72423,4.03795 -41.35144,-14.3571 -4.18752,-10.16964 -6.13169,-22.58256 -4.18752,-27.51782 4.78572,-12.4867 21.61045,-4.93526 28.26557,12.63726 10.24441,26.84478 37.31353,12.41292 31.70529,-16.89953 -2.01897,-10.46773 -9.19752,-18.61835 -20.56356,-23.32927 -9.9453,-4.11273 -17.42298,-11.81474 -17.42298,-17.87165 0,-5.90733 -4.11269,-12.26334 -9.04793,-14.13278 -4.93526,-1.94417 -9.04799,-7.17854 -9.04799,-11.7399 0,-17.42297 31.92963,-33.05126 55.70859,-33.49993 z M 237.90533,555.80794 c 12.63721,0 30.58361,8.22542 30.58361,16.67515 0,12.78681 -38.13607,15.03011 -42.99655,2.46764 -2.01897,-5.38393 -0.89732,-12.63722 2.54242,-16.07696 2.09372,-2.09376 5.683,-3.06583 9.87052,-3.06583 z m 165.25529,26.54567 c 13.83368,0.29923 32.45205,17.12385 46.06143,44.04343 15.03009,29.68534 15.40396,29.98443 31.63051,21.68421 18.69411,-9.57138 43.51998,-3.58927 43.51998,10.54351 0,4.78572 1.34598,12.33814 2.91628,16.74999 1.64507,4.41181 0.44867,11.96423 -2.6172,16.82473 -4.78568,7.47764 -7.40288,7.10377 -18.02113,-2.46762 -11.06696,-10.0201 -14.20758,-10.39397 -28.93856,-2.99109 -9.12276,4.5614 -18.54461,9.27232 -21.087,10.46872 -4.86051,2.39287 -7.47767,-3.96314 -13.23549,-31.92959 -2.2433,-10.99215 -14.6552,-27.74215 -31.77907,-43.07033 -24.15283,-21.38613 -27.06911,-26.32139 -20.33922,-34.39725 3.21538,-3.81361 7.2533,-5.60824 11.88947,-5.45871 z m 209.59685,52.86708 c 7.40288,0 38.06132,41.42525 38.06132,51.4453 0,8.375 -26.09705,7.02901 -38.43519,-2.09372 -12.11382,-8.82365 -11.8147,-49.35158 0.37387,-49.35158 z m -47.55793,22.13288 c 5.23437,0.1495 10.09485,6.58036 10.24443,16.74995 0.1495,21.83479 27.59257,38.21087 69.09358,41.20194 52.94184,3.81361 54.51115,10.24438 14.58144,58.92296 -18.61937,22.80686 -41.94968,55.63381 -51.74544,73.13154 -28.71422,50.77329 -34.39722,45.23983 -46.88392,-45.68853 -7.55244,-54.58593 -9.34709,-129.13821 -3.36494,-138.7844 2.39284,-3.88836 5.30913,-5.53346 8.07485,-5.53346 z m 162.18948,89.13373 c 4.93526,0.0748 7.702,3.73882 7.702,11.44082 0,12.03902 -104.31238,123.15605 -110.14496,117.32349 -5.01004,-5.01001 1.49552,-19.89057 22.13387,-50.39943 32.3035,-47.63272 65.6529,-78.81353 80.30909,-78.36488 z"
     id="path3337" />
</svg>
