<?xml version="1.0" encoding="UTF-8" standalone="no"?>
<svg
   xmlns:dc="http://purl.org/dc/elements/1.1/"
   xmlns:cc="http://creativecommons.org/ns#"
   xmlns:rdf="http://www.w3.org/1999/02/22-rdf-syntax-ns#"
   xmlns:svg="http://www.w3.org/2000/svg"
   xmlns="http://www.w3.org/2000/svg"
   width="1000"
   height="1000"
   viewBox="0 0 999.99999 999.99999"
   id="svg7631"
   version="1.1">
  <defs
     id="defs7633" />
  <metadata
     id="metadata7636">
    <rdf:RDF>
      <cc:Work
         rdf:about="">
        <dc:format>image/svg+xml</dc:format>
        <dc:type
           rdf:resource="http://purl.org/dc/dcmitype/StillImage" />
        <dc:title></dc:title>
      </cc:Work>
    </rdf:RDF>
  </metadata>
  <path
     id="rect3355"
     d="m 333.04204,28.742969 c -4.6227,0.4134 -9.8566,3.0977 -16.6455,7.546 -33.7515,22.114801 -16.6877,60.811501 26.8547,60.811501 9.5094,0 25.987,9.2811 37.5078,21.3062 l 20.41851,21.30619 -12.20671,33.7349 c -17.5476,48.9585 -15.6969,90.8342 4.6607,111.1918 41.84741,41.8474 48.93011,65.0637 51.71201,167.5646 1.4312,52.7329 6.0163,127.2212 10.2092,165.5671 4.193,38.3458 5.7252,78.7543 3.3291,89.6636 -3.4472,15.6953 0.92,26.6957 20.8624,52.8218 13.8615,18.1595 25.0792,34.9057 25.0792,37.2859 0,2.3801 -9.5878,15.2837 -21.3062,28.6302 -17.5115,19.9445 -21.3063,30.4784 -21.3063,59.2579 0,29.0393 3.9144,39.3264 22.194,60.1457 24.0887,27.4355 52.5274,32.858 88.1101,16.6455 22.0199,-10.033 45.9416,-53.2457 45.9416,-83.0055 0,-11.7044 -7.3266,-30.1151 -16.6455,-41.2808 -14.3005,-17.1345 -16.4033,-26.0036 -14.2042,-61.4773 1.4171,-22.8595 7.5553,-61.2107 13.7603,-85.225 14.0738,-54.4677 25.7872,-145.5367 25.0792,-194.6412 -0.3054,-21.1572 2.7358,-37.2859 6.8801,-37.2859 4.0171,0 13.6501,14.5935 21.5282,32.4033 15.0937,34.1217 30.575,45.5502 43.5002,32.6251 5.6144,-5.6144 3.6877,-16.1357 -6.8802,-38.1736 -29.7384,-62.0161 -46.4743,-109.5692 -51.0461,-145.1487 -5.4258,-42.2256 -15.0614,-56.1738 -47.939,-69.911 -22.9821,-9.6025 -23.7476,-11.0253 -23.7476,-51.49 0,-32.084 -3.2673,-45.283 -14.426,-57.2605 -18.0591,-19.3841 -43.3072,-19.938 -60.1457,-1.3316 -17.517,19.356 -25.855,17.5373 -42.6125,-9.0996 -7.8645,-12.501 -20.6483,-23.89119 -28.4083,-25.30109 -21.3159,-3.8729 -46.47121,-29.6626 -61.47731,-63.0309 -11.6151,-25.828001 -18.4603,-35.7538 -28.6302,-34.844601 z M 435.57825,182.32536 c 22.7335,0.1548 29.8585,6.3448 51.0461,44.3879 l 18.643,33.7349 -19.7527,-0.8878 c -10.8674,-0.4531 -26.1445,-2.2966 -33.9568,-4.2168 -24.2668,-5.9649 -31.9593,-16.956 -31.9593,-45.4977 0,-23.8561 2.1369,-27.6147 15.9797,-27.5205 z"
     style="fill:#1a1a1a;stroke:none" />
</svg>
