<?xml version="1.0" encoding="UTF-8" standalone="no"?>
<svg
   xmlns:dc="http://purl.org/dc/elements/1.1/"
   xmlns:cc="http://creativecommons.org/ns#"
   xmlns:rdf="http://www.w3.org/1999/02/22-rdf-syntax-ns#"
   xmlns:svg="http://www.w3.org/2000/svg"
   xmlns="http://www.w3.org/2000/svg"
   width="1000"
   height="1000"
   viewBox="0 0 999.99999 999.99999"
   id="svg7631"
   version="1.1">
  <defs
     id="defs7633">
    <pattern
       id="EMFhbasepattern"
       patternUnits="userSpaceOnUse"
       width="6"
       height="6"
       x="0"
       y="0" />
    <pattern
       id="EMFhbasepattern-8"
       patternUnits="userSpaceOnUse"
       width="6"
       height="6"
       x="0"
       y="0" />
    <pattern
       id="EMFhbasepattern-3"
       patternUnits="userSpaceOnUse"
       width="6"
       height="6"
       x="0"
       y="0" />
    <pattern
       id="EMFhbasepattern-6"
       patternUnits="userSpaceOnUse"
       width="6"
       height="6"
       x="0"
       y="0" />
  </defs>
  <metadata
     id="metadata7636">
    <rdf:RDF>
      <cc:Work
         rdf:about="">
        <dc:format>image/svg+xml</dc:format>
        <dc:type
           rdf:resource="http://purl.org/dc/dcmitype/StillImage" />
        <dc:title></dc:title>
      </cc:Work>
    </rdf:RDF>
  </metadata>
  <path
     id="path4872"
     d="m 675.52324,102.42751 c -16.1353,-0.1904 -25.7709,12.7021 -22.3379,32.332 7.3338,41.9347 24.2796,94.9115 44.4981,139.1094 12.19,26.6476 27.4028,70.6126 33.8046,97.7011 12.124,51.3009 36.9217,82.0795 48.9786,101.8184 l 21.041,34.4473 c -2.2623,1.6264 -4.9962,3.9544 -8.5235,7.0976 -8.1251,7.2406 -19.5847,13.3686 -25.4668,13.6192 -9.3917,0.3999 -65.3501,12.4299 -108.9668,23.0527 0.05,-0.1637 0.1038,-0.3159 0.1504,-0.4883 -6.1833,4.8127 -40.0452,-40.8849 -38.332,-44.4179 0.9674,-1.995 -6.6224,-23.618 -14.7148,-47.5586 -24.1515,-71.4495 -72.3545,-152.07 -125.20709,-209.4082 -35.6681,-38.6954 -42.5898,-25.4185 -21.4687,41.1757 21.4459,67.6187 72.15889,146.6107 125.31829,195.1954 13.6916,12.5133 23.0282,20.0398 28.7657,23.0136 1.9177,0.994 21.5167,35.609 34.707,45.1543 -9.4084,2.3564 -17.9341,4.5809 -24.8047,6.5156 -6.7086,-1.759 -57.1279,-18.2475 -57.9453,-23.5156 -1.2534,-8.0774 -6.8238,-20.7574 -19.9668,-39.3633 -11.4044,-16.1445 -33.3946,-48.3589 -48.8672,-71.5859 -29.19259,-43.8231 -120.89179,-151.0745 -159.44139,-186.4844 -22.2569,-20.4441 -81.3979,-57.3387 -102.1914,-63.7519 -26.3011,-8.1119 -17.2609,38.3933 17.5586,90.334 21.2904,31.759 153.9015,189.5502 171.4316,203.9824 15.8852,13.0779 7.8947,15.2659 -45.0683,12.3379 -92.899,-5.136 -190.56439,9.0182 -247.24419,35.832 -29.6974,14.0492 -33.438699,22.3212 -14.082,31.1406 14.948,6.8108 89.82189,15.3897 135.40429,15.5137 14.9736,0.041 27.2543,0.6465 33.5058,0.4863 -1.8378,0.2751 -4.065,0.8468 -5.3046,1.9297 1.2729,-0.5856 3.7719,-1.2787 6.9804,-2.0137 0.3484,-0.023 0.7688,-0.036 1.0528,-0.068 0.4666,-0.054 0.2026,-0.089 -0.4317,-0.066 13.2926,-2.9877 37.459,-6.6015 37.459,-6.6015 0,0 106.9316,-12.1744 106.9316,-9.4453 0,2.729 -107.4966,15.8652 -110.3867,15.8652 -2.1209,0 -40.6772,9.1328 -52.2793,14.5762 0.8917,-0.8081 2.1094,-2.0525 3.67,-3.8594 -1.651,1.7761 -3.4115,3.4444 -5.0879,4.5332 -5.5982,3.6359 -12.5668,7.5468 -18.9825,10.5625 -23.2974,10.9511 -28.5075,16.1655 -23.7851,23.8066 4.6651,7.5483 185.5131,6.1084 238.1738,-1.8964 33.11639,-5.034 122.92509,-27.5281 154.85159,-39.5235 22.1018,-2.9251 56.0423,-10.3332 73.8008,-14.8418 -3.1525,1.6059 -6.5537,4.0711 -10.084,7.8223 -9.5009,10.0953 -14.7842,22.3592 -19.4746,27.9336 -8.5717,10.1872 1.5484,33.6922 -6.2461,50.8144 -3.4056,7.4812 -14.1345,14.3496 -33.3282,14.3496 -26.159,0 -29.8788,1.5004 -50.2304,20.2598 -32.1601,29.6442 -47.2656,63.0657 -47.2656,104.5762 0,36.483 12.6706,78.0622 30.8164,101.1308 9.8927,12.5766 12.4827,13.2755 40.83,11 18.5359,-1.4878 39.9678,-7.3464 55.295,-15.1133 26.7771,-13.5689 58.9648,-45.5362 66.9218,-66.4648 21.4128,-56.3196 15.3737,-95.4838 -20.207,-131.0644 -12.8534,-12.8534 -24.8537,-27.2369 -26.668,-31.9649 -6.805,-36.5037 -6.4727,-46.3705 3.1153,-63.8652 5.1783,-9.4486 21.7456,-24.044 30.1054,-29.709 2.1207,4.5063 -3.7338,3.2658 40.5977,-10.5039 21.8326,-6.7813 48.7383,-12.3297 59.791,-12.3301 11.0527,-4e-4 22.218,-2.102 24.8106,-4.6699 2.5926,-2.5679 20.3437,-11.6288 39.4472,-20.1367 34.9499,-15.5653 33.869,-15.6462 -18.9687,-1.418 -26.0527,7.0158 -29.6461,7.0258 -36.5567,0.1152 -2.1384,-2.1384 -3.827,-3.5578 -5.5332,-4.1543 l -23.5996,-34.3144 6.6719,-85.4199 c 1.4866,-101.1055 -3.5596,-140.8945 -24.7148,-194.8574 -16.7896,-42.827 -49.7006,-77.178 -83.1309,-86.7657 -3.3921,-0.9728 -6.6038,-1.4569 -9.5918,-1.4922 z m -401.77339,473.6015 c 2.9644,-3.1891 5.5639,-6.741 6.6152,-8.0078 0.1122,-0.1352 0.2493,-0.2571 0.3887,-0.3789 -0.4611,0.2121 -0.771,0.4108 -0.8829,0.5918 -2.4602,3.3758 -4.4734,5.8872 -6.121,7.7949 z m 285.80659,-29.0742 c 3.9902,0.49 36.0675,13.7509 53.3437,16.836 -3.2126,1.0426 -5.5616,1.924 -6.7324,2.5781 -4.2586,-1.3876 -11.467,-5.0681 -32.5859,-4.6641 -23.586,0.4512 -39.7017,-1.5063 -43.4766,-5.2812 -4.6898,-4.6898 -3.1651,-5.9981 6.9922,-5.9981 10.1474,0 17.4904,-1.0145 22.0918,-3.457 0.061,-0.033 0.186,-0.036 0.3672,-0.014 z m 151.3633,9.041 c 0.2074,0.02 0.3177,0.1314 0.3183,0.3438 0,0.4071 -0.6594,0.323 -1.8066,0.1289 0.6754,-0.3322 1.187,-0.5017 1.4883,-0.4727 z"
     style="fill:#3c3c3c" />
</svg>
