<?xml version="1.0" encoding="UTF-8" standalone="no"?>
<svg
   xmlns:dc="http://purl.org/dc/elements/1.1/"
   xmlns:cc="http://creativecommons.org/ns#"
   xmlns:rdf="http://www.w3.org/1999/02/22-rdf-syntax-ns#"
   xmlns:svg="http://www.w3.org/2000/svg"
   xmlns="http://www.w3.org/2000/svg"
   xmlns:sodipodi="http://sodipodi.sourceforge.net/DTD/sodipodi-0.dtd"
   xmlns:inkscape="http://www.inkscape.org/namespaces/inkscape"
   width="1000"
   height="1000"
   viewBox="0 0 999.99999 999.99999"
   id="svg7631"
   version="1.1"
   inkscape:version="0.91 r13725"
   sodipodi:docname="presidency-women.svg">
  <sodipodi:namedview
     pagecolor="#ffffff"
     bordercolor="#666666"
     borderopacity="1"
     objecttolerance="10"
     gridtolerance="10"
     guidetolerance="10"
     inkscape:pageopacity="0"
     inkscape:pageshadow="2"
     inkscape:window-width="1920"
     inkscape:window-height="1017"
     id="namedview10"
     showgrid="false"
     inkscape:zoom="0.236"
     inkscape:cx="500"
     inkscape:cy="500"
     inkscape:window-x="3832"
     inkscape:window-y="-8"
     inkscape:window-maximized="1"
     inkscape:current-layer="svg7631" />
  <defs
     id="defs7633">
    <pattern
       id="EMFhbasepattern"
       patternUnits="userSpaceOnUse"
       width="6"
       height="6"
       x="0"
       y="0" />
    <pattern
       id="EMFhbasepattern-8"
       patternUnits="userSpaceOnUse"
       width="6"
       height="6"
       x="0"
       y="0" />
    <pattern
       id="EMFhbasepattern-3"
       patternUnits="userSpaceOnUse"
       width="6"
       height="6"
       x="0"
       y="0" />
    <pattern
       id="EMFhbasepattern-6"
       patternUnits="userSpaceOnUse"
       width="6"
       height="6"
       x="0"
       y="0" />
  </defs>
  <metadata
     id="metadata7636">
    <rdf:RDF>
      <cc:Work
         rdf:about="">
        <dc:format>image/svg+xml</dc:format>
        <dc:type
           rdf:resource="http://purl.org/dc/dcmitype/StillImage" />
        <dc:title></dc:title>
      </cc:Work>
    </rdf:RDF>
  </metadata>
  <path
     style="fill:#000000"
     d="m 487.07225,279.66261 c -19.2161,-0.0847 -33.0891,7.19733 -47.5,22.83203 -13.6401,14.79791 -19.6027,19.7765 -19.334,44.39844 0.1261,11.52684 -0.4522,18.69303 0.9356,46.95508 0.1551,3.15936 1.9112,85.26548 -21.7852,87.11328 43.1028,32.22436 60.9471,-33.42319 43.0313,-76.75391 -6.4042,-15.4892 -7.7652,-36.47146 -7.1856,-38.21875 0.7382,-2.22538 0.6337,-5.27619 1.4903,-8.22266 5.2609,-18.09583 -4.2699,2.39069 11.6621,8.01172 20.5885,7.26385 54.5542,-15.50422 68.0586,-25.28711 29.0583,8.47215 28.7918,35.51566 30.4199,52.48828 -14.166,29.38684 5.4441,121.46132 59.6094,83.45899 -31.654,17.55133 -42.8295,-93.55362 -39.4746,-129.8457 -5.0511,-26.17211 -2.5812,-41.0539 -38.295,-59.03516 -15.5628,-7.83558 -30.1033,-7.8434 -41.6328,-7.89453 z m -244.6816,45.26172 c -19.2161,-0.0847 -33.0891,7.19927 -47.5,22.83398 -13.6401,14.7979 -19.6027,19.77651 -19.334,44.39844 0.1261,11.52686 -0.4522,18.69108 0.9355,46.95312 0.1552,3.15936 1.9112,85.26744 -21.7851,87.11524 43.1027,32.22436 60.9469,-33.4232 43.0312,-76.75391 -6.4043,-15.48922 -7.7652,-36.47146 -7.1855,-38.21875 0.7381,-2.22539 0.6335,-5.27814 1.4902,-8.22461 5.2609,-18.09582 -4.27,2.39264 11.6621,8.01367 20.5885,7.26385 54.5523,-15.50423 68.0567,-25.28711 29.0583,8.47215 28.7937,35.51567 30.4218,52.48829 -14.1659,29.38684 5.4441,121.46132 59.6094,83.45898 -31.6539,17.55131 -42.8294,-93.55363 -39.4746,-129.8457 -5.0511,-26.17211 -2.581,-41.05389 -38.2949,-59.03516 -15.5627,-7.83557 -30.1034,-7.84535 -41.6328,-7.89648 z m 484.0097,14.71679 c -19.2161,-0.0847 -33.0891,7.19732 -47.5,22.83204 -13.6402,14.7979 -19.6026,19.77649 -19.3339,44.39843 0.1261,11.52685 -0.4523,18.69109 0.9355,46.95313 0.1458,2.96925 1.7023,75.66454 -17.7812,85.9375 -15.4612,-21.71681 -54.8119,-46.57525 -74.9004,-47.18555 -9.7695,-0.29691 -10.1843,0.10231 -13.5391,13.04297 -1.1565,4.46221 18.4349,29.76987 21.7773,39.75195 -29.0994,14.88292 -53.8803,41.39594 -65.3242,70.01758 l -6.7812,1.57813 c -2.6794,-1.49611 -14.469,-13.82276 -23.7891,-32.17383 -8.7584,-17.24483 -39.125,-38.1798 -50.6816,-50.13281 0.9048,-7.70223 16.5715,-20.46671 12.8242,-27.16407 -10.6322,-19.00257 -13.7535,-17.76687 -34.2266,-9.67773 -14.3727,6.75423 -29.5601,21.41171 -36.7715,30.68945 -5.7953,7.45587 -9.318,15.15296 -11.6211,23.38281 -13.4538,-8.13519 -27.1244,-13.76441 -36.5507,-14.05078 -9.7695,-0.29693 -10.1823,0.10231 -13.5371,13.04297 -1.1566,4.46221 18.4348,29.76798 21.7773,39.75 -29.0994,14.88298 -53.8802,41.39787 -65.3242,70.01957 l -6.7813,1.5781 c -2.6794,-1.4961 -14.4687,-13.8248 -23.789,-32.1758 -8.7584,-17.24483 -39.1251,-38.17977 -50.6817,-50.13281 0.9048,-7.70215 16.5716,-20.46475 12.8243,-27.16211 -10.6323,-19.00254 -13.7555,-17.76884 -34.2286,-9.67968 -14.3726,6.7542 -29.5581,21.41171 -36.7695,30.68945 -19.9228,25.6314 -13.1051,54.07586 -21.5176,97.44145 1.3919,13.9247 1.3899,13.9254 15.3145,17.4023 21.1305,5.2759 61.4285,12.0295 86.334,14.4688 0,0 78.6111,5.7279 117.2812,-0.01 21.2997,-2.0656 67.2971,-9.3146 81.125,-12.7852 1.7631,-0.3208 5.7168,-1.1699 5.7168,-1.1699 l -0.3828,-36.8828 c 14.661,2.396 29.4417,4.4596 40.9414,5.5859 0,0 78.6112,5.728 117.2813,-0.01 6.4437,-0.6249 15.2289,-1.7524 24.6191,-3.0782 -0.8681,9.5336 -2.0159,19.8279 -4.2207,31.1934 l 0,0 c 1.3919,13.9247 1.3898,13.9233 15.3144,17.4003 21.1306,5.2759 61.4285,12.0314 86.334,14.4707 0,0 78.6112,5.726 117.2813,-0.012 21.2997,-2.0655 67.297,-9.3146 81.125,-12.7851 1.7631,-0.3208 5.7168,-1.168 5.7168,-1.168 l -0.4024,-38.7949 c -0.5347,0 -1.766,-12.1254 -2.7422,-26.9434 -1.5119,-23.04308 -2.8531,-28.50379 -9.2539,-37.74021 -15.1482,-21.85917 -55.0679,-47.18475 -75.3457,-47.80078 -9.7695,-0.29694 -10.1823,0.10228 -13.5371,13.04297 -1.1565,4.46221 18.4349,29.76987 21.7774,39.75195 -29.0994,14.88292 -53.8803,41.39597 -65.3243,70.01757 l -6.7812,1.5781 c -2.6794,-1.4961 -14.4708,-13.8227 -23.791,-32.1738 -8.7583,-17.24484 -39.1231,-38.17982 -50.6797,-50.13281 0.9048,-7.70221 16.5715,-20.4667 12.8242,-27.16406 -10.0969,-18.04578 -13.6004,-17.75395 -31.4433,-10.75977 -0.8454,-4.40113 -1.9726,-7.66617 -3.627,-10.82031 37.3623,19.07791 51.9699,-41.11004 35.1836,-81.70898 -6.4043,-15.48922 -7.7652,-36.47147 -7.1856,-38.21875 0.7383,-2.22538 0.6337,-5.27618 1.4903,-8.22266 5.2609,-18.09583 -4.27,2.39067 11.6621,8.01172 20.5885,7.26384 54.5522,-15.50421 68.0566,-25.28711 29.0582,8.47216 28.7938,35.51566 30.4219,52.48828 -14.166,29.38684 5.4441,121.46132 59.6094,83.45898 -31.654,17.55133 -42.8294,-93.55362 -39.4746,-129.8457 -5.0511,-26.17212 -2.5811,-41.05389 -38.2949,-59.03515 -15.5629,-7.83557 -30.1035,-7.84341 -41.6329,-7.89454 z"
     id="path4801-7-3-63"
     inkscape:connector-curvature="0" />
</svg>
