<?xml version="1.0" encoding="UTF-8" standalone="no"?>
<svg
   xmlns:dc="http://purl.org/dc/elements/1.1/"
   xmlns:cc="http://creativecommons.org/ns#"
   xmlns:rdf="http://www.w3.org/1999/02/22-rdf-syntax-ns#"
   xmlns:svg="http://www.w3.org/2000/svg"
   xmlns="http://www.w3.org/2000/svg"
   xmlns:sodipodi="http://sodipodi.sourceforge.net/DTD/sodipodi-0.dtd"
   xmlns:inkscape="http://www.inkscape.org/namespaces/inkscape"
   width="1000"
   height="1000"
   viewBox="0 0 999.99999 999.99999"
   id="svg7631"
   version="1.1"
   inkscape:version="0.91 r13725"
   sodipodi:docname="presidency-bretheren.svg">
  <sodipodi:namedview
     pagecolor="#ffffff"
     bordercolor="#666666"
     borderopacity="1"
     objecttolerance="10"
     gridtolerance="10"
     guidetolerance="10"
     inkscape:pageopacity="0"
     inkscape:pageshadow="2"
     inkscape:window-width="1920"
     inkscape:window-height="1017"
     id="namedview10"
     showgrid="false"
     inkscape:zoom="0.236"
     inkscape:cx="500"
     inkscape:cy="500"
     inkscape:window-x="3832"
     inkscape:window-y="-8"
     inkscape:window-maximized="1"
     inkscape:current-layer="svg7631" />
  <defs
     id="defs7633">
    <pattern
       id="EMFhbasepattern"
       patternUnits="userSpaceOnUse"
       width="6"
       height="6"
       x="0"
       y="0" />
    <pattern
       id="EMFhbasepattern-8"
       patternUnits="userSpaceOnUse"
       width="6"
       height="6"
       x="0"
       y="0" />
    <pattern
       id="EMFhbasepattern-3"
       patternUnits="userSpaceOnUse"
       width="6"
       height="6"
       x="0"
       y="0" />
    <pattern
       id="EMFhbasepattern-6"
       patternUnits="userSpaceOnUse"
       width="6"
       height="6"
       x="0"
       y="0" />
  </defs>
  <metadata
     id="metadata7636">
    <rdf:RDF>
      <cc:Work
         rdf:about="">
        <dc:format>image/svg+xml</dc:format>
        <dc:type
           rdf:resource="http://purl.org/dc/dcmitype/StillImage" />
        <dc:title></dc:title>
      </cc:Work>
    </rdf:RDF>
  </metadata>
  <path
     style="fill:#000000"
     d="m 473.92089,263.58228 c -20.6217,-0.0908 -35.50766,7.72363 -50.97265,24.50195 -14.63785,15.88031 -17.22592,23.51066 -16.9375,49.93359 0.37514,34.30468 6.65819,38.47212 14.95898,9.91992 5.64556,-19.41951 7.83813,-20.71187 24.93555,-14.67968 22.09449,7.79517 45.0449,6.10003 59.53711,-4.39844 19.99302,-14.48305 29.68016,-10.1394 42.08984,18.87109 8.27187,19.33763 12.18398,15.375 12.16406,-12.32226 -0.0303,-42.63998 -6.54458,-52.68125 -41.09764,-63.35352 -17.86575,-5.51816 -32.30497,-8.41778 -44.67775,-8.47265 z M 243.72363,323.7229 c -20.62169,-0.0908 -35.50767,7.7256 -50.97266,24.50391 -14.63786,15.88033 -17.22593,23.50871 -16.9375,49.93164 0.37515,34.30468 6.6582,38.47212 14.95899,9.91992 5.64555,-19.41951 7.83811,-20.70993 24.93554,-14.67774 22.09448,7.79517 45.04491,6.10004 59.53711,-4.39843 19.99303,-14.48305 29.68017,-10.14135 42.08985,18.86914 8.27187,19.33764 12.18398,15.37499 12.16406,-12.32227 -0.0303,-42.63998 -6.5446,-52.6793 -41.09766,-63.35156 -17.86573,-5.51815 -32.30494,-8.41974 -44.67773,-8.47461 z m 479.05859,4.14844 c -20.62169,-0.0908 -35.50766,7.72363 -50.97265,24.50195 -14.63785,15.88031 -17.22593,23.51066 -16.9375,49.9336 0.37514,34.30466 6.65819,38.47211 14.95898,9.91992 5.64556,-19.41952 7.83812,-20.71189 24.93556,-14.67969 22.09448,7.79516 45.0449,6.10003 59.5371,-4.39844 19.99303,-14.48305 29.68015,-10.13939 42.08984,18.8711 8.27187,19.33763 12.18398,15.37499 12.16406,-12.32227 -0.0303,-42.63997 -6.54459,-52.68125 -41.09765,-63.35352 -17.86573,-5.51815 -32.30494,-8.41779 -44.67774,-8.47265 z M 409.10058,491.46509 c -4.80121,0.21428 -10.95648,2.67734 -19.94922,6.23047 -15.42397,7.24829 -31.72206,22.97916 -39.46094,32.93554 -5.6445,7.26184 -9.27497,14.7385 -11.74804,22.66016 -2.71597,-0.62711 -5.26349,-1.00822 -7.56446,-1.07813 -10.48403,-0.31861 -10.9272,0.10888 -14.52734,13.9961 -3.78268,14.59375 -26.05339,71.74369 -31.06836,79.73047 -1.32003,2.1018 -3.8449,5.24029 -6.77148,8.00781 l -0.26953,-33.54297 c -0.75735,-10.94611 -9.55272,-19.42594 -20.1504,-19.42578 -10.58969,0.0108 -19.37453,8.48755 -20.13085,19.42578 l -1.49219,35.11328 c -5.50788,-3.07533 -14.34966,-22.41555 -29.25196,-60.29883 -19.26266,-48.96891 -18.98497,-48.75086 -47.76171,-37.38086 -15.42397,7.24829 -31.72206,22.97723 -39.46094,32.9336 -21.380115,27.50624 -14.06391,58.03078 -23.091795,104.56836 1.49374,14.94326 1.49239,14.94257 16.435545,18.67383 22.67617,5.66184 65.92118,12.91154 92.64844,15.52929 0,0 84.36074,6.145 125.85937,-0.0117 22.85775,-2.21662 72.22115,-9.99625 87.06055,-13.7207 1.89208,-0.34427 6.13476,-1.2539 6.13476,-1.2539 l -0.43164,-41.63282 c -0.21453,0 -0.53398,-1.82271 -0.90429,-4.93164 4.41895,0.54986 8.63301,1.03156 12.47851,1.4082 0,0 84.36075,6.14696 125.85939,-0.01 5.01254,-0.48609 11.42547,-1.27162 18.34375,-2.19141 -0.91955,9.88801 -2.1545,20.58084 -4.42579,32.28907 1.49373,14.94326 1.49238,14.94256 16.43554,18.67382 22.67617,5.66185 65.92118,12.90959 92.64844,15.52735 0,0 84.36074,6.14695 125.85938,-0.01 22.85774,-2.21662 72.22114,-9.99626 87.06054,-13.7207 1.89209,-0.34426 6.13478,-1.25391 6.13478,-1.25391 L 903.167,677.07251 c -0.57376,0 -1.89571,-13.01212 -2.94336,-28.91406 -1.62246,-24.72854 -3.06077,-30.58796 -9.9297,-40.5 -16.25625,-23.45808 -59.09632,-50.63575 -80.85742,-51.29688 -10.48403,-0.31862 -10.9272,0.10888 -14.52735,13.9961 -3.78268,14.59376 -26.05338,71.74369 -31.06835,79.73046 -1.32003,2.10181 -3.84491,5.2403 -6.77149,8.00782 l -0.26953,-33.54297 c -0.75734,-10.9461 -9.55271,-19.42592 -20.15039,-19.42578 -10.5897,0.0108 -19.37455,8.48756 -20.13086,19.42578 l -1.49219,35.11133 c -5.50786,-3.07549 -14.34966,-22.41555 -29.25195,-60.29883 -16.61071,-42.22721 -18.70714,-47.86714 -37.41797,-41.33203 -1.42069,-5.77853 -3.49537,-9.71671 -6.92383,-14.66406 -16.25624,-23.45808 -59.09634,-50.63771 -80.85742,-51.29883 -10.48404,-0.31862 -10.92916,0.11082 -14.5293,13.99804 -3.78269,14.59375 -26.05143,71.74369 -31.06639,79.73047 -1.32005,2.10177 -3.84492,5.24031 -6.7715,8.00782 l -0.26953,-33.54297 c -0.75733,-10.94611 -9.55271,-19.42594 -20.15039,-19.42579 -10.5897,0.0108 -19.37649,8.48756 -20.13281,19.42579 l -1.49024,35.11132 c -5.50787,-3.07552 -14.34965,-22.41554 -29.25195,-60.29882 -13.24306,-33.66614 -17.24984,-44.08276 -27.8125,-43.61133 z m 58.54492,15.57226 c 0.75705,17.07598 9.55443,30.30478 20.15235,30.30469 10.5899,-0.0177 19.37434,-13.24162 20.13086,-30.30469 l -40.28321,0 z m -230.19726,60.14063 c 0.75705,17.076 9.55442,30.30479 20.15234,30.30469 10.5899,-0.0177 19.37435,-13.24162 20.13086,-30.30469 l -40.2832,0 z m 479.05859,4.14844 c 0.75705,17.07598 9.55441,30.30478 20.15234,30.30468 10.5899,-0.0177 19.37436,-13.24162 20.13086,-30.30468 l -40.2832,0 z"
     id="path4801-7-9"
     inkscape:connector-curvature="0" />
</svg>
