<?xml version="1.0" encoding="UTF-8" standalone="no"?>
<svg
   xmlns:dc="http://purl.org/dc/elements/1.1/"
   xmlns:cc="http://creativecommons.org/ns#"
   xmlns:rdf="http://www.w3.org/1999/02/22-rdf-syntax-ns#"
   xmlns:svg="http://www.w3.org/2000/svg"
   xmlns="http://www.w3.org/2000/svg"
   width="1000"
   height="1000"
   viewBox="0 0 999.99999 999.99999"
   id="svg7631"
   version="1.1">
  <defs
     id="defs7633">
    <pattern
       id="EMFhbasepattern"
       patternUnits="userSpaceOnUse"
       width="6"
       height="6"
       x="0"
       y="0" />
    <pattern
       id="EMFhbasepattern-8"
       patternUnits="userSpaceOnUse"
       width="6"
       height="6"
       x="0"
       y="0" />
    <pattern
       id="EMFhbasepattern-3"
       patternUnits="userSpaceOnUse"
       width="6"
       height="6"
       x="0"
       y="0" />
    <pattern
       id="EMFhbasepattern-6"
       patternUnits="userSpaceOnUse"
       width="6"
       height="6"
       x="0"
       y="0" />
  </defs>
  <metadata
     id="metadata7636">
    <rdf:RDF>
      <cc:Work
         rdf:about="">
        <dc:format>image/svg+xml</dc:format>
        <dc:type
           rdf:resource="http://purl.org/dc/dcmitype/StillImage" />
        <dc:title></dc:title>
      </cc:Work>
    </rdf:RDF>
  </metadata>
  <path
     id="path6518"
     d="m 500.60219,123.60777 c -19.0273,-0.018 -31.0922,0.66 -47.1875,2.6504 -41.9671,5.1899 -81.1572,16.872 -119.1679,35.5234 -66.4862,32.6236 -122.0923,84.2535 -159.3125,147.9199 -26.7974,45.8374 -43.4014,95.9565 -49.2403,148.6309 -0.6654,6.0023 -1.0895,11.3553 -1.9179,24.1563 -0.2806,4.3353 -0.1913,33.821 0.1152,37.9355 1.1225,15.0774 1.563,19.8417 2.5332,27.4141 7.3345,57.251 27.22,111.041 58.7832,159.0058 33.6668,51.1617 78.7259,92.9804 132.3828,122.8613 6.6545,3.7058 22.2783,11.485 29.3965,14.6368 41.2688,18.2757 85.0607,28.9827 129.1738,31.58 2.9331,0.174 6.0666,0.36 6.9629,0.418 l 0,-0.022 c 0.8962,0.09 9.4285,0.09 18.961,0.045 20.1876,-0.091 27.4376,-0.5047 44.2929,-2.5333 35.8514,-4.315 72.0071,-14.2928 105.7676,-29.1875 7.1336,-3.1473 23.9019,-11.4983 30.6641,-15.2714 21.4668,-11.9776 43.1211,-27.0282 61.3281,-42.625 15.8079,-13.541 31.9305,-29.8737 45.2265,-45.8184 48.91599,-58.6605 78.81949,-131.0563 85.57619,-207.168 0.1017,-1.141 0.2368,-2.6099 0.3008,-3.2656 0.064,-0.6557 0.3214,-4.9239 0.5723,-9.4844 4.4937,-81.7921 -17.2091,-161.657 -62.37309,-229.5371 -62.9813,-94.6587 -164.9059,-155.7333 -277.7285,-166.416 -11.8157,-1.119 -19.4781,-1.4342 -35.1094,-1.4492 z m -3.2558,3.4316 c 13.4895,-0.087 27.0389,0.5413 40.5879,1.8946 30.9017,3.0864 61.6575,10.2063 91.2519,21.123 32.2645,11.9015 62.0481,27.92 90.8067,48.8379 4.4906,3.2664 6.3928,4.7216 12.2558,9.3711 4.2769,3.3917 14.2813,11.9118 18.8516,16.0547 3.8239,3.4664 20.7832,20.4361 24.4609,24.4765 39.2074,43.075 68.28489,95.5284 83.54299,150.7071 0.3605,1.3041 0.8988,3.2373 1.1972,4.2968 0.2985,1.0596 1.0886,4.1939 1.7559,6.9649 6.18,25.6642 9.2293,47.3067 10.502,74.5391 0.185,3.9907 0.2005,25.2454 0.019,29.3418 -2.132,48.2283 -12.469,92.956 -31.4043,135.8886 -18.80589,42.6395 -44.76919,80.3939 -78.36329,113.9551 -34.9216,34.8877 -77.383,63.0199 -122.8125,81.3652 -37.1398,14.9978 -73.0781,23.2847 -114.5078,26.4043 -5.6397,0.4257 -36.3128,0.8134 -41.3301,0.5235 -9.7791,-0.5643 -13.3499,-0.8123 -18.9609,-1.3203 -11.5216,-1.0438 -28.2611,-3.4209 -37.2637,-5.2911 -1.5033,-0.3145 -3.0652,-0.6271 -3.4727,-0.7031 -2.5579,-0.4647 -11.5497,-2.5673 -17.4804,-4.0879 -56.2081,-14.4112 -109.4032,-42.5158 -152.7286,-80.6914 -6.0397,-5.3221 -8.0526,-7.2152 -15.6562,-14.7168 -16.1874,-15.9706 -28.0096,-29.6514 -40.6856,-47.0859 -37.8856,-52.1072 -61.5724,-113.4136 -68.664,-177.7149 -2.9633,-26.87 -2.9186,-55.9737 0.1269,-83.1875 7.8537,-70.177 35.552,-136.5863 79.9551,-191.7011 44.4254,-55.1423 103.1289,-96.3807 169.8027,-119.2813 37.8093,-12.9864 77.7442,-19.7008 118.2129,-19.9629 z m 4.0332,7.418 c -2.569,-0.01 -5.1479,0.01 -7.7383,0.053 -6.518,0.1072 -12.4503,0.2533 -13.1836,0.3243 -0.7334,0.07 -3.5327,0.2706 -6.2188,0.4472 -2.6861,0.1765 -5.4848,0.3821 -6.2207,0.4551 -8.4099,0.8347 -13.5466,1.3809 -15.2617,1.623 -17.3706,2.4539 -27.6467,4.4253 -42.664,8.1836 -54.454,13.6284 -106.8723,41.0464 -149.4688,78.1836 -9.5203,8.3002 -22.2205,20.6908 -30.4082,29.6641 -55.075,60.3591 -88.1021,136.5905 -94.4394,217.9844 -0.923,11.8548 -1.1492,19.488 -0.959,32.3047 0.1028,6.9277 0.2485,13.7298 0.3242,15.1152 2.8165,51.4269 15.6328,99.8877 38.4453,145.373 3.0251,6.0318 3.481,6.8857 8.0879,15.1153 12.8102,22.8847 28.206,44.3007 47.082,65.498 8.5875,9.6435 22.5835,23.2779 33.4981,32.6328 39.6846,34.0134 85.7671,58.9704 135.8398,73.5645 23.6348,6.8887 50.8095,11.7649 74.5117,13.3711 10.43,0.7065 14.3928,0.9376 17.1836,1.0137 14.1181,0.3723 38.268,-0.7073 51.8477,-2.3184 12.3861,-1.4697 22.5227,-3.0963 33.4785,-5.3711 43.0127,-8.9298 84.9212,-26.0868 122.2109,-50.0313 3.4835,-2.2369 11.536,-7.6497 13.3321,-8.9628 0.7333,-0.5362 1.8658,-1.3604 2.5175,-1.8301 57.2991,-41.288 101.1727,-97.6518 127.03909,-163.209 13.0584,-33.0959 21.4731,-69.7483 24.1914,-105.3613 3.084,-40.4063 -0.5419,-81.3803 -10.6699,-120.5528 -13.6269,-52.7052 -40.07639,-103.5709 -75.16989,-144.5566 -4.3015,-5.0238 -4.3146,-5.0373 -8.9121,-10.0762 -22.806,-24.9946 -50.9561,-48.1765 -79.586,-65.541 -20.0344,-12.1514 -40.7549,-22.2575 -61.1797,-29.8379 -9.3141,-3.4568 -10.7453,-3.9601 -16.4433,-5.7891 -36.3247,-11.6594 -72.5314,-17.3631 -111.0664,-17.4687 z m -4.6289,22.8145 c 0.7782,0.019 1.8125,0.058 3.1855,0.1093 14.9852,0.5629 14.4434,0.5192 14.4434,1.1699 0,0.5506 -0.1621,0.5844 -2.293,0.4864 -1.8198,-0.084 -2.3274,-0.015 -2.4609,0.332 -0.1353,0.3525 2.9575,8.9433 9.5507,26.5313 0.5551,1.4808 0.8943,1.7715 1.4122,1.2109 0.449,-0.486 9.5202,-23.706 9.789,-25.0586 0.3359,-1.6876 -0.792,-2.2918 -4.7402,-2.5391 -0.9324,-0.058 -1.1836,-0.1924 -1.1836,-0.6269 0,-0.5133 0.2639,-0.5463 3.7031,-0.4863 2.0368,0.036 5.0344,0.1505 6.6621,0.2558 2.493,0.1609 2.9759,0.2724 3.0586,0.709 0.083,0.4337 -0.126,0.5176 -1.2656,0.5176 -1.929,0 -3.2583,0.6492 -4.1133,2.0039 -0.4019,0.6372 -3.0308,6.948 -5.8418,14.0254 -2.8111,7.0775 -6.3899,16.0676 -7.9531,19.9785 -1.7997,4.5027 -3.0077,7.1443 -3.293,7.1973 -0.7157,0.1351 -1.3661,-0.5688 -1.8574,-2.0079 -0.2504,-0.7335 -2.5847,-7.0688 -5.1875,-14.0781 -2.6028,-7.0093 -6.0148,-16.2003 -7.582,-20.4258 -1.5672,-4.2252 -2.8915,-7.7244 -2.9434,-7.7754 -0.084,-0.084 -2.1418,-0.3378 -3.0879,-0.3828 -0.2035,-0.01 -0.3711,-0.2928 -0.3711,-0.6308 0,-0.4559 0.034,-0.5729 2.3692,-0.5156 z m -10.1582,0.3535 c 0.089,0.089 0.8315,6.9468 1.0312,9.5215 0.084,1.0806 0.025,1.1924 -0.668,1.2734 -0.6668,0.078 -0.9476,-0.2187 -2.2851,-2.4082 -2.0577,-3.3685 -3.9209,-5.013 -6.4551,-5.6992 -1.7945,-0.4861 -2.3683,-0.4991 -6.8945,-0.1582 -3.1393,0.2364 -5.0803,0.5097 -5.3301,0.75 -0.3253,0.3138 -0.2842,1.6631 0.2441,7.9043 0.3503,4.1387 0.7286,8.2577 0.8379,9.1543 l 0.1993,1.6308 1.121,0.092 c 0.616,0.051 1.8403,-0.1169 2.7207,-0.373 2.8762,-0.8363 4.6949,-3.0019 5.3067,-6.3184 0.2882,-1.5623 0.4864,-1.985 1.0234,-2.1836 0.4521,-0.1675 0.7021,-0.1288 0.7793,0.1192 0.062,0.2008 0.3916,3.5663 0.7324,7.4785 0.3408,3.9121 0.6977,7.8901 0.795,8.8398 l 0.1777,1.7266 -0.8359,-0.098 c -0.6997,-0.081 -0.8725,-0.2768 -1.0645,-1.209 -0.2972,-1.4414 -1.5335,-3.8724 -2.3848,-4.6894 -1.2828,-1.2315 -2.8783,-1.735 -5.4648,-1.75 -1.3347,0 -2.5062,0.1239 -2.6035,0.2812 -0.2886,0.4673 1.4356,19.6364 1.7988,20 0.4161,0.4164 8.1526,-0.1883 10.6016,-0.8281 4.7384,-1.2378 7.5016,-4.4913 9.1445,-10.7695 0.5624,-2.1491 0.7927,-2.6301 1.2988,-2.7031 0.5649,-0.082 0.6316,0.1 0.8028,2.2226 0.1025,1.2715 0.2754,4.4674 0.3847,7.1016 l 0.1973,4.789 -1.5996,0.1758 c -1.9842,0.2164 -16.0907,1.4498 -25.5977,2.2383 l 0,0 c -3.9107,0.3243 -8.0885,0.6714 -9.2832,0.7714 -2.1511,0.1813 -2.1715,0.1762 -2.0742,-0.5117 0.091,-0.64 0.2836,-0.7106 2.4453,-0.9062 1.2901,-0.117 2.4599,-0.3271 2.5996,-0.4668 0.2256,-0.2257 -0.095,-4.5079 -1.6953,-22.7344 -1.2815,-14.5932 -1.583,-17.6277 -1.7812,-17.9492 -0.1544,-0.25 -0.848,-0.2947 -2.3985,-0.1543 -2.0436,0.185 -2.1816,0.1592 -2.1816,-0.3906 0,-0.7347 -0.6081,-0.6517 14.666,-1.9766 6.681,-0.5795 14.2727,-1.241 16.8711,-1.4707 2.5984,-0.2303 4.7665,-0.3762 4.8184,-0.3242 z m 60.7363,2.8515 c 0.2765,0 10.3882,1.923 14.0098,2.6641 1.5479,0.3169 7.0136,1.3945 12.1464,2.3945 5.1331,0.9999 9.4112,1.8649 9.5059,1.9219 0.1784,0.1089 -1.6429,10.4437 -1.8828,10.6836 -0.074,0.074 -0.4541,0.014 -0.8457,-0.1348 -0.5841,-0.2221 -0.8034,-0.6646 -1.2227,-2.4551 -0.9977,-4.2606 -3.0871,-7.2889 -5.8418,-8.4707 -1.1857,-0.509 -8.9407,-2.1562 -10.1621,-2.1562 -0.5699,0 -0.9091,0.2031 -1.1074,0.666 -0.1575,0.3668 -0.9596,4.1998 -1.7812,8.5195 -0.8216,4.3196 -1.5599,8.0737 -1.6426,8.3418 -0.234,0.7625 0.6086,1.3637 2.2265,1.586 4.0225,0.5534 7.2089,-1.4928 8.8907,-5.711 0.3155,-0.7932 0.502,-0.9362 1.0136,-0.7793 0.3451,0.106 0.6712,0.2323 0.7246,0.2793 0.1645,0.1442 -3.2648,17.4583 -3.5117,17.7286 -0.1269,0.1392 -0.4736,0.1164 -0.7695,-0.049 -0.4,-0.2234 -0.518,-0.5932 -0.4609,-1.4375 0.1185,-1.7591 -0.4728,-4.2678 -1.3008,-5.5195 -0.9583,-1.4484 -3.0181,-2.7544 -5.0664,-3.2129 -1.3399,-0.3004 -1.6712,-0.2905 -2,0.061 -0.2168,0.2313 -1.018,3.6879 -1.7813,7.6816 -0.7631,3.9937 -1.5973,8.2406 -1.8515,9.4375 -0.3907,1.8414 -0.3982,2.2324 -0.055,2.543 0.2233,0.2018 2.3488,0.7416 4.7246,1.1992 7.3978,1.425 10.5874,0.8117 14.0937,-2.709 1.0014,-1.0056 2.2963,-2.7664 3.0664,-4.1699 1.3047,-2.3778 2.1564,-3.0554 2.5508,-2.0274 0.127,0.3312 -2.043,10.6397 -2.7344,12.9903 -0.198,0.6733 -0.4982,0.6484 -6.334,-0.5313 -4.2684,-0.8628 -11.1141,-2.2018 -27.4785,-5.3769 -4.024,-0.7807 -4.2226,-0.853 -4.2226,-1.5274 0,-0.6377 0.096,-0.6886 0.9629,-0.5273 2.3181,0.4312 4.2958,0.5403 4.4765,0.248 0.1039,-0.1683 0.5932,-2.4172 1.086,-5 0.4926,-2.5827 1.09,-5.6305 1.3281,-6.7715 0.2382,-1.1411 0.9088,-4.541 1.4883,-7.5566 0.5795,-3.0156 1.6468,-8.5767 2.373,-12.3574 0.7262,-3.7809 1.3203,-7.2004 1.3203,-7.5996 0,-0.7199 -0.4798,-1.0879 -1.4316,-1.0879 -0.2718,0 -0.9944,-0.1406 -1.6055,-0.3106 -0.7993,-0.222 -1.1094,-0.4724 -1.1094,-0.8886 0,-0.3184 0.095,-0.5782 0.211,-0.5782 z m -111.0996,2.6524 c 0.1092,-0.01 0.1763,-9e-4 0.1953,0.018 0.4962,0.4819 -0.068,1.1076 -1.1895,1.3183 -1.6858,0.3163 -2.6487,0.9207 -3.0625,1.9199 -0.3382,0.817 0.073,2.6807 4.5801,20.7422 2.7235,10.9139 4.9742,20.0799 4.9961,20.3692 0.024,0.2893 -0.1917,0.5757 -0.4785,0.6347 -0.5729,0.1183 -1.6224,-0.6442 -5.8477,-4.248 -1.5479,-1.3204 -5.3473,-4.5188 -8.4433,-7.1074 -3.0961,-2.5885 -9.7248,-8.1485 -14.7305,-12.3536 -5.0058,-4.205 -9.3052,-7.6445 -9.5547,-7.6445 -0.2495,0 -0.4531,0.1841 -0.4531,0.4102 0,0.226 1.8525,7.9022 4.1172,17.0586 2.7989,11.3173 4.2929,16.8434 4.666,17.2578 0.9356,1.0392 1.6721,1.14 4.1035,0.5605 1.8638,-0.4444 2.2964,-0.4686 2.4219,-0.1406 0.085,0.2199 0.1016,0.5546 0.039,0.7441 -0.063,0.1894 -3.1541,1.1057 -6.8691,2.0371 -5.2902,1.3286 -6.7883,1.6066 -6.9082,1.295 -0.3006,-0.7833 0.1728,-1.1847 1.8339,-1.5567 2.0788,-0.4654 2.8164,-1.1453 2.8164,-2.5957 0,-0.5984 -1.4834,-7.101 -3.2988,-14.4492 -6.3179,-25.5758 -5.5529,-23.4639 -8.4023,-23.1797 -0.9778,0.098 -2.0605,0.2565 -2.4043,0.3535 -0.4314,0.1222 -0.687,0.02 -0.8223,-0.332 -0.1101,-0.2806 -0.14,-0.5668 -0.072,-0.6348 0.1421,-0.1419 16.3321,-4.2382 16.752,-4.2382 0.1535,0 5.6415,4.469 12.1953,9.9296 6.5539,5.4608 12.0336,9.9278 12.1777,9.9278 0.1439,0 0.3409,-0.2028 0.4356,-0.4512 0.1975,-0.5149 -4.5057,-19.7119 -5.1387,-20.9746 -0.6818,-1.3603 -1.5691,-1.5812 -4.0059,-0.9961 -1.6928,0.4064 -2.1591,0.4324 -2.3515,0.1289 -0.1342,-0.2082 -0.2027,-0.4982 -0.1563,-0.6445 0.1179,-0.3741 11.2211,-3.0667 12.8594,-3.1582 z m 165.8633,9.2851 c 0.098,0 0.2077,0.021 0.3339,0.053 1.5367,0.3858 22.3411,8.875 25.2774,10.3144 2.5803,1.265 3.4979,1.9125 5.3867,3.7988 1.9352,1.9326 2.3518,2.5315 2.7734,3.9825 1.1586,3.9868 -0.852,8.3387 -4.6679,10.1015 -1.7248,0.7958 -2.1148,0.8618 -5.2696,0.8438 -2.5132,-0.013 -3.9525,-0.1768 -5.4824,-0.6231 -1.1405,-0.3327 -2.24,-0.5475 -2.4433,-0.4765 -0.7545,0.262 -0.329,0.9442 1.164,1.8633 3.9853,2.453 6.3913,5.9096 6.6817,9.5996 0.1631,2.0747 -0.631,5.8481 -1.8575,8.8261 -1.0664,2.5896 -1.284,4.7974 -0.5546,5.6035 0.6628,0.7327 2.287,1.4532 3.2773,1.4532 0.8242,0 1.2751,0.8224 0.6641,1.2109 -0.4388,0.2791 -1.4152,0.2572 -4.2481,-0.096 -2.5243,-0.3148 -6.0946,-2.0743 -7.709,-3.8008 -1.8842,-2.0151 -2.3379,-3.2062 -2.3379,-6.205 0,-2.2555 0.1535,-2.9846 1.504,-6.9649 1.6808,-4.9544 1.9859,-6.6321 1.5175,-8.3301 -0.5271,-1.9113 -1.809,-3.2128 -4.5429,-4.6133 -2.2124,-1.1331 -2.5499,-1.2299 -2.9278,-0.8378 -0.2349,0.2441 -2.1174,4.6298 -4.1816,9.7461 -4.2805,10.6096 -4.21,9.6841 -0.832,11.0234 2.0851,0.8268 2.3211,1.0431 1.8867,1.7305 -0.2264,0.3588 -0.4787,0.3398 -1.6992,-0.1211 -3.4524,-1.3037 -18.0462,-7.3153 -18.2481,-7.5176 -0.1233,-0.1227 -0.056,-0.4424 0.1484,-0.709 0.3403,-0.4445 0.5182,-0.4243 2.125,0.2383 2.1244,0.8759 2.7224,0.9024 3.1309,0.1387 0.3308,-0.6182 0.8632,-1.9212 8.3535,-20.4571 6.6933,-16.5629 6.56,-16.2161 6.3613,-16.7344 -0.099,-0.2584 -0.4161,-0.5562 -0.705,-0.6601 -2.4541,-0.8879 -3.6183,-1.5715 -3.4453,-2.0234 0.098,-0.2562 0.2726,-0.3697 0.5664,-0.3575 z m 14.1992,7.3184 c -0.077,0 -0.1345,0.01 -0.1699,0.025 -0.2593,0.1376 -0.8743,1.291 -1.3672,2.5625 -0.4929,1.2713 -1.8554,4.6876 -3.0274,7.5937 -1.1722,2.9063 -2.0895,5.5642 -2.039,5.9043 0.091,0.615 1.8503,1.5135 5.7187,2.9219 2.0138,0.7336 4.1221,0.7186 5.3477,-0.039 1.2261,-0.7581 2.4654,-2.6972 3.7851,-5.9199 2.5453,-6.215 2.5749,-7.9856 0.1621,-9.6582 -1.6283,-1.1287 -7.2472,-3.3635 -8.4101,-3.3906 z m -265.6035,11.7734 c 0.2341,-0.03 0.3725,0.041 0.5136,0.1817 0.3764,0.3765 0.3342,0.5001 -0.3476,0.9843 -0.4289,0.3047 -1.1257,0.8103 -1.5469,1.1231 -1.5289,1.1354 -1.5937,1.6574 -1.5937,13.4687 l 0,10.9239 2.2656,4.1172 c 1.2465,2.2639 2.7704,4.9815 3.3847,6.041 0.6142,1.0596 1.7673,3.1286 2.5625,4.5957 1.0062,1.8563 1.629,2.6929 2.0508,2.7539 0.3333,0.048 1.4426,-0.3849 2.4649,-0.9629 2.1128,-1.1947 2.2642,-1.2298 2.5136,-0.5801 0.268,0.6986 0.029,0.9261 -2.1406,2.0488 -1.0878,0.5628 -2.7112,1.4405 -3.6074,1.9512 -0.8963,0.5107 -4.129,2.3142 -7.1836,4.0078 l 0,0 c -3.0545,1.6935 -5.674,3.0801 -5.8203,3.0801 -0.308,0 -0.6851,-0.8494 -0.5059,-1.1387 0.066,-0.1078 0.9987,-0.6621 2.0703,-1.2324 1.0717,-0.5703 2.0137,-1.2062 2.0938,-1.4121 0.1219,-0.3133 -8.1973,-15.7601 -9.0938,-16.8848 -0.3122,-0.3919 -2.7087,-1.7903 -14.1347,-8.2441 -3.9834,-2.25 -7.5306,-4.1449 -7.8828,-4.2129 -0.363,-0.069 -1.3567,0.2819 -2.293,0.8105 -1.6084,0.9081 -1.6599,0.9175 -1.9668,0.3438 -0.2914,-0.5447 0.3854,-0.9779 8.8887,-5.6855 5.0617,-2.8021 9.4213,-5.1109 9.6894,-5.1329 0.2685,-0.021 0.5367,0.1892 0.5938,0.4668 0.073,0.3527 -0.3264,0.7218 -1.3262,1.2286 -1.8597,0.9428 -2.8989,1.7981 -2.6582,2.1875 0.1058,0.1714 1.8265,1.2495 3.8242,2.3964 1.9977,1.1467 5.9649,3.4298 8.8145,5.0723 2.8496,1.6424 5.3462,2.9844 5.5488,2.9844 0.6407,0 0.6905,-1.1233 0.4531,-10.1231 -0.2111,-8.0139 -0.2808,-8.8461 -0.791,-9.4101 -0.7638,-0.8442 -1.1719,-0.791 -3.6465,0.4824 -1.5946,0.82 -2.229,1.0175 -2.4785,0.7676 -0.5269,-0.527 -0.1693,-0.8281 3.2188,-2.7071 1.7481,-0.9693 4.2983,-2.3868 5.666,-3.1503 1.3589,-0.7587 2.012,-1.0906 2.4023,-1.1407 z m 333.666,19.4199 c 0.066,-0.01 0.1335,0 0.1992,0.014 0.4625,0.1218 28.7847,20.5913 29.6426,21.4239 0.3678,0.3569 -0.014,1.0625 -2.8145,5.1972 -1.782,2.6312 -3.4186,4.8545 -3.6347,4.9395 -0.2164,0.085 -0.5745,-0.03 -0.7969,-0.2559 -0.3421,-0.3476 -0.2895,-0.8455 0.3418,-3.2266 1.3048,-4.9208 0.7138,-8.0595 -2.1035,-11.1835 -1.2649,-1.4025 -7.7901,-6.3028 -8.3926,-6.3028 -0.1729,0 -2.0238,2.3432 -4.1133,5.209 -2.0897,2.866 -4.4966,6.1673 -5.3496,7.3359 -0.8531,1.1686 -1.5219,2.3701 -1.4824,2.67 0.039,0.3029 0.841,1.0217 1.8086,1.6211 1.4517,0.8994 2.0698,1.0984 3.7304,1.1914 2.2256,0.1259 3.2775,-0.2692 5.7539,-2.1602 1.1409,-0.8713 1.4913,-1.0044 1.9707,-0.748 0.3208,0.1719 0.5821,0.3704 0.5821,0.4414 0,0.071 -1.2,1.7655 -2.668,3.7675 -1.4681,2.0021 -3.8355,5.2716 -5.2598,7.2657 -1.4242,1.9941 -2.7398,3.6308 -2.9238,3.6308 -0.1837,0 -0.4805,-0.1725 -0.6601,-0.3886 -0.2449,-0.2952 -0.1074,-0.9063 0.5488,-2.4454 1.6114,-3.7795 1.0539,-6.5625 -1.832,-9.1582 -1.8708,-1.6833 -2.5024,-1.6954 -3.6289,-0.074 -0.9001,1.2956 -1.6129,2.2769 -7.2188,9.9336 -1.8244,2.4916 -3.3164,4.7031 -3.3164,4.916 0,0.2126 1.0714,1.159 2.3828,2.1035 1.5429,1.1113 2.353,1.8858 2.293,2.1934 -0.05,0.2615 -0.2888,0.5108 -0.5313,0.5508 -0.6878,0.1162 -17.9218,-12.5483 -17.9218,-13.1699 0,-0.9066 0.8515,-0.7388 2.5058,0.4961 0.8804,0.657 1.8394,1.1953 2.1309,1.1953 0.2973,0 1.0286,-0.6835 1.666,-1.5567 13.9958,-19.1718 22.2871,-30.799 22.2871,-31.2519 0,-0.3563 -0.7119,-1.0926 -1.9102,-1.9727 -1.3313,-0.9778 -1.8593,-1.5422 -1.7382,-1.8594 0.072,-0.1878 0.2552,-0.3175 0.4531,-0.3418 z m -381.6153,8.4083 c 0.4877,0.3015 8.8438,9.8996 8.8438,10.1582 0,0.5457 -0.8686,0.5871 -1.5371,0.072 -0.377,-0.2904 -1.4933,-0.9986 -2.4805,-1.5722 -5.8031,-3.3715 -10.0299,-3.2577 -14.1621,0.3808 -1.1687,1.0291 -1.3241,1.2909 -1.0586,1.7871 0.171,0.3198 5.4052,6.8787 11.6309,14.5742 6.2258,7.6955 11.7617,14.557 12.3027,15.25 0.5734,0.734 1.2309,1.2598 1.5762,1.2598 0.326,0 1.3874,-0.6244 2.3574,-1.3867 1.6529,-1.299 1.7943,-1.3542 2.2617,-0.8867 0.5788,0.5789 1.4114,-0.2022 -7.1875,6.7363 -3.0959,2.4982 -6.4022,5.1832 -7.3476,5.9668 -1.7358,1.4386 -2.0205,1.587 -2.3789,1.2285 -0.4961,-0.4962 -0.032,-1.245 1.5957,-2.5683 0.9684,-0.7872 1.7617,-1.6124 1.7617,-1.834 0,-0.222 -0.8332,-1.4299 -1.8516,-2.6836 -1.0184,-1.2536 -3.9196,-4.8338 -6.4453,-7.9551 -2.5257,-3.1212 -7.3684,-9.1043 -10.7637,-13.2969 -3.7976,-4.6894 -6.3735,-7.623 -6.6914,-7.623 -0.284,0 -1.3302,0.737 -2.3261,1.6386 -3.8296,3.4668 -4.4343,6.9561 -2.3008,13.2793 1.391,4.1227 1.2066,4.9029 -0.627,2.6602 -1.9873,-2.4306 -6.9179,-9.1798 -6.9179,-9.4688 0,-0.2728 1.7462,-1.7199 15.7031,-13.0195 3.9922,-3.2321 9.1832,-7.4445 11.5351,-9.3594 2.3519,-1.9151 4.3806,-3.4168 4.5078,-3.3378 z m 198.6778,2.5507 c 18.6886,0.097 37.3488,1.9395 54.0547,5.4473 2.0051,0.421 4.2133,0.8831 4.9082,1.0254 2.6652,0.5457 13.4509,3.3374 17.6972,4.5801 18.489,5.4109 36.8239,12.9181 53.2852,21.8203 46.3253,25.0524 84.2826,62.0965 110.4336,107.7754 3.5254,6.1582 11.2405,21.7211 13.9883,28.2168 11.9433,28.2344 19.1798,57.7571 21.3925,87.2832 0.1101,1.4671 0.2632,3.0675 0.3418,3.5566 0.079,0.4889 0.2029,7.4228 0.2735,15.4102 0.1266,14.3142 0.017,17.5953 -0.9395,28.1562 -4.703,51.9258 -23.6874,100.9163 -55.2402,142.5567 -7.8994,10.4249 -14.6522,18.115 -25.0059,28.4726 -11.2959,11.3001 -18.4666,17.5527 -30.2168,26.3496 -33.4696,25.0578 -70.8927,41.8081 -111.5683,49.9395 -13.9665,2.7918 -25.4124,4.2353 -39.9961,5.0449 l 0,0 c -2.8516,0.1561 -5.3513,0.2891 -5.5547,0.2891 -0.4388,0.01 -0.4348,-0.405 0.023,-4.1446 l 0.3438,-2.8144 4.4433,-0.209 c 36.9953,-1.7266 74.0655,-11.5368 107.8438,-28.5391 40.2265,-20.2482 75.3211,-50.8102 101.0781,-88.0254 3.5758,-5.1666 11.3555,-17.3544 11.3555,-17.7871 0,-0.053 0.5829,-1.0803 1.2949,-2.2851 1.8972,-3.2102 6.8307,-12.709 9.4472,-18.1895 13.0561,-27.3458 21.8072,-58.871 24.6348,-88.7363 1.0582,-11.1819 1.1797,-14.1247 1.1797,-27.4141 -0.01,-16.644 -0.5384,-24.3441 -2.7773,-40.1601 -2.7705,-19.5708 -8.937,-42.2519 -16.6778,-61.3496 -13.7792,-33.9957 -33.5559,-63.8418 -59.6152,-89.9649 -15.7613,-15.7996 -30.9436,-27.8652 -49.7734,-39.5586 -8.0449,-4.9958 -21.4896,-12.2465 -28.1465,-15.1797 -1.3035,-0.5744 -3.1039,-1.3828 -4,-1.7949 -18.8882,-8.6881 -45.4547,-16.5391 -67.2539,-19.8769 -16.3193,-2.4986 -23.2566,-2.9981 -42.2168,-2.9981 -15.8536,-0.01 -19.4425,0.1395 -29.627,1.2012 -47.9496,4.9988 -94.3779,23.252 -133.2129,52.373 -26.7253,20.0404 -49.1847,44.3224 -67.0859,72.5274 -9.9004,15.5989 -19.5024,35.1613 -25.6738,52.3105 -8.0163,22.2759 -13.4179,46.7964 -15.0489,68.3145 -0.1793,2.3636 -0.3761,4.4519 -0.4375,4.6406 -0.6144,1.8864 -0.751,28.5694 -0.1875,36.5567 1.7332,24.5645 5.86,45.9829 13.1328,68.166 8.3717,25.5349 21.1723,50.6634 37.2149,73.0566 3.4337,4.7927 3.8888,5.394 8.541,11.2617 9.772,12.3256 22.9459,25.9498 35.5098,36.7227 44.2193,37.9163 99.2894,60.4732 157.4062,64.4746 2.3283,0.1606 4.3415,0.3564 4.4746,0.4414 0.1328,0.082 0.3306,1.1217 0.4414,2.3086 0.1102,1.1869 0.2835,2.6767 0.3848,3.3105 l 0.1836,1.1504 -3.377,-0.205 c -16.3454,-0.9952 -32.6576,-3.4575 -49.4492,-7.4688 -8.3035,-1.984 -23.8972,-6.8263 -31.5527,-9.7969 -20.2075,-7.8419 -36.2439,-15.9684 -53.0313,-26.8769 -46.5948,-30.2761 -83.0869,-73.636 -104.7773,-124.4961 -11.2501,-26.3795 -18.5401,-55.317 -20.9863,-83.3047 -3.8688,-44.2624 2.3323,-87.6994 18.2461,-127.7891 19.0524,-47.9971 50.7632,-89.4286 92.2597,-120.5449 39.3005,-29.4697 85.9841,-48.0607 134.3574,-53.5039 10.8181,-1.2174 22.0427,-1.7884 33.2559,-1.7305 z m -0.9805,10.6211 c 11.5611,0.034 23.1912,0.816 34.8301,2.3614 10.6425,1.4131 17.2908,2.6639 28.3574,5.3359 37.719,9.1077 73.5869,26.9391 104.4668,51.9355 6.7797,5.4878 12.2788,10.4974 20.0684,18.2832 8.5337,8.5296 10.0406,10.1172 14.0664,14.8282 34.1841,40.0039 55.2238,86.6159 62.3418,138.1113 1.2817,9.2733 1.7586,14.8894 2.414,28.4531 0.6593,13.6463 -0.8158,35.4957 -3.4707,51.4199 -6.2196,37.3069 -19.8512,72.1757 -40.3789,103.2872 -33.8999,51.378 -83.8839,89.3287 -142.1152,107.8984 -19.8332,6.3247 -40.7741,10.3663 -61.1563,11.8066 -2.3626,0.1663 -5.5123,0.3864 -7,0.4844 l -2.705,0.1777 -0.1407,-1.1308 c -0.04,-0.3213 0.031,-1.5562 0.1641,-3.2363 0.1938,1.0561 0.4999,1.6673 0.9785,1.4472 0.2418,0.2418 4.6707,-1.5278 7.0098,-2.8008 10.527,-5.7292 18.1147,-15.6702 20.875,-27.3496 0.3901,-1.6506 0.7656,-3.0566 0.8359,-3.1269 0.1214,-0.1215 9.0835,-2.1876 19.3516,-4.461 2.609,-0.5777 9.9453,-2.2334 16.3047,-3.6797 6.3593,-1.4461 14.898,-3.3815 18.9746,-4.2988 4.0765,-0.9173 8.8133,-1.9839 10.5254,-2.3711 5.6689,-1.282 13.3764,-3.0198 22.3828,-5.0449 l 8.8945,-1.998 2.668,-1.7852 c 4.8629,-3.2499 10.9243,-7.7335 10.5996,-7.8418 -0.176,-0.059 -6.5679,1.444 -14.2051,3.3398 -7.637,1.8961 -24.6255,6.1125 -37.7519,9.3711 -13.1263,3.2586 -31.1261,7.7243 -40,9.9239 -8.8738,2.1996 -16.4129,3.9606 -16.752,3.9121 -0.5715,-0.082 -0.6287,-0.3422 -0.8047,-3.5703 -0.104,-1.9149 -0.2712,-3.7995 -0.3691,-4.1895 -0.1041,-0.4118 -0.024,-0.8323 0.1894,-1.0019 0.2023,-0.1608 5.1709,-1.7231 11.041,-3.4707 5.8702,-1.7476 14.6097,-4.3489 19.42,-5.7813 4.8103,-1.4325 10.8792,-3.2345 13.4883,-4.0039 2.6088,-0.7694 7.3456,-2.1774 10.5253,-3.1309 3.1796,-0.9536 13.653,-4.0683 23.2735,-6.9199 9.6204,-2.8517 22.4947,-6.6752 28.6094,-8.498 6.1148,-1.8229 12.3845,-3.6853 13.9335,-4.1387 1.5491,-0.4533 5.8195,-1.708 9.4883,-2.7871 l 6.67,-1.9609 3.3691,-3.4825 c 4.5219,-4.6738 6.6886,-7.1611 6.4492,-7.4004 -0.1094,-0.109 -0.6285,-0.047 -1.1543,0.1348 -0.5259,0.182 -6.8923,2.2201 -14.1484,4.5293 -7.2562,2.3093 -15.3954,4.9074 -18.086,5.7754 -2.6905,0.8681 -8.0924,2.6004 -12.0058,3.8477 -3.9135,1.2474 -8.7172,2.7817 -10.6738,3.4101 -1.9568,0.6285 -6.1582,1.9647 -9.3379,2.9707 -3.1797,1.0059 -6.5154,2.0774 -7.4121,2.3809 -0.897,0.3034 -2.8983,0.9511 -4.4473,1.4375 -2.6293,0.8254 -23.8568,7.5983 -39.7266,12.6758 -32.1636,10.2909 -30.2552,9.7157 -30.6738,9.2558 -0.2004,-0.22 -0.6685,-1.2683 -1.041,-2.3281 -0.3726,-1.0599 -1.0059,-2.5773 -1.4063,-3.3731 -0.6045,-1.202 -0.6603,-1.513 -0.332,-1.83 0.2173,-0.21 4.3974,-1.98 9.2891,-3.9336 4.8918,-1.9536 11.0965,-4.4437 13.7871,-5.5352 2.6905,-1.0915 11.6956,-4.7282 20.0117,-8.0801 8.316,-3.352 20.3224,-8.1932 26.6816,-10.7578 6.3594,-2.5645 16.7658,-6.7595 23.125,-9.3222 6.3594,-2.5628 17.366,-7.0012 24.459,-9.8633 7.0931,-2.8621 15.7658,-6.3542 19.2715,-7.7598 3.5058,-1.4057 6.5403,-2.6602 6.7441,-2.7891 0.4172,-0.2637 0.5492,-8.0601 0.1407,-8.3125 -0.1268,-0.078 -7.965,3.1655 -17.418,7.2071 -18.023,7.7057 -64.1085,27.419 -104.4434,44.6758 -13.0962,5.6032 -24.0614,10.1875 -24.3672,10.1875 -0.5147,0 -3.2597,-3.166 -3.2597,-3.7598 0,-0.327 -0.3356,-0.1331 10.3769,-6.0117 5.1364,-2.8187 12.6735,-6.9603 16.75,-9.2032 4.0764,-2.2427 10.2144,-5.6098 13.6387,-7.4824 3.4243,-1.8726 8.2928,-4.5403 10.8203,-5.9277 2.5274,-1.3874 6.6639,-3.6559 9.1914,-5.043 2.5274,-1.387 5.1959,-2.8539 5.9297,-3.2597 2.5019,-1.3835 16.7351,-9.1933 22.8281,-12.5254 7.2456,-3.9624 36.3416,-19.9226 38.2442,-20.9785 1.0819,-0.6004 17.6243,-9.6766 24.3105,-13.3379 5.3257,-2.9164 11.1544,-6.126 13.3418,-7.3477 2.3087,-1.2892 11.793,-6.4843 18.6778,-10.2305 1.549,-0.8429 4.1506,-2.2691 5.7812,-3.1679 3.7458,-2.0646 12.0283,-6.6058 13.7852,-7.5586 0.7339,-0.3979 1.5057,-0.9445 1.7148,-1.2149 0.4259,-0.5509 3.918,-11.0727 3.918,-11.8047 0,-0.611 -0.3895,-0.455 -3.7051,1.4903 -1.4675,0.861 -5.5372,3.2126 -9.043,5.2246 -3.5058,2.012 -9.6418,5.5468 -13.6367,7.8555 -8.0658,4.6612 -21.7064,12.528 -37.6523,21.7148 -5.7886,3.335 -11.7259,6.7636 -13.1934,7.6191 -1.4675,0.8556 -7.0703,4.0922 -12.4512,7.1934 -5.381,3.1012 -14.0536,8.1014 -19.2714,11.1113 -5.2181,3.01 -11.6884,6.7272 -14.379,8.2617 -2.6903,1.5345 -7.8935,4.8019 -11.5625,7.2598 -10.6321,7.1227 -17.965,11.3428 -27.0722,15.5801 -2.8022,1.3038 -5.5622,2.6484 -6.1328,2.9883 -0.5708,0.3399 -6.6397,3.8485 -13.4883,7.7968 -6.8485,3.9483 -16.4493,9.4863 -21.336,12.3067 -4.8864,2.8205 -9.123,5.1916 -9.414,5.2676 -0.6715,0.1756 -2.6064,-1.2782 -2.5918,-1.9473 0,-0.2932 1.4611,-1.5727 3.4824,-3.0605 9.9672,-7.336 14.1298,-10.4974 14.5664,-11.0723 0.9916,-0.1818 2.1481,-0.3864 3.5332,-0.625 2.7759,-0.4782 10.8862,-2.9729 16.9434,-5.2129 5.9322,-2.1941 19.8985,-8.9516 27.4433,-13.2773 4.2712,-2.4488 16.8339,-10.7327 21.5743,-14.2266 8.522,-6.2812 20.8922,-18.4843 29.1543,-28.7598 3.8156,-4.7454 8.7157,-11.6052 11.9609,-16.7441 0.4632,-0.7336 1.5862,-2.8007 2.4961,-4.5938 2.3825,-4.6946 6.4968,-12.3122 7.1621,-13.2597 1.6249,-2.3149 6.5988,-14.5302 9.0937,-22.334 2.9912,-9.3561 5.2815,-18.8029 5.67,-23.3848 0.2909,-3.4333 1.3666,-10.7017 1.6523,-11.164 0.9501,-1.5384 1.656,-23.5253 1.0371,-32.3125 -0.4497,-6.3854 -0.8886,-10.2989 -1.2578,-11.1973 -0.3766,-0.9158 -1.7363,-9.5171 -1.7363,-10.9844 0,-1.6702 -2.0075,-10.2338 -4.2696,-18.2168 -1.6964,-5.9867 -7.3582,-20.6937 -8.4433,-21.9316 -0.6085,-0.694 -4.7676,-9.2238 -4.7676,-9.7774 0,-0.8366 -5.2374,-9.7874 -9.2402,-15.791 -4.6422,-6.9628 -12.8661,-17.5875 -14.1602,-18.2949 -0.7407,-0.4049 -6.1439,-6.2738 -6.9648,-7.5645 -1.0065,-1.5823 -9.4615,-9.4047 -15.4082,-14.2558 -4.9347,-4.0253 -14.3075,-10.7018 -15.5547,-11.0801 -0.9712,-0.2946 -7.3017,-4.156 -8.4434,-5.1504 -1.7076,-1.4873 -16.9697,-8.9354 -22.9258,-11.1875 -7.6788,-2.9038 -12.5922,-4.5508 -13.6191,-4.5508 -0.9838,-0.01 -9.4728,-2.3309 -10.2305,-2.8027 -1.4101,-0.8782 -16.5335,-3.4803 -25.3652,-4.3633 -4.2711,-0.4272 -23.226,-0.5373 -29.4805,-0.1719 -5.6335,0.3289 -11.1347,0.9644 -17.3593,2.0059 -7.3366,1.2275 -13.9577,2.7098 -14.668,3.2852 -0.4691,0.3798 -8.3525,2.67 -9.6563,2.8046 -1.4211,0.147 -10.2356,3.2873 -15.3476,5.4688 -8.3349,3.5568 -20.2329,9.6669 -21.332,10.9551 -0.5512,0.6459 -7.1786,4.8238 -8.5918,5.416 -1.1326,0.4745 -6.3072,4.1307 -10.5176,7.4316 -7.5443,5.9141 -18.2702,15.8743 -20.1563,18.7168 -0.5439,0.8198 -2.4892,3.023 -4.3222,4.8965 -6.162,6.2978 -13.1615,15.7172 -19.2676,25.9297 -2.3559,3.9402 -5.582,9.9937 -5.582,10.4727 0,0.5252 -4.1338,9.2754 -4.7559,10.0664 -1.4181,1.8036 -6.7263,16.8254 -8.9844,25.4277 -1.3728,5.23 -2.7584,11.6916 -2.9785,13.709 l -17.4199,-23.1641 c -9.6784,-12.8712 -21.7865,-28.9716 -26.9082,-35.7793 -5.1217,-6.8076 -9.4118,-12.3789 -9.5332,-12.3789 -0.2681,0 -0.5168,0.5371 -2.5821,5.5762 l -1.6171,3.9453 4.0918,5.2129 c 2.2498,2.8675 4.8862,6.2281 5.8593,7.4687 0.9733,1.2406 4.9776,6.3257 8.8985,11.2989 3.9208,4.9733 7.3928,9.3986 7.7168,9.834 0.3239,0.4354 3.0468,3.9029 6.0507,7.707 3.0039,3.804 6.1456,7.7838 6.9825,8.8437 0.8367,1.0599 2.526,3.1951 3.7519,4.7442 1.2259,1.549 3.7468,4.7509 5.6035,7.1152 5.9022,7.5157 7.6262,9.6583 7.8067,9.709 -0.025,0.1291 -0.054,0.3139 -0.078,0.4336 -0.6993,3.4285 -0.8494,4.5203 -1.1563,8.3652 -0.4036,5.0594 -0.4221,21.615 -0.029,26.1621 0.4514,5.2224 0.8004,8.2724 1.086,9.627 l -1.5176,-1.5703 c -3.2589,-3.3738 -27.0022,-27.5972 -35.75,-36.4727 -4.3115,-4.3744 -7.9463,-7.9531 -8.0781,-7.9531 -0.1321,0 -0.2403,2.266 -0.2403,5.0351 l 0,5.0352 1.2598,1.2637 c 1.8463,1.854 24.852,24.2953 29.8691,29.1367 2.3635,2.2808 5.0971,4.9509 6.0762,5.9336 3.6185,3.6312 9.2565,9.006 10.1875,9.7324 0.09,0.7111 0.1543,1.3065 0.1543,1.5723 -0.01,3.1076 3.9777,18.0955 7.1738,26.959 2.1456,5.95 5.7287,14.209 7.6524,17.7675 l -2.5918,-2.0039 c -2.1426,-1.6569 -8.2987,-6.4294 -13.6797,-10.6054 -5.3809,-4.176 -10.7237,-8.3185 -11.8731,-9.2051 -1.1492,-0.8866 -6.4659,-5.014 -11.8144,-9.1719 -22.5534,-17.5334 -45.2599,-35.1614 -47.8262,-37.1289 -1.0131,-0.7769 -1.9957,-1.4121 -2.1836,-1.4121 -0.2359,0 -0.2884,0.4809 -0.1699,1.5566 0.095,0.856 0.2585,3.1202 0.3652,5.0313 0.1068,1.9111 0.3468,3.6613 0.5313,3.8906 0.1846,0.2293 5.0707,3.9284 10.8594,8.2188 5.7886,4.2905 22.3977,16.602 36.9101,27.3593 14.5123,10.7572 29.1045,21.571 32.4258,24.0313 3.3214,2.4603 8.3192,6.1749 11.1074,8.2539 2.8516,2.1262 4.2162,3.1013 4.9024,3.4961 0.4495,0.8473 0.9236,1.737 1.2519,2.3867 3.0405,6.0165 11.6216,17.6564 19.5313,26.4961 7.0505,7.8791 18.0768,17.9078 25.625,23.416 -4.1113,-2.401 -8.914,-5.1849 -17.7579,-10.2793 -4.4026,-2.5361 -11.8729,-6.8477 -16.6015,-9.5801 -4.7288,-2.7325 -11.6657,-6.7288 -15.416,-8.8808 -3.7505,-2.152 -10.6893,-6.1503 -15.418,-8.8848 -18.0394,-10.4317 -21.9359,-12.6796 -31.8691,-18.3848 -5.6256,-3.231 -11.2971,-6.5046 -12.6016,-7.2753 -1.3045,-0.7707 -6.4551,-3.7461 -11.4473,-6.6114 -4.992,-2.8653 -9.8626,-5.684 -10.8222,-6.2636 -0.9733,-0.588 -1.415,-0.8294 -1.6289,-0.8086 -0.1284,0.012 -0.1735,0.1194 -0.2032,0.3027 -0.104,0.6407 3.0616,10.8855 3.6328,11.7578 0.2136,0.3261 0.9047,0.8578 1.5352,1.1816 0.6305,0.3241 1.8806,1.0071 2.7773,1.5196 0.897,0.5124 3.9649,2.1978 6.8184,3.7441 5.3107,2.8777 11.3643,6.1954 32.166,17.6289 6.5224,3.5849 12.9279,7.095 14.2324,7.7989 1.3045,0.7039 4.7051,2.5715 7.5586,4.1503 2.8536,1.5789 6.1211,3.3766 7.2598,3.9961 1.1385,0.6195 7.9416,4.3537 15.1191,8.2989 7.1775,3.9452 13.9836,7.6827 15.125,8.3047 1.1414,0.622 3.3434,1.8259 4.8926,2.6757 1.5491,0.8499 7.6182,4.1817 13.4883,7.4024 5.8701,3.2206 14.9423,8.1886 20.1602,11.041 5.2178,2.8524 10.7556,5.8916 12.3046,6.7539 2.7172,1.5125 21.1017,11.6159 25.3477,13.9297 1.1413,0.622 5.345,2.9278 9.3398,5.125 3.9951,2.1972 9.5643,5.258 12.377,6.8008 2.8129,1.5428 5.1152,2.9347 5.1152,3.0937 0,0.5749 -3.1074,3.8067 -3.6601,3.8067 -0.3097,0 -12.9214,-5.285 -28.0254,-11.7442 -29.0461,-12.4215 -63.4409,-27.1355 -96.1836,-41.1484 -10.8923,-4.6615 -19.864,-8.4766 -19.9375,-8.4766 -0.073,0 -0.1348,1.8525 -0.1348,4.1153 0,2.94 0.1059,4.1963 0.3711,4.4023 0.2037,0.1587 1.239,0.623 2.2988,1.0312 1.0599,0.4085 6.7964,2.7112 12.7481,5.1172 17.0986,6.9123 22.1964,8.9683 39.875,16.0899 29.9084,12.0484 45.4507,18.3145 58.998,23.7832 7.3377,2.962 16.3903,6.6027 20.1172,8.0918 3.727,1.4891 6.8389,2.8716 6.916,3.0722 0.077,0.2007 -0.4483,1.6085 -1.1679,3.129 -0.7195,1.5204 -1.4796,3.1986 -1.6895,3.7285 -0.2097,0.53 -0.529,0.9648 -0.709,0.9648 -0.3282,0 -4.4856,-1.3045 -17.9824,-5.6367 -3.995,-1.2823 -10.3986,-3.3326 -14.2305,-4.5566 -3.832,-1.2241 -12.2368,-3.9112 -18.6777,-5.9707 -6.4409,-2.0598 -14.4464,-4.6113 -17.7891,-5.6719 -3.3427,-1.0607 -8.2782,-2.6413 -10.9687,-3.5117 -2.6905,-0.8703 -7.6929,-2.4725 -11.1172,-3.5606 -7.0758,-2.2484 -17.492,-5.5789 -28.7578,-9.1953 -20.9745,-6.733 -27.7303,-8.8282 -27.9043,-8.6543 -0.1816,0.1816 6.267,7.4306 8.7051,9.7852 1.2712,1.2279 -1.0177,0.4933 31.0586,9.9589 5.0548,1.4917 10.4566,3.1036 12.0058,3.5821 1.5491,0.4786 3.9499,1.1974 5.336,1.5976 1.386,0.4001 3.9226,1.1505 5.6347,1.666 1.7122,0.5156 4.7133,1.4036 6.6699,1.9747 3.8351,1.1191 20.7161,6.1482 27.7207,8.2578 2.3644,0.7121 6.6328,1.9808 9.4864,2.8203 2.8535,0.8394 9.391,2.7778 14.5273,4.3066 5.1365,1.5288 12.7402,3.7885 16.8965,5.0235 4.1563,1.235 7.7261,2.4154 7.9336,2.623 0.2824,0.2823 0.307,0.7473 0.1016,1.8457 -0.1513,0.8075 -0.3698,2.705 -0.4864,4.2168 -0.116,1.5118 -0.3116,2.8113 -0.4336,2.8867 -0.1214,0.075 -4.2073,-0.8519 -9.0781,-2.0605 -4.8709,-1.2087 -16.7272,-4.1519 -26.3476,-6.5391 -9.6206,-2.3872 -30.078,-7.4665 -45.461,-11.2871 -15.3828,-3.8206 -28.0977,-6.9453 -28.2558,-6.9453 -0.1583,0 -0.2069,0.1317 -0.1075,0.293 0.1836,0.2971 9.6806,7.2165 11.8614,8.6425 1.2698,0.8303 0.5433,0.652 26.5351,6.5118 32.4973,7.3266 37.3222,8.4182 48.3242,10.9199 3.6689,0.8343 10.34,2.3465 14.8243,3.3613 l 8.1523,1.8438 0.3926,2.2246 c 1.1241,6.3576 4.0879,13.2463 7.8515,18.2558 4.7722,6.3516 10.4598,10.6879 18.2911,13.9473 1.0333,0.4301 1.6102,0.658 1.9336,0.6309 0.018,0.2557 0.08,0.8503 0.08,0.9687 l 0,1.5957 -0.9629,0 c -5.5505,-0.01 -25.9984,-2.5649 -35.3321,-4.416 -21.6864,-4.3017 -42.9658,-11.2189 -61.623,-20.0313 -1.6295,-0.7695 -3.5198,-1.645 -4.1992,-1.9394 -4.4874,-1.9612 -17.5312,-9.2405 -25.1289,-14.0235 -69.8338,-43.962 -115.705,-117.7584 -123.8243,-199.207 -1.1403,-11.4377 -1.4248,-18.1238 -1.2617,-29.6387 0.255,-17.9777 1.6774,-32.5988 4.6856,-48.1601 2.7711,-14.335 7.0544,-29.5903 12.1152,-43.1504 5.247,-14.0587 13.6373,-31.3591 21.4746,-44.2813 8.4668,-13.9599 18.2267,-27.2049 29.0488,-39.4179 7.3416,-8.2854 20.2122,-20.7695 28.6485,-27.791 48.7633,-40.5857 109.1676,-62.1755 171.5976,-61.9903 z m 228.9434,12.0899 0.7129,0.6699 c 0.3918,0.3686 0.7129,0.8376 0.7129,1.041 0,0.2034 -0.525,1.8132 -1.1661,3.5781 -0.6411,1.765 -2.922,8.0777 -5.0683,14.0274 -2.1465,5.9498 -5.0881,14.0915 -6.5371,18.0918 -1.4492,4.0004 -2.6348,7.4891 -2.6348,7.7539 0,0.265 0.5496,0.9383 1.2207,1.4961 0.9757,0.8102 1.18,1.1424 1.0176,1.6543 l 0,0 c -0.1119,0.3525 -0.2935,0.6396 -0.4043,0.6386 -0.1112,0 -1.6201,-1.2354 -3.3516,-2.7421 -1.7315,-1.5067 -5.0641,-4.3923 -7.4062,-6.4141 -2.3424,-2.0216 -4.4291,-3.8325 -4.6387,-4.0234 -0.4336,-0.3944 -0.183,-1.3399 0.3555,-1.3399 0.1959,0 1.0589,0.6005 1.9179,1.334 2.0957,1.7893 2.5022,1.7432 3.295,-0.3711 2.1842,-5.825 2.957,-8.0678 2.957,-8.5586 0,-0.5252 -1.7905,-2.2017 -7.7832,-7.2988 -1.2936,-1.1003 -2.5254,-2 -2.7383,-2 -0.7706,0 -7.9798,4.0703 -8.541,4.8222 -0.7882,1.0562 -0.326,2.1122 1.5957,3.6348 1.517,1.202 1.6558,1.4597 1.1836,2.207 -0.3313,0.5241 -0.061,0.7205 -5.9102,-4.291 -2.935,-2.5146 -4.1333,-3.7241 -4.0879,-4.1269 0.1028,-0.9183 0.6036,-0.8442 2.0801,0.3066 2.3399,1.8235 1.7616,2.055 21.9824,-8.7773 1.1406,-0.611 6.386,-3.4057 11.6563,-6.211 l 9.582,-5.1015 z m -224.7754,4.7832 -5.3008,0.08 -5.3027,0.08 0.059,11.9785 c 0.032,6.5874 0.1297,12.1568 0.2148,12.377 0.1201,0.3131 1.1858,0.4004 4.8887,0.4004 2.6044,0 4.7951,-0.1004 4.8691,-0.2227 0.075,-0.1224 0.2333,-5.7271 0.3535,-12.457 l 0.2188,-12.2363 z m -241.5274,3.6133 c 0.074,0.01 0.1303,0.04 0.1817,0.092 0.4106,0.4107 0.2884,0.6265 -1.2363,2.1679 -0.9315,0.9417 -1.6934,1.9149 -1.6934,2.1621 0,0.4642 2.6071,3.0706 16.7441,16.7305 11.5697,11.1791 12.1332,11.6992 12.6563,11.6992 0.2558,0 1.1819,-0.8117 2.0566,-1.8027 1.5611,-1.7687 1.6005,-1.7898 2.1172,-1.2188 0.5133,0.5675 0.3408,0.7739 -6.9394,8.3223 -4.1059,4.2572 -7.5624,7.7402 -7.6817,7.7402 -0.1189,0 -0.3868,-0.207 -0.5957,-0.459 -0.3209,-0.3867 -0.2014,-0.6455 0.7774,-1.6738 0.637,-0.6692 1.3924,-1.4642 1.6777,-1.7656 0.2851,-0.3014 0.5176,-0.6977 0.5176,-0.8809 0,-0.4292 -1.7369,-2.1557 -16.5489,-16.4453 -6.7393,-6.5017 -12.4404,-11.8649 -12.6679,-11.9179 -0.2276,-0.053 -1.0917,0.6479 -1.9219,1.5566 -1.4762,1.6157 -2.6348,2.1326 -2.6348,1.1758 0,-0.2617 3.3564,-3.9351 7.459,-8.1621 5.876,-6.0542 7.2145,-7.363 7.7324,-7.3203 z m 453.4961,0.3632 c -0.4473,0.048 -1.3408,0.4427 -2.8906,1.2598 -1.5817,0.8338 -4.8426,2.5417 -7.2461,3.7969 -3.2013,1.6721 -4.3691,2.4277 -4.3691,2.8242 0,0.3291 1.6975,2.0061 4.3261,4.2754 2.3791,2.0538 4.4282,3.7344 4.5547,3.7344 0.4885,0 0.9125,-0.9706 3.541,-8.1231 1.9493,-5.3044 2.6215,-7.4719 2.3907,-7.7031 -0.058,-0.058 -0.1575,-0.081 -0.3067,-0.064 z m -270.83,1.7735 c -0.088,6e-4 -0.1835,0.011 -0.2832,0.033 -3.9269,0.8904 -9.2096,2.2213 -9.3418,2.3535 -0.092,0.092 0.3295,3.3375 0.9335,7.2129 0.6043,3.8753 1.7019,10.9159 2.4395,15.6445 2.2886,14.6704 5.1126,32.8589 6.3535,40.9063 1.2756,8.2723 1.4244,9.051 1.7168,9.041 0.1041,0 1.967,-0.5237 4.1387,-1.1563 2.1717,-0.6326 4.0175,-1.2186 4.1015,-1.3027 0.1401,-0.14 -0.032,-1.7998 -0.7773,-7.4648 -0.5702,-4.334 -3.5482,-26.5655 -4.2891,-32.0196 -0.2213,-1.6306 -1.2883,-9.6343 -2.3711,-17.7871 -1.0827,-8.1529 -2.0279,-14.9934 -2.0996,-15.2012 -0.058,-0.1678 -0.2574,-0.2616 -0.5214,-0.2597 z m 108.2421,0.4316 c -0.1107,0.113 -0.4035,1.74 -0.6503,3.6152 -0.8499,6.4563 -2.5546,19.1299 -3.1504,23.42 -0.3284,2.3643 -0.7261,5.3005 -0.8829,6.5234 -0.1568,1.2229 -1.354,10.2229 -2.6621,20 -1.3081,9.7771 -2.2695,17.8868 -2.1347,18.0215 0.2559,0.2558 7.2441,2.2147 8.0898,2.2676 0.3597,0.023 0.538,-0.3349 0.6875,-1.3789 0.1108,-0.7745 0.7307,-4.8089 1.377,-8.9668 0.6463,-4.158 1.7746,-11.4295 2.5078,-16.1582 0.7332,-4.7286 1.5271,-9.7982 1.7637,-11.2657 0.2364,-1.4676 1.1651,-7.4048 2.0644,-13.1933 0.8992,-5.7886 1.979,-12.7093 2.3984,-15.3809 0.5094,-3.243 0.6631,-4.956 0.4649,-5.1543 -0.4107,-0.4107 -9.6249,-2.6036 -9.8731,-2.3496 z m 199.7911,14.5742 c 0.2149,0 1.5863,1.4352 3.0468,3.1875 1.4607,1.7524 4.5433,5.4316 6.8516,8.1758 2.3083,2.7443 4.1449,5.1438 4.082,5.334 -0.2742,0.8238 -1.0878,0.3977 -2.4277,-1.2734 -0.7891,-0.9841 -1.6555,-1.7891 -1.9258,-1.7891 -0.2702,0 -2.2815,1.5046 -4.4707,3.3438 -4.1376,3.4759 -15.9614,13.383 -22.7109,19.0312 -2.238,1.8727 -3.8995,3.4876 -3.9141,3.793 -0.011,0.2923 0.6515,1.339 1.4727,2.3261 1.1901,1.431 1.4227,1.878 1.1484,2.209 -0.1894,0.2285 -0.4938,0.4135 -0.6777,0.3985 -0.3827,-0.019 -13.8145,-16.0777 -13.8145,-16.5157 0,-0.1583 0.1769,-0.4345 0.3945,-0.6152 0.3088,-0.2565 0.7687,0.093 2.0938,1.5938 0.9336,1.0572 1.8102,1.9218 1.9492,1.9218 0.2539,0 1.8153,-1.2826 15.1152,-12.414 13.6926,-11.4597 16,-13.4722 16,-13.9532 0,-0.265 -0.6566,-1.2578 -1.4589,-2.207 -1.3738,-1.6254 -1.6465,-2.5469 -0.7539,-2.5469 z m -363.5801,4.5489 c -0.3318,-0.1275 -7.4788,3.3355 -8.4766,4.1074 -0.4753,0.3677 -0.2819,1.1913 2.7383,11.6621 1.7872,6.1961 3.5253,12.1984 3.8613,13.3398 0.8154,2.77 9.5551,33.0642 11.8887,41.209 0.6541,2.2828 1.3929,4.7894 1.6406,5.5703 l 0.4492,1.42 0.9375,-0.6094 c 0.5147,-0.3351 2.1684,-1.3736 3.6758,-2.3086 1.5074,-0.9349 2.7414,-1.874 2.7422,-2.0879 0,-0.214 -1.2003,-4.884 -2.6699,-10.377 -3.8444,-14.3694 -4.7506,-17.7701 -7.5567,-28.3691 -1.3814,-5.2178 -2.7848,-10.4861 -3.1191,-11.709 -0.6952,-2.5433 -1.8906,-7.0285 -4.1777,-15.6777 -0.8787,-3.3226 -1.7482,-6.0986 -1.9336,-6.1699 z m 219.7558,0.6406 c -0.076,-0.011 -0.1264,-0.01 -0.1464,0.012 -0.1576,0.1609 -0.8305,2.3613 -1.4961,4.8887 -1.1521,4.3746 -3.2182,12.1284 -5.6485,21.1972 -0.6118,2.2828 -1.6602,6.2187 -2.3281,8.7461 -0.668,2.5273 -3.008,11.332 -5.2012,19.5664 -2.193,8.2344 -4.0319,15.2302 -4.0859,15.5469 -0.077,0.4519 0.6362,1.0369 3.3125,2.7188 1.8752,1.1785 3.5991,2.1213 3.832,2.0937 0.2328,-0.028 0.5178,-0.3853 0.6328,-0.793 0.1148,-0.4076 1.9645,-6.8113 4.1094,-14.2304 2.1449,-7.4191 6.2441,-21.6259 9.1094,-31.5723 2.8653,-9.9465 5.5506,-19.2678 5.9687,-20.7129 0.5045,-1.7433 0.6681,-2.7707 0.4864,-3.0547 -0.4348,-0.6793 -7.41,-4.2347 -8.545,-4.4062 z m -115.6543,7.123 -0.096,4.7442 c -0.053,2.6089 0,11.5845 0.1094,19.9453 l 0.2051,15.2012 4.4863,-0.082 4.4864,-0.082 0.1836,-10.2266 c 0.1014,-5.6255 0.2124,-14.5639 0.246,-19.8632 l 0.062,-9.6368 -4.8418,0 -4.8417,0 z m -254.8515,1.0782 c 3.0915,-0.1969 6.122,1.5484 7.6875,4.4257 1.9065,3.5041 1.2021,8.4873 -1.916,13.5567 -0.8699,1.414 -0.9567,2.1191 -0.2618,2.1191 0.1621,0 1.1894,-0.7233 2.2832,-1.6074 3.6667,-2.9635 6.7424,-4.0059 10.0372,-3.3965 2.3559,0.4357 4.2047,1.3377 8.041,3.9238 2.7125,1.8286 3.573,2.2657 4.4765,2.2657 1.2725,0 2.3115,-0.8469 3.1114,-2.5332 0.3192,-0.6732 0.6923,-1.0235 1.0879,-1.0235 0.5246,0 0.5768,0.1241 0.3964,0.9629 -1.2371,5.757 -5.3836,10.3531 -9.957,11.0391 -2.6634,0.3996 -6.3868,-1.1047 -10.623,-4.291 -3.7839,-2.8459 -6.8653,-3.6764 -9.3184,-2.5118 -2.0183,0.958 -5.0909,4.3385 -4.75,5.2266 0.2624,0.6841 15.9699,12.3945 16.625,12.3945 0.3814,0 1.0851,-0.6766 2.002,-1.9257 1.4002,-1.9076 2.1161,-2.3412 2.4453,-1.4825 0.1079,0.2816 -2.1458,3.5317 -6.1563,8.877 -3.48,4.6381 -6.4781,8.4323 -6.6621,8.4473 -0.1838,0.01 -0.4818,-0.1637 -0.6621,-0.3809 -0.2517,-0.3034 -0.014,-0.8186 1.0234,-2.2148 0.9017,-1.2135 1.291,-1.9943 1.17,-2.3458 -0.1,-0.2898 -4.2095,-3.5525 -9.1329,-7.25 -4.9233,-3.6972 -12.0539,-9.0659 -15.8457,-11.9296 -3.7918,-2.8638 -7.1242,-5.1973 -7.4062,-5.1973 -0.282,0 -1.0906,0.804 -1.7969,1.7773 -1.3518,1.8629 -1.5614,2.0041 -2.0703,1.3907 -0.4342,-0.5233 14.0242,-19.7881 17.6387,-23.502 3.1669,-3.2542 5.6014,-4.6275 8.5332,-4.8144 z m -7.5449,7.7089 c -1.6345,0 -2.986,1.2702 -6.0567,5.375 -1.0765,1.4391 -1.957,2.7932 -1.957,3.0079 0,0.2146 3.0981,2.7345 6.8867,5.6015 3.7886,2.8667 6.9948,5.2188 7.125,5.2188 0.6866,0.016 5.0852,-6.0631 5.5781,-7.709 0.6143,-2.0508 0.1624,-3.1699 -2.2129,-5.4746 -2.5695,-2.4931 -7.1939,-5.6756 -8.6406,-5.9473 -0.2508,-0.047 -0.4891,-0.072 -0.7226,-0.072 z m 544.3867,6.168 c 0.228,0 1.5647,1.7678 2.9687,3.9277 1.4041,2.1598 3.9907,6.1268 5.7481,8.8165 2.2847,3.4966 3.1104,4.9949 2.9023,5.2597 -0.5311,0.6756 -0.946,0.3689 -2.1426,-1.582 -0.6518,-1.0627 -1.4146,-2.1412 -1.6933,-2.3965 -0.5547,-0.5073 -0.4641,-0.557 -8.6778,4.8106 -1.7924,1.1713 -6.3245,4.1178 -10.0722,6.5488 -3.7478,2.4309 -8.8471,5.7433 -11.3321,7.3594 -2.485,1.616 -4.5195,3.112 -4.5195,3.3242 0,0.6727 4.5229,7.2977 5.8906,8.6289 1.6663,1.6218 3.5651,2.585 5.9512,3.0176 2.0706,0.3756 3.6572,0.2425 7.3692,-0.6153 1.3592,-0.3146 2.5921,-0.4963 2.7402,-0.4043 0.8939,0.5527 -0.052,1.3526 -5.4258,4.5781 -3.123,1.8748 -5.837,3.4491 -6.0312,3.4981 -0.194,0.049 -0.6613,-0.4194 -1.0391,-1.0391 -0.3779,-0.6196 -1.8136,-2.8593 -3.1895,-4.9785 -1.3759,-2.119 -3.3632,-5.1864 -4.4179,-6.8164 -4.6963,-7.258 -5.5322,-8.5398 -8.211,-12.5957 -3.532,-5.3474 -3.6592,-5.5905 -3.0996,-5.9453 0.6652,-0.4209 0.7223,-0.3794 1.8711,1.3516 0.6301,0.9493 1.2954,1.623 1.5957,1.623 0.4959,-0.01 2.2381,-1.0802 10.5781,-6.5254 2.1122,-1.3789 8.1784,-5.3317 13.4805,-8.7832 5.3022,-3.4516 9.7567,-6.4622 9.9004,-6.6894 0.1788,-0.2833 -0.086,-0.9372 -0.8437,-2.0782 -1.0708,-1.613 -1.1603,-2.2949 -0.3008,-2.2949 z m -435.4961,9.0059 c -0.5763,0.1456 -2.0858,1.3735 -6.4317,5.1679 l -1.0293,0.9004 0.7872,1.8848 c 0.4335,1.0366 2.2082,5.1535 3.9433,9.1484 1.7352,3.9949 3.2757,7.5628 3.4219,7.9297 0.1462,0.3669 0.415,0.666 0.5976,0.666 0.1826,0 1.4864,-0.9662 2.8985,-2.1484 1.412,-1.1821 2.9331,-2.4357 3.3808,-2.7852 0.4478,-0.3496 0.8132,-0.816 0.8125,-1.0371 -5e-4,-0.2211 -1.2763,-3.5373 -2.8359,-7.3691 -1.5596,-3.8318 -3.3123,-8.1453 -3.8945,-9.5859 -0.5822,-1.4405 -1.237,-2.6878 -1.4551,-2.7715 -0.05,-0.019 -0.113,-0.021 -0.1953,0 z m 318.3222,0.7949 c -0.1831,0 -0.5483,0.4999 -0.8125,1.1113 -0.8292,1.9202 -7.3639,17.9883 -7.5117,18.4707 -0.095,0.3108 0.9924,1.3896 3.3614,3.334 1.9263,1.5811 3.649,2.8745 3.8281,2.875 0.1792,6e-4 0.5333,-0.498 0.7871,-1.1094 1.0511,-2.5329 3.2469,-7.6539 5.3711,-12.5254 1.244,-2.8532 2.2617,-5.4136 2.2617,-5.6894 0,-0.5207 -6.6985,-6.4668 -7.2852,-6.4668 z m -306.5976,27.3516 c -0.4942,-0.1647 -6.8984,5.2711 -6.8984,5.8554 0,0.4973 1.591,4.247 12.1425,28.6055 2.4722,5.707 5.0472,11.6778 5.7227,13.2676 0.6755,1.5898 1.2534,2.8906 1.2832,2.8906 0.029,0 1.3366,-1.4136 2.9043,-3.1426 1.5678,-1.729 2.8496,-3.3377 2.8496,-3.5742 0,-0.436 -1.0624,-3.1163 -6.6191,-16.7031 -3.1579,-7.721 -7.0417,-17.2179 -9.6329,-23.5547 -0.7968,-1.9487 -1.5843,-3.5886 -1.7519,-3.6445 z m 294.9824,0.8125 c -0.1471,0 -0.9473,1.7003 -1.7793,3.7793 -0.8319,2.079 -2.1999,5.4481 -3.039,7.4863 -2.6668,6.4777 -8.1635,19.9399 -10.8633,26.6055 l -1.3496,3.33 0.7871,0.9356 c 2.2175,2.6352 5.0804,5.5309 5.2773,5.3379 0.1227,-0.1202 1.035,-2.0792 2.0274,-4.3535 0.9921,-2.2744 2.7791,-6.4039 3.9726,-9.1758 1.1938,-2.772 3.331,-7.7077 4.7481,-10.9688 5.8133,-13.3782 7.2777,-16.8834 7.1972,-17.2187 -0.099,-0.4097 -6.5803,-5.7578 -6.9785,-5.7578 z m 155.0469,3.3906 c 0.2887,-0.014 0.4847,0.3238 0.9551,1.3711 0.3869,0.8614 1.704,3.7006 2.9277,6.3086 3.659,7.7981 10.3121,22.1157 11.0605,23.8027 l 0.6993,1.5742 -4.9219,2.377 c -4.9389,2.3855 -5.4112,2.4906 -5.4258,1.2148 0,-0.2053 0.8453,-1.4884 1.8848,-2.8515 2.0415,-2.6765 3.1465,-5.1427 3.1465,-7.0215 0,-1.5805 -0.8058,-3.887 -2.9336,-8.3907 -1.322,-2.7981 -1.9024,-3.7415 -2.3047,-3.7265 -0.8376,0.022 -16.1994,7.2835 -16.5352,7.8164 -0.222,0.3527 -0.078,0.894 0.5606,2.1152 1.8957,3.6239 5.4024,5.0887 9.4765,3.9571 1.2032,-0.3342 1.7578,-0.033 1.5899,0.8652 -0.041,0.2163 -2.0084,1.2972 -4.3711,2.4004 -2.3627,1.1032 -5.1616,2.4118 -6.2207,2.9101 -3.9822,1.8732 -5.4609,2.4605 -5.836,2.3164 -0.8016,-0.3077 -0.3156,-1.2359 1.1934,-2.2832 0.8559,-0.5939 1.9343,-1.6258 2.3965,-2.2929 0.909,-1.3124 1.4513,-3.4858 1.1836,-4.7364 -0.3741,-1.7444 -1.3938,-4.16 -1.8262,-4.3261 -0.2642,-0.1013 -3.5036,1.2432 -7.5996,3.1543 -10.4136,4.8586 -10.707,5.0178 -10.6309,5.7617 0.035,0.3467 0.9875,2.5477 2.1153,4.8906 1.6124,3.3495 2.3855,4.6018 3.623,5.8594 2.8411,2.8873 6.4628,3.9401 11.5547,3.3594 2.321,-0.2648 2.8613,-0.2473 3.2227,0.1035 0.3809,0.3695 0.3809,0.4673 0,0.8144 -0.2387,0.2172 -2.995,1.4865 -6.125,2.8203 -7,2.9829 -6.5136,2.8026 -6.6895,2.5118 -0.081,-0.1333 -2.8434,-6.0438 -6.1387,-13.1348 -3.2953,-7.0908 -6.4592,-13.8926 -7.0312,-15.1152 -3.0056,-6.4254 -3.0785,-6.6109 -2.6836,-6.8614 0.7473,-0.4743 1.0074,-0.2295 2.0957,1.9707 0.6047,1.2225 1.2424,2.2227 1.418,2.2227 0.2994,0 11.2977,-5.0363 19.5019,-8.9297 2.0176,-0.9575 3.7047,-1.7402 3.75,-1.7402 0.045,0 1.859,-0.8422 4.0332,-1.8711 2.1742,-1.0289 5.186,-2.4505 6.6934,-3.1602 1.885,-0.8874 2.7422,-1.4487 2.7422,-1.7969 0,-0.2788 -0.3309,-1.2548 -0.7344,-2.1679 -0.7228,-1.6343 -0.7264,-1.6644 -0.1504,-1.9727 0.1304,-0.07 0.2377,-0.1144 0.334,-0.1191 z m -605.7676,0.4844 5.9258,0.7168 c 30.5255,3.6888 39.7552,4.7561 40.084,4.6347 0.2112,-0.078 0.7127,-0.7912 1.1152,-1.5859 0.7244,-1.4297 1.4743,-1.8528 1.7969,-1.0117 0.093,0.2426 -1.9469,4.4241 -4.6133,9.455 -4.122,7.7774 -4.8601,8.9959 -5.3613,8.8653 -0.7986,-0.209 -0.7409,-0.5402 0.4902,-2.8594 0.7235,-1.3629 0.9725,-2.1134 0.7695,-2.3164 -0.3554,-0.3557 -10.3671,-1.7694 -11.0527,-1.5606 -0.382,0.1162 -6.4245,11.032 -6.7226,12.1446 -0.1257,0.4685 5.4907,6.9022 6.4648,7.4062 1.3416,0.694 2.1038,0.1965 3.3633,-2.2011 0.607,-1.1556 1.2114,-2.1016 1.3457,-2.1016 0.1341,0 0.4098,0.2002 0.6113,0.4434 0.3028,0.3651 -0.145,1.4085 -2.5762,6 -2.8116,5.314 -3.6802,6.4331 -4.1093,5.3144 -0.092,-0.2409 0.108,-0.9793 0.4453,-1.6406 0.337,-0.6613 0.6122,-1.5745 0.6113,-2.0293 0,-1.5311 0.32,-1.1261 -14.3672,-18.0039 -16.8325,-19.3433 -15.6845,-17.8611 -14.7402,-19.0293 l 0.5195,-0.6406 z m 103.3301,9.5703 c -0.2838,-0.085 -4.9078,5.9831 -5.7324,7.5215 -0.2182,0.4072 -0.3357,0.9775 -0.2598,1.2675 0.1227,0.4706 7.6186,13.0581 33.7402,56.666 4.3595,7.2777 8.1415,13.6481 8.4043,14.1563 0.263,0.5083 0.5734,0.9224 0.6914,0.9219 0.1174,0 1.1208,-1.9331 2.2266,-4.295 1.9848,-4.2384 2.0035,-4.3051 1.5391,-5.2031 -0.2587,-0.5005 -3.4427,-6.1385 -7.0762,-12.5293 -3.6336,-6.3908 -8.5289,-15.0046 -10.8789,-19.1406 -16.7119,-29.4133 -22.3958,-39.2882 -22.6543,-39.3652 z m 399.6289,1.3203 c -0.1095,-0.026 -0.1942,0.013 -0.2734,0.098 -0.2099,0.2231 -3.4842,5.8752 -7.2774,12.5606 -14.2181,25.0595 -20.2432,35.6549 -27.1621,47.7793 -2.3418,4.1034 -4.2578,7.5991 -4.2578,7.7676 0,0.2643 3.4449,7.4391 4.0137,8.3593 0.112,0.182 0.3023,0.2183 0.4218,0.082 0.1201,-0.1365 4.1979,-6.9174 9.0625,-15.0703 l 0,0 c 12.0092,-20.1271 29.3507,-49.1415 30.5704,-51.1465 0.5475,-0.9 0.996,-1.8095 0.996,-2.0215 0,-0.4371 -0.9922,-1.9315 -3.9414,-5.9375 -1.2748,-1.7316 -1.8238,-2.3903 -2.1523,-2.4687 z m -491.8242,0.9668 c -0.9964,-0.039 -0.9207,0.149 -0.8594,0.5195 0.052,0.3147 2.3608,3.2451 5.1309,6.5137 3.7566,4.4327 5.1869,5.927 5.6289,5.875 0.4398,-0.051 1.2585,-1.329 3.1777,-4.959 1.422,-2.6897 2.5878,-5.1203 2.5918,-5.4023 0.01,-0.6498 0.067,-0.6384 -8.3828,-1.7071 -4.224,-0.5343 -6.2908,-0.8007 -7.2871,-0.8398 z m 270.6172,7.3476 c 12.7097,0 21.8982,1.3048 31.6328,4.5039 3.3622,1.1048 3.9062,1.2081 4.8886,0.9239 0.608,-0.1756 2.8258,-0.8009 4.9278,-1.3907 23.3786,-6.559 45.0013,-4.4844 62.7851,6.0235 8.6041,5.0839 17.3446,13.8498 23.1016,23.1699 4.0119,6.4951 6.7717,12.5978 10.0313,22.1797 2.3666,6.9571 3.1588,8.4998 5.7871,11.2871 3.3103,3.5104 7.4137,5.6722 13.7949,7.2656 1.7517,0.4375 3.1836,0.8777 3.1836,0.9805 0,0.1831 -2.8253,2.045 -4.0196,2.6523 -1.2989,0.6604 -4.2145,1.5285 -6.2011,1.8438 -4.2358,0.6729 -9.5088,-0.4391 -14.3633,-3.0274 -1.5456,-0.824 -3.1306,-1.7509 -3.5215,-2.0586 -0.6114,-0.4827 -1.8164,-0.7788 -1.8164,-0.4492 0,0.06 -0.4092,1.4936 -0.9102,3.1856 -1.9049,6.4326 -5.4789,12.3435 -10.0781,16.6679 -8.9004,8.3688 -20.928,10.21 -30.9336,4.7344 -6.3833,-3.4932 -9.2097,-10.2338 -7.1367,-17.0254 2.4869,-8.1478 11.6604,-12.0789 19.2051,-8.2285 2.0172,1.0296 4.4966,3.6155 5.4473,5.6817 0.709,1.5402 0.8457,2.2271 0.8457,4.2109 0,2.7179 -0.5953,4.343 -2.3829,6.5254 -1.0757,1.3133 -1.1956,2.2187 -0.2929,2.2187 0.9229,0 4.4307,-1.5181 5.7539,-2.4902 1.7022,-1.2505 4.6607,-4.3289 5.8691,-6.1055 2.519,-3.7038 4.7521,-9.5689 5.6133,-14.748 0.7035,-4.229 0.6323,-11.4379 -0.1562,-15.8438 -2.9542,-16.506 -13.484,-29.699 -28.7657,-36.0429 -7.4166,-3.0787 -14.1753,-4.5285 -23.791,-5.1016 -5.7588,-0.3431 -10.2976,-0.075 -14.8242,0.877 -3.3385,0.7018 -3.6251,0.9738 -2.2695,2.1484 6.1822,5.3565 9.6926,9.0568 12.5957,13.2715 10.1082,14.6751 12.3659,32.4622 6.3418,49.9804 -1.4259,4.1464 -3.1322,8.0309 -4.9024,11.1641 -1.5238,2.6968 -5.518,8.6293 -6.9883,10.3789 -0.8501,1.0117 -0.8959,1.1626 -0.4785,1.5801 0.5874,0.5876 12.8472,4.6838 19.8926,6.6465 12.5072,3.4843 19.4365,6.008 27.1641,9.8965 24.6572,12.4073 39.9663,30.8826 46.25,55.8105 4.6032,18.2619 3.3603,37.3959 -3.6426,56.0938 -4.6841,12.5063 -11.215,22.8536 -19.9317,31.58 -9.1916,9.2019 -19.1802,15.3086 -31.7109,19.3868 -13.8417,4.5033 -31.2658,6.1441 -44.1465,4.1543 -12.0421,-1.86 -22.0608,-5.6671 -31.5527,-11.9903 -15.9264,-10.6091 -26.918,-26.7554 -32.7227,-48.0664 -2.7109,-9.9525 -4.4918,-14.7484 -8.1797,-22.0332 -4.5889,-9.0648 -10.789,-17.6405 -17.8984,-24.7578 -3.9746,-3.979 -8.3266,-7.5759 -8.9004,-7.3555 -0.3996,0.1528 -0.4406,5.9755 -0.3711,52.2266 l 0.078,52.0547 0.6367,1.3789 c 0.7462,1.6147 3.7728,3.9966 8.4746,6.6719 3.9236,2.2329 5.3234,4.0149 3.7969,4.832 l 0,0 c -2.0685,1.1076 -8.8456,-1.6496 -19.1289,-7.7832 -13.3609,-7.969 -32.7383,-23.0535 -32.7383,-25.4863 0,-1.4228 1.6419,-1.2999 5.3301,0.4003 1.9947,0.918 2.193,0.9593 2.9238,0.5489 0.4311,-0.2413 0.9422,-0.9017 1.1368,-1.4668 0.5448,-1.5986 0.5347,-94.5068 -0.016,-95.2598 -0.36,-0.4929 -0.7469,-0.5276 -4.2207,-0.3808 -4.4601,0.1882 -6.4564,0.6594 -9.8594,2.3261 -4.6407,2.2729 -7.9144,6.3704 -8.6367,10.8106 -0.3682,2.2624 -0.057,2.6532 1.6347,2.0508 4.677,-1.666 9.433,1.9141 10.5313,7.9257 0.327,1.7896 0.04,4.3307 -0.6367,5.6309 -2.1241,4.0795 -6.6645,7.097 -11.336,7.5332 -5.1546,0.4815 -10.493,-3.0699 -12.9433,-8.6113 -1.091,-2.469 -1.4718,-5.3708 -1.1719,-8.961 0.4739,-5.6756 2.0107,-10.1367 4.8711,-14.1465 1.6253,-2.2786 5.3557,-5.8952 7.7461,-7.5097 5.7403,-3.877 13.4643,-6.6739 20.7148,-7.5 2.0825,-0.2373 3.0736,-0.4799 3.334,-0.8184 0.2929,-0.3811 0.3652,-11.4852 0.3652,-53.2539 0,-29.0248 -0.083,-53.0727 -0.1816,-53.4394 -0.098,-0.3665 -0.3864,-0.666 -0.6406,-0.666 -1.129,-1e-4 -10.1759,10.0031 -14.6075,16.1523 -5.1577,7.1566 -10.3417,16.9825 -10.3417,19.6016 0,0.6599 0.095,0.7392 0.6679,0.5625 3.7394,-1.1541 7.3137,-0.4206 10.2637,2.1054 4.0483,3.4663 4.8206,10.5972 1.7207,15.8887 -0.921,1.5722 -3.2771,3.8146 -4.8496,4.6172 -3.3043,1.6862 -8.0049,1.9501 -11.459,0.6426 -3.534,-1.3378 -6.4164,-4.5344 -7.7109,-8.5508 -0.9478,-2.9418 -1.1162,-3.9804 -1.1016,-7.0977 0.022,-9.287 6.1918,-23.4643 15.6953,-36.0683 6.355,-8.4286 15.4187,-17.314 24.207,-23.7325 7.5212,-5.4931 17.8941,-11.2421 26.045,-14.4355 15.6743,-6.141 31.6551,-9.1016 49.1797,-9.1016 z m -3.4063,11.4688 c -9.6891,0.039 -19,1.1445 -27.9785,3.3242 -5.3347,1.295 -13.2363,3.8393 -15.1289,4.8711 l -1.1856,0.6465 0,67.2383 0,67.2402 2.6465,1.4687 c 7.5109,4.1717 15.2739,10.2373 21.8301,17.0567 4.2852,4.4573 7.3758,8.3406 10.8652,13.6484 1.8569,2.8246 2.8935,4.1513 3.0899,3.9551 0.1623,-0.1625 0.6238,-1.2758 1.0254,-2.4727 0.4017,-1.197 1.3213,-3.4016 2.0429,-4.8984 0.7216,-1.497 1.3125,-2.8476 1.3125,-3.0019 0,-0.1546 -7.279,-13.8004 -16.1738,-30.3243 -8.8948,-16.5238 -16.4935,-30.8058 -16.8867,-31.7382 -0.3932,-0.9324 -0.7148,-2.0935 -0.7148,-2.5801 0,-0.774 0.1268,-0.9083 1.0214,-1.0762 0.9919,-0.1862 1.8312,-0.097 9.0508,0.9609 4.3828,0.642 17.7522,0.729 21.9258,0.1426 3.8671,-0.5434 9.1563,-1.6898 11.998,-2.5996 4.1041,-1.3141 8.382,-3.0868 8.5586,-3.5469 0.1093,-0.2852 -0.7073,-1.3825 -2.2929,-3.0781 -9.9743,-10.6655 -16.6858,-24.6875 -17.9707,-37.5449 -0.3657,-3.6599 0,-11.3496 0.7578,-16.0996 1.4958,-9.3243 4.8001,-17.5449 9.9883,-24.8477 2.0602,-2.8997 7.4284,-8.5697 10.2089,-10.7832 1.049,-0.8348 1.8594,-1.7122 1.8594,-2.0136 0,-0.6681 -1.2605,-1.1898 -5.6914,-2.3536 -5.1563,-1.3546 -7.5128,-1.6197 -14.1582,-1.5937 z m -292.3515,1.2695 c 0.6729,0 0.6618,0.4022 -0.066,2.5195 -0.7905,2.2976 -0.7588,2.7647 0.2207,3.1465 0.448,0.1744 6.9477,2.4279 14.4433,5.0078 7.4956,2.5797 15.5631,5.3732 17.9258,6.2071 2.3628,0.8339 4.6216,1.4786 5.0215,1.4316 0.6164,-0.072 0.8461,-0.4243 1.5039,-2.3086 0.6403,-1.8341 0.8767,-2.2051 1.3476,-2.1211 0.3138,0.056 0.622,0.1539 0.6856,0.2149 0.108,0.1048 -1.913,6.1444 -5.3731,16.0586 -0.8107,2.3227 -1.5594,4.2187 -1.664,4.2187 -0.1044,0 -0.3842,-0.1283 -0.6231,-0.2793 -0.3749,-0.237 -0.3439,-0.5545 0.2227,-2.3144 0.3608,-1.1214 0.6562,-2.2518 0.6562,-2.5137 0,-0.548 -0.1537,-0.6096 -10.5976,-4.207 -4.117,-1.4181 -7.6978,-2.5345 -7.959,-2.4825 -0.2828,0.057 -0.751,0.8743 -1.1562,2.0215 -4.1745,11.8194 -4.2928,12.2248 -3.6895,12.5977 0.1648,0.1018 4.3167,1.5759 9.2266,3.2773 6.761,2.343 9.0234,3.0156 9.3222,2.7676 0.2171,-0.1803 0.6907,-1.2486 1.0528,-2.373 0.4813,-1.4952 0.796,-2.045 1.1738,-2.045 0.2842,0 0.5912,0.1197 0.6816,0.2657 0.09,0.1459 -0.5135,2.2465 -1.3418,4.6679 -0.8282,2.4216 -1.7409,5.1367 -2.0273,6.0332 -0.5333,1.6691 -2.4717,7.2053 -3.0352,8.668 -0.3394,0.881 -1.0473,1.0837 -1.3183,0.377 -0.093,-0.241 0.1111,-1.2663 0.4531,-2.2793 0.3424,-1.0131 0.623,-2.0688 0.623,-2.3457 0,-0.5992 0.2474,-0.491 -6.0742,-2.6465 -4.671,-1.5927 -13.2758,-4.5606 -25.9238,-8.9414 -7.0113,-2.4284 -6.6268,-2.395 -7.2715,-0.6407 -1.0406,2.8317 -1.2933,3.3633 -1.6094,3.3633 -0.1763,0 -0.393,-0.1882 -0.4804,-0.416 -0.1343,-0.3498 5.0823,-16.1354 6.3027,-19.0723 0.369,-0.8867 0.9316,-1.2131 1.3574,-0.7871 0.096,0.096 -0.1483,1.0313 -0.5429,2.0801 -1.1407,3.0316 -1.1049,3.1141 1.8007,4.1172 7.4478,2.5708 14.4908,4.8906 14.8496,4.8906 0.5452,0 0.8358,-0.7008 3.379,-8.0937 1.4082,-4.0938 1.9558,-6.0576 1.7539,-6.3008 -0.1613,-0.1943 -1.2576,-0.6916 -2.4356,-1.1055 -9.5858,-3.3708 -14.4904,-4.9834 -14.9062,-4.9004 -0.3046,0.061 -0.7686,0.8811 -1.2266,2.1719 -0.8581,2.4183 -0.9758,2.5866 -1.5645,2.2227 -0.3735,-0.231 -0.1298,-1.1682 1.5879,-6.1368 1.1152,-3.2257 2.6428,-7.7 3.3965,-9.9414 1.0738,-3.1932 1.4858,-4.0742 1.8985,-4.0742 z m 324.9296,10.377 c -1.4514,0 -9.2962,7.5458 -11.8964,11.4433 -3.1439,4.7122 -5.162,9.7781 -6.0489,15.1836 -0.6923,4.2211 -0.421,10.5233 0.6133,14.2617 2.6078,9.4251 9.7188,17.8495 21.2813,25.2129 1.5013,0.9561 2.8984,1.7389 3.1054,1.7539 1.0177,0.039 5.0074,-7.6447 6.8809,-13.25 2.0742,-6.2062 2.9424,-11.6276 2.957,-18.3007 0.01,-10.0404 -3.5705,-20.3234 -10.2148,-29.3399 -2.1483,-2.9155 -6.0313,-6.9648 -6.6778,-6.9648 z m 314.9844,3.2617 c 0.2653,0 0.6238,0.3603 0.7949,0.8086 0.3023,0.7904 3.8509,12.2787 5.836,18.8945 1.45779,4.859 4.11369,13.5742 5.04099,16.541 0.4655,1.4875 0.7027,2.7131 0.5527,2.8477 -0.1446,0.13 -2.7966,1.1119 -5.89259,2.1797 -3.0961,1.0679 -5.8351,2.0237 -6.0878,2.125 -0.5011,0.2002 -0.875,-0.04 -0.875,-0.5625 0,-0.1823 1.0204,-1.0604 2.2656,-1.9512 3.9623,-2.8343 6.1714,-5.8422 6.53319,-8.8965 0.1792,-1.513 -0.60029,-5.5277 -1.24419,-6.4082 -0.3667,-0.5019 -0.9876,-0.3304 -19.2558,5.3008 -1.6295,0.5024 -6.7622,2.0682 -11.4063,3.4805 -9.6024,2.9206 -9.0362,2.5101 -8.0195,5.8027 0.6458,2.0908 0.6052,2.5098 -0.248,2.5098 -0.4112,0 -0.7113,-0.6107 -1.3457,-2.7403 -0.4492,-1.5079 -1.791,-5.9434 -2.9805,-9.8554 -2.6122,-8.5903 -2.5466,-8.2733 -1.7227,-8.3907 0.5692,-0.081 0.729,0.1825 1.3438,2.2227 0.5562,1.8466 0.8217,2.3323 1.3164,2.4043 0.341,0.049 3.7362,-0.862 7.5449,-2.0274 3.8088,-1.1654 7.7255,-2.3581 8.7031,-2.6503 8.0789,-2.4125 21.7321,-6.6487 22.166,-6.877 0.4239,-0.2227 0.4939,-0.4827 0.334,-1.2246 -0.4632,-2.1494 -1.4303,-4.1171 -2.7363,-5.5703 -2.2075,-2.4561 -5.3275,-3.5235 -10.3008,-3.5235 -1.6917,0 -2.5296,-0.1219 -2.7637,-0.4043 -0.4978,-0.6 0.034,-0.8962 2.9297,-1.625 1.3851,-0.3485 3.9848,-1.0321 5.7774,-1.5195 1.7923,-0.4877 3.4747,-0.8906 3.7402,-0.8906 z m -93.7402,15.4687 c -0.1228,0 -4.208,5.3037 -9.0801,11.7852 -4.8721,6.4816 -16.3092,21.6948 -25.416,33.8066 l -16.5586,22.0215 0.6543,4.2149 c 0.8047,5.1846 0.8965,5.5874 1.2246,5.3847 0.1439,-0.089 2.2701,-2.7233 4.7246,-5.8535 2.4545,-3.1303 5.7784,-7.3583 7.3867,-9.3965 1.6083,-2.0382 7.2792,-9.2429 12.6035,-16.0097 13.9767,-17.763 18.1952,-23.1179 23.5547,-29.9102 2.6236,-3.3249 4.7696,-6.2933 4.7696,-6.5957 0,-0.3023 -0.5422,-1.8508 -1.2051,-3.4414 -0.6629,-1.5905 -1.4823,-3.5931 -1.8203,-4.4492 -0.3381,-0.856 -0.7152,-1.5567 -0.8379,-1.5567 z m -565.4238,33.1289 c 0.2037,-8e-4 2.8035,0.2894 5.7773,0.6446 l 5.4062,0.6465 0,0.789 c 0,0.7381 -0.1939,0.8526 -2.9746,1.7637 -3.4414,1.1275 -5.9574,2.6438 -7.4531,4.4902 -1.4731,1.8187 -1.9568,2.8832 -2.4922,5.4727 -1.1372,5.5006 0.9428,8.7591 6.6973,10.4883 4.1648,1.2513 18.284,3.3658 25.1055,3.7597 2.694,0.1556 3.6978,0.093 5.2539,-0.3281 3.4689,-0.9393 5.5662,-3.5713 5.9687,-7.4863 0.5562,-5.4085 -2.68,-10.8843 -8.2012,-13.8731 -1.9293,-1.0444 -2.1899,-1.2819 -2.0996,-1.9257 0.057,-0.404 0.1525,-0.7877 0.2129,-0.8497 0.06,-0.063 2.8143,0.2718 6.1192,0.7422 5.9261,0.8433 6.0101,0.8649 6.0957,1.5957 0.064,0.5507 -0.2598,1.0807 -1.2598,2.0625 -0.7402,0.7268 -1.3457,1.5353 -1.3457,1.7969 0,0.2614 0.2628,1.0188 0.584,1.6836 0.8863,1.8352 1.1785,3.5001 1.1855,6.7617 0.013,5.4126 -1.7707,9.8625 -5.4511,13.5879 -3.5906,3.6345 -7.9645,6.0488 -12.7422,7.0352 -4.1274,0.8523 -8.3542,0.5464 -12.459,-0.9024 -6.1586,-2.1738 -12.4481,-8.6501 -14.4063,-14.8359 -0.8519,-2.6911 -1.0489,-7.212 -0.4414,-10.0762 0.5229,-2.4652 1.7752,-5.2469 3.1367,-6.9609 1.0861,-1.367 1.1149,-1.9759 0.1524,-3.2383 -0.7851,-1.0297 -1.0198,-2.8438 -0.3691,-2.8438 z m 673.47259,2.6895 c 0.076,0.01 0.1612,0.03 0.2559,0.066 0.2695,0.1035 0.4855,0.8305 0.6054,2.0391 0.2162,2.1761 0.4778,4.3375 1.5352,12.6699 0.6183,4.871 0.6927,6.0945 0.3848,6.2851 -0.6137,0.3794 -0.8497,-0.1114 -1.1719,-2.4375 -0.1667,-1.2031 -0.4586,-2.2914 -0.6485,-2.4179 -0.1897,-0.128 -0.7435,-0.1688 -1.2324,-0.094 -0.4889,0.075 -4.4221,0.5636 -8.74019,1.086 -4.7318,0.5725 -8.0153,1.1006 -8.2637,1.33 -0.3508,0.3238 -0.286,1.4201 0.4356,7.3985 0.4658,3.8602 0.9971,7.2227 1.1797,7.4726 0.2958,0.4047 1.2902,0.3356 9.1152,-0.6328 4.83139,-0.5979 8.99219,-1.1667 9.24609,-1.2636 0.3859,-0.1485 0.428,-0.5217 0.2539,-2.2891 -0.1141,-1.1614 -0.2217,-2.3068 -0.2363,-2.5449 -0.016,-0.2384 0.1965,-0.4801 0.4726,-0.5371 0.3677,-0.076 0.5479,0.1567 0.6719,0.8769 0.1369,0.795 2.5312,20.0054 2.5312,20.3086 0,0.047 -0.2615,0.086 -0.58,0.086 -0.4253,0 -0.6172,-0.2554 -0.7266,-0.9629 -0.6393,-4.1529 -0.5485,-3.9195 -1.5605,-4.0175 -0.5165,-0.05 -4.8504,0.3909 -9.629,0.9804 -26.82259,3.3083 -29.72589,3.7083 -30.04489,4.1387 -0.2198,0.2961 -0.2373,1.0594 -0.057,2.4082 0.1474,1.0859 0.1926,2.1571 0.1074,2.3809 l 0,0 c -0.1953,0.5092 -1.0419,0.5352 -1.1992,0.037 -0.064,-0.2037 -0.5319,-3.771 -1.0371,-7.9278 -0.5051,-4.1567 -1.0424,-8.4897 -1.1953,-9.6308 -0.4323,-3.221 -0.4071,-3.4649 0.3672,-3.3555 0.5874,0.084 0.7017,0.3482 0.9629,2.2305 0.1629,1.1745 0.4596,2.2962 0.6582,2.4941 0.2836,0.2823 2.3761,0.1141 9.7031,-0.7832 5.1374,-0.6293 9.495,-1.24 9.6856,-1.3574 0.4874,-0.3013 0.4434,-1.0547 -0.5079,-8.5234 -0.6047,-4.7481 -0.9593,-6.6712 -1.2519,-6.7832 -0.364,-0.1397 -17.2306,1.7906 -18.9941,2.1738 -0.7018,0.1524 -0.706,0.1785 -0.5059,2.8281 0.1997,2.6484 0.1942,2.6722 -0.4609,2.5762 -0.6364,-0.093 -0.6977,-0.3892 -1.6133,-7.8008 -0.5236,-4.2382 -1.1021,-8.8952 -1.2871,-10.3476 -0.3456,-2.7137 -0.196,-3.3845 0.6836,-3.0469 0.3071,0.1177 0.5084,0.8179 0.6504,2.2578 0.113,1.1475 0.3571,2.2946 0.5429,2.5488 0.3027,0.4139 1.8457,0.2759 14.8496,-1.3281 7.9815,-0.9845 16.9126,-2.0758 19.84569,-2.4258 2.9464,-0.3519 5.5115,-0.8028 5.7325,-1.0058 0.3185,-0.2929 0.3416,-0.8085 0.1093,-2.5489 -0.2585,-1.9362 -0.1765,-2.6566 0.3555,-2.6113 z m -583.44919,18.2051 c -0.1995,0.1994 -1.6105,8.239 -1.6133,9.1914 -8e-4,0.2813 2.5681,3.017 5.707,6.0781 3.139,3.0611 6.9075,6.7784 8.375,8.2617 1.4676,1.4834 2.8352,2.717 3.0391,2.7422 0.2808,0.035 0.3711,-0.9484 0.3711,-4.0625 0,-6.9503 0.769,-5.552 -8.0215,-14.5605 -4.2123,-4.3167 -7.7485,-7.7593 -7.8574,-7.6504 z m 492.1367,1.7402 c -0.096,-0.096 -3.498,3.2012 -7.5605,7.3281 l -7.3868,7.5039 0,5.3438 c 0,3.0311 0.1142,5.3001 0.2657,5.2441 0.1462,-0.054 3.8072,-3.553 8.1367,-7.7754 4.3295,-4.2225 7.9322,-7.8355 8.0058,-8.0273 0.1569,-0.4091 -1.2027,-9.3599 -1.4609,-9.6172 z m -421.3711,16.8691 c -0.1755,1.4986 -0.4461,3.4324 -0.75,5.2715 0.1259,-0.843 0.2647,-1.7897 0.4219,-2.916 l 0.3281,-2.3555 z m 183.1797,6.1211 -2.0352,0.7696 c -6.096,2.3035 -14.8926,3.9713 -23.6191,4.4765 -2.3218,0.1341 -3.5527,0.3233 -3.6445,0.5625 -0.076,0.1987 1.5264,3.4803 3.5625,7.2911 13.1827,24.673 12.3713,23.3107 13.4414,22.5722 10.7524,-7.4195 20.4116,-10.5622 32.5156,-10.5762 9.2929,-0.012 15.8619,1.3331 23.2363,4.7579 11.2597,5.2291 19.6824,15.375 21.9317,26.416 0.7218,3.5439 0.7637,6.1912 0.1543,9.6875 -1.0542,6.0472 -3.7786,11.4823 -7.6895,15.3379 -4.2889,4.2285 -10.5448,6.2699 -15.8066,5.1582 -7.6686,-1.6203 -12.4942,-7.1227 -12.4942,-14.2461 0,-2.127 0.1163,-2.6722 0.9024,-4.2461 1.6901,-3.3833 5.5365,-6.2237 9.4043,-6.9434 1.5417,-0.2869 2.1076,-0.2613 3.6445,0.166 2.1168,0.5887 3.4511,1.5196 4.5391,3.1641 0.4275,0.6463 0.9043,1.1738 1.0605,1.1738 0.647,0 1.2637,-1.922 1.2637,-3.9785 0.023,-7.9084 -6.151,-16.7044 -14.7539,-21.0195 -12.1644,-6.1014 -28.1682,-4.5919 -40.9453,3.8594 -1.3443,0.8893 -2.4453,1.7597 -2.4453,1.9355 0,0.3256 5.3479,10.3818 27.8593,52.3984 2.489,4.6458 6.1102,11.5023 8.0489,15.2383 4.3136,8.3124 6.0767,11.0058 9.1035,13.8985 4.2673,4.0785 8.8818,5.6441 16.1191,5.4746 3.4958,-0.083 3.5085,-0.081 4.2031,0.7265 0.3943,0.4576 0.7869,1.4102 0.9043,2.1953 0.1981,1.3211 0.1609,1.4285 -0.7949,2.2305 -3.5027,2.9381 -10.9554,4.6914 -19.9316,4.6914 -7.249,0 -12.4472,-0.9788 -18.3184,-3.4512 -4.3821,-1.8457 -8.8941,-4.9011 -12.375,-8.3789 -4.3823,-4.3781 -6.1814,-7.005 -10.8769,-15.8808 -6.5236,-12.3313 -21.2306,-39.4714 -21.5938,-39.8496 -0.6914,-0.7196 -1.0192,-0.012 -1.5937,3.4336 -0.6993,4.195 -0.9375,7.3074 -0.9375,12.2422 0,12.563 5.6183,27.2699 14.8086,38.789 2.3149,2.9015 7.2934,7.8346 9.9687,9.8789 8.5051,6.4979 19.262,10.8834 29.6563,12.0899 3.6975,0.4291 16.0427,0.354 19.3984,-0.1192 9.6919,-1.3654 17.2823,-3.7637 24.0742,-7.6054 17.8464,-10.094 29.183,-28.5287 32.0723,-52.1504 0.5963,-4.8737 0.4462,-14.104 -0.2969,-18.2012 -2.4782,-13.6624 -8.2831,-24.835 -17.9473,-34.543 -12.8723,-12.9311 -30.7367,-21.9678 -55.8496,-28.2539 -9.196,-2.3019 -18.072,-5.7699 -26.2558,-10.2578 l -1.668,-0.9141 z m 214.9453,0.8516 c -0.161,-0.1 -1.7275,1.279 -3.4824,3.0645 -1.7549,1.7855 -8.8607,9.031 -15.7891,16.0996 -6.9285,7.0687 -15.0211,15.3004 -17.9843,18.2949 l -5.3868,5.4453 -0.3457,2.5606 c -0.1897,1.408 -0.515,3.5905 -0.7226,4.8515 -0.2075,1.261 -0.3116,2.3603 -0.2305,2.4414 0.081,0.081 2.5589,-2.2182 5.5059,-5.1094 2.9469,-2.8911 8.8987,-8.7319 13.2246,-12.9804 4.3259,-4.2485 9.6633,-9.4518 11.8613,-11.5625 2.1978,-2.1107 6.1652,-5.9741 8.8184,-8.584 l 4.8242,-4.7442 0,-4.7988 c 0,-2.8381 -0.1203,-4.8715 -0.293,-4.9785 z m 26.4961,33.6699 c -0.222,-0.063 -1.2965,0.7805 -12.8613,9.7598 -5.7885,4.4945 -16.5276,12.8257 -23.8653,18.5137 -7.3376,5.688 -14.028,10.8869 -14.8671,11.5527 -0.8392,0.6659 -4.8881,3.8125 -8.9961,6.9922 -26.0918,20.1953 -24.9324,19.2401 -26.2637,21.664 -2.7606,5.0263 -5.166,9.519 -5.166,9.6524 0,0.2262 0.4126,-0.064 6.5215,-4.6016 3.1797,-2.3618 7.3163,-5.4286 9.1914,-6.8144 1.8752,-1.3858 5.7441,-4.2561 8.5976,-6.3789 2.8536,-2.1229 7.1889,-5.3443 9.6348,-7.1582 11.6545,-8.6428 18.0357,-13.3758 27.9687,-20.75 5.9245,-4.3981 12.488,-9.2654 14.5879,-10.8145 2.0999,-1.549 6.2017,-4.574 9.1133,-6.7226 2.9116,-2.1486 5.4357,-4.0831 5.6094,-4.2989 0.3387,-0.4206 1.1462,-10.254 0.8652,-10.5351 -0.025,-0.025 -0.039,-0.052 -0.07,-0.061 z m 69.041,13.1641 c 0.018,0.01 0.033,0.027 0.043,0.059 0.4642,1.443 1.532,4.6525 2.3164,6.959 0.6869,2.0192 0.916,3.2442 0.9453,5.039 0.045,2.8558 -0.6293,4.4605 -3.2382,7.7051 -0.9176,1.141 -1.7868,2.3784 -1.9317,2.7481 -0.1446,0.3696 -0.4618,2.5669 -0.7051,4.8828 -0.6034,5.7462 -0.2421,6.0322 2.1836,1.7285 1.5111,-2.6807 4.7145,-5.9839 7.6739,-7.9102 1.4153,-0.9213 3.1395,-2.218 3.832,-2.8828 0.6926,-0.6643 1.2598,-1.1247 1.2598,-1.0234 0,0.4712 -3.0991,8.5865 -3.9004,10.2148 -0.4958,1.0074 -1.6347,2.5725 -2.5313,3.4766 -1.5968,1.6102 -4.6674,3.4375 -5.7773,3.4375 -2.2408,0 -3.9544,3.062 -4.9727,8.8906 -0.1566,0.8965 -0.5404,2.7628 -0.8535,4.1484 -0.3126,1.3856 -0.5082,2.6195 -0.4336,2.7422 0.3489,0.5726 0.9221,0.065 1.8438,-1.6328 2.5507,-4.6983 4.9941,-7.1524 10.4023,-10.4453 1.548,-0.9427 3.4486,-2.2366 4.2227,-2.875 0.7739,-0.6384 1.4062,-1.0985 1.4062,-1.0215 0,0.5375 -1.5886,6.6577 -2.168,8.3496 -1.083,3.164 -1.7955,4.3602 -3.5527,5.9668 -1.8794,1.7182 -4.7211,3.2783 -8.5664,4.7012 -3.3025,1.2221 -4.0953,1.9909 -4.9375,4.7891 -0.3348,1.1127 -1.2838,4.1934 -2.1094,6.8476 -1.3732,4.4144 -1.5433,5.4004 -0.9316,5.4004 0.1182,0 0.933,-1.0049 1.8105,-2.2324 2.6371,-3.6887 5.5038,-6.1523 10.9414,-9.4004 2.6598,-1.5886 4.7677,-2.7088 4.6836,-2.4902 -0.084,0.2186 -0.4509,1.5184 -0.8144,2.8886 -0.8806,3.3153 -1.9679,5.6536 -3.6836,7.92 -2.693,3.5573 -7.2195,6.5091 -11.707,7.6347 -1.0593,0.2657 -2.1789,0.7022 -2.4883,0.9707 -0.3095,0.2684 -1.7413,2.9369 -3.1836,5.9297 -3.3473,6.9476 -3.4899,8.1784 -0.5528,4.7871 2.3525,-2.7168 5.0026,-4.5357 10.67,-7.3242 2.8516,-1.4032 5.5498,-2.8069 5.998,-3.1191 0.448,-0.3118 0.8164,-0.5038 0.8164,-0.4278 0,0.076 -0.7482,1.6516 -1.6621,3.502 -3.2865,6.6529 -6.0592,10.147 -9.8223,12.3808 -2.4371,1.4466 -3.7232,1.9135 -7.0937,2.5723 -2.3095,0.4514 -2.7235,0.6317 -3.6426,1.5996 -1.1912,1.2547 -5.6289,9.2049 -5.6289,10.084 0,0.3234 0.082,0.5859 0.1836,0.5859 0.1016,0 1.4062,-1.1677 2.8984,-2.5937 3.7202,-3.5559 6.5576,-4.9999 13.5664,-6.9063 1.7828,-0.4853 3.7788,-1.1557 4.4356,-1.4902 0.6567,-0.3364 1.2398,-0.5639 1.2969,-0.5059 0.057,0.057 -1.0491,1.6322 -2.459,3.502 -3.4521,4.5782 -7.9024,8.9429 -10.9414,10.7324 -2.471,1.455 -6.8918,3.0355 -9.3633,3.3477 -1.5837,0.1994 -2.8815,1.1502 -4.1133,3.0156 -1.3598,2.0594 -4.0957,6.8502 -4.0957,7.1758 0,0.6352 0.7267,0.2916 2.3477,-1.1094 3.8217,-3.3034 6.0436,-4.4545 13.3203,-6.9023 2.3443,-0.7886 4.5737,-1.637 4.9531,-1.8868 1.3339,-0.8743 1.2376,-0.4244 -0.5527,2.586 -3.6585,6.1504 -6.0916,8.8917 -9.0703,10.2187 -2.2608,1.0067 -6.5023,1.8555 -9.3243,1.8555 -1.5122,0 -2.6753,0.1707 -3.3261,0.4785 -1.2186,0.5785 -2.847,2.3362 -3.6817,3.9727 -0.3402,0.6673 -1.4787,2.3726 -2.5293,3.791 -1.7272,2.3328 -2.323,3.6172 -1.6777,3.6172 0.1304,0 1.0305,-0.5732 2,-1.2735 3.8783,-2.8003 5.085,-3.3037 12.5039,-5.2226 4.9427,-1.2788 5.3701,-1.3478 4.9785,-0.7871 -0.2356,0.3372 -0.9239,1.4144 -1.5312,2.3926 -2.6946,4.3391 -5.8748,7.0648 -9.7442,8.3535 -2.1151,0.7051 -2.8484,0.7792 -6.8144,0.8242 -2.8101,0.022 -4.6787,0.1657 -5.0821,0.3887 -0.3507,0.1936 -1.2613,1.1871 -2.0253,2.2089 -0.7641,1.0215 -2.4437,2.9506 -3.7325,4.2852 -1.2886,1.3341 -2.3437,2.5662 -2.3437,2.7402 0,0.5085 0.9656,0.3599 1.9258,-0.2949 3.4372,-2.3444 7.2905,-3.5226 14.9609,-4.5762 1.7109,-0.2333 3.4441,-0.5087 3.8516,-0.6113 1.0896,-0.2725 -6.4947,7.1914 -8.8633,8.7227 -3.2387,2.0941 -5.2589,2.5586 -11.1387,2.5586 -5.6008,0 -5.6876,0.026 -7.4961,2.3027 -0.4374,0.5504 -1.8626,1.9772 -3.166,3.1699 -2.507,2.2931 -3.1094,2.9401 -3.1094,3.3281 0,0.5379 1.0546,0.1631 3.3516,-1.1875 3.8682,-2.2748 4.407,-2.4188 10.2383,-2.7265 7.4144,-0.3961 12.2065,-0.3716 11.4453,0.057 -0.3259,0.1838 -1.1926,0.8307 -1.9258,1.4356 -1.8913,1.5611 -6.0675,4.2379 -8.7715,5.6211 -4.7221,2.4157 -8.0021,2.8184 -14.5215,1.7871 -4.5369,-0.7181 -5.0332,-0.6527 -6.4824,0.8496 -0.3259,0.3381 -2.6836,2.4844 -5.2383,4.7695 l -0.01,0 c -2.5547,2.285 -4.7628,4.1543 -4.9062,4.1543 -0.1436,0 -0.4889,-0.1639 -0.7676,-0.3691 -0.4491,-0.3287 -0.2282,-0.571 1.9434,-2.1368 3.4365,-2.4773 8.4698,-7.4127 9.1816,-9.0019 0.489,-1.0915 0.5291,-1.4871 0.2617,-2.666 -1.2564,-5.5314 -1.5283,-10.3903 -0.7637,-13.6348 0.7908,-3.3556 3.4614,-8.3608 7.0586,-13.2285 l 1.5254,-2.0664 0.1973,2.9551 c 0.3305,4.9439 0.3059,10.9281 -0.055,12.9179 -0.4522,2.4952 -1.5588,5.7686 -2.9883,8.836 -0.6402,1.3743 -1.0532,2.6078 -0.916,2.7461 0.7046,0.7051 8.3933,-6.721 9.6777,-9.3477 l 0.8262,-1.6914 -0.7656,-2.7344 c -0.4214,-1.5036 -0.9224,-3.6544 -1.1133,-4.7793 -0.8242,-4.8548 0.5583,-9.5446 4.9395,-16.7558 l 1.1601,-1.9082 0.072,1.166 c 0.04,0.6419 0.2916,2.6346 0.5586,4.4277 0.9771,6.5648 0.6171,10.2422 -1.5234,15.5117 -0.8844,2.1753 -0.8808,2.1231 -0.166,2.1231 0.674,0 5.1583,-4.7527 7.0507,-7.4727 1.9984,-2.8725 2.1049,-3.5422 0.9805,-6.1797 -2.1308,-4.9983 -2.7107,-10.8737 -1.4766,-14.9902 0.6156,-2.0527 3.5018,-8.4004 3.8145,-8.4004 0.093,0 0.7037,2.1518 1.3555,4.7754 1.0564,4.2521 1.1804,5.1438 1.1621,8.2188 -0.018,2.8578 -0.1598,3.8988 -0.8203,6.0644 -1.3154,4.3128 -0.5651,4.175 2.7285,-0.5 2.7793,-3.9453 3.8082,-5.8966 4.2383,-8.039 l 0.3203,-1.5977 -1.7969,-3.6484 c -2.3005,-4.6727 -3.1398,-7.9415 -2.9492,-11.4844 0.1547,-2.8726 0.79,-4.9601 2.8398,-9.334 l 1.3809,-2.9434 0.3301,1.9063 c 0.1815,1.0491 0.9163,3.975 1.6328,6.5019 1.2241,4.3168 1.2995,4.8067 1.2812,8.1485 -0.014,2.3208 -0.1954,4.2097 -0.5195,5.4336 -0.5938,2.2418 -0.6246,3.0136 -0.1231,3.0136 0.4397,0 0.604,-0.249 2.9336,-4.4824 1.9862,-3.6094 2.9287,-6.024 2.9942,-7.6699 0.034,-0.8453 -0.257,-1.5633 -1.2422,-3.0762 -2.4298,-3.7308 -3.7246,-8.654 -3.4375,-13.0703 0.2377,-3.6562 1.0732,-12.0545 1.2539,-12.5996 0.081,-0.245 0.3305,0.2518 0.5547,1.1055 0.5438,2.0727 1.6049,4.1136 3.8555,7.4121 1.0282,1.5072 2.0096,3.2415 2.1796,3.8535 0.5255,1.8921 0.3785,5.9407 -0.2988,8.2324 -0.9838,3.3306 -0.9938,3.4024 -0.4609,3.4024 0.9756,0 4.6015,-6.8434 5.3515,-10.0996 0.5592,-2.4273 0.3499,-3.2504 -1.4179,-5.5489 -1.9023,-2.4729 -3.2847,-5.1478 -4.211,-8.1523 -0.7056,-2.2874 -0.7836,-2.9295 -0.6347,-5.1875 0.093,-1.4172 0.5305,-3.9108 0.9726,-5.541 0.4422,-1.63 1.0353,-3.8292 1.3184,-4.8887 l 0.5156,-1.9277 0.3281,1.2129 c 0.1805,0.6666 1.1125,2.8677 2.0723,4.8906 2.8846,6.0814 3.0876,6.9389 3.0547,13.1074 -0.019,3.9751 0.063,5.2519 0.3301,5.1719 0.5273,-0.1619 2.7904,-4.6433 4.0976,-8.1133 1.2802,-3.3983 1.5359,-5.9432 0.6699,-6.6621 -0.8374,-0.6952 -2.8312,-3.8442 -3.541,-5.5918 -1.3283,-3.27 -2.2649,-7.6635 -2.2539,-10.584 0.01,-2.2901 0.6392,-7.1938 1.1153,-8.666 0.1305,-0.4039 3.8715,5.4455 5.3515,8.3672 1.3858,2.7359 1.9441,5.625 1.7422,9.0156 -0.1804,3.0327 0.034,3.741 0.7344,2.4316 0.5848,-1.0932 3.5449,-10.5518 3.7344,-11.9316 0.2794,-2.0395 -0.02,-2.7019 -2.2247,-4.9121 -2.3453,-2.3509 -3.4568,-3.8883 -4.9218,-6.8086 -1.6186,-3.2262 -1.8023,-5.5427 -0.9864,-12.4414 l 0.3262,-2.7676 0.9317,1.7285 c 0.5126,0.9512 2.0206,3.1565 3.3496,4.8985 1.3289,1.7419 2.6234,3.5673 2.8769,4.0586 0.705,1.3639 1.3477,4.419 1.3477,6.4629 0,1.7705 0.4164,2.6411 0.8886,1.8769 0.2847,-0.4608 2.0782,-11.4678 2.0782,-12.7539 0,-0.7247 -0.2768,-1.217 -1.1407,-2.0332 -4.349,-4.1082 -4.8514,-4.6827 -5.8437,-6.6914 -1.182,-2.3922 -1.5889,-5.1358 -1.6035,-10.6699 l 0,-3.2442 0.8418,1.3184 c 0.462,0.7247 1.471,2.0508 2.2441,2.9473 3.1006,3.5954 4.7145,7.1951 5.3028,11.832 0.3288,2.5976 0.7915,3.604 1.1835,2.582 0.091,-0.2363 0.3216,-2.3177 0.5118,-4.6269 0.3979,-4.8328 0.2609,-5.7169 -1.4004,-9.0039 -0.9546,-1.8883 -1.0864,-2.4261 -1.2129,-4.9922 -0.1395,-2.8272 -0.1226,-2.9169 0.9394,-5.1543 0.5945,-1.2521 1.565,-2.9366 2.1563,-3.7422 0.5911,-0.8057 1.3815,-2.2174 1.7558,-3.1387 0.3426,-0.843 0.6527,-1.3507 0.7793,-1.2949 z m -633.9648,1.8125 0.7793,1.7168 c 0.4286,0.9447 1.2652,2.3936 1.8594,3.2207 0.594,0.8273 1.5152,2.4276 2.0488,3.5547 0.8669,1.8314 0.9677,2.317 0.9531,4.5683 -0.016,2.3183 -0.1181,2.7367 -1.2754,5.2481 -1.6256,3.5287 -1.8013,4.7854 -1.3515,9.6172 0.2026,2.1751 0.3799,3.9893 0.3945,4.0293 0.015,0.042 0.2254,0.072 0.4668,0.072 0.4903,0 0.637,-0.5268 0.8652,-3.1113 0.3267,-3.6975 2.1995,-7.7396 5.2207,-11.2637 0.8385,-0.9781 1.9216,-2.4447 2.4063,-3.2597 l 0.8808,-1.4825 -0.1894,4.5743 c -0.247,5.9478 -0.5093,7.4429 -1.75,9.9609 -0.9572,1.9425 -3.6709,4.9898 -5.6778,6.377 -1.0471,0.7238 -1.3737,1.6695 -1.1543,3.3437 0.3689,2.8177 1.8966,11.4729 2.0762,11.7637 0.4466,0.723 0.674,0.086 0.8711,-2.4356 0.3368,-4.3066 0.9506,-5.8328 3.8438,-9.5761 1.3858,-1.7931 2.9446,-4.0611 3.4648,-5.0391 0.935,-1.7582 0.9495,-1.7688 1.1777,-0.9336 0.5002,1.8294 0.9261,6.5516 0.7871,8.7227 -0.083,1.306 -0.4249,3.0134 -0.7949,3.9785 -0.9449,2.4647 -3.2574,5.8471 -5.5918,8.1777 -2.8987,2.894 -2.9386,3.5869 -0.6172,10.6777 1.9079,5.8275 2.3349,6.8692 2.8184,6.8692 0.3628,0 0.3987,-0.2512 0.2012,-1.4082 -0.4234,-2.4797 -0.1854,-5.6892 0.6054,-8.1778 0.6563,-2.0648 5.6341,-11.0985 6.1407,-11.1445 0.4293,-0.039 1.165,5.4473 1.164,8.6738 0,5.8547 -1.809,11.5825 -4.875,15.4649 -1.3695,1.7344 -1.4013,1.8183 -1.248,3.4082 0.277,2.8709 4.3191,12.2554 5.2051,12.0859 0.3565,-0.069 0.4196,-0.9087 0.3691,-4.9726 -0.043,-3.4216 0.061,-5.3364 0.3477,-6.3731 0.5025,-1.8166 2.2979,-6.1703 3.4804,-8.4433 0.4818,-0.9261 1.0531,-2.2726 1.2715,-2.9922 l 0.3984,-1.3086 0.2227,0.8906 c 0.1224,0.4889 0.5963,2.2214 1.0527,3.8516 1.5593,5.5684 1.8757,8.8913 1.1407,11.9472 -0.5448,2.2645 -2.4142,5.9558 -4.3809,8.6504 l -1.8379,2.5196 0.1348,1.9277 c 0.1556,2.2066 1.1892,4.8872 3.2793,8.5117 2.3574,4.088 2.8995,3.9792 1.7988,-0.3613 -1.3545,-5.3409 -0.9121,-8.354 1.7773,-12.1035 1.9049,-2.6557 3.5791,-5.8588 3.8692,-7.4043 0.1127,-0.6004 0.2959,-1.0918 0.4082,-1.0918 0.2802,0 1.174,7.6595 1.4004,12.0039 0.2911,5.5814 -0.8219,9.788 -3.7266,14.0781 -1.5401,2.2748 -1.1033,4.2903 2.2695,10.4707 2.0003,3.6656 2.7816,4.7108 3.2051,4.2871 0.073,-0.074 -0.1483,-1.3897 -0.4922,-2.9258 -0.4155,-1.8565 -0.6268,-3.8374 -0.6308,-5.9062 0,-2.6914 0.1414,-3.6321 1.0781,-6.9649 1.0153,-3.6116 1.8267,-6.7934 2.1445,-8.4023 0.1117,-0.5656 0.3651,-0.2304 1.3379,1.7773 2.0309,4.1915 3.0283,7.4941 3.0313,10.0352 0,3.5135 -0.8726,6.7843 -2.8535,10.668 -1.4127,2.7695 -1.7374,3.6765 -1.7364,4.8398 0,1.9483 1.2351,4.4875 4.2246,8.7031 3.4273,4.8328 4.0427,4.9395 2.7422,0.4746 -1.2485,-4.2865 -1.1893,-7.7234 0.2285,-13.2753 0.5829,-2.282 1.1523,-4.5415 1.2657,-5.0215 0.1957,-0.8261 0.2824,-0.7255 1.6328,1.9258 0.784,1.5393 1.8047,3.8661 2.2695,5.1699 0.7507,2.1067 0.8425,2.7516 0.8242,5.7793 -0.024,3.7347 -0.4566,5.8185 -1.955,9.4297 -1.1818,2.848 -1.048,3.8967 0.8535,6.6836 2.4394,3.5759 7.5039,8.5643 7.5039,7.3925 0,-0.1115 -0.5301,-1.7439 -1.1778,-3.6289 -0.6477,-1.8854 -1.2821,-4.1582 -1.4101,-5.0508 -0.265,-1.8484 0.023,-6.528 0.6367,-10.3242 0.2297,-1.4167 0.3423,-2.9632 0.252,-3.4355 -0.1153,-0.6005 -0.064,-0.7956 0.1738,-0.6485 0.1865,0.1169 0.3398,0.3433 0.3398,0.5039 0,0.1623 0.5424,1.0959 1.2051,2.0723 1.764,2.5982 3.4447,6.2882 4.1641,9.1465 0.7701,3.0589 0.6516,6.6859 -0.3282,10.0879 -0.352,1.2221 -0.7093,2.8902 -0.7949,3.7051 -0.1433,1.3667 -0.06,1.6257 1.0801,3.33 1.4142,2.1152 7.8927,8.375 8.6719,8.375 0.6918,0 0.6567,-0.342 -0.2168,-2.0664 -2.6474,-5.2267 -3.5098,-8.8074 -3.5391,-14.6777 -0.017,-3.7722 0.1891,-10.8184 0.3164,-10.8184 0.1406,-4e-4 3.7975,5.2393 4.7793,6.8477 4.297,7.039 5.0298,11.0777 3.5762,19.6797 -0.4062,2.3952 -0.5664,4.1851 -0.4277,4.7324 0.3992,1.5763 9.2052,9.9186 11.33,10.7344 0.2364,0.091 0.3822,0.3012 0.3262,0.4707 l 0,0.023 c -0.056,0.17 -0.3656,0.4031 -0.6875,0.5235 -0.4675,0.1731 -1.3292,-0.4391 -4.2812,-3.0391 -2.0325,-1.7899 -4.509,-4.0326 -5.5039,-4.9863 -0.995,-0.9532 -2.1819,-1.8274 -2.6387,-1.9434 -0.4647,-0.1169 -2.2788,0.033 -4.1172,0.336 -6.0317,0.9978 -9.9037,0.6594 -14.0352,-1.2247 -2.3328,-1.0638 -6.5504,-3.7012 -9.416,-5.8886 l -2.5371,-1.9375 5.2774,0 c 7.2312,0.01 11.7612,0.3923 13.4257,1.1328 0.7333,0.326 2.4666,1.2627 3.8516,2.082 1.5677,0.926 2.6239,1.3849 2.7969,1.211 0.3326,-0.3319 -8.0496,-8.7504 -9.1172,-9.1563 -0.428,-0.1784 -1.9835,-0.1739 -3.9336,0 -3.7316,0.3301 -6.0345,0.041 -9.0039,-1.1348 -2.1792,-0.8627 -2.884,-1.3056 -5.6973,-3.5742 -2.6425,-2.1303 -7.1165,-7.0108 -6.0586,-6.6094 0.4205,0.1601 1.9371,0.4388 3.3711,0.6172 6.9822,0.8729 11.6752,2.2216 14.9102,4.2832 1.7276,1.1008 2.4663,1.3047 2.3105,0.6387 -0.095,-0.4076 -4.4874,-5.5097 -7.0898,-8.2363 l -1.3653,-1.4317 -4.2753,0 c -4.625,0 -6.6828,-0.3618 -9.3223,-1.6406 -2.3461,-1.1365 -5.3153,-4.0602 -7.4297,-7.3164 -1.0288,-1.5843 -1.8691,-2.933 -1.8691,-3 0,-0.2667 11.2201,2.7579 12.7382,3.4336 0.8962,0.3993 2.7353,1.4803 4.086,2.4023 1.3506,0.922 2.5837,1.6758 2.7402,1.6758 0.6727,0 0.147,-1.0774 -1.9375,-3.9726 -1.2221,-1.6972 -2.2207,-3.2111 -2.2207,-3.3672 0,-0.6321 -2.1798,-3.0735 -3.2012,-3.586 -0.7507,-0.3778 -2.0944,-0.6141 -4.2656,-0.748 -4.8304,-0.3011 -8.9918,-1.5141 -11.3437,-3.3086 -0.5733,-0.4375 -1.7826,-1.7827 -2.6895,-2.9883 -1.6414,-2.1816 -5.5057,-8.4592 -5.3203,-8.6465 0.054,-0.054 0.6114,0.1618 1.2383,0.4785 0.6268,0.3162 2.8719,1.1375 4.9902,1.8262 6.8194,2.2173 9.3243,3.5467 13.2285,7.0156 2.6032,2.3127 2.7148,1.5288 0.3535,-2.5078 -3.5188,-6.0163 -3.969,-6.4368 -7.5507,-7.0586 -6.1594,-1.0692 -11.2662,-4.3602 -16.6465,-10.7265 -2.452,-2.9011 -4.9875,-6.3222 -4.8145,-6.4961 0.063,-0.063 0.6384,0.1549 1.2793,0.4805 0.641,0.3269 2.2457,0.868 3.5645,1.207 6.9291,1.7699 10.7174,3.64 14.2461,7.0312 2.4424,2.3476 3.2522,2.8211 3.0722,1.7969 -0.154,-0.8764 -4.6592,-8.8583 -5.5468,-9.8262 -0.737,-0.8038 -1.2947,-1.0538 -3.2598,-1.4687 -5.3736,-1.1351 -7.9894,-2.4341 -11.1074,-5.5176 -2.1074,-2.0839 -4.1547,-5.2537 -6.418,-9.9336 l -1.4355,-2.9687 5.3339,2.6289 c 6.4776,3.1929 8.5207,4.5268 11.3985,7.4394 2.2684,2.2958 3.1897,2.8142 2.7988,1.5742 -0.1156,-0.3671 -1.4241,-3.1346 -2.9082,-6.1503 -2.989,-6.0736 -2.6134,-5.6863 -6.6973,-6.9297 -6.4836,-1.974 -11.533,-6.8932 -13.4648,-13.1192 -1.4375,-4.6338 -1.5687,-5.1426 -1.3262,-5.1426 0.1307,0 0.3108,0.1188 0.4004,0.2637 0.09,0.1451 1.5313,1.0327 3.2031,1.9727 6.0938,3.4264 9.1205,5.9886 12.1465,10.2851 1.125,1.5973 2.0019,2.1797 2.0059,1.334 0.001,-0.2037 -0.6588,-2.5051 -1.4668,-5.1133 -0.8081,-2.6081 -1.6732,-5.4746 -1.9219,-6.3711 -0.9144,-3.2925 -1.2592,-3.5776 -6.959,-5.7656 -4.521,-1.7355 -7.5991,-4.0756 -8.9824,-6.8301 -0.9319,-1.8557 -3.4863,-10.4019 -3.4863,-11.664 0,-0.09 0.5002,0.3173 1.1113,0.9062 0.6111,0.589 2.4447,1.8996 4.0742,2.9121 5.9673,3.7081 8.3143,6.007 10.9082,10.6856 0.6249,1.1269 1.2518,2.0488 1.3926,2.0488 0.5943,0 0.5705,-0.7492 -0.123,-3.916 -0.4029,-1.8397 -0.8897,-4.1451 -1.0821,-5.1231 -0.901,-4.5832 -2.1169,-6.4039 -4.7695,-7.1484 -3.1884,-0.895 -5.9096,-3.0847 -7.8809,-6.3418 -0.3473,-0.574 -1.2468,-2.7081 -1.998,-4.7422 -0.7512,-2.034 -1.5578,-4.1993 -1.793,-4.8105 -0.5199,-1.3531 -0.2338,-1.4119 0.9199,-0.1895 0.4786,0.5072 2.0707,1.7327 3.5372,2.7227 4.0831,2.756 6.9877,5.9553 9,9.914 0.7382,1.4524 1.5196,1.6823 1.5156,0.4454 -0.01,-1.3393 -0.8212,-8.177 -1.0528,-8.8164 -0.118,-0.326 -0.7162,-1.2024 -1.3281,-1.9454 -1.8987,-2.3061 -3.4684,-4.957 -3.832,-6.4726 -0.4857,-2.0255 -0.2027,-3.563 1.7109,-9.3008 l 1.6602,-4.9746 z m 96.4297,91.1445 c -0.452,-0.011 0.1485,1.1268 4.0195,7.625 1.3844,2.324 2.6701,4.3254 2.8574,4.4473 0.3987,0.2592 24.5421,10.0834 24.8828,10.125 0.1268,0.015 0.1916,-1.939 0.1465,-4.3438 l 0,0 -0.084,-4.373 -15.7129,-6.7363 c -8.6421,-3.7047 -15.892,-6.7391 -16.1113,-6.7442 z m 437.1504,1.8653 c -0.095,-0.094 -6.8816,2.694 -15.0821,6.1972 l -14.9082,6.3692 -0.084,3.957 c -0.088,4.1683 0.001,4.8866 0.6055,4.6289 0.2024,-0.087 5.2378,-2.117 11.1895,-4.5098 5.9516,-2.3927 10.9865,-4.4854 11.1894,-4.6504 0.5838,-0.475 7.2804,-11.8016 7.0898,-11.9921 z m -287.5059,45.664 c 1.7411,0.7996 3.4048,1.5352 4.8965,2.1289 7.4828,2.9787 18.6531,6.5157 20.5781,6.5157 0.3896,0 1.4812,0.2159 2.6719,0.4804 0.2927,0.2443 0.6845,0.5525 1.1387,0.8867 6.8086,5.0111 15.5009,11.5637 15.6425,11.793 0.148,0.2394 -1.3086,1.5736 -2.4336,2.2285 -0.2209,0.1286 -1.2036,-0.2601 -2.3711,-0.9355 -17.6313,-10.2012 -32.0571,-18.5024 -40.123,-23.0977 z m 107.3262,10.5664 c -0.3268,0.135 -0.612,0.267 -0.7715,0.3828 -1.144,0.8305 -4.3395,3.2974 -10.0098,7.7227 -2.4398,1.9043 -4.642,3.4587 -4.8926,3.4551 -0.6434,-0.01 -1.8895,-1.0251 -1.7539,-1.4297 0.063,-0.1858 1.9744,-2.2063 4.25,-4.4903 l 3.8536,-3.8671 c 2.959,-0.1314 5.5088,-0.5822 8.2148,-1.4532 0.3517,-0.1132 0.7273,-0.2157 1.1094,-0.3203 z m -72.8321,0.3535 c 1.9656,0.4701 5.0998,0.9844 6.3926,0.9844 0.4625,0 1.0869,0.065 1.7227,0.1699 0.2455,0.3005 1.5885,1.6653 3.375,3.4141 1.9567,1.9154 3.5586,3.6298 3.5586,3.8105 0,0.4426 -1.9441,1.4662 -2.4297,1.2793 -0.2127,-0.082 -3.4781,-2.5536 -7.2578,-5.4921 l -5.3614,-4.1661 z m 61.4551,1.6114 c -0.6363,0.4599 -1.5545,1.3435 -3.2832,3.0781 -4.5182,4.5337 -4.6134,4.6007 -5.7676,4.0039 -0.4888,-0.2528 -0.8886,-0.6079 -0.8886,-0.7891 0,-0.1814 0.9327,-1.512 2.0742,-2.957 0.8932,-1.1308 1.5194,-1.9694 1.8105,-2.3945 0.2137,-0.016 0.4326,-0.039 0.6387,-0.053 1.964,-0.136 3.8753,-0.4086 4.248,-0.6093 0.1825,-0.097 0.6184,-0.196 1.168,-0.2793 z m -50.8027,0.1523 c 1.078,0.2678 2.275,0.4063 3.6562,0.4063 0.6089,0 1.2129,0.033 1.7422,0.084 0.1689,0.3366 0.6004,0.9152 1.3946,1.9317 1.9641,2.514 1.9907,2.9436 0.2128,3.334 -0.8511,0.187 -1.1163,-0.01 -4.3554,-3.2403 -1.2617,-1.2583 -2.0434,-2.0001 -2.6504,-2.5156 z m 7.5547,0.9629 c 0.7715,0.124 2.2379,0.2105 4.8105,0.2988 0.063,0.1867 0.1601,0.4035 0.3184,0.6719 0.3338,0.5657 0.6074,1.1602 0.6074,1.3223 0,0.3229 -1.7963,1.1543 -2.4941,1.1543 -0.2403,0 -1.0558,-0.8057 -1.8125,-1.7891 -0.5452,-0.7085 -1.0113,-1.2496 -1.4297,-1.6582 z m 35.0429,0 c -0.3829,0.4221 -1.0204,1.2121 -1.7129,2.1602 -0.8542,1.1698 -1.7216,2.1924 -1.9277,2.2714 -0.2061,0.079 -0.9411,-0.1112 -1.6348,-0.4218 l -1.2617,-0.5645 0.918,-1.6269 c 0.3763,-0.6669 0.6393,-1.1759 0.7812,-1.4805 0.3936,0.092 1.3645,0.073 2.2793,-0.061 0.5296,-0.077 1.4879,-0.1776 2.5586,-0.2774 z m -6.4296,0.3262 c -0.2801,0.2846 -0.5653,0.7224 -0.9356,1.416 -0.5705,1.0683 -1.8465,1.4126 -2.9824,0.8047 -0.6172,-0.3302 -0.6376,-0.6245 -0.1348,-1.8457 0,-0.01 0,-0.012 0.01,-0.02 1.1927,-0.037 2.3533,-0.1193 3.0235,-0.2382 0.3525,-0.063 0.6865,-0.086 1.0234,-0.1172 z m -22.1641,0.018 c 0.7381,0.022 1.3336,0.043 2.2344,0.066 0.5934,0.015 1.1154,0.055 1.5839,0.1 -0.01,0.1287 0,0.2773 0.047,0.4511 0.1448,0.5767 0.032,0.7682 -0.5878,1.004 -1.4606,0.5552 -2.0621,0.3645 -2.7598,-0.877 -0.1614,-0.2871 -0.3362,-0.5361 -0.5176,-0.7441 z m 7.1172,0.2597 c 0.118,-0.01 0.2188,0 0.3359,0 -0.059,0.09 -0.1138,0.1912 -0.1621,0.3183 -0.369,0.9704 -1.3854,0.9792 -1.8242,0.016 -0.026,-0.058 -0.061,-0.098 -0.09,-0.1504 0.2231,0.024 0.5137,0.01 0.8066,-0.062 0.245,-0.06 0.5842,-0.1019 0.9336,-0.1231 z m 4.9941,0.049 c 0.018,-7e-4 0.1251,0 0.1465,0 -0.06,0.083 -0.1207,0.1658 -0.168,0.2695 -0.2527,0.5544 -0.5666,0.7403 -1.2422,0.7403 -0.6905,0 -0.9681,-0.1736 -1.1835,-0.7403 -0.037,-0.097 -0.081,-0.1672 -0.1231,-0.2422 0.8337,0.025 1.707,0.024 2.5703,-0.029 z m 2.0488,0.023 c 0.7142,0.01 1.1151,0 1.9493,0.022 0.177,0 0.3756,6e-4 0.5625,0 -0.066,0.1068 -0.1288,0.2266 -0.1895,0.3731 -0.2664,0.6433 -0.5687,0.8886 -1.0898,0.8886 -0.5342,0 -0.8014,-0.2293 -1.0313,-0.8886 -0.053,-0.1506 -0.1218,-0.2818 -0.2012,-0.3965 z m -9.496,8.6133 c 0.5265,0.079 1.4858,0.9252 2.3046,2.0683 0.5324,0.7436 0.5405,0.8605 0.1114,1.5157 -0.2556,0.3903 -1.5665,1.5211 -2.9121,2.5117 -2.16,1.59 -4.2566,3.5661 -5.7325,5.3574 0.7704,-0.9515 1.6092,-1.8491 2.6465,-2.8047 1.2186,-1.1227 1.5387,-1.3908 2.9961,-2.5117 2.5315,-1.9461 3.3857,-2.8209 3.2559,-3.3379 -0.067,-0.2654 -0.6734,-1.0986 -1.2246,-1.6816 -0.6764,-0.7162 -1.2817,-1.106 -1.5957,-1.0489 -0.045,0.01 -0.083,0.026 -0.1153,0.053 -0.1888,0.1566 -0.3574,0.58 -0.5234,1.3164 -0.4221,1.8707 -1.0115,2.7852 -3.5391,5.4824 -2.0282,2.1642 -2.9843,3.437 -3.7129,4.9473 -0.5004,1.0384 -0.6395,1.622 -0.5996,2.5293 l 0,0 c 0.012,0.2855 0.024,0.3066 0.1231,0.2266 0.06,-0.05 0.4358,-0.5865 0.8359,-1.1953 0.2173,-0.3306 0.4387,-0.6363 0.6602,-0.9434 -0.1741,0.2445 -0.3408,0.4864 -0.4825,0.7168 -0.5227,0.8502 -1.0062,1.5449 -1.0742,1.5449 -0.068,0 -0.1211,-0.3788 -0.1211,-0.8418 0,-1.5754 1.6942,-4.3416 4.25,-6.9394 2.502,-2.5424 3.3638,-3.8949 3.6641,-5.7442 0.093,-0.5763 0.3589,-1.118 0.5879,-1.207 0.056,-0.021 0.122,-0.027 0.1973,-0.016 z m 6.0175,0.4238 1.2227,1.5469 c 2.3344,2.9546 2.1377,5.0249 -0.7598,8 -0.7467,0.7681 -0.2215,1.0818 1.6836,1.0058 l 1.8379,-0.072 -0.6289,0.8867 c -0.3469,0.4866 -0.5466,1.0166 -0.4453,1.1816 0.2772,0.4479 2.6911,0.358 3.8984,-0.1465 0.5849,-0.2453 1.1308,-0.4453 1.2149,-0.4453 0.3516,0 -0.2146,3.5397 -0.8262,5.1602 -0.5054,1.339 -1.2197,2.3333 -3.0293,4.2187 -1.6495,1.7187 -2.2402,2.5155 -1.9473,2.627 0.5707,0.219 4.486,-0.6259 5.6641,-1.2227 0.5232,-0.2649 1.1847,-0.6877 1.4707,-0.9375 0.2861,-0.2721 0.6057,-0.376 0.707,-0.2734 0.1017,0.1017 0.1806,1.2937 0.166,2.6484 -0.018,2.4773 -0.9245,5.8575 -1.5703,5.8575 -0.1556,0 -1.3117,-0.2668 -2.5703,-0.5879 -6.1269,-1.5768 -12.5371,-1.5308 -17.9902,0.1289 l 0,0 c -1.988,0.6061 -2.1909,0.5823 -2.5274,-0.3027 -0.5656,-1.488 -0.9501,-5.0495 -0.7734,-7.1602 0.4621,-5.5136 4.059,-11.2653 9.2852,-14.8515 2.4418,-1.6754 4.3907,-3.7914 5.2109,-5.6563 l 0.707,-1.6074 z m -12.3457,11.1523 c -0.2072,0.2554 -0.4046,0.5066 -0.584,0.752 0.1886,-0.2573 0.3876,-0.5058 0.584,-0.752 z m 19.9766,9.9219 c -0.2896,0.2175 -0.5513,0.3678 -0.6875,0.3203 -0.013,0 -0.019,-0.017 -0.027,-0.027 0.234,-0.08 0.4725,-0.1768 0.7148,-0.293 z m -10.0527,8.961 c 9.2329,0 19.7011,5.2666 19.7011,9.914 0,1.6066 -0.4752,2.2068 -2.0273,2.5547 -1.5363,0.3452 -1.7059,0.2571 -1.9414,-0.998 -0.1144,-0.6098 -0.6579,-1.4398 -1.4395,-2.1954 -5.9148,-5.7165 -21.6407,-5.9702 -28.084,-0.4531 -1.2828,1.0986 -2.0605,2.3477 -2.0605,3.3125 0,0.4903 -0.1822,0.584 -0.9629,0.584 -2.6996,-0.066 -3.3395,-1.7762 -1.7207,-4.5996 1.5728,-2.7432 5.3431,-5.4626 9.3496,-6.7441 2.1261,-0.6798 6.7686,-1.375 9.1856,-1.375 z m -0.1915,6.9609 c 4.9577,-0.045 9.9355,1.151 12.6797,3.6094 0.6746,0.6044 0.9871,1.1964 1.1192,2.1211 0.1754,1.2302 0.1558,1.2749 -0.4903,1.0742 -0.3704,-0.1147 -1.0204,-0.3855 -1.4433,-0.5996 -1.2468,-0.6338 -5.2237,-1.5845 -8.1055,-1.9414 -3.0361,-0.3737 -7.7837,-0.1596 -10.873,0.4902 l 0,0 c -1.1258,0.2369 -3.0427,0.8183 -4.2598,1.2911 l -2.2129,0.8593 0,-1.0449 c 0,-0.8095 0.2325,-1.2644 1.0332,-2.0195 2.6578,-2.5068 7.5951,-3.7931 12.5527,-3.8379 z m 0.2657,6.1523 c 5.395,0.082 11.255,1.703 15.0996,4.3145 2.2991,1.5621 3.3418,3.0771 3.3418,4.8555 0,1.6673 -0.6405,2.5108 -2.1055,2.7695 -1.0643,0.1874 -1.0723,0.181 -1.4062,-1.1465 -0.582,-2.3118 -3.5503,-4.3141 -8.2793,-5.584 -3.1294,-0.8403 -9.9268,-0.9096 -12.9473,-0.1308 -4.6739,1.2053 -8.4547,3.8541 -8.9023,6.2324 -0.2153,1.1459 -0.4854,1.2564 -1.5821,0.6484 -1.5406,-0.8541 -1.903,-2.7014 -0.9101,-4.6484 1.836,-3.6 6.9589,-6.1924 14.0605,-7.1153 1.165,-0.1514 2.3859,-0.2143 3.6309,-0.1953 z m -0.8164,7.4219 c 2.5541,-0.043 6.2134,0.4471 8.414,1.1699 2.8734,0.9438 5.1456,2.2983 4.7989,2.8594 -0.178,0.2882 -1.0426,7.6505 -2.2481,19.1602 -0.3415,3.2597 -0.8743,8.0618 -1.1855,10.6699 -0.311,2.608 -0.783,6.8744 -1.0489,9.4824 -0.2658,2.6085 -0.6071,5.0785 -0.7578,5.4844 -0.2853,0.7716 -0.2446,-0.1791 0.3301,-7.8555 0.1585,-2.1191 0.4919,-6.72 0.7402,-10.2246 0.2485,-3.5045 0.5774,-8.0386 0.7325,-10.0762 0.1547,-2.0379 0.3592,-5.0376 0.455,-6.6679 0.096,-1.6298 0.2411,-3.1936 0.3223,-3.4746 0.2684,-0.9216 -0.7954,-2.64 -1.9277,-3.1133 -1.513,-0.6325 -3.5381,-0.3472 -4.3672,0.6172 -0.7638,0.8881 -0.8693,1.7626 -1.2891,10.7129 -0.1605,3.4229 -0.6271,12.5155 -1.0371,20.207 -0.4963,9.3148 -0.6505,14.2323 -0.4629,14.7265 0.1551,0.4081 0.5874,0.9048 0.961,1.1055 0.8433,0.4532 3.3992,0.4209 3.9648,-0.049 0.7217,-0.5995 0.4583,0.1776 -0.3027,0.8926 -0.3974,0.3733 -1.4966,0.861 -2.4434,1.084 l 0,0 c -3.0715,0.723 -6.1119,0.3307 -7.7598,-1.0039 -1.2158,-0.9835 -1.7069,-1.9192 -0.6015,-1.1445 0.4472,0.315 1.2942,0.4883 2.3574,0.4883 1.3748,0 1.7761,-0.1228 2.3359,-0.7188 0.6615,-0.7043 0.6729,-0.816 0.4805,-5.1132 -0.2941,-6.564 -1.2256,-24.799 -1.5039,-29.4356 -0.073,-1.2227 -0.2039,-3.6245 -0.2891,-5.3359 -0.236,-4.7343 -0.4331,-5.893 -1.1074,-6.5215 -1.3639,-1.2694 -4.1986,-1.0882 -5.4062,0.3476 -0.8922,1.0607 -0.8826,0.495 -0.1446,10.6211 0.3268,4.4827 0.7935,11.0862 1.0371,14.6719 0.2439,3.5862 0.5751,8.1728 0.7364,10.1934 0.1609,2.0201 0.2741,4.2888 0.2558,5.039 l -0.035,1.3633 -0.2636,-1.7773 c -0.2868,-1.9438 -2.6926,-22.2583 -4.1426,-34.9727 -0.502,-4.4012 -1.0893,-8.3679 -1.3047,-8.8144 -0.3627,-0.7529 -0.3325,-0.8527 0.4004,-1.3692 2.2178,-1.5625 6.2191,-2.7991 10.2871,-3.1738 0.3123,-0.029 0.6546,-0.045 1.0195,-0.051 z m -4.8731,9.209 c 0.2007,0 0.3905,0.02 0.541,0.078 0.5232,0.2012 0.7016,1.33 0.9141,5.7539 0.2853,5.927 0.4784,9.6949 1.2031,23.5196 0.4005,7.6385 0.656,14.0096 0.5664,14.1523 -0.2466,0.3992 -1.6137,0.3164 -1.7402,-0.1074 -0.062,-0.2034 -0.3291,-3.7038 -0.5957,-7.7793 -0.2665,-4.075 -0.6061,-8.8101 -0.7539,-10.5215 -0.1479,-1.7115 -0.4178,-5.3123 -0.5996,-8.002 -0.1819,-2.6896 -0.5038,-7.4245 -0.7149,-10.5214 -0.2107,-3.0974 -0.3245,-5.7873 -0.2539,-5.9746 0.1215,-0.3254 0.8317,-0.5861 1.4336,-0.5977 z m 11.8164,0.019 c 0.2304,0 0.4679,0.05 0.6934,0.1524 0.7372,0.3363 0.745,0.3721 0.5625,2.9199 -2.3297,32.4955 -2.9102,40.1966 -3.041,40.4102 -0.086,0.1427 -0.5002,0.2539 -0.9219,0.2539 l -0.7676,0 0.1875,-4.668 c 0.1032,-2.5674 0.5883,-12.0685 1.0781,-21.1152 0.4897,-9.0471 0.8926,-16.678 0.8926,-16.959 0,-0.5922 0.6254,-1 1.3164,-0.9942 z m -87.3906,37.7539 c 0.5075,-0.022 1.9109,0.2683 5.7871,1.0528 2.8516,0.5772 6.4954,1.2728 8.0957,1.5449 1.6751,0.2855 2.972,0.6526 3.0547,0.8711 0.1172,0.3056 -4.7192,18.8412 -8.7773,33.6445 -1.7644,6.4359 -2.1367,8.0099 -1.9864,8.4024 0.085,0.2217 1.0677,0.6316 2.1817,0.9082 4.4497,1.1088 5.1347,1.3726 5.1347,1.9726 0,0.7677 -0.1635,0.7439 -6.3691,-0.9492 -2.933,-0.8002 -8.3651,-2.2723 -12.0723,-3.2715 -4.6517,-1.2542 -6.7402,-1.9455 -6.7402,-2.2265 0,-0.7411 0.7565,-0.7225 3.7285,0.09 1.6153,0.4416 3.3627,0.8606 3.8828,0.9316 0.9202,0.1267 0.9587,0.089 1.3867,-1.455 0.8882,-3.2021 1.3502,-4.9003 1.9688,-7.2188 0.348,-1.3038 1.6314,-6.1041 2.8516,-10.668 5.243,-19.6103 5.1842,-19.3722 4.8496,-19.998 -0.4406,-0.8234 -1.6464,-1.3906 -4.67,-2.1934 -1.6987,-0.4514 -2.5918,-0.8314 -2.5918,-1.1035 0,-0.1957 -0.019,-0.321 0.2852,-0.334 z m 74.6602,3.4629 c 0.017,0 0.036,0.02 0.057,0.07 l 0,0 c 0.085,0.2007 0.09,0.5988 0.016,0.8887 -0.076,0.2877 -0.1485,0.1241 -0.1485,-0.3652 0,-0.3593 0.029,-0.5869 0.08,-0.5938 z m 70.58,1.3965 c 3.7909,0.04 6.5844,0.9786 8.8125,2.9356 2.9235,2.5674 4.1245,6.9748 3.0235,11.0918 -1.2288,4.5951 -4.2855,8.4081 -13.8965,17.3378 -7.1196,6.6176 -6.9528,6.4335 -6.4258,6.9473 0.3709,0.3618 1.7673,0.1579 10.207,-1.4902 5.3773,-1.0495 10.1933,-2.0478 10.7032,-2.2129 1.7286,-0.566 2.02,-1.1869 1.9414,-4.1504 -0.066,-2.4581 -0.029,-2.6504 0.5097,-2.6504 0.4641,0 0.6417,0.3112 0.8868,1.5547 0.5809,2.9493 1.8909,12.3894 1.7402,12.541 -0.083,0.083 -4.5998,1.0177 -10.0391,2.0762 -5.4392,1.058 -12.2286,2.3871 -15.0859,2.9531 -2.8574,0.566 -5.4264,1.0293 -5.7109,1.0293 -0.5933,0 -0.6432,-0.1118 -1.0958,-2.5195 -0.1839,-0.9782 -0.3974,-2.0009 -0.4746,-2.2774 -0.092,-0.3248 0.8169,-1.5958 2.6133,-3.6543 10.4575,-11.9834 12.0144,-14.0949 13.5098,-18.3359 0.6205,-1.7601 0.738,-2.6022 0.7051,-5.0742 -0.046,-3.5813 -0.4211,-5.3088 -1.7051,-7.8789 -1.7509,-3.505 -4.1277,-5.0078 -7.9785,-5.0078 -2.0061,-0.01 -2.6485,0.1267 -4.1797,0.8515 -3.1289,1.4804 -5.6482,4.7275 -4.7363,6.1035 0.3398,0.5132 0.7282,0.5918 3.0351,0.5918 2.9569,0.01 3.9011,0.3931 4.6953,1.9297 0.6093,1.1784 0.6312,3.5225 0.045,4.6563 -1.1732,2.27 -5.315,2.8569 -7.5273,1.0683 -1.9016,-1.5376 -2.2949,-2.5147 -2.2949,-5.7226 0,-2.3953 0.1108,-3.0363 0.7324,-4.2969 2.2811,-4.6254 8.7951,-7.9669 16.3047,-8.3594 0.5835,-0.031 1.144,-0.043 1.6855,-0.037 z m -98.08,3.6504 c 2.3155,0.01 4.713,0.2488 6.4746,0.7129 7.3802,1.9443 11.3749,6.0822 11.041,11.4414 -0.3442,5.5242 -3.4654,8.0806 -11.5586,9.4687 -0.807,0.1383 -1.1113,0.3379 -1.1113,0.7305 0,0.4027 0.5066,0.7075 2,1.2031 4.5322,1.5032 7.7977,3.9599 9.289,6.9903 0.8869,1.8029 0.9336,2.0539 0.7891,4.3711 -0.3513,5.6322 -4.0414,9.4484 -10.3613,10.7148 -6.0391,1.2097 -14.8519,-0.1316 -19.5235,-2.9707 -3.467,-2.1066 -5.2973,-4.9523 -5.5332,-8.5996 -0.4143,-6.4025 4.4018,-11.32 11.6367,-11.8789 2.5553,-0.1971 3.1114,-0.3517 3.1114,-0.8633 0,-0.2497 -0.5004,-0.6603 -1.1114,-0.9101 -6.454,-2.6495 -9.2558,-5.6866 -9.2558,-10.0137 0,-4.6629 2.8562,-8.0752 8.1328,-9.7363 1.4319,-0.4503 3.6649,-0.67 5.9805,-0.6602 z m 55.4687,1.2676 c 0.4122,0.01 0.6964,0.035 0.7402,0.078 0.081,0.08 0.5022,6.8009 0.9356,14.9336 0.4333,8.1327 0.8902,15.0653 1.0156,15.4043 0.2158,0.5826 0.4082,0.6136 3.4414,0.5156 1.7667,-0.058 3.5326,-0.2234 3.9258,-0.375 0.6934,-0.2641 0.7084,-0.3348 0.5098,-2.457 -0.1284,-1.3716 -0.093,-2.2532 0.094,-2.3692 0.1638,-0.098 0.366,-0.077 0.4472,0.057 0.3117,0.5049 0.5581,11.0332 0.2578,11.0332 -0.1643,0 -0.3505,-0.943 -0.416,-2.0938 -0.08,-1.4108 -0.2601,-2.1779 -0.5527,-2.3652 -0.564,-0.3586 -6.8258,-0.01 -7.3535,0.4102 -0.3091,0.2453 -0.3583,0.9319 -0.2207,2.998 0.099,1.4737 0.1985,3.6129 0.2168,4.7539 0.062,3.2771 -0.097,3.1113 2.9433,3.1113 2.4489,0 2.6465,0.045 2.6465,0.5938 0,0.4697 -0.1996,0.5977 -0.9629,0.5977 -0.5296,0 -4.2954,0.205 -8.3691,0.4414 -4.0737,0.2364 -8.3828,0.4375 -9.5762,0.4375 -1.9081,0 -2.157,-0.058 -2.0703,-0.5137 0.082,-0.4282 0.5266,-0.5425 2.6133,-0.6719 1.3835,-0.085 2.6776,-0.2599 2.8769,-0.3848 0.2703,-0.1708 0.3239,-1.3983 0.209,-4.8828 -0.1709,-5.2125 -0.2557,-5.8651 -0.7949,-6.0703 -0.2075,-0.08 -4.144,0.059 -8.748,0.3086 -4.604,0.2495 -8.4176,0.401 -8.4747,0.334 -0.056,-0.065 -0.1867,-0.5878 -0.291,-1.1641 -0.1724,-0.9559 0.1298,-1.5787 3.4512,-7.1132 3.9497,-6.5814 7.0793,-11.5336 9.6406,-15.254 3.2981,-4.7901 7.2224,-9.9085 7.7051,-10.0468 0.5322,-0.1609 2.9234,-0.2732 4.1602,-0.2461 z m -53.7012,0.07 c -1.9505,0 -2.3165,0.09 -3.1308,0.7754 -0.5072,0.4269 -1.1149,1.1502 -1.3516,1.6074 -1.2815,2.4791 -1.9784,12.8557 -0.9844,14.6582 0.6116,1.1088 1.6533,2.0962 2.6192,2.4805 1.1716,0.4693 3.8051,0.3848 4.9453,-0.1563 2.1326,-1.0125 3.0536,-3.4691 3.8027,-10.1406 0.3793,-3.3743 0.4072,-4.5553 0.1387,-5.6758 -0.5912,-2.4648 -2.4374,-3.5488 -6.0391,-3.5488 z m 45.5586,8.0898 c -0.5625,-0.094 -1.6016,1.2889 -5.0781,6.5176 -5.1691,7.7741 -10.1445,16.1223 -10.1445,17.0215 l 0,0 c 0,0.8126 -0.5724,0.7917 8.6836,0.3261 4.2705,-0.2146 7.2386,-0.4901 7.5195,-0.6953 0.4159,-0.3042 0.4267,-1.127 0.1074,-8.0215 -0.1958,-4.2254 -0.4194,-9.2824 -0.498,-11.2383 -0.078,-1.956 -0.2465,-3.6577 -0.3731,-3.7871 -0.067,-0.067 -0.1364,-0.1115 -0.2168,-0.125 z m -47.8027,13.4571 c -1.1399,-0.011 -2.2337,0.1373 -2.8242,0.4511 -2.3327,1.2404 -3.5033,3.546 -4.3262,8.5274 -1.1947,7.2326 -0.6095,10.4289 2.1582,11.8027 0.7628,0.3787 2.0292,0.7892 2.8145,0.9141 1.9533,0.3082 4.503,0.06 5.5742,-0.541 1.9138,-1.0745 2.9732,-4.8241 3.3144,-11.7325 0.2717,-5.5019 -0.5929,-7.64 -3.6093,-8.9121 -0.7754,-0.3274 -1.9618,-0.4986 -3.1016,-0.5097 z"
     style="fill:#000000;fill-opacity:1" />
</svg>
