<?xml version="1.0" encoding="UTF-8" standalone="no"?>
<svg
   xmlns:dc="http://purl.org/dc/elements/1.1/"
   xmlns:cc="http://creativecommons.org/ns#"
   xmlns:rdf="http://www.w3.org/1999/02/22-rdf-syntax-ns#"
   xmlns:svg="http://www.w3.org/2000/svg"
   xmlns="http://www.w3.org/2000/svg"
   width="1000"
   height="1000"
   viewBox="0 0 999.99999 999.99999"
   id="svg7631"
   version="1.1">
  <defs
     id="defs7633">
    <pattern
       id="EMFhbasepattern"
       patternUnits="userSpaceOnUse"
       width="6"
       height="6"
       x="0"
       y="0" />
    <pattern
       id="EMFhbasepattern-8"
       patternUnits="userSpaceOnUse"
       width="6"
       height="6"
       x="0"
       y="0" />
    <pattern
       id="EMFhbasepattern-3"
       patternUnits="userSpaceOnUse"
       width="6"
       height="6"
       x="0"
       y="0" />
    <pattern
       id="EMFhbasepattern-6"
       patternUnits="userSpaceOnUse"
       width="6"
       height="6"
       x="0"
       y="0" />
  </defs>
  <metadata
     id="metadata7636">
    <rdf:RDF>
      <cc:Work
         rdf:about="">
        <dc:format>image/svg+xml</dc:format>
        <dc:type
           rdf:resource="http://purl.org/dc/dcmitype/StillImage" />
        <dc:title></dc:title>
      </cc:Work>
    </rdf:RDF>
  </metadata>
  <path
     id="path6856"
     d="m 479.93445,124.09679 c -29.1465,0.1139 -46.297,2.2031 -70.9101,7.8614 -27.8768,6.4086 -75.8223,24.237 -91.0801,33.8691 -3.4491,2.1774 -8.0013,4.6174 -10.1172,5.4219 -4.2316,1.6089 -36.00224,22.985 -49.73444,33.4629 -9.4768,7.231 -40.1369,37.6587 -48.9922,48.6211 -3.0423,3.7663 -6.9549,8.3995 -8.6933,10.2949 -1.7385,1.8957 -8.0787,10.7946 -14.0899,19.7754 -32.1073,47.9692 -52.7283,102.163 -60.2714,158.3965 -2.8599,21.3197 -3.3055,73.5097 -0.7969,93.2871 3.1004,24.4415 13.4424,65.9482 23.2871,93.459 10.7583,30.0628 43.1965,85.4783 64.3086,109.8613 56.5684,65.3319 127.29824,109.2175 204.87114,127.1153 39.9991,9.2284 47.4542,10.0985 88.8457,10.371 20.2646,0.1319 37.3935,-0.6403 48.9922,-2.2128 23.9602,-3.2485 50.6605,-9.2556 67.3379,-15.1504 7.5425,-2.6659 16.2017,-5.5685 19.2441,-6.4493 3.0422,-0.8809 7.3091,-2.5203 9.4824,-3.6445 2.173,-1.1242 10.7073,-5.305 18.9649,-9.289 27.30028,-13.1712 45.21928,-24.2393 71.11908,-43.9297 9.6432,-7.331 42.3826,-39.8409 49.7852,-49.4375 2.6076,-3.3804 6.6039,-8.3355 8.8808,-11.0098 14.423,-16.9391 43.7817,-68.5004 51.8106,-90.9941 15.9693,-44.7395 21.8748,-72.5351 23.6622,-111.3497 3.7864,-82.2219 -11.7512,-148.3176 -51.588,-219.4492 -22.9637,-41.0033 -73.1183,-95.0751 -113.3672,-122.2207 -43.71128,-29.4807 -91.52268,-49.5454 -144.60938,-60.6875 -3.9115,-0.8209 -10.6675,-2.2682 -15.0136,-3.2148 -4.3461,-0.9469 -26.3942,-2.09 -48.9942,-2.5411 -8.2428,-0.1644 -15.6079,-0.243 -22.334,-0.2168 z m 16.5098,12.3633 c 49.4425,0 104.3556,12.7705 148.9902,34.6485 7.2295,3.5436 13.7505,6.4433 14.4903,6.4433 1.8168,0 29.9522,16.3039 37.49998,21.7305 45.5763,32.7679 72.9812,60.3087 105.5742,106.1016 2.8547,4.011 8.3138,13.4599 12.1308,20.9961 3.8171,7.5364 9.0135,17.4919 11.5489,22.125 11.4183,20.8633 26.6138,69.7696 31.8341,102.459 9.0846,56.889 3.9031,116.4835 -14.9083,171.4765 -6.8229,19.9468 -9.6303,26.7986 -16.8438,41.0918 -20.5721,40.7626 -42.0929,70.5535 -72.3379,100.1367 -17.6447,17.2583 -52.5656,44.1933 -63.22458,48.7657 -3.0048,1.2889 -10.4736,5.1822 -16.5957,8.6523 -31.5085,17.8585 -77.5269,32.3542 -121.5039,38.2715 -22.9048,3.0819 -70.9762,3.1049 -93.502,0.043 -42.1148,-5.7215 -69.6755,-14.4621 -117.4804,-37.2579 -20.2807,-9.6708 -22.523,-11.0408 -52.4141,-32.0273 -26.25224,-18.4323 -62.41944,-54.9105 -82.87304,-83.5859 -8.5515,-11.9891 -17.7014,-25.8571 -20.3321,-30.8184 -19.0828,-35.9854 -26.1275,-52.9035 -34.0273,-81.7187 -4.2778,-15.6033 -5.9262,-22.9186 -11.3945,-50.5743 -2.7835,-14.079 -4.1622,-48.1377 -2.9043,-71.7636 2.3231,-43.6465 11.2415,-81.2196 28.8867,-121.7071 11.0662,-25.3918 34.5334,-66.1416 41.9414,-72.83 1.444,-1.3037 5.7129,-6.4776 9.4863,-11.4961 7.5257,-10.0087 39.3927,-41.9515 50.6699,-50.7891 14.3294,-11.2297 35.76604,-25.9054 43.46294,-29.7559 4.3463,-2.1741 12.8803,-6.5795 18.9649,-9.791 44.1516,-23.3027 110.0656,-38.8262 164.8613,-38.8262 z m -46.002,50.9278 c -37.3189,0 -71.3536,6.3036 -104.7324,19.3808 -17.3575,6.8005 -39.4443,19.0445 -55.4609,30.7422 -18.71514,13.6685 -38.01764,32.5921 -51.55084,50.541 -20.238,26.8406 -33.3745,57.0314 -33.4219,76.8086 -0.028,6.6381 0.3269,8.8505 2.3457,15.1153 2.7568,8.5531 8.8944,15.3579 16.42,18.207 7.3556,2.7843 17.3638,2.2237 24.4003,-1.3672 3.3487,-1.7092 8.367,-6.4861 10.3282,-9.834 6.6012,-11.2687 4.9568,-26.4523 -3.6641,-33.8339 -6.2821,-5.3796 -13.8943,-6.9403 -21.8574,-4.4825 -1.22,0.3768 -1.4199,0.2068 -1.4199,-1.1992 0,-5.5777 11.04,-26.5038 22.0234,-41.7441 9.4372,-13.0951 28.7013,-34.3965 31.1055,-34.3965 0.5411,0 1.1539,0.6389 1.3633,1.4199 0.21004,0.7811 0.38414,51.9917 0.38864,113.8008 0,88.9477 -0.1555,112.5947 -0.77934,113.4062 -0.5542,0.7205 -2.663,1.2389 -7.0976,1.7442 -15.4402,1.7591 -31.891,7.7143 -44.1153,15.9707 -5.0902,3.4379 -13.0349,11.1396 -16.4961,15.9922 -6.0913,8.5388 -9.3618,18.0403 -10.3711,30.1269 -0.6383,7.6452 0.1707,13.8204 2.4942,19.0781 5.218,11.8008 16.5876,19.3651 27.5644,18.3399 9.948,-0.9293 19.6155,-7.3537 24.1387,-16.041 1.4417,-2.769 2.0559,-8.1833 1.3594,-11.9942 -2.3388,-12.8018 -12.4678,-20.4246 -22.4277,-16.8769 -3.6019,1.283 -4.2644,0.453 -3.4805,-4.3653 1.5382,-9.4556 8.5102,-18.1833 18.3926,-23.0234 7.2468,-3.5491 11.4964,-4.5525 20.9941,-4.9531 7.3975,-0.312 8.2236,-0.2371 8.9902,0.8125 1.17194,1.6035 1.19064,199.4533 0.027,202.8574 -0.4142,1.2032 -1.504,2.6072 -2.4219,3.1211 -1.5564,0.8713 -1.9747,0.7927 -6.2227,-1.166 -7.8541,-3.6212 -11.3515,-3.884 -11.3515,-0.8555 0,5.1802 41.26444,37.3036 69.71684,54.2735 21.8985,13.0616 36.3296,18.9342 40.7344,16.5761 l -0.01,0 c 3.2507,-1.7404 0.2696,-5.5325 -8.0859,-10.2871 -10.0127,-5.6973 -16.456,-10.7724 -18.045,-14.2109 l -1.3554,-2.9356 -0.168,-110.8515 c -0.1476,-98.4931 -0.059,-110.8935 0.7891,-111.2188 1.222,-0.4693 10.4911,7.1907 18.955,15.6641 15.1396,15.1565 28.3411,33.4207 38.1133,52.7246 7.8532,15.5132 11.6449,25.7257 17.418,46.9199 12.3612,45.3822 35.7698,79.7669 69.6855,102.3594 20.2133,13.4647 41.5495,21.5721 67.1934,25.5332 27.4297,4.2368 64.5337,0.7435 94.0098,-8.8496 26.6845,-8.6845 47.95328,-21.6874 67.52728,-41.2832 18.5623,-18.5831 32.4724,-40.6195 42.4473,-67.252 14.913,-39.8179 17.5587,-80.5636 7.7558,-119.4531 -13.3813,-53.0847 -45.9841,-92.4258 -98.49218,-118.8477 -16.4561,-8.2805 -31.2112,-13.6558 -57.8457,-21.0761 -15.0033,-4.1795 -41.1104,-12.9028 -42.3613,-14.1543 -0.8889,-0.8892 -0.791,-1.2087 1.0195,-3.3633 3.1309,-3.7258 11.6381,-16.3605 14.8829,-22.1035 3.7698,-6.6724 7.401,-14.9436 10.4375,-23.7735 12.8285,-37.3058 8.0238,-75.1843 -13.502,-106.4355 -6.1822,-8.9755 -13.661,-16.8551 -26.8262,-28.2617 -2.8868,-2.5013 -2.2734,-3.0817 4.836,-4.5762 9.6396,-2.0266 19.3029,-2.598 31.5664,-1.8672 20.4767,1.2203 34.8701,4.307 50.664,10.8633 32.5427,13.5096 54.96698,41.6058 61.25788,76.7559 1.6793,9.3827 1.8297,24.7323 0.332,33.7382 -1.834,11.0291 -6.587,23.519 -11.9512,31.4063 -2.57338,3.7834 -8.87688,10.3391 -12.50188,13.0019 -2.8178,2.0702 -10.2847,5.3028 -12.25,5.3028 -1.9223,0 -1.6682,-1.9262 0.623,-4.7227 3.8066,-4.6476 5.0702,-8.1087 5.0742,-13.8965 0,-4.2243 -0.2913,-5.6907 -1.8008,-8.9707 -2.0246,-4.4 -7.3037,-9.9049 -11.5996,-12.0976 -16.0665,-8.1993 -35.6002,0.1703 -40.8965,17.5215 -4.4144,14.4629 1.602,28.8188 15.1954,36.2578 21.3072,11.6605 46.9214,7.7416 65.87498,-10.0801 9.794,-9.2092 17.4024,-21.796 21.4589,-35.4941 1.0669,-3.6034 1.9415,-6.6569 1.9415,-6.7852 0,-0.7021 2.5651,-0.067 3.8671,0.959 0.8327,0.6553 4.2068,2.6262 7.4981,4.3808 10.3378,5.5118 21.5696,7.8786 30.5898,6.4454 4.2305,-0.672 10.4389,-2.5174 13.2051,-3.9239 2.5432,-1.2932 8.5512,-5.2605 8.5567,-5.6504 0,-0.2186 -3.0471,-1.1564 -6.7774,-2.0879 -13.5888,-3.3933 -22.3294,-7.9953 -29.3789,-15.4707 -5.597,-5.9357 -7.2807,-9.2237 -12.3203,-24.039 -6.9414,-20.4049 -12.8178,-33.3972 -21.3613,-47.2285 -12.2598,-19.8476 -30.87298,-38.5175 -49.19538,-49.3438 -37.8711,-22.377 -83.9216,-26.7941 -133.707,-12.8262 -4.4761,1.2557 -9.1976,2.589 -10.4922,2.9629 -2.0921,0.6048 -3.2502,0.3863 -10.4101,-1.9668 -20.7301,-6.8127 -40.2956,-9.5988 -67.3614,-9.5937 z m -7.2558,24.4258 c 14.1516,-0.057 19.1718,0.5085 30.1523,3.3925 9.4358,2.4783 12.1192,3.5891 12.1192,5.0118 0,0.6424 -1.7252,2.5129 -3.959,4.291 -5.9212,4.7135 -17.3529,16.7879 -21.7403,22.9629 -11.0482,15.5515 -18.084,33.0576 -21.2695,52.914 -1.6225,10.1151 -2.394,26.4893 -1.6152,34.2832 2.7363,27.3803 17.029,57.2407 38.2695,79.9532 3.3766,3.6105 5.1156,5.9454 4.8828,6.5527 -0.3759,0.9798 -9.4869,4.7562 -18.2265,7.5547 -6.0516,1.9374 -17.3177,4.3779 -25.5528,5.5351 -8.8878,1.2486 -37.3543,1.0628 -46.6875,-0.3047 -15.3744,-2.2519 -17.1611,-2.4415 -19.2734,-2.0449 -1.905,0.3575 -2.1777,0.6449 -2.1777,2.293 0,1.0363 0.6859,3.5084 1.5234,5.4941 0.8373,1.9854 17.0193,32.3997 35.9609,67.5879 18.9417,35.1879 34.4395,64.2468 34.4395,64.5762 0,0.3287 -1.2564,3.2068 -2.793,6.3945 -1.5368,3.1875 -3.4942,7.8808 -4.3496,10.4297 -0.8551,2.549 -1.8378,4.9176 -2.1836,5.2637 -0.4182,0.4182 -2.6238,-2.405 -6.5781,-8.4199 -7.4308,-11.3031 -14.0171,-19.5745 -23.1426,-29.0664 -13.9615,-14.5221 -30.4897,-27.4385 -46.4844,-36.3223 l -5.6347,-3.1289 0,-143.1875 0,-143.1875 2.5234,-1.377 c 4.0304,-2.1972 20.8545,-7.6134 32.2149,-10.3711 19.12,-4.6416 38.9488,-6.9977 59.582,-7.08 z m 69.3769,24.7988 c 1.3767,0 9.6438,8.6234 14.2188,14.832 14.1492,19.2008 21.7743,41.1011 21.7539,62.4824 -0.028,14.2106 -1.8799,25.7567 -6.2969,38.9727 -3.9896,11.9371 -12.4852,28.2974 -14.6523,28.2148 -0.4412,-0.028 -3.4182,-1.6981 -6.6153,-3.7343 -24.6224,-15.6804 -39.767,-33.6204 -45.3203,-53.6914 -2.2025,-7.9612 -2.7791,-21.3822 -1.3047,-30.3711 1.8886,-11.5111 6.186,-22.2992 12.8809,-32.334 5.5374,-8.2998 22.245,-24.3711 25.3359,-24.3711 z m -0.4472,207.5976 3.5488,1.9454 c 17.4276,9.5573 36.3311,16.9434 55.9141,21.8457 53.4785,13.3864 91.5197,32.6309 118.9316,60.1679 20.58008,20.6735 32.94148,44.464 38.21878,73.5586 1.5825,8.7251 1.9041,28.3831 0.6347,38.7617 -6.1529,50.3033 -30.2945,89.5571 -68.29878,111.0528 -14.4635,8.1809 -30.6284,13.2888 -51.2676,16.1972 -7.146,1.0071 -33.4346,1.1701 -41.3086,0.2559 -22.1348,-2.5688 -45.0444,-11.9096 -63.1562,-25.748 -5.6969,-4.3526 -16.2986,-14.8601 -21.2285,-21.0391 -19.5708,-24.5301 -31.5264,-55.8443 -31.5332,-82.5977 0,-10.509 0.5047,-17.1406 1.9941,-26.0742 1.2234,-7.3365 1.9222,-8.8408 3.3945,-7.3086 0.774,0.8052 32.0923,58.6016 45.9844,84.8614 9.9993,18.9013 13.8319,24.4947 23.1641,33.8183 7.4126,7.4059 17.0217,13.9119 26.3535,17.8418 12.5029,5.2648 23.5729,7.3516 39.0097,7.3516 19.1151,0 34.9842,-3.7377 42.4434,-9.9942 2.0353,-1.7074 2.1172,-1.9342 1.6953,-4.748 -0.2498,-1.672 -1.0881,-3.7022 -1.9277,-4.6777 -1.4791,-1.7188 -1.5047,-1.7229 -8.9492,-1.5469 -15.412,0.3648 -25.2388,-2.973 -34.3262,-11.6582 -6.4456,-6.1602 -10.2008,-11.8923 -19.3867,-29.5938 -4.1284,-7.9557 -11.8423,-22.5599 -17.1426,-32.4531 -47.9386,-89.4758 -59.3242,-110.8904 -59.3242,-111.584 0,-0.3739 2.3427,-2.2293 5.205,-4.123 27.2093,-17.9974 61.2891,-21.2077 87.1934,-8.2149 18.3202,9.1894 31.4688,27.9207 31.4199,44.7617 0,4.3796 -1.3116,8.4727 -2.6894,8.4727 -0.3331,0 -1.3512,-1.1278 -2.2617,-2.5039 -2.3167,-3.5021 -5.1565,-5.4806 -9.6641,-6.7344 -3.2729,-0.9102 -4.4786,-0.9642 -7.7617,-0.3535 -8.2365,1.5326 -16.4263,7.5784 -20.0254,14.7832 -1.674,3.3519 -1.9199,4.5135 -1.9199,9.043 0,15.1697 10.2749,26.8875 26.6054,30.3379 11.2051,2.3675 24.5248,-1.9796 33.6582,-10.9844 8.3282,-8.2104 14.1321,-19.7865 16.377,-32.6641 1.2977,-7.4452 1.2093,-13.0803 -0.3281,-20.6269 -4.7898,-23.5123 -22.7295,-45.1184 -46.7071,-56.2539 -15.704,-7.2931 -29.691,-10.1572 -49.4804,-10.1328 -25.7756,0.031 -46.3446,6.7212 -69.2422,22.5214 -2.2787,1.5725 -0.5525,4.4736 -28.625,-48.0683 -4.3358,-8.1153 -7.7503,-15.1021 -7.5879,-15.5254 0.1959,-0.5088 2.8194,-0.9153 7.7637,-1.2012 18.5834,-1.076 37.3133,-4.6239 50.2949,-9.5293 l 4.3379,-1.6387 z"
     style="fill:#000000;fill-opacity:1" />
</svg>
