<?xml version="1.0" encoding="UTF-8" standalone="no"?>
<svg
   xmlns:dc="http://purl.org/dc/elements/1.1/"
   xmlns:cc="http://creativecommons.org/ns#"
   xmlns:rdf="http://www.w3.org/1999/02/22-rdf-syntax-ns#"
   xmlns:svg="http://www.w3.org/2000/svg"
   xmlns="http://www.w3.org/2000/svg"
   width="1000"
   height="1000"
   viewBox="0 0 999.99999 999.99999"
   id="svg7631"
   version="1.1">
  <defs
     id="defs7633">
    <pattern
       id="EMFhbasepattern"
       patternUnits="userSpaceOnUse"
       width="6"
       height="6"
       x="0"
       y="0" />
    <pattern
       id="EMFhbasepattern-8"
       patternUnits="userSpaceOnUse"
       width="6"
       height="6"
       x="0"
       y="0" />
    <pattern
       id="EMFhbasepattern-3"
       patternUnits="userSpaceOnUse"
       width="6"
       height="6"
       x="0"
       y="0" />
    <pattern
       id="EMFhbasepattern-6"
       patternUnits="userSpaceOnUse"
       width="6"
       height="6"
       x="0"
       y="0" />
  </defs>
  <metadata
     id="metadata7636">
    <rdf:RDF>
      <cc:Work
         rdf:about="">
        <dc:format>image/svg+xml</dc:format>
        <dc:type
           rdf:resource="http://purl.org/dc/dcmitype/StillImage" />
        <dc:title></dc:title>
      </cc:Work>
    </rdf:RDF>
  </metadata>
  <path
     id="path3816"
     d="m 481.46788,30.239551 -3.1219,6.541 c -1.7101,3.5975 -3.8379,9.5773 -4.6828,13.2306 l -1.4866,6.6153 18.5081,-0.6687 18.508,-0.743 5.9464,-11.8926 5.9464,-11.8927 -0.2667,-1.1891 -21.1405,0 -18.2107,0 z m -14.643,2.3785 -8.5478,0.1484 c -9.9515,0.1203 -28.3718,3.3971 -30.4008,5.4261 -2.0548,2.0547 -5.2836,21.462 -3.9394,23.6368 1.4849,2.4027 24.0004,-0.361 31.4413,-3.8653 4.0329,-1.8994 6.6211,-6.0764 8.6222,-14.0482 l 2.8245,-11.2981 z m 71.2077,0.4461 c -1.2024,0.07 -2.1511,0.2447 -2.6759,0.4462 -3.9564,1.5182 -13.7761,20.7127 -11.6697,22.8192 1.453,1.4529 24.0507,4.3571 30.5495,3.9394 2.5714,-0.1655 7.2234,-3.9608 10.2574,-8.4736 8.2588,-12.2842 6.4374,-15.2569 -10.6291,-17.6904 -6.0619,-0.8643 -12.2248,-1.2466 -15.8322,-1.0408 z m -131.4889,8.6223 c -3.512,0.08 -9.2278,1.79 -18.6567,4.9058 l -11.8928,3.8651 -0.7429,12.4874 c -0.8232,14.3019 -1.0006,14.2629 19.1027,8.6221 15.6627,-4.3947 19.0824,-8.5943 17.9877,-21.7785 -0.4702,-5.6674 -1.2824,-8.2069 -5.7977,-8.1019 z m 182.4046,0.1484 c -0.6707,-0.01 -1.3141,0.02 -1.8582,0.07 -3.1878,0.3048 -15.9716,19.0375 -14.1969,20.8123 1.8201,1.8201 23.9087,7.3426 30.5494,7.6559 4.529,0.2136 7.9801,-1.8952 12.4874,-7.8046 3.4257,-4.4915 6.2436,-9.3446 6.2436,-10.7034 0,-3.1148 -23.1572,-9.8817 -33.2253,-10.0346 z M 91.758279,456.37045 l 6.541,3.1219 c 3.597501,1.7101 9.503001,3.8378 13.156301,4.6827 l 6.6153,1.4866 -0.6687,-18.508 -0.6688,-18.5081 -11.8927,-5.9463 -11.892601,-5.9464 -1.1898,0.1253 0,39.4921 z M 359.12148,56.403351 c -6.0148,0 -31.4544,12.0077 -32.7793,15.4606 -0.6377,1.6613 -0.5745,7.3908 0.1484,12.7847 1.5773,11.7602 3.8656,12.1449 22.1501,3.1962 l 13.082,-6.4668 0.6687,-12.4873 c 0.5976,-10.3864 0.05,-12.4874 -3.2705,-12.4874 z m 280.0736,0 c -4.6249,0 -17.0215,13.2373 -17.0215,18.1364 0,2.6714 22.9925,12.2351 30.1778,12.5617 3.0461,0.1384 8.2685,-3.006 12.4874,-7.5072 3.9848,-4.2517 7.2039,-8.3401 7.2099,-9.1426 0.02,-2.3158 -27.3995,-14.0483 -32.8536,-14.0483 z m 47.4222,21.407 c -2.2421,0 -7.6468,3.6444 -11.967,8.1019 l -7.8046,8.1762 5.5746,3.4192 c 3.0826,1.8825 9.3953,5.678099 13.974,8.473499 10.8401,6.6182 14.7105,6.4821 23.5624,-0.9665 4.025,-3.3868 7.3587,-7.497799 7.3587,-9.068099 0,-3.4242 -24.9055,-18.1364 -30.6981,-18.1364 z m -376.1073,0.7429 c -6.2285,0.352 -28.2714,13.9699 -29.8061,18.8054 -1.5238,4.800899 3.5463,23.265199 6.3923,23.265199 1.0757,0 7.7362,-3.663 14.7915,-8.1763 7.0555,-4.5133 13.5002,-9.9868 14.3457,-12.19 2.1874,-5.700499 -0.9495,-20.197299 -4.6828,-21.629999 -0.2636,-0.1012 -0.6256,-0.1002 -1.0406,-0.07 z m -44.3004,26.535699 c -0.4712,-0.06 -0.9374,0.03 -1.4123,0.2968 -9.3882,5.3462 -25.7824,19.2011 -26.9072,22.7448 -0.7219,2.2761 0.9084,8.541 3.6421,13.8996 l 4.9801,9.7372 6.6897,-4.7571 c 3.6909,-2.6281 10.2476,-8.0745 14.4942,-12.0414 8.0306,-7.5016 8.1945,-9.7518 2.3786,-25.049 -1.1279,-2.9665 -2.4505,-4.6454 -3.8652,-4.8314 z m 466.26899,0.2226 c -6.00709,0.7289 -19.92029,10.0029 -19.92029,14.0483 0,3.3547 23.53379,20.2619 28.24519,20.2919 1.8079,0.01 6.892,-2.1826 11.2981,-4.9058 4.4061,-2.7231 8.0276,-6.3194 8.0276,-7.9532 0,-2.5224 -14.3749,-14.4127 -25.5694,-21.1839 -0.4692,-0.2838 -1.2231,-0.4011 -2.0812,-0.2968 z m -234.13799,26.8329 -15.9808,14.0483 c -8.7959,7.7297 -21.956,18.4104 -29.2115,23.7111 -19.3992,14.1727 -42.7961,40.7025 -51.5846,58.423 -22.7568,45.8847 -19.1786,83.3591 15.0888,156.7609 16.3835,35.0938 29.8179,72.7315 34.4146,96.6284 l 2.8245,14.9402 16.9471,-0.6688 16.9472,-0.7429 1.6352,-60.6529 c 2.5804,-92.5008 6.4,-181.223 7.8046,-182.6276 0.6928,-0.6928 1.8156,-0.7119 2.5272,0 1.7925,1.7925 5.6982,89.058 7.7303,173.1134 l 1.7095,70.1671 17.0959,0.7429 17.0957,0.6688 1.5609,-8.9939 c 5.1091,-29.7176 15.8394,-60.5882 36.5702,-105.1019 33.0114,-70.8829 36.6225,-109.3878 14.2712,-153.9364 -9.553,-19.0403 -25.7991,-38.3549 -44.9693,-53.3686 -8.5034,-6.6596 -23.7957,-19.0483 -33.9686,-27.5762 z m 271.82299,6.3924 c -3.5789,0.2055 -7.4315,2.4551 -13.2306,6.541 l -6.764,4.757 11.4467,11.5954 c 12.3295,12.5177 17.8136,14.0011 29.5089,7.9533 3.8596,-1.9959 7.0613,-5.0886 7.0613,-6.8383 0,-1.7497 -5.3975,-8.2006 -11.967,-14.3456 -7.3028,-6.8308 -11.4537,-9.9272 -16.0553,-9.6628 z m -546.17319,1.1149 c -1.7497,0 -8.2005,5.3975 -14.3455,11.967 -12.1437,12.9826 -12.461,16.0308 -3.1219,29.2859 l 4.7571,6.764 11.5954,-11.4468 c 7.3026,-7.1928 11.5955,-13.4432 11.5955,-16.9471 0,-7.4423 -6.5156,-19.623 -10.4806,-19.623 z m 583.33799,36.6444 c -2.9609,0.2828 -7.4476,1.7506 -11.4467,3.7908 -11.148,5.6873 -10.9495,6.8207 4.2367,23.1908 10.5773,11.4019 10.1079,11.3022 23.0422,6.6897 5.5735,-1.9875 9.1608,-4.7178 8.6965,-6.541 -1.4165,-5.5623 -17.8975,-25.6319 -22.1502,-26.9816 -0.5694,-0.1805 -1.3915,-0.2426 -2.3785,-0.1484 z m -618.94179,1.4123 c -4.322,0 -20.5149,22.3559 -20.5149,28.3195 0,5.9563 9.0217,19.2513 13.082,19.2513 1.4988,0 6.6506,-5.6722 11.4467,-12.6359 4.7962,-6.9639 8.7709,-14.0457 8.7709,-15.7579 0,-4.8299 -9.557,-19.177 -12.7847,-19.177 z m 649.78859,41.2529 c -6.7983,-0.02 -20.961,4.1805 -20.961,6.6896 0,3.391 16.3654,27.7252 19.5487,29.0629 1.6729,0.7028 5.1882,0.7861 7.8046,0.2226 2.6164,-0.5635 6.6634,-1.0227 8.9938,-1.0405 2.3305,-0.02 4.7563,-1.4506 5.4262,-3.1962 1.6617,-4.3306 -13.2775,-29.8048 -18.4338,-31.4414 -0.6066,-0.1925 -1.4074,-0.2948 -2.3785,-0.2978 z m -680.78399,1.5609 c -3.3445,0 -18.062,24.8617 -18.062,30.4751 0,4.4668 14.1768,19.831 16.7984,18.2107 0.9765,-0.6035 5.0931,-6.9473 9.1425,-14.1226 4.0495,-7.1752 7.3587,-14.6194 7.3587,-16.5011 0,-4.4248 -11.5202,-18.0621 -15.2376,-18.0621 z m 702.26519,43.5571 c -7.0303,0.2256 -16.2782,2.8228 -16.2782,5.3517 0,3.8678 8.8863,24.8438 12.2644,28.9142 3.6524,4.4007 25.7923,4.1544 25.7923,-0.2978 0,-6.1552 -12.3099,-31.9194 -15.9065,-33.2995 -1.4149,-0.5435 -3.5286,-0.744 -5.872,-0.6688 z m -727.68589,1.6352 c -2.2182,0 -14.0483,28.0456 -14.0483,33.2997 0,4.4675 13.1451,16.6009 18.0621,16.6498 1.46,0.01 4.9386,-6.2432 7.7303,-13.8996 2.7917,-7.6566 5.1287,-15.7591 5.1287,-17.9878 0,-3.7446 -13.3742,-18.0621 -16.8728,-18.0621 z m 734.74719,47.8682 c -5.7338,0.5284 -4.7111,4.0996 -0.8171,18.731 4.1304,15.5218 8.1729,19.0285 21.9272,19.0285 10.0192,0 10.2763,-0.1745 8.7708,-6.5411 -0.8502,-3.5975 -3.3083,-11.8927 -5.426,-18.4337 l -3.7908,-11.8928 -12.4874,-0.6687 c -3.5537,-0.2045 -6.2649,-0.3991 -8.1762,-0.2226 z m -579.39849,0.9665 c -15.919,0.1575 -19.2281,1.413 -34.4146,8.9196 -21.5796,10.6665 -36.2248,25.792 -47.5708,48.9831 -7.4109,15.1477 -7.7304,16.9274 -7.7304,44.3004 0,25.936 0.5675,29.8046 6.3181,42.0705 14.5717,31.0844 47.1511,52.7541 76.931,51.1387 7.0657,-0.383 7.1333,-0.5885 8.6222,-17.2444 2.2143,-24.7695 10.112,-37.1011 28.7656,-44.8951 27.1518,-11.3448 54.2948,4.4051 70.0926,40.7326 l 6.6898,15.3862 16.2038,-1.6352 c 27.2523,-2.7295 29.0806,-3.6324 28.3938,-14.42 -0.9224,-14.4933 -9.8922,-47.6286 -19.0283,-70.5386 -14.2112,-35.6364 -35.1443,-64.5678 -59.2406,-81.7625 -22.6556,-16.1667 -37.7729,-20.9766 -66.3763,-21.0353 -2.8625,-0.01 -5.3817,-0.02 -7.6559,0 z m 411.7111,0.07 c -3.9569,0.1103 -7.9151,0.4933 -11.8927,1.115 -46.843,7.3223 -86.9412,43.6298 -110.2307,99.8988 -8.5516,20.6615 -18.1469,56.0414 -19.3256,71.1334 -0.768,9.8362 -0.4542,10.5678 6.0207,12.3387 3.7983,1.0388 13.9666,2.5769 22.5961,3.4192 l 15.7579,1.5608 4.1625,-11.967 c 9.1313,-25.9957 35.2547,-48.0169 57.0106,-48.0169 26.0322,0 44.5605,21.8732 44.5978,52.551 0.01,5.9959 0.8773,11.7063 1.8582,12.7104 2.768,2.8325 21.75339,-0.1244 36.71879,-5.7234 18.7145,-7.0021 35.6321,-22.7973 45.2667,-42.3678 7.5065,-15.248 7.8046,-16.9429 7.8046,-44.4491 0,-27.3837 -0.387,-29.2204 -7.7303,-44.2261 -17.954,-36.6901 -54.3634,-59.0471 -92.61459,-57.977 z m -585.6421,1.0407 c -2.9422,0 -9.7372,21.9843 -9.7372,31.4414 0,5.0433 1.9449,7.8939 7.7302,11.4466 4.2517,2.611 9.1814,4.5033 11.0008,4.1625 1.8194,-0.3409 4.7462,-6.0206 6.4667,-12.5616 4.7601,-18.0983 4.1973,-21.3587 -4.8314,-28.2453 -4.4915,-3.4258 -9.2844,-6.2436 -10.6291,-6.2436 z m 762.10039,46.3816 0.7429,12.9332 c 1.2317,19.7661 3.3397,23.1749 16.3525,26.9074 6.2826,1.802 11.7954,2.3403 12.2643,1.1892 0.4692,-1.151 0.1444,-8.8855 -0.7429,-17.17 -1.8765,-17.5225 -5.44,-21.8671 -19.1027,-23.0422 l -9.5142,-0.8171 z m -134.3878,5.5747 0,10.9264 c 0,9.8037 0.8092,11.4745 7.7303,15.6835 4.2516,2.5856 7.7302,5.3691 7.7302,6.2437 0,0.8743 -4.2813,2.7742 -9.5141,4.2368 -8.2138,2.2958 -9.8419,3.8777 -11.744,11.521 -2.6627,10.6988 -6.85619,11.357 -10.85209,1.7096 -3.1705,-7.654 -3.6079,-7.7902 -17.5419,-7.1356 -9.9503,0.4673 -10.0027,-0.9344 -0.6687,-11.298 4.2832,-4.756 4.507,-6.317 2.0068,-13.2307 -4.5006,-12.4466 -3.829,-14.0928 4.1625,-9.9602 9.6345,4.9822 12.8622,4.6002 21.33259,-2.5272 l 7.3586,-6.1693 z m -639.60539,0.9665 c -1.2001,0.08 -2.200901,0.4171 -2.898801,1.115 -1.1995,1.1995 -2.4461,9.662 -2.7502,18.7311 l -0.5204,16.4268 10.703401,5.203 c 5.8869,2.8443 11.3732,4.4498 12.19,3.5678 0.8172,-0.8823 2.1302,-8.7515 2.9732,-17.4674 1.4594,-15.0878 1.2826,-16.0298 -4.6084,-20.6636 -5.9075,-4.6469 -11.4885,-7.1449 -15.0888,-6.9127 z m 177.6475,1.784 c 2.2134,0.1303 2.76,3.297 1.7096,9.5142 -1.5221,9.009 -1.1954,9.7103 6.9127,14.4942 4.69,2.7672 8.5479,5.9229 8.5479,6.9869 0,1.0641 -4.3516,2.6088 -9.5886,3.4936 -7.8071,1.3189 -9.744,2.7625 -10.8521,7.9532 -0.7429,3.4819 -2.1544,8.4587 -3.1961,11.0751 -1.7156,4.3087 -2.4034,3.9162 -7.21,-4.1624 -4.8502,-8.1522 -6.2643,-8.9196 -15.8321,-8.9196 -5.7577,0 -10.4062,-0.7259 -10.4062,-1.6352 0,-0.9094 2.8787,-4.6575 6.3923,-8.3249 6.3609,-6.6393 6.324,-6.6523 2.2299,-15.2376 -2.2614,-4.7423 -3.5282,-9.2565 -2.8245,-9.9601 0.7038,-0.7038 5.5981,0.1985 10.8521,1.9326 8.8552,2.9224 9.9363,2.7638 15.0146,-2.007 3.7753,-3.5467 6.529,-5.3041 8.2505,-5.203 z m 602.06899,40.3608 0.6688,18.4338 0.7429,18.5081 11.8928,5.9463 11.8926,5.9464 c 1.5765,-13.1811 2.5427,-26.3622 1.1891,-39.5433 l -6.541,-3.1219 c -3.5975,-1.7101 -9.5774,-3.8378 -13.2306,-4.6828 l -6.6154,-1.4866 z m 3.1219,51.9565 c -4.2553,-0.1093 -4.85,4.887 -5.6491,19.3999 -0.8352,15.1679 -0.763,15.3721 7.3587,20.8866 12.2664,8.3289 15.2547,6.5268 17.6904,-10.5548 1.1525,-8.0825 1.4001,-16.409 0.5946,-18.5081 -0.8052,-2.099 -6.0289,-5.8326 -11.5955,-8.3249 -3.8132,-1.7071 -6.465,-2.849 -8.3992,-2.8987 z m -790.865991,7.9532 1.5609,16.9471 c 1.7766,19.1148 5.373701,24.8297 16.575501,26.2383 4.1147,0.5174 8.8998,1.0543 10.6291,1.2636 2.4493,0.2968 2.7496,-2.6515 1.4866,-13.305 -2.4523,-20.6853 -5.1691,-24.7472 -18.6566,-28.1708 z m 782.020791,40.7325 c -0.2026,-0.01 -0.2948,0.07 -0.372,0.1484 -1.8368,1.8369 -7.9229,26.1427 -7.9532,31.813 -0.02,3.4356 3.0538,7.3628 8.8452,11.2982 4.8824,3.3175 9.6752,6.0206 10.6291,6.0206 0.9535,0 3.3388,-5.4859 5.3517,-12.2644 5.9771,-20.1272 5.1485,-24.7622 -6.0207,-31.813 -4.6868,-2.9587 -9.0615,-5.1341 -10.4804,-5.2031 z m -376.99929,0.8923 c -59.6871,0 -88.3148,2.5852 -110.5279,9.9602 -10.1567,3.3721 -12.1429,4.9693 -12.7847,10.5549 -0.6357,5.534 0.5113,7.1515 7.1356,9.8857 11.7656,4.8563 32.2841,8.6265 59.6122,10.9265 30.307,2.5507 110.7056,1.0496 136.1717,-2.5272 10.4536,-1.4682 24.368,-4.4394 30.9211,-6.6153 10.7736,-3.5774 11.967,-4.6972 11.967,-11.1495 0,-6.4584 -1.1885,-7.4718 -12.0413,-11.0751 -22.2133,-7.375 -50.7665,-9.9602 -110.4537,-9.9602 z m -395.5073,12.7104 1.4866,10.7034 c 0.8031,5.8604 2.9815,14.4231 4.9058,19.0285 3.3474,8.0117 4.0394,8.3248 15.5348,8.3248 9.415,0 12.0414,-0.8161 12.0414,-3.7908 0,-8.8155 -7.8533,-29.6857 -11.9671,-31.8874 -2.4362,-1.3038 -8.3881,-2.3785 -13.2306,-2.3785 z m 762.02609,34.6376 c -0.2356,-0.04 -0.395,0 -0.5203,0.07 -2.6812,1.657 -13.974,27.1409 -13.974,31.5157 0,2.069 3.4245,7.3041 7.6559,11.6698 8.6279,8.9017 9.4366,8.494 18.3594,-8.9196 8.1566,-15.9184 8.073,-17.6942 -1.4123,-26.9072 -4.2306,-4.1093 -8.4602,-7.1434 -10.1088,-7.433 z m -272.64059,3.8651 c -1.1481,-0.03 -2.5543,0.1304 -4.3111,0.4462 -4.1596,0.7469 -12.1672,2.0989 -17.8391,2.9732 -5.672,0.8743 -10.866,2.9755 -11.5211,4.6827 -1.5849,4.1303 5.3794,27.6335 12.859,43.4828 11.6429,24.671 29.2291,38.2797 49.4291,38.2797 5.2328,0 13.7844,-1.9288 19.0284,-4.3111 10.8126,-4.9121 23.9893,-18.7918 28.8398,-30.4008 5.8104,-13.9061 5.1422,-14.5413 -14.1226,-13.3049 -14.2656,0.9154 -19.0589,0.2416 -26.7586,-3.7166 -11.633,-5.9807 -20.3835,-15.2369 -27.1302,-28.6912 -3.6141,-7.207 -5.0292,-9.343 -8.4736,-9.4398 z m -187.1617,0.6688 c -1.1067,-0.02 -1.7634,0.07 -2.0069,0.2225 -0.9736,0.6016 -5.0167,6.7611 -8.9196,13.6767 -4.1338,7.3248 -11.3166,15.5166 -17.2444,19.623 -9.0565,6.2738 -12.321,7.0253 -29.4345,7.3586 -10.5754,0.2055 -19.9105,0.4732 -20.8123,0.5945 -4.3461,0.5836 6.91,23.5598 16.0553,32.7051 15.0904,15.0904 34.0889,18.9276 52.1793,10.6291 10.654,-4.8874 20.2322,-13.7786 27.4276,-25.4208 5.7644,-9.327 15.8668,-37.5834 16.947,-47.3478 0.766,-6.9196 0.6347,-6.9786 -16.8727,-9.9602 -7.2704,-1.2381 -13.9987,-2.0164 -17.3188,-2.0812 z m 140.4828,5.5747 -17.4674,0.8923 c -9.6359,0.4863 -18.1947,1.4703 -18.9541,2.2298 -0.76,0.759 -2.4213,18.0528 -3.7165,38.4284 -2.29,36.0244 -4.74,50.2995 -7.8046,45.341 -2.0102,-3.2526 -6.3899,-50.5997 -6.3924,-68.9777 l 0,-14.7174 -12.5616,-1.5609 c -24.6533,-3.0802 -25.8853,-2.3781 -31.59,18.2108 -4.8288,17.4273 -17.4292,45.8833 -26.4613,59.7609 -4.1896,6.4371 -4.1636,6.8425 1.6352,17.8391 12.2907,23.3078 61.9393,64.7409 77.5257,64.7409 2.8054,0 12.9439,-5.1344 22.5962,-11.4466 18.5276,-12.1166 47.8717,-41.6795 55.2267,-55.6729 l 4.3855,-8.3249 -10.7034,-18.731 c -10.426,-18.2339 -17.7005,-36.539 -23.0422,-57.6797 l -2.6758,-10.3318 z m -415.8736,5.2031 c -9.7829,0 -11.9118,0.7489 -11.8928,4.1624 0.04,6.6873 11.0184,28.459 15.6836,31.0697 3.7141,2.0786 19.3727,1.3442 22.1502,-1.0405 1.5252,-1.3096 -4.8365,-19.0452 -9.6629,-26.9816 -3.8987,-6.411 -5.5725,-7.21 -16.2781,-7.21 z m 714.38079,32.6306 c -0.9966,-0.1474 -1.7698,0.2938 -2.4528,1.1893 -5.419,7.1066 -15.0146,25.6249 -15.0146,28.9142 0,4.6333 11.405,18.1364 15.3119,18.1364 1.6637,0 6.3736,-6.2687 10.4804,-13.974 4.1069,-7.7053 7.5074,-15.5435 7.5074,-17.3931 0,-1.8496 -3.5814,-6.8376 -7.9533,-11.0751 -3.8587,-3.74 -6.2182,-5.5521 -7.879,-5.7977 z m -687.10189,13.6766 c -6.3747,0.09 -15.4981,1.9556 -16.7242,3.9395 -1.4846,2.4023 9.1901,23.9073 14.4943,29.2115 4.5674,4.5674 6.1004,4.6245 18.062,1.0406 5.0576,-1.5153 9.217,-3.607 9.217,-4.6827 0,-3.7577 -16.4756,-27.6381 -19.9947,-28.9885 -1.111,-0.4261 -2.9295,-0.5495 -5.0544,-0.5204 z m 661.38389,29.8061 c -3.3014,0 -20.2919,23.8412 -20.2919,28.4683 0,4.895 9.566,19.1027 12.8589,19.1027 1.6339,0 6.6017,-4.9487 11.0751,-11.0751 12.8335,-17.5755 12.7015,-16.9537 5.6491,-27.1303 -3.5638,-5.1427 -7.7242,-9.3656 -9.2912,-9.3656 z m -632.46969,12.8591 c -7.0971,0.389 -18.1364,4.7811 -18.1364,8.0276 0,3.595 12.3841,21.0005 18.6566,26.164 3.7926,3.1219 8.9837,2.2213 20.0691,-3.4193 4.0831,-2.0775 5.9505,-4.4719 4.9057,-6.2436 -4.3127,-7.3133 -18.0813,-22.8066 -21.4069,-24.0827 -1.0342,-0.3971 -2.4503,-0.5354 -4.0881,-0.4462 z m 601.99459,24.8261 -11.5953,11.3724 c -7.3026,7.1928 -11.5211,13.5174 -11.5211,17.0214 0,7.4423 6.4412,19.5487 10.4061,19.5487 1.7496,0 8.2006,-5.3232 14.3456,-11.8927 12.1437,-12.9826 12.4608,-16.0308 3.1219,-29.2859 z m -569.43829,14.9402 c -3.6282,0.1574 -7.5724,1.69 -12.6361,4.3854 l -8.3249,4.3855 13.5281,13.528 c 14.7198,14.7198 17.2806,15.1716 31.2184,5.3517 l 6.7639,-4.7572 -11.3724,-11.5953 c -7.958,-8.0796 -13.13,-11.5599 -19.177,-11.2981 z m 534.05749,21.1838 c -2.4994,-0.01 -24.14739,18.5359 -26.46129,22.6706 -1.293,2.3103 -1.211,6.334 0.2226,10.1832 1.3045,3.5012 2.98089,8.191 3.71649,10.4804 0.736,2.2893 1.6967,4.1624 2.1556,4.1624 0.4592,0 6.5966,-4.306 13.6766,-9.5885 7.0801,-5.2824 13.7584,-11.1774 14.8659,-13.1563 1.9971,-3.5686 -4.9898,-24.7331 -8.1762,-24.7518 z m -494.29119,11.8185 c -4.8541,0 -19.1027,9.6071 -19.1027,12.8589 0,2.5304 25.1847,22.8192 28.3195,22.8192 0.6357,0 5.2071,-2.7952 10.1832,-6.2437 4.976,-3.4484 9.0681,-7.5756 9.0681,-9.1425 0,-3.3014 -23.8411,-20.2919 -28.4681,-20.2919 z m 453.856,19.0283 c -3.9467,0 -27.6214,16.5354 -29.0629,20.292 -1.3232,3.4482 -0.5404,10.7971 2.1556,19.5486 1.3599,4.4143 4.0991,3.7957 18.731,-4.6084 7.312,-4.1998 13.8439,-9.5349 14.5686,-11.8184 1.5396,-4.851 -3.5249,-23.4138 -6.3923,-23.4138 z m -412.3058,9.5142 c -4.3029,0 -17.8391,11.584 -17.8391,15.2375 0,3.6287 23.28,17.6298 29.8061,17.9135 2.6869,0.1163 8.4644,-3.4959 12.7847,-7.9533 l 7.8046,-8.1019 -5.5747,-3.4192 c -14.2979,-8.7516 -24.004,-13.6766 -26.9816,-13.6766 z m 370.0866,15.9065 c -4.063,-0.6817 -27.3217,10.5608 -31.7388,15.6092 -2.6298,3.0059 -4.1624,8.6145 -4.1624,15.312 0,12.1619 -0.1433,12.19 24.1571,1.4866 7.4359,-3.275 14.1736,-7.5907 14.9403,-9.5886 1.2892,-3.3597 -0.4813,-18.7734 -2.6016,-22.5219 -0.09,-0.1564 -0.3239,-0.2516 -0.5946,-0.2968 z m -96.1824,1.3379 c -10.2057,0.1294 -21.6974,2.3038 -30.6981,6.2437 -12.7725,5.5909 -14.2615,10.2136 -6.3924,20.2175 5.9075,7.5103 8.0964,7.6685 21.5557,1.5611 5.7026,-2.5877 12.6171,-4.7284 15.3861,-4.7571 7.7168,-0.08 29.763,-9.8983 28.8399,-12.859 -0.4491,-1.4423 -4.4931,-4.6155 -8.9939,-6.987 -4.6072,-2.4276 -11.7595,-3.5196 -19.6973,-3.4192 z m -110.2306,4.1624 c -11.8241,0 -13.0941,0.5575 -17.4675,7.7304 -8.1642,13.3903 -6.7598,15.3531 12.5617,17.9134 24.8368,3.2912 25.0631,3.3238 32.9279,-0.743 10.1843,-5.2664 8.4729,-12.3465 -4.757,-19.3256 -7.194,-3.795 -14.5203,-5.5748 -23.2651,-5.5748 z m -117.6637,2.3787 c -3.703,0 -20.2458,15.8783 -18.4337,17.6904 3.0922,3.0922 27.8143,13.2108 32.3333,13.2305 3.154,0.02 7.6396,-3.1565 11.2981,-7.9531 3.3371,-4.3752 6.0951,-8.9953 6.0951,-10.3318 0,-2.4926 -25.0932,-12.636 -31.2928,-12.636 z m 77.9717,0 c -11.8386,0 -39.5433,23.3441 -39.5433,33.2994 0,3.9772 10.6356,19.0284 13.4537,19.0284 0.6426,0 7.3421,-6.1528 14.8659,-13.6766 12.2857,-12.2859 13.8352,-14.9513 15.1632,-26.1639 1.3986,-11.8094 1.1389,-12.4873 -3.9395,-12.4873 z m 194.1487,11.8927 c -7.018,0 -38.5001,14.8382 -39.6177,18.6566 -2.7432,9.3723 -4.1576,21.6569 -2.7502,23.9342 1.8518,2.9964 22.2749,-4.5312 35.2322,-13.0075 4.9058,-3.2092 9.006,-7.1545 9.1426,-8.7712 1.4649,-17.3505 1.1161,-20.8121 -2.0069,-20.8121 z m -97.8177,1.5609 -12.8589,9.9602 c -7.0675,5.4522 -16.2485,10.534 -20.4407,11.3722 -4.1922,0.8382 -8.6984,3.5145 -9.9601,5.8722 -2.6355,4.9245 -3.0069,14.9065 -0.6688,17.2445 3.8215,3.8213 24.1768,1.3089 35.6038,-4.3856 15.0171,-7.4834 23.2585,-15.909 21.2583,-21.7784 -0.8181,-2.4007 -4.0736,-7.4694 -7.21,-11.2981 l -5.7234,-6.987 z m -83.1004,18.6565 c -8.7808,0.2467 -13.2342,3.404 -17.0214,10.4807 -3.1858,5.9524 0.05,8.4554 16.5754,12.9333 20.1051,5.4476 25.8404,5.0261 28.5425,-2.0812 6.5141,-17.1334 6.7585,-16.7198 -13.0819,-19.9204 -6.1203,-0.9876 -11.0233,-1.5242 -15.0146,-1.4124 z m 124.3533,3.5679 c -8.7194,0 -36.7929,16.68 -36.7931,21.8531 -10e-5,2.335 6.7092,3.773 19.4,4.088 9.3625,0.2326 11.9066,-0.747 16.0551,-6.0208 5.8895,-7.487 6.7438,-19.9203 1.338,-19.9203 z m 62.1395,12.7104 c -7.0078,0.7269 -22.8192,8.5233 -22.8192,11.8928 0,1.8452 -0.6898,6.6454 -1.4866,10.6292 -1.3113,6.5563 -0.5785,7.6898 7.7303,12.1156 13.3593,7.1161 18.0941,5.7218 21.9272,-6.3923 3.536,-11.175 1.928,-26.2157 -2.9732,-28.0966 -0.5675,-0.2176 -1.3774,-0.2526 -2.3785,-0.1484 z m -245.9564,1.5608 c -2.8496,-0.2537 -3.6036,4.8791 -3.4934,16.5756 0.1353,14.419 5.5626,30.3869 11.8927,35.1577 4.238,3.194 12.8575,3.7979 21.4812,1.4866 6.5286,-1.7493 6.6718,-4.1916 0.8172,-12.4129 -2.4811,-3.4845 -5.7161,-10.8789 -7.21,-16.4269 -1.4938,-5.5477 -3.9214,-10.1088 -5.3517,-10.1088 -1.4303,0 -6.1557,-3.7395 -10.4804,-8.3249 -3.5287,-3.7414 -5.9461,-5.7942 -7.656,-5.9464 z m 49.2061,19.1773 c -5.2439,0.1775 -9.443,0.8593 -11.3723,2.0812 -2.7426,1.7363 -2.4529,3.5047 1.8582,10.4803 5.3242,8.6147 6.0518,8.8863 30.0291,10.6293 2.6164,0.1905 8.2357,-2.8217 12.4873,-6.6899 4.2518,-3.8675 7.7304,-7.9713 7.7304,-9.1424 0,-4.252 -25.0008,-7.8899 -40.7327,-7.3585 z m 122.6438,2.0812 c -7.1148,0.08 -13.9016,0.9344 -19.1771,2.6759 -7.79,2.5707 -11.3061,9.3653 -4.8313,9.3653 1.7654,0 7.9198,3.2348 13.6766,7.1356 13.0328,8.8313 21.9594,9.019 36.9418,0.8181 14.6858,-8.0387 13.9248,-7.2831 10.7777,-11.075 -4.6824,-5.6421 -21.7351,-9.0993 -37.3877,-8.9195 z m -59.6866,10.183 c -3.6726,-0.03 -6.3965,1.5679 -12.3387,5.5004 -5.5467,3.6705 -9.6858,7.7831 -9.2169,9.2169 0.4693,1.4335 7.6424,5.0563 15.9066,8.0276 8.264,2.971 17.7741,7.4874 21.1838,10.0343 8.4486,6.312 12.1686,5.959 21.7785,-2.1554 6.8936,-5.8207 7.7768,-7.6711 5.5748,-11.2981 -3.254,-5.36 -19.9506,-13.9428 -34.3403,-17.6904 -3.8194,-0.9946 -6.3444,-1.6174 -8.5478,-1.6353 z m 106.6628,12.0414 c -8.4071,0.2276 -17.0958,3.8281 -17.0958,7.8047 0,1.6931 6.1232,8.9419 13.6023,16.1294 l 13.528,13.082 8.9195,-4.534 c 4.8966,-2.4984 10.5473,-4.6087 12.5617,-4.6087 11.8302,0 -11.4958,-24.7315 -25.8666,-27.4274 -1.7984,-0.3369 -3.7089,-0.4983 -5.6491,-0.4462 z m -231.9824,0.372 c -2.654,0.4271 -6.1016,3.0365 -11.3724,7.9531 -9.8558,9.1933 -10.8724,14.8338 -2.6015,14.866 2.2121,0 7.2991,2.0835 11.2237,4.6825 8.9155,5.9048 11.2568,5.9431 16.5012,0.1484 4.0035,-4.4238 3.9963,-4.9157 -0.2226,-11.2981 -2.4285,-3.6736 -5.5853,-8.7651 -6.987,-11.2981 -2.0669,-3.7352 -3.887,-5.4817 -6.541,-5.0543 z m 188.4997,12.7102 c -5.0668,0.2687 -7.5774,2.2494 -14.1226,8.9195 -5.1963,5.2947 -9.4399,10.4518 -9.4399,11.4468 0,3.0838 15.0326,8.5383 23.7854,8.6225 4.5787,0 12.3407,-1.0708 17.3188,-2.453 11.742,-3.2608 13.1308,-7.5609 5.5748,-17.4676 -5.1154,-6.7063 -7.9268,-8.2021 -16.9472,-8.9195 -2.5022,-0.1995 -4.4804,-0.2386 -6.1693,-0.1484 z m -117.6637,0.7429 c -5.7129,0.2707 -11.9373,1.4157 -15.3119,3.3447 -3.2704,1.8698 -8.8897,3.4472 -12.4873,3.4936 -10.4785,0.1354 -7.7809,6.2413 5.7977,13.0078 13.7683,6.8607 16.6857,7.2875 23.6368,3.5678 5.3086,-2.8414 12.5441,-17.7529 10.3318,-21.3327 -1.0622,-1.7185 -6.2541,-2.3521 -11.9671,-2.0812 z m 29.8062,0.372 c -3.6328,-0.1424 -4.2587,1.7723 -6.1694,9.3658 -1.4206,5.6459 -3.4578,12.3006 -4.5341,14.7915 -1.7907,4.1438 -1.1132,4.4125 7.9533,3.1963 5.4496,-0.7319 14.7763,-4.1319 20.6635,-7.5817 5.8874,-3.4501 10.7036,-7.377 10.7036,-8.6967 0,-2.8846 -12.3362,-8.2459 -23.8599,-10.4061 -2.057,-0.386 -3.5461,-0.6217 -4.757,-0.6688 z m -122.272,18.5827 c -2.2788,-0.08 -4.6133,0.3699 -7.1357,1.3377 -5.3847,2.0664 -4.6247,5.6848 2.6759,13.3046 7.7944,8.1363 10.2644,8.2386 17.0957,0.9625 l 5.2775,-5.6488 -6.3924,-5.0546 c -4.0839,-3.2122 -7.7233,-4.7789 -11.521,-4.9055 z m 289.2904,5.9463 c -4.309,-0.01 -8.7728,1.6258 -12.19,4.8309 -2.7107,2.5426 -2.8642,4.3995 -0.6688,9.2171 3.5142,7.7132 8.6195,7.642 19.0284,-0.3008 l 8.3249,-6.3185 -5.3517,-4.3855 c -2.5439,-2.0596 -5.7911,-3.0425 -9.1425,-3.0472 z m -317.3127,15.6833 c -0.383,0 -0.7129,0 -1.0406,0.1002 -6.6084,1.2734 -5.3427,7.609 3.4935,17.3194 6.3768,7.0073 8.5714,8.1343 11.2981,5.8714 1.8612,-1.5441 3.4192,-4.552 3.4192,-6.7638 0,-5.379 -11.4239,-16.0309 -17.1702,-16.5011 z m 344.2199,5.5004 c -3.3112,0.401 -7.3653,3.4129 -12.9332,9.3655 -5.1909,5.5495 -5.4003,6.7477 -2.5273,12.1157 1.7528,3.2756 3.9019,5.9466 4.8314,5.9466 0.9294,0 5.7185,-4.8598 10.6291,-10.8524 7.98,-9.7385 8.576,-11.2695 5.3517,-14.494 -1.5898,-1.5901 -3.3649,-2.3231 -5.3517,-2.0814 z"
     style="fill:#000000" />
</svg>
