<?xml version="1.0" encoding="UTF-8" standalone="no"?>
<svg
   xmlns:dc="http://purl.org/dc/elements/1.1/"
   xmlns:cc="http://creativecommons.org/ns#"
   xmlns:rdf="http://www.w3.org/1999/02/22-rdf-syntax-ns#"
   xmlns:svg="http://www.w3.org/2000/svg"
   xmlns="http://www.w3.org/2000/svg"
   width="1000"
   height="1000"
   viewBox="0 0 999.99999 999.99999"
   id="svg7631"
   version="1.1">
  <defs
     id="defs7633">
    <pattern
       id="EMFhbasepattern"
       patternUnits="userSpaceOnUse"
       width="6"
       height="6"
       x="0"
       y="0" />
    <pattern
       id="EMFhbasepattern-8"
       patternUnits="userSpaceOnUse"
       width="6"
       height="6"
       x="0"
       y="0" />
    <pattern
       id="EMFhbasepattern-3"
       patternUnits="userSpaceOnUse"
       width="6"
       height="6"
       x="0"
       y="0" />
    <pattern
       id="EMFhbasepattern-6"
       patternUnits="userSpaceOnUse"
       width="6"
       height="6"
       x="0"
       y="0" />
  </defs>
  <metadata
     id="metadata7636">
    <rdf:RDF>
      <cc:Work
         rdf:about="">
        <dc:format>image/svg+xml</dc:format>
        <dc:type
           rdf:resource="http://purl.org/dc/dcmitype/StillImage" />
        <dc:title></dc:title>
      </cc:Work>
    </rdf:RDF>
  </metadata>
  <path
     d="m 864.5712,201.89905 -132.6389,0 0,302.186 -114.5453,-88.8594 -117.3197,88.8594 0,-302.186 -232.1462,0 0,728.8408 530.4005,0 c 36.6269,0 66.2496,-29.4693 66.2496,-66.2411 l 0,-662.5997 z m -165.7637,-33.273 -165.6171,0 0,269.2094 84.1966,-66.2428 81.4205,66.2428 0,-269.2094 z m 99.5141,-99.365901 -596.5035,0 c -36.6252,0 -66.3893,29.6244 -66.3893,66.249601 l 0,728.9873 c 0,36.7718 29.7641,66.2411 66.3893,66.2411 l 33.1265,0 0,-728.8391 -33.1265,0 c -18.3834,0 -33.1248,-15.0311 -33.1248,-33.273 l 0,-33.1163 c 0,-18.5401 14.7414,-33.1333 33.1248,-33.1333 l 653.552,0 C 843.8476,82.537749 822.6898,69.260149 798.3196,69.260149 Z"
     style="fill:#000000;fill-rule:evenodd;stroke:none;stroke-width:1px;stroke-linecap:butt;stroke-linejoin:miter;stroke-opacity:1"
     id="pathID0001" />
</svg>
