<?xml version="1.0" encoding="UTF-8" standalone="no"?>
<svg
   xmlns:dc="http://purl.org/dc/elements/1.1/"
   xmlns:cc="http://creativecommons.org/ns#"
   xmlns:rdf="http://www.w3.org/1999/02/22-rdf-syntax-ns#"
   xmlns:svg="http://www.w3.org/2000/svg"
   xmlns="http://www.w3.org/2000/svg"
   width="1000"
   height="1000"
   viewBox="0 0 999.99999 999.99999"
   id="svg7631"
   version="1.1">
  <defs
     id="defs7633">
    <pattern
       id="EMFhbasepattern"
       patternUnits="userSpaceOnUse"
       width="6"
       height="6"
       x="0"
       y="0" />
    <pattern
       id="EMFhbasepattern-8"
       patternUnits="userSpaceOnUse"
       width="6"
       height="6"
       x="0"
       y="0" />
    <pattern
       id="EMFhbasepattern-3"
       patternUnits="userSpaceOnUse"
       width="6"
       height="6"
       x="0"
       y="0" />
    <pattern
       id="EMFhbasepattern-6"
       patternUnits="userSpaceOnUse"
       width="6"
       height="6"
       x="0"
       y="0" />
  </defs>
  <metadata
     id="metadata7636">
    <rdf:RDF>
      <cc:Work
         rdf:about="">
        <dc:format>image/svg+xml</dc:format>
        <dc:type
           rdf:resource="http://purl.org/dc/dcmitype/StillImage" />
        <dc:title></dc:title>
      </cc:Work>
    </rdf:RDF>
  </metadata>
  <path
     style="fill:#000000"
     d="m 843.55391,466.28562 c 12.2567,53.4637 74.64197,181.9008 55.71188,214.9084 -5.7762,9.3461 -20.4169,8.7393 -82.23968,-3.4078 -112.1413,-22.0338 -116.0403,-29.2386 -31.4469,-58.1089 70.95721,-24.2165 48.70411,-31.655 -48.0204,-16.0517 -35.9624,5.8014 -66.6044,6.9891 -70.8473,2.7462 -4.2429,-4.2429 12.8807,-30.8186 39.5914,-61.4458 68.79511,-78.8816 62.23171,-82.2252 -33.9093,-17.2745 -35.9744,24.3035 -67.8736,41.7227 -70.887,38.7093 -3.0134,-3.0135 5.2573,-40.4784 18.37941,-83.2554 13.1221,-42.777 21.8132,-79.8214 19.3137,-82.3209 -2.4995,-2.4995 -23.2471,26.5385 -46.1056,64.5291 -22.8585,37.9906 -46.0852,69.2107 -51.6146,69.3782 -11.0868,0.3359 -16.3465,-21.1425 -24.113,-98.4671 -11.8897,-118.3754 -23.6525,-124.3216 -33.9807,-17.1777 -8.6752,89.995 -14.3227,115.9494 -25.2299,115.9494 -5.4293,0 -28.5629,-31.1901 -51.4081,-69.3113 -22.8453,-38.1213 -43.8023,-67.0457 -46.5713,-64.2768 -2.769,2.769 6.0419,39.6938 19.5797,82.055 13.5378,42.3612 22.0695,79.5652 18.9592,82.6756 -3.1103,3.1102 -36.7643,-14.7689 -74.7867,-39.7314 -38.0224,-24.9624 -71.122,-43.396 -73.5545,-40.9633 -2.4327,2.4325 15.0201,27.1381 38.7838,54.9012 55.7084,65.0841 56.1157,75.8428 2.5625,67.6911 -101.4485,-15.4424 -130.9799,-18.1887 -130.9799,-12.1807 0,3.548 25.3178,14.8762 56.2617,25.1736 30.9439,10.2975 54.84,22.9875 53.1025,28.2002 -4.0805,12.2412 -75.8144,30.736 -130.8363,33.7328 -42.141305,2.2952 -42.913305,1.8922 -41.289805,-21.5535 36.824605,-110.206 61.248405,-226.7015 104.022505,-341.3389 7.3343,-18.9938 18.8668,-24.0446 93.1509,-40.7971 111.6412,-25.1772 149.9686,-24.8679 180.5736,1.4574 l 23.92219,20.577 24.4543,-20.577 c 31.1676,-26.2257 69.2674,-26.5979 179.4348,-1.7531 75.7275,17.0781 74.0484,17.8148 93.5174,43.0825 7.3544,10.5507 9.202,13.8696 10.2255,18.544 m 8.5406,-0.6777 c -0.095,-2.2766 -1.4474,-3.5506 1.37081,-7.4047 8.3282,-11.3894 11.7064,-11.7883 19.35889,-2.2855 11.0081,13.6698 148.71957,385.4631 148.71957,401.5132 0,8.8978 -29.15339,9.6429 -148.15757,3.7871 -81.48659,-4.0098 -178.11119,-6.3624 -214.72109,-5.2281 -36.61001,1.1344 -91.68591,2.0625 -122.3911,2.0625 -30.7051,0 -85.7811,-0.9281 -122.391,-2.0625 -36.61,-1.1343 -133.2345,1.1482 -214.7212,5.0723 -130.714705,6.2947 -148.157605,5.5789 -148.157605,-6.0804 0,-14.7485 140.878205,-398.1665 149.444805,-406.7331 2.9925,-2.9924 9.2189,-1.6626 13.8365,2.955 5.46839,5.4685 -12.46641,70.8225 -51.4383,187.44 -32.908605,98.4745 -57.533605,182.7664 -54.722105,187.3156 6.7601,10.9381 99.691195,1.2643 190.486595,-19.8291 89.0122,-20.679 162.64441,-21.3967 203.3576,-1.9819 26.8902,12.823 34.1117,13.1765 58.2662,2.8521 46.7328,-19.9753 127.62661,-20.6032 210.0228,-1.6303 95.9058,22.0838 187.33577,31.6385 194.33787,20.3089"
     id="path3219" />
</svg>
