<?xml version="1.0" encoding="UTF-8" standalone="no"?>
<svg
   xmlns:dc="http://purl.org/dc/elements/1.1/"
   xmlns:cc="http://creativecommons.org/ns#"
   xmlns:rdf="http://www.w3.org/1999/02/22-rdf-syntax-ns#"
   xmlns:svg="http://www.w3.org/2000/svg"
   xmlns="http://www.w3.org/2000/svg"
   xmlns:sodipodi="http://sodipodi.sourceforge.net/DTD/sodipodi-0.dtd"
   xmlns:inkscape="http://www.inkscape.org/namespaces/inkscape"
   version="1.1"
   id="svg7631"
   viewBox="0 0 999.99999 999.99999"
   height="1000"
   width="1000"
   inkscape:version="0.91 r13725"
   sodipodi:docname="ldsg-sisters-missionaries.svg">
  <sodipodi:namedview
     pagecolor="#ffffff"
     bordercolor="#666666"
     borderopacity="1"
     objecttolerance="10"
     gridtolerance="10"
     guidetolerance="10"
     inkscape:pageopacity="0"
     inkscape:pageshadow="2"
     inkscape:window-width="1440"
     inkscape:window-height="878"
     id="namedview7"
     showgrid="false"
     inkscape:zoom="0.236"
     inkscape:cx="-110.16949"
     inkscape:cy="500"
     inkscape:window-x="-8"
     inkscape:window-y="-8"
     inkscape:window-maximized="1"
     inkscape:current-layer="svg7631" />
  <defs
     id="defs7633">
    <pattern
       y="0"
       x="0"
       height="6"
       width="6"
       patternUnits="userSpaceOnUse"
       id="EMFhbasepattern" />
    <pattern
       y="0"
       x="0"
       height="6"
       width="6"
       patternUnits="userSpaceOnUse"
       id="EMFhbasepattern-8" />
    <pattern
       y="0"
       x="0"
       height="6"
       width="6"
       patternUnits="userSpaceOnUse"
       id="EMFhbasepattern-3" />
    <pattern
       y="0"
       x="0"
       height="6"
       width="6"
       patternUnits="userSpaceOnUse"
       id="EMFhbasepattern-6" />
  </defs>
  <metadata
     id="metadata7636">
    <rdf:RDF>
      <cc:Work
         rdf:about="">
        <dc:format>image/svg+xml</dc:format>
        <dc:type
           rdf:resource="http://purl.org/dc/dcmitype/StillImage" />
        <dc:title></dc:title>
      </cc:Work>
    </rdf:RDF>
  </metadata>
  <path
     style="fill:#000000"
     d="m 264.92116,185.69837 c -29.3399,-0.1292 -50.5212,10.9904 -72.5242,34.862 -20.8263,22.594 -29.9301,30.1962 -29.5198,67.78989 0.1925,17.5996 -0.6908,28.539 1.4281,71.6905 0.2368,4.8239 2.9179,130.1881 -33.2626,133.0094 65.811,49.2013 93.0554,-51.0318 65.701,-117.1907 -9.7783,-23.6495 -11.8564,-55.6861 -10.9715,-58.354 1.1271,-3.3978 0.9688,-8.0571 2.2767,-12.5559 8.0325,-27.62939 -6.5186,3.6512 17.8071,12.2336 31.4353,11.0907 83.2922,-23.672 103.9113,-38.60889 44.3672,12.93559 43.9623,54.22739 46.4481,80.14179 -21.6291,44.8689 8.3124,185.4511 91.014,127.4278 -48.3304,26.798 -65.3939,-142.8412 -60.2717,-198.2533 -7.7121,-39.96049 -3.9416,-62.68229 -58.4708,-90.13679 -23.7619,-11.9636 -45.9621,-11.9773 -63.5657,-12.0554 z m 380.1317,47.3362 c -29.3398,-0.1292 -50.5211,10.9904 -72.5242,34.862 -20.8263,22.59399 -29.9301,30.19489 -29.5197,67.78859 0.1924,17.5996 -0.6909,28.5404 1.428,71.6919 0.2369,4.8238 2.918,130.1867 -33.2625,133.008 65.8108,49.2013 93.0567,-51.0304 65.7022,-117.1894 -9.7782,-23.6495 -11.8564,-55.6861 -10.9715,-58.3539 1.1271,-3.3978 0.9689,-8.0572 2.2768,-12.556 8.0325,-27.6293 -6.52,3.6512 17.8056,12.2336 31.4353,11.0907 83.2936,-23.6719 103.9127,-38.6088 44.3672,12.9356 43.9609,54.226 46.4467,80.1404 -21.629,44.8689 8.3125,185.4525 91.014,127.4291 -48.3304,26.798 -65.3924,-142.8412 -60.2702,-198.2532 -7.7121,-39.9606 -3.9416,-62.68239 -58.4709,-90.13679 -23.7618,-11.9637 -45.9634,-11.9774 -63.567,-12.0555 z m -473.2157,277.25279 c -6.4996,0.1931 -14.8269,3.484 -27.5259,8.5016 -21.9447,10.3126 -45.130501,32.6919 -56.141101,46.8575 -30.4189,39.135 -20.01,82.5642 -32.8546,148.7764 2.1252,21.2607 2.1226,21.2597 23.3832,26.5684 32.262901,8.0555 93.791401,18.3694 131.818001,22.0938 0,0 120.0243,8.7443 179.0672,-0.015 11.9285,-1.1567 28.9402,-3.3823 46.731,-5.9937 -0.2804,1.5518 -0.5603,3.1039 -0.8663,4.6813 2.1252,21.2607 2.1212,21.2611 23.3819,26.5698 32.2628,8.0555 93.7926,18.36809 131.8193,22.09249 0,0 120.0243,8.7456 179.0672,-0.014 32.5212,-3.1537 102.7541,-14.22439 123.8671,-19.52339 2.692,-0.4898 8.7274,-1.783 8.7274,-1.783 l -0.6147,-59.2339 c -0.8164,0 -2.697,-18.5111 -4.1876,-41.1358 -2.3084,-35.183 -4.3539,-43.5212 -14.1268,-57.6237 -23.1288,-33.3753 -84.0809,-72.0433 -115.0418,-72.9839 -14.9164,-0.4533 -15.5478,0.1554 -20.67,19.9138 -1.7659,6.813 28.1469,45.4522 33.2503,60.6932 -44.43,22.7238 -82.2668,63.2068 -99.7399,106.9074 l -10.3514,2.4086 c -4.0909,-2.2842 -22.0949,-21.1056 -36.3253,-49.1246 -13.3726,-26.3301 -59.7359,-58.2943 -77.3809,-76.5446 1.3815,-11.76 25.302,-31.2487 19.5805,-41.4744 -16.2337,-29.0139 -21.0006,-27.1291 -52.2596,-14.7783 -7.8193,3.6746 -15.7931,8.8862 -23.3206,14.7075 -24.5429,-32.6646 -82.8588,-69.1317 -112.9148,-70.0448 -14.9163,-0.4533 -15.5478,0.1554 -20.6699,19.9137 -1.7659,6.813 28.1455,45.4536 33.2489,60.6946 -44.4301,22.7238 -82.2656,63.2055 -99.7387,106.906 l -10.3526,2.4101 c -4.0909,-2.2843 -22.0935,-21.1071 -36.324,-49.1261 -13.3726,-26.3301 -59.7372,-58.2943 -77.3823,-76.5445 1.3815,-11.7601 25.3034,-31.2487 19.5819,-41.4745 -9.6388,-17.227 -15.2356,-23.5607 -24.7351,-23.2785 z m 218.2677,146.6846 58.4124,0 c -2.573,11.9907 -3.8372,24.766 -5.0281,38.6932 l -53.3843,0 0,-38.6932 z m 380.133,47.3348 61.9092,0 0,38.6946 -61.9092,0 0,-38.6946 z"
     id="path4801-7-3"
     inkscape:connector-curvature="0" />
</svg>
