<?xml version="1.0" encoding="UTF-8" standalone="no"?>
<svg
   xmlns:dc="http://purl.org/dc/elements/1.1/"
   xmlns:cc="http://creativecommons.org/ns#"
   xmlns:rdf="http://www.w3.org/1999/02/22-rdf-syntax-ns#"
   xmlns:svg="http://www.w3.org/2000/svg"
   xmlns="http://www.w3.org/2000/svg"
   width="1000"
   height="1000"
   viewBox="0 0 999.99999 999.99999"
   id="svg7631"
   version="1.1">
  <defs
     id="defs7633">
    <pattern
       id="EMFhbasepattern"
       patternUnits="userSpaceOnUse"
       width="6"
       height="6"
       x="0"
       y="0" />
    <pattern
       id="EMFhbasepattern-8"
       patternUnits="userSpaceOnUse"
       width="6"
       height="6"
       x="0"
       y="0" />
    <pattern
       id="EMFhbasepattern-3"
       patternUnits="userSpaceOnUse"
       width="6"
       height="6"
       x="0"
       y="0" />
    <pattern
       id="EMFhbasepattern-6"
       patternUnits="userSpaceOnUse"
       width="6"
       height="6"
       x="0"
       y="0" />
  </defs>
  <metadata
     id="metadata7636">
    <rdf:RDF>
      <cc:Work
         rdf:about="">
        <dc:format>image/svg+xml</dc:format>
        <dc:type
           rdf:resource="http://purl.org/dc/dcmitype/StillImage" />
        <dc:title></dc:title>
      </cc:Work>
    </rdf:RDF>
  </metadata>
  <path
     id="path4801-7-3-63"
     d="m 164.77384,841.91607 c 3.052,30.5321 3.0479,30.5308 33.5798,38.1545 46.332,11.5683 134.69232,26.379 189.30152,31.7276 0,0 172.3642,12.559 257.1543,-0.02 46.703,-4.529 147.5628,-20.4265 177.8827,-28.0363 3.8659,-0.7034 12.534,-2.5619 12.534,-2.5619 l -0.8827,-85.0633 c -1.1723,0 -3.8737,-26.5844 -6.0143,-59.0753 -3.315,-50.5254 -6.2528,-62.499 -20.2874,-82.7513 -33.2148,-47.9296 -120.7454,-103.4604 -165.2077,-104.8112 -21.421,-0.651 -22.3282,0.2236 -29.684,28.598 -2.536,9.7841 40.4206,65.2736 47.7495,87.1608 -63.805,32.6332 -118.1407,90.7697 -143.2334,153.5271 l -14.8666,3.4597 c -5.8749,-3.2804 -31.7287,-30.3111 -52.1647,-70.5486 -19.2041,-37.812 -85.787,-83.7146 -111.1267,-109.9234 1.984,-16.8883 36.3372,-44.8751 28.1207,-59.5601 -23.3129,-41.6661 -30.159,-38.9584 -75.04942,-21.2217 -31.5143,14.8097 -64.8118,46.949 -80.6239,67.2919 -43.6839,56.2008 -28.7359,118.5678 -47.1817,213.6535 z M 465.78316,82.627571 c -42.1343,-0.1856 -72.5521,15.7825 -104.1502,50.063999 -29.9081,32.4467 -42.98202,43.3639 -42.39272,97.3513 0.2764,25.2744 -0.9926,40.9846 2.0503,102.9535 0.3401,6.9274 4.1904,186.9594 -47.7676,191.011 94.50952,70.6569 133.63622,-73.2849 94.35312,-168.2942 -14.0423,-33.9625 -17.027,-79.9695 -15.7561,-83.8007 1.6186,-4.8795 1.3913,-11.5701 3.2696,-18.0307 11.5353,-39.6779 -9.3621,5.2426 25.5714,17.5676 45.1435,15.9271 119.615,-33.9945 149.2255,-55.445 63.7148,18.5765 63.1321,77.8737 66.7019,115.0888 -31.061,64.4352 11.9373,266.3237 130.7031,182.9977 -69.4062,38.484 -93.9095,-205.1314 -86.5536,-284.7074 -11.0752,-57.3864 -5.6607,-90.0162 -83.9689,-129.442899 -34.1238,-17.1807 -66.0057,-17.2009 -91.2858,-17.313 z m 179.7745,676.784099 88.9066,0 0,55.5671 -88.9066,0 z"
     style="fill:#000000" />
</svg>
