<?xml version="1.0" encoding="UTF-8" standalone="no"?>
<svg
   xmlns:dc="http://purl.org/dc/elements/1.1/"
   xmlns:cc="http://creativecommons.org/ns#"
   xmlns:rdf="http://www.w3.org/1999/02/22-rdf-syntax-ns#"
   xmlns:svg="http://www.w3.org/2000/svg"
   xmlns="http://www.w3.org/2000/svg"
   width="1000"
   height="1000"
   viewBox="0 0 999.99999 999.99999"
   id="svg7631"
   version="1.1">
  <defs
     id="defs7633">
    <pattern
       id="EMFhbasepattern"
       patternUnits="userSpaceOnUse"
       width="6"
       height="6"
       x="0"
       y="0" />
    <pattern
       id="EMFhbasepattern-8"
       patternUnits="userSpaceOnUse"
       width="6"
       height="6"
       x="0"
       y="0" />
    <pattern
       id="EMFhbasepattern-3"
       patternUnits="userSpaceOnUse"
       width="6"
       height="6"
       x="0"
       y="0" />
    <pattern
       id="EMFhbasepattern-6"
       patternUnits="userSpaceOnUse"
       width="6"
       height="6"
       x="0"
       y="0" />
  </defs>
  <metadata
     id="metadata7636">
    <rdf:RDF>
      <cc:Work
         rdf:about="">
        <dc:format>image/svg+xml</dc:format>
        <dc:type
           rdf:resource="http://purl.org/dc/dcmitype/StillImage" />
        <dc:title></dc:title>
      </cc:Work>
    </rdf:RDF>
  </metadata>
  <path
     id="rect3124"
     d="m 513.81833,28.728515 -21.3554,0.418 -0.418,105.099595 -11.3047,0 0,54.4336 -22.1934,0.418 0.42,60.7148 -20.9375,0 0,61.5528 -21.7735,0 0,195.5429 c -15.0752,3.4711 -30.3745,7.6599 -45.6406,12.5625 l 0,-144.8789 -12.5625,0 -0.418,-53.5957 -14.2363,0 0,-52.7597 -15.0742,0 0.418,-48.5704 -7.1172,0 -0.8379,-92.957 -14.2364,0.418 0,92.5371 -7.53706,0 0,47.7344 -15.0742,0.4179 0.418,53.1778 -13.8184,0 0,54.0156 -14.6543,0 0,579.51167 2.5117,0 0,2.5137 157.85936,0 0,14.2363 172.0938,0 0,-14.2363 146.1347,0 0,-19.2617 9.6309,0 0,-579.93167 -12.9805,0 -0.4179,-53.5957 -14.2364,0 0.418,-53.1777 -15.0742,0 0,-48.1543 -7.1192,0 -0.4179,-92.9551 -14.6543,0.418 0,92.1191 -7.5371,0 0,48.1524 -15.0743,0.4179 0.8379,53.1778 -14.2363,0 0,54.0156 -14.6562,0 0,154.9277 c -13.4999,-4.415 -26.8924,-8.144 -40.6153,-10.8867 l 0,-191.3574 -18.8437,0 -0.836,-61.1328 -21.3554,0 0.4179,-60.2969 -22.6113,0 0,-55.2715 -10.4668,0 -0.8379,-105.513695 z"
     style="fill:#000000;stroke:none" />
</svg>
