<?xml version="1.0" encoding="UTF-8" standalone="no"?>
<svg
   xmlns:dc="http://purl.org/dc/elements/1.1/"
   xmlns:cc="http://creativecommons.org/ns#"
   xmlns:rdf="http://www.w3.org/1999/02/22-rdf-syntax-ns#"
   xmlns:svg="http://www.w3.org/2000/svg"
   xmlns="http://www.w3.org/2000/svg"
   width="1000"
   height="1000"
   viewBox="0 0 999.99999 999.99999"
   id="svg7631"
   version="1.1">
  <defs
     id="defs7633">
    <pattern
       id="EMFhbasepattern"
       patternUnits="userSpaceOnUse"
       width="6"
       height="6"
       x="0"
       y="0" />
    <pattern
       id="EMFhbasepattern-8"
       patternUnits="userSpaceOnUse"
       width="6"
       height="6"
       x="0"
       y="0" />
    <pattern
       id="EMFhbasepattern-3"
       patternUnits="userSpaceOnUse"
       width="6"
       height="6"
       x="0"
       y="0" />
    <pattern
       id="EMFhbasepattern-6"
       patternUnits="userSpaceOnUse"
       width="6"
       height="6"
       x="0"
       y="0" />
  </defs>
  <metadata
     id="metadata7636">
    <rdf:RDF>
      <cc:Work
         rdf:about="">
        <dc:format>image/svg+xml</dc:format>
        <dc:type
           rdf:resource="http://purl.org/dc/dcmitype/StillImage" />
        <dc:title></dc:title>
      </cc:Work>
    </rdf:RDF>
  </metadata>
  <path
     style="color:#000000;clip-rule:nonzero;display:inline;overflow:visible;visibility:visible;opacity:1;isolation:auto;mix-blend-mode:normal;color-interpolation:sRGB;color-interpolation-filters:linearRGB;solid-color:#000000;solid-opacity:1;fill:#000000;fill-opacity:1;fill-rule:nonzero;stroke:none;stroke-width:10;stroke-linecap:butt;stroke-linejoin:miter;stroke-miterlimit:4;stroke-dasharray:none;stroke-dashoffset:0;stroke-opacity:1;color-rendering:auto;image-rendering:auto;shape-rendering:auto;text-rendering:auto;enable-background:accumulate"
     d="m 488.43125,124.63244 c -0.1795,0 -0.3504,0.02 -0.5116,0.062 -0.3221,0.082 -0.6078,0.2475 -0.8575,0.5018 -0.2501,0.2543 -0.4646,0.5981 -0.6446,1.0366 -0.18,0.4386 -0.3253,0.972 -0.4374,1.607 -0.112,0.635 -0.1904,1.371 -0.2369,2.2148 -0.046,0.8437 5.9609,3.3004 5.98,4.3651 0.036,2.1293 -0.9512,2.039 -0.6747,5.1256 0.2761,3.0866 0.052,3.0553 0.5522,7.197 0.5006,4.1417 1.666,8.9193 2.3736,14.2141 0.5922,4.4309 -3.1126,24.1385 -2.2351,31.4738 0.4396,3.6676 1.6369,5.5442 2.0546,9.4965 0.4178,3.9522 -0.194,1.4502 0.1404,5.3928 -0.1704,8.7776 3.2697,27.2156 -0.7267,34.1268 l -7.3659,0.2981 0.631,39.7274 -15.4793,-0.5144 -0.4948,64.5602 -12.3034,-0.5544 2.0341,129.4354 -65.8039,-1.6142 -0.3963,59.62 -84.5211,0.5152 0.9344,53.6778 -95.4036,1.3507 -93.6204,1.3499 -12.267,258.00132 c 0.3576,26.9477 -104.2820046,27.6642 22.1659,28.0682 21.3226,0 49.2184,-0.2067 85.6559,-0.5144 l 154.9218,-1.3071 0.6301,-104.29802 39.6767,0.097 1.4069,103.24722 83.772,0.4671 0,0 0.3959,0 0.3959,0 0,0 83.7721,-0.4671 1.4069,-103.24722 39.67668,-0.097 0.63,104.29802 154.9219,1.3071 c 36.4375,0.3077 64.3332,0.5098 85.6559,0.5144 131.975,-1.7495 29.3131,-2.655 22.1659,-28.0682 l -12.2666,-258.00132 -93.6208,-1.3499 -95.4036,-1.3507 0.9344,-53.6778 -84.52108,-0.5152 -0.3959,-59.62 -65.8044,1.6142 2.0342,-129.4354 -12.3034,0.5544 -0.4948,-64.5602 -15.4789,0.5144 0.6305,-39.7274 -7.3658,-0.2981 c -3.4196,-10.6143 -1.5672,-24.0592 -0.7267,-34.1268 0.3344,-3.9426 -0.2774,-0.4371 0.1403,-4.3894 0.4178,-3.9522 3.3714,-4.5745 3.811,-8.2421 0.8788,-7.3353 0.2328,-24.595 0.8251,-29.0259 0.7075,-5.2948 1.3152,-9.9885 1.8159,-14.1302 0.5007,-4.1417 0.8943,-7.7317 1.1704,-10.8183 0.2765,-3.0866 -2.2269,-1.5898 -2.1904,-3.7191 0.018,-1.0647 0.01,-2.0162 -0.041,-2.8599 -0.047,-0.8437 -0.1244,-1.5797 -0.2365,-2.2147 -0.1121,-0.635 -0.2578,-1.1685 -0.4378,-1.607 -0.1799,-0.4385 -0.3941,-0.7824 -0.6442,-1.0366 -0.2496,-0.2543 -0.5358,-0.4197 -0.8579,-0.5019 -0.3225,-0.083 -0.6815,-0.082 -1.0783,0 -0.3964,0.077 -0.8315,0.2315 -1.3048,0.4565 -0.4734,0.225 -0.9854,0.5206 -1.5376,0.8809 -1.1353,-1.0786 -0.7727,0.2099 -3.2141,0.9251 -0.023,0.03 -0.041,0.068 -0.062,0.1 -0.023,-0.032 -0.037,-0.07 -0.062,-0.1 -0.6101,-0.7812 -1.3007,-1.4736 -2.0757,-2.1169 -1.4319,-1.1883 -2.6956,-2.1676 -3.7995,-2.8883 -0.5522,-0.3603 -1.0643,-0.6559 -1.5376,-0.8809 -0.4734,-0.225 -0.908,-0.3789 -1.3044,-0.4564 -0.1986,-0.039 -0.3872,-0.058 -0.5672,-0.058 z"
     id="path4968" />
</svg>
