<?xml version="1.0" encoding="UTF-8" standalone="no"?>
<svg
   xmlns:dc="http://purl.org/dc/elements/1.1/"
   xmlns:cc="http://creativecommons.org/ns#"
   xmlns:rdf="http://www.w3.org/1999/02/22-rdf-syntax-ns#"
   xmlns:svg="http://www.w3.org/2000/svg"
   xmlns="http://www.w3.org/2000/svg"
   xmlns:sodipodi="http://sodipodi.sourceforge.net/DTD/sodipodi-0.dtd"
   xmlns:inkscape="http://www.inkscape.org/namespaces/inkscape"
   width="1000"
   height="1000"
   viewBox="0 0 999.99999 999.99999"
   id="svg7631"
   version="1.1"
   inkscape:version="0.91 r13725"
   sodipodi:docname="the-twelve.svg">
  <sodipodi:namedview
     pagecolor="#ffffff"
     bordercolor="#666666"
     borderopacity="1"
     objecttolerance="10"
     gridtolerance="10"
     guidetolerance="10"
     inkscape:pageopacity="0"
     inkscape:pageshadow="2"
     inkscape:window-width="1920"
     inkscape:window-height="1017"
     id="namedview10"
     showgrid="false"
     inkscape:zoom="0.236"
     inkscape:cx="-133.47458"
     inkscape:cy="80.930851"
     inkscape:window-x="3832"
     inkscape:window-y="-8"
     inkscape:window-maximized="1"
     inkscape:current-layer="svg7631" />
  <defs
     id="defs7633">
    <pattern
       id="EMFhbasepattern"
       patternUnits="userSpaceOnUse"
       width="6"
       height="6"
       x="0"
       y="0" />
    <pattern
       id="EMFhbasepattern-8"
       patternUnits="userSpaceOnUse"
       width="6"
       height="6"
       x="0"
       y="0" />
    <pattern
       id="EMFhbasepattern-3"
       patternUnits="userSpaceOnUse"
       width="6"
       height="6"
       x="0"
       y="0" />
    <pattern
       id="EMFhbasepattern-6"
       patternUnits="userSpaceOnUse"
       width="6"
       height="6"
       x="0"
       y="0" />
  </defs>
  <metadata
     id="metadata7636">
    <rdf:RDF>
      <cc:Work
         rdf:about="">
        <dc:format>image/svg+xml</dc:format>
        <dc:type
           rdf:resource="http://purl.org/dc/dcmitype/StillImage" />
        <dc:title />
      </cc:Work>
    </rdf:RDF>
  </metadata>
  <path
     style="fill:#000000"
     d="m 138.74707,75.384325 c -13.17395,-0.05803 -22.68482,4.9337 -32.56445,15.652344 -9.351234,10.144961 -11.004554,15.020401 -10.820314,31.900391 0.23967,21.91517 4.25377,24.57619 9.556644,6.33594 3.60659,-12.40594 5.00719,-13.23056 15.92969,-9.37696 14.11481,4.97985 28.77502,3.89823 38.0332,-2.80859 12.77232,-9.25234 18.96089,-6.47834 26.88867,12.05469 5.28439,12.35364 7.78421,9.82103 7.77149,-7.87305 -0.0194,-27.240074 -4.18007,-33.654789 -26.25391,-40.472656 -11.41332,-3.525203 -20.63681,-5.377063 -28.54102,-5.412109 z m 233.70313,0 c -13.17394,-0.05803 -22.68482,4.9337 -32.56445,15.652344 -9.35123,10.144961 -11.00458,15.020401 -10.82032,31.900391 0.23965,21.91517 4.25377,24.57619 9.55664,6.33594 3.60659,-12.40594 5.00718,-13.23056 15.92969,-9.37696 14.1148,4.97985 28.77698,3.89823 38.03516,-2.80859 12.77232,-9.25234 18.96088,-6.47834 26.88867,12.05469 5.28439,12.35364 7.7842,9.82103 7.77148,-7.87305 -0.0194,-27.240074 -4.18202,-33.654789 -26.25585,-40.472656 -11.41332,-3.525203 -20.6368,-5.377063 -28.54102,-5.412109 z m 233.70312,0 c -13.17395,-0.05803 -22.68287,4.9337 -32.5625,15.652344 -9.35123,10.144961 -11.00457,15.020401 -10.82031,31.900391 0.23965,21.91517 4.25378,24.57619 9.55664,6.33594 3.6066,-12.40594 5.00719,-13.23056 15.92969,-9.37696 14.11481,4.97985 28.77698,3.89823 38.03516,-2.80859 12.77232,-9.25234 18.96088,-6.47834 26.88867,12.05469 5.28438,12.35364 7.78226,9.82103 7.76953,-7.87305 -0.0194,-27.240074 -4.18009,-33.654789 -26.25391,-40.472656 -11.41332,-3.525203 -20.63876,-5.377063 -28.54297,-5.412109 z m 233.70508,0 c -13.17395,-0.05803 -22.68482,4.9337 -32.56445,15.652344 -9.35124,10.144961 -11.00457,15.020401 -10.82031,31.900391 0.23965,21.91517 4.25378,24.57619 9.55664,6.33594 3.60659,-12.40594 5.0072,-13.23056 15.92968,-9.37696 14.11482,4.97985 28.77697,3.89823 38.03516,-2.80859 12.77235,-9.25234 18.96088,-6.47834 26.88867,12.05469 5.28439,12.35364 7.78421,9.82103 7.77149,-7.87305 C 894.63588,94.029016 890.47524,87.614301 868.40137,80.796434 856.98804,77.271231 847.7626,75.419371 839.8584,75.384325 Z M 97.790036,220.95464 c -3.1322,-0.009 -7.167063,1.60688 -13.199216,3.99023 -9.853439,4.63049 -20.263131,14.6805 -25.207031,21.04102 -13.658444,17.57205 -8.986541,37.07076 -14.753906,66.80078 0.954255,9.54633 0.95373,9.54602 10.5,11.92969 14.486417,3.61701 42.113093,8.2476 59.187507,9.91992 0,0 53.89336,3.927 80.40429,-0.006 14.60242,-1.41606 46.13721,-6.38631 55.61719,-8.76563 1.20874,-0.21993 3.91992,-0.80078 3.91992,-0.80078 l -0.27734,-26.5957 c -0.36654,0 -1.21157,-8.31191 -1.88086,-18.4707 -1.03649,-15.79754 -1.95366,-19.54282 -6.3418,-25.875 -10.38512,-14.98594 -37.75246,-32.34719 -51.65429,-32.76953 -6.6976,-0.20356 -6.98135,0.0697 -9.28125,8.9414 -2.41654,9.32306 -16.6439,45.83329 -19.84766,50.93555 -0.84331,1.34268 -2.45656,3.34723 -4.32617,5.11523 l -0.17188,-21.42968 c -0.48382,-6.9928 -6.10283,-12.41025 -12.87304,-12.41016 -6.76511,0.007 -12.37816,5.42239 -12.86133,12.41016 l -0.95117,22.43164 c -3.51865,-1.96476 -9.16734,-14.32017 -18.6875,-38.52149 -8.2679,-21.01839 -10.90091,-27.85242 -17.314464,-27.87109 z m 233.703134,0 c -3.13222,-0.009 -7.16511,1.60688 -13.19727,3.99023 -9.85343,4.63049 -20.26507,14.6805 -25.20898,21.04102 -13.65844,17.57205 -8.98459,37.07076 -14.75196,66.80078 0.95426,9.54633 0.95374,9.54602 10.5,11.92969 14.48643,3.61701 42.1131,8.2476 59.1875,9.91992 0,0 53.8934,3.927 80.4043,-0.006 14.60243,-1.41606 46.13721,-6.38631 55.61719,-8.76563 1.20873,-0.21993 3.91797,-0.80078 3.91797,-0.80078 l -0.27539,-26.5957 c -0.36654,0 -1.21157,-8.31191 -1.88086,-18.4707 -1.03649,-15.79754 -1.95561,-19.54282 -6.34375,-25.875 -10.38512,-14.98594 -37.75247,-32.34719 -51.6543,-32.76953 -6.69757,-0.20356 -6.98134,0.0697 -9.28125,8.9414 -2.41652,9.32306 -16.64195,45.83326 -19.8457,50.93555 -0.84329,1.34268 -2.45656,3.34723 -4.32617,5.11523 l -0.17188,-21.42968 c -0.48382,-6.9928 -6.10284,-12.41025 -12.87305,-12.41016 -6.76511,0.007 -12.37816,5.42239 -12.86132,12.41016 l -0.95313,22.43164 c -3.51864,-1.96476 -9.16733,-14.32017 -18.6875,-38.52149 -8.2679,-21.01843 -10.9009,-27.85242 -17.31445,-27.87109 z m 233.70508,0 c -3.13222,-0.009 -7.16709,1.60688 -13.19922,3.99023 -9.85346,4.63049 -20.26313,14.6805 -25.20703,21.04102 -13.65844,17.57205 -8.98459,37.07076 -14.75196,66.80078 0.95426,9.54633 0.95178,9.54602 10.49805,11.92969 14.48642,3.61701 42.11309,8.2476 59.1875,9.91992 0,0 53.89337,3.927 80.4043,-0.006 14.60241,-1.41606 46.13722,-6.38631 55.61718,-8.76563 1.20873,-0.21993 3.91993,-0.80078 3.91993,-0.80078 l -0.27735,-26.5957 c -0.36653,0 -1.20961,-8.31191 -1.8789,-18.4707 -1.03649,-15.79754 -1.95561,-19.54282 -6.34375,-25.875 -10.38509,-14.98594 -37.75244,-32.34719 -51.6543,-32.76953 -6.69759,-0.20356 -6.98135,0.0697 -9.28125,8.9414 -2.41653,9.32306 -16.64391,45.83326 -19.84766,50.93555 -0.84329,1.34268 -2.45655,3.34723 -4.32617,5.11523 l -0.17187,-21.42968 c -0.48381,-6.9928 -6.10284,-12.41025 -12.87305,-12.41016 -6.76511,0.007 -12.37817,5.42239 -12.86133,12.41016 l -0.95117,22.43164 c -3.51864,-1.96476 -9.16734,-14.32017 -18.6875,-38.52149 -8.26791,-21.01843 -10.90088,-27.85242 -17.31445,-27.87109 z m 233.70312,0 c -3.13219,-0.009 -7.16509,1.60688 -13.19726,3.99023 -9.85343,4.63049 -20.2651,14.6805 -25.20899,21.04102 -13.65845,17.57205 -8.98458,37.07076 -14.75195,66.80078 0.95426,9.54633 0.95373,9.54602 10.5,11.92969 14.48641,3.61701 42.11309,8.2476 59.1875,9.91992 0,0 53.89141,3.927 80.40234,-0.006 14.60242,-1.41606 46.13917,-6.38631 55.61914,-8.76563 1.20879,-0.21993 3.91797,-0.80078 3.91797,-0.80078 l -0.27539,-26.5957 c -0.36658,0 -1.21155,-8.31191 -1.88086,-18.4707 -1.03643,-15.79754 -1.9556,-19.54282 -6.34375,-25.875 -10.38513,-14.98594 -37.75248,-32.34719 -51.6543,-32.76953 -6.69757,-0.20356 -6.98135,0.0697 -9.28125,8.9414 -2.41654,9.32306 -16.64198,45.83326 -19.8457,50.93555 -0.84329,1.34268 -2.45653,3.34723 -4.32617,5.11523 l -0.17188,-21.42968 c -0.48382,-6.9928 -6.10287,-12.41025 -12.87304,-12.41016 -6.76514,0.007 -12.37816,5.42239 -12.86133,12.41016 l -0.95313,22.43164 c -3.51863,-1.96476 -9.16734,-14.32017 -18.6875,-38.52149 -8.2679,-21.01839 -10.90093,-27.85242 -17.31445,-27.87109 z m -664.16406,9.95703 c 0.48362,10.90881 6.10268,19.36139 12.87305,19.36133 6.76523,-0.0113 12.37803,-8.46078 12.86132,-19.36133 l -25.73437,0 z m 233.70508,0 c 0.48363,10.90881 6.10267,19.36139 12.87304,19.36133 6.76524,-0.0113 12.3761,-8.46078 12.85938,-19.36133 l -25.73242,0 z m 233.70312,0 c 0.48364,10.90881 6.10269,19.36139 12.87305,19.36133 6.76524,-0.0113 12.37804,-8.46078 12.86133,-19.36133 l -25.73438,0 z m 233.70508,0 c 0.48364,10.90881 6.10268,19.36139 12.87305,19.36133 6.76523,-0.0113 12.37609,-8.46078 12.85937,-19.36133 l -25.73242,0 z M 138.74707,369.50151 c -13.17395,-0.058 -22.68482,4.93566 -32.56445,15.6543 -9.351224,10.14497 -11.004554,15.01844 -10.820314,31.89844 0.23967,21.91516 4.25377,24.57813 9.556644,6.33789 3.60659,-12.40594 5.00719,-13.23252 15.92969,-9.37891 14.11481,4.97985 28.77502,3.89825 38.0332,-2.80859 12.77232,-9.25233 18.96089,-6.47835 26.88867,12.05468 5.28439,12.35364 7.78421,9.82105 7.77149,-7.87304 -0.0194,-27.24006 -4.18007,-33.65285 -26.25391,-40.4707 -11.41332,-3.52522 -20.63681,-5.37902 -28.54102,-5.41407 z m 233.70313,0 c -13.17394,-0.058 -22.68482,4.93566 -32.56445,15.6543 -9.35122,10.14497 -11.00457,15.01844 -10.82032,31.89844 0.23966,21.91516 4.25377,24.57813 9.55664,6.33789 3.6066,-12.40594 5.00719,-13.23252 15.92969,-9.37891 14.1148,4.97985 28.77698,3.89825 38.03516,-2.80859 12.77232,-9.25233 18.96088,-6.47835 26.88867,12.05468 5.28439,12.35364 7.7842,9.82105 7.77148,-7.87304 -0.0194,-27.24006 -4.18202,-33.65285 -26.25585,-40.4707 -11.41332,-3.52522 -20.6368,-5.37902 -28.54102,-5.41407 z m 233.70312,0 c -13.17395,-0.058 -22.68287,4.93566 -32.5625,15.6543 -9.35123,10.14497 -11.00457,15.01844 -10.82031,31.89844 0.23965,21.91516 4.25377,24.57813 9.55664,6.33789 3.60659,-12.40594 5.00719,-13.23252 15.92969,-9.37891 14.11481,4.97985 28.77698,3.89825 38.03516,-2.80859 12.77232,-9.25233 18.96089,-6.47835 26.88867,12.05468 5.2844,12.35364 7.78225,9.82105 7.76953,-7.87304 -0.0194,-27.24006 -4.18008,-33.65285 -26.25391,-40.4707 -11.41332,-3.52522 -20.63876,-5.37902 -28.54297,-5.41407 z m 233.70508,0 c -13.17395,-0.058 -22.68482,4.93566 -32.56445,15.6543 -9.35124,10.14497 -11.00457,15.01844 -10.82031,31.89844 0.23965,21.91516 4.25378,24.57813 9.55664,6.33789 3.60659,-12.40594 5.00719,-13.23252 15.92968,-9.37891 14.11482,4.97985 28.77694,3.89825 38.03516,-2.80859 12.77232,-9.25233 18.96088,-6.47835 26.88867,12.05468 5.28439,12.35364 7.78422,9.82105 7.77149,-7.87304 -0.0194,-27.24006 -4.18007,-33.65285 -26.25391,-40.4707 -11.41332,-3.52522 -20.63877,-5.37902 -28.54297,-5.41407 z M 97.790036,515.07182 c -3.13219,-0.009 -7.167063,1.60688 -13.199216,3.99024 -9.85343,4.63048 -20.263131,14.68049 -25.207031,21.04102 -13.658444,17.57204 -8.986541,37.07272 -14.753906,66.80273 0.954255,9.54634 0.95373,9.54602 10.5,11.92969 14.486417,3.617 42.113103,8.2476 59.187507,9.91992 0,0 53.89336,3.92508 80.40429,-0.008 14.60242,-1.41606 46.13722,-6.38631 55.61719,-8.76563 1.20874,-0.21974 3.91992,-0.80059 3.91992,-0.80059 l -0.27734,-26.5957 c -0.36654,0 -1.21157,-8.31192 -1.88086,-18.47071 -1.03649,-15.79754 -1.95366,-19.54281 -6.3418,-25.875 -10.38512,-14.98594 -37.75246,-32.34718 -51.65429,-32.76953 -6.6976,-0.20355 -6.98135,0.0697 -9.28125,8.94141 -2.41654,9.32306 -16.64391,45.83328 -19.84766,50.93555 -0.84332,1.3427 -2.45655,3.34724 -4.32617,5.11523 l -0.17188,-21.42773 c -0.48382,-6.9928 -6.10283,-12.41026 -12.87304,-12.41016 -6.7651,0.007 -12.37816,5.4224 -12.86133,12.41016 L 133.792,581.4644 c -3.51865,-1.96476 -9.16734,-14.32017 -18.6875,-38.52148 -8.2679,-21.01843 -10.90091,-27.85242 -17.314464,-27.8711 z m 233.703134,0 c -3.13222,-0.009 -7.16511,1.60688 -13.19727,3.99024 -9.85343,4.63048 -20.26507,14.68049 -25.20898,21.04102 -13.65844,17.57205 -8.98459,37.07272 -14.75196,66.80273 0.95426,9.54634 0.95374,9.54602 10.5,11.92969 14.48643,3.617 42.1131,8.2476 59.1875,9.91992 0,0 53.8934,3.92508 80.4043,-0.008 14.60242,-1.41606 46.13721,-6.38631 55.61719,-8.76563 1.20874,-0.21974 3.91797,-0.80059 3.91797,-0.80059 l -0.27539,-26.5957 c -0.36654,0 -1.21157,-8.31192 -1.88086,-18.47071 -1.03649,-15.79754 -1.95561,-19.54281 -6.34375,-25.875 -10.38512,-14.98594 -37.75247,-32.34718 -51.6543,-32.76953 -6.69758,-0.20355 -6.98134,0.0697 -9.28125,8.94141 -2.41652,9.32306 -16.64195,45.83328 -19.8457,50.93555 -0.84329,1.3427 -2.45656,3.34724 -4.32617,5.11523 l -0.17188,-21.42773 c -0.48382,-6.9928 -6.10284,-12.41026 -12.87305,-12.41016 -6.76511,0.007 -12.37816,5.4224 -12.86132,12.41016 l -0.95313,22.42968 c -3.51863,-1.96476 -9.16734,-14.32017 -18.6875,-38.52148 -8.26791,-21.01843 -10.9009,-27.85242 -17.31445,-27.8711 z m 233.70508,0 c -3.1322,-0.009 -7.16707,1.60688 -13.19922,3.99024 -9.85345,4.63048 -20.26312,14.68049 -25.20703,21.04102 -13.65844,17.57204 -8.9846,37.07272 -14.75196,66.80273 0.95426,9.54634 0.95178,9.54602 10.49805,11.92969 14.48642,3.617 42.11503,8.2476 59.18945,9.91992 0,0 53.89141,3.92508 80.40235,-0.008 14.60242,-1.41606 46.1372,-6.38631 55.61718,-8.76563 1.20875,-0.21974 3.91993,-0.80059 3.91993,-0.80059 l -0.27735,-26.5957 c -0.36654,0 -1.20961,-8.31192 -1.8789,-18.47071 -1.03649,-15.79754 -1.95561,-19.54281 -6.34375,-25.875 -10.38512,-14.98594 -37.75248,-32.34718 -51.6543,-32.76953 -6.6976,-0.20355 -6.98135,0.0697 -9.28125,8.94141 -2.41653,9.32306 -16.6439,45.83328 -19.84766,50.93555 -0.84329,1.3427 -2.45655,3.34724 -4.32617,5.11523 l -0.17187,-21.42773 c -0.48382,-6.9928 -6.10284,-12.41026 -12.87305,-12.41016 -6.76511,0.007 -12.37817,5.4224 -12.86133,12.41016 l -0.95117,22.42968 c -3.51864,-1.96476 -9.16734,-14.32017 -18.6875,-38.52148 -8.26792,-21.01843 -10.9009,-27.85242 -17.31445,-27.8711 z m 233.70312,0 c -3.13219,-0.009 -7.16511,1.60688 -13.19726,3.99024 -9.85344,4.63048 -20.26509,14.68049 -25.20899,21.04102 -13.65845,17.57204 -8.98458,37.07272 -14.75195,66.80273 0.95426,9.54634 0.95373,9.54602 10.5,11.92969 14.48641,3.617 42.11309,8.2476 59.1875,9.91992 0,0 53.89141,3.92508 80.40234,-0.008 14.60242,-1.41606 46.13917,-6.38631 55.61914,-8.76563 1.2087,-0.21993 3.91797,-0.80078 3.91797,-0.80078 l -0.27539,-26.5957 c -0.36658,0 -1.21155,-8.31192 -1.88086,-18.47071 -1.03652,-15.79754 -1.9556,-19.54281 -6.34375,-25.875 -10.38513,-14.98594 -37.75248,-32.34718 -51.6543,-32.76953 -6.69761,-0.20355 -6.98134,0.0697 -9.28125,8.94141 -2.41652,9.32306 -16.64195,45.83328 -19.8457,50.93555 -0.8433,1.3427 -2.45656,3.34724 -4.32617,5.11523 l -0.17188,-21.42773 c -0.48382,-6.9928 -6.10284,-12.41026 -12.87304,-12.41016 -6.76511,0.007 -12.37816,5.4224 -12.86133,12.41016 l -0.95313,22.42968 c -3.51863,-1.96476 -9.16734,-14.32017 -18.6875,-38.52148 -8.2679,-21.01843 -10.9009,-27.85242 -17.31445,-27.8711 z m -664.16406,9.95899 c 0.48362,10.90881 6.10268,19.35943 12.87305,19.35937 6.76523,-0.0113 12.37803,-8.45882 12.86132,-19.35937 l -25.73437,0 z m 233.70508,0 c 0.48363,10.90881 6.10268,19.35943 12.87304,19.35937 6.76524,-0.0113 12.3761,-8.45882 12.85938,-19.35937 l -25.73242,0 z m 233.70312,0 c 0.48363,10.90881 6.10269,19.35943 12.87305,19.35937 6.76523,-0.0113 12.37804,-8.45882 12.86133,-19.35937 l -25.73438,0 z m 233.70508,0 c 0.48363,10.90881 6.10268,19.35943 12.87305,19.35937 6.76523,-0.0113 12.37608,-8.45882 12.85937,-19.35937 l -25.73242,0 z M 138.74707,663.6187 c -13.17394,-0.058 -22.68481,4.93566 -32.56445,15.6543 -9.351224,10.14496 -11.004574,15.01844 -10.820314,31.89843 0.23966,21.91516 4.25377,24.57811 9.556644,6.33789 3.6066,-12.40593 5.00718,-13.23249 15.92969,-9.3789 14.1148,4.97986 28.77502,3.89824 38.0332,-2.8086 12.77232,-9.25233 18.96088,-6.47834 26.88867,12.05469 5.28438,12.35363 7.78421,9.82299 7.77149,-7.87109 -0.0194,-27.24007 -4.18007,-33.6548 -26.25391,-40.47266 -11.41332,-3.52521 -20.6368,-5.37902 -28.54102,-5.41406 z m 233.70313,0 c -13.17394,-0.058 -22.68481,4.93566 -32.56445,15.6543 -9.35122,10.14496 -11.00457,15.01844 -10.82032,31.89843 0.23966,21.91516 4.25377,24.57811 9.55664,6.33789 3.6066,-12.40593 5.00719,-13.23249 15.92969,-9.3789 14.11481,4.97986 28.77698,3.89824 38.03516,-2.8086 12.77232,-9.25233 18.96089,-6.47834 26.88867,12.05469 5.28438,12.35363 7.7842,9.82299 7.77148,-7.87109 -0.0194,-27.24007 -4.18202,-33.6548 -26.25585,-40.47266 -11.41332,-3.52521 -20.6368,-5.37902 -28.54102,-5.41406 z m 233.70312,0 c -13.17394,-0.058 -22.68287,4.93566 -32.5625,15.6543 -9.35124,10.14496 -11.00456,15.01844 -10.82031,31.89843 0.23966,21.91516 4.25378,24.57811 9.55664,6.33789 3.60659,-12.40593 5.00719,-13.23249 15.92969,-9.3789 14.11481,4.97986 28.77698,3.89824 38.03516,-2.8086 12.77232,-9.25233 18.96088,-6.47834 26.88867,12.05469 5.28439,12.35363 7.78226,9.82299 7.76953,-7.87109 -0.0194,-27.24007 -4.18008,-33.6548 -26.25391,-40.47266 -11.41332,-3.52521 -20.63876,-5.37902 -28.54297,-5.41406 z m 233.70508,0 c -13.17395,-0.058 -22.68482,4.93566 -32.56445,15.6543 -9.35124,10.14496 -11.00457,15.01844 -10.82031,31.89843 0.23965,21.91516 4.25378,24.57811 9.55664,6.33789 3.60659,-12.40593 5.0072,-13.23249 15.92968,-9.3789 14.11482,4.97986 28.77697,3.89824 38.03516,-2.8086 12.77231,-9.25233 18.96088,-6.47834 26.88867,12.05469 5.28439,12.35363 7.78422,9.82299 7.77149,-7.87109 -0.0194,-27.24007 -4.18008,-33.6548 -26.25391,-40.47266 -11.41333,-3.52521 -20.63877,-5.37902 -28.54297,-5.41406 z M 97.790036,809.18901 c -3.13219,-0.009 -7.167053,1.60689 -13.199216,3.99024 -9.85343,4.63048 -20.26314,14.68048 -25.207031,21.04101 -13.658453,17.57204 -8.986541,37.07273 -14.753906,66.80274 0.954255,9.54634 0.95373,9.54601 10.5,11.92968 14.486417,3.61701 42.113093,8.2476 59.187507,9.91993 0,0 53.89336,3.92702 80.40429,-0.006 14.60242,-1.41607 46.13722,-6.38826 55.61719,-8.76758 1.20874,-0.21994 3.91992,-0.80078 3.91992,-0.80078 l -0.27734,-26.59571 c -0.36654,0 -1.21157,-8.31193 -1.88086,-18.4707 -1.03649,-15.79756 -1.95366,-19.54085 -6.3418,-25.87305 -10.38512,-14.98593 -37.75246,-32.34913 -51.65429,-32.77148 -6.6976,-0.20355 -6.98135,0.0697 -9.28125,8.94141 -2.41653,9.32306 -16.64391,45.83328 -19.84766,50.93554 -0.84332,1.34271 -2.45655,3.34725 -4.32617,5.11524 l -0.17188,-21.42774 c -0.48382,-6.99278 -6.10284,-12.41024 -12.87304,-12.41015 -6.76512,0.007 -12.37817,5.4224 -12.86133,12.41015 l -0.95117,22.42969 c -3.51865,-1.96476 -9.16733,-14.32018 -18.6875,-38.52148 -8.2679,-21.01844 -10.90091,-27.85048 -17.314464,-27.86914 l 0,-0.002 z m 233.703134,0 c -3.13222,-0.009 -7.16511,1.60689 -13.19727,3.99024 -9.85343,4.63048 -20.26508,14.68048 -25.20898,21.04101 -13.65844,17.57204 -8.98459,37.07273 -14.75196,66.80274 0.95426,9.54634 0.95373,9.54601 10.5,11.92968 14.48641,3.61701 42.1131,8.2476 59.1875,9.91993 0,0 53.89342,3.92702 80.4043,-0.006 14.60242,-1.41607 46.13721,-6.38826 55.61719,-8.76758 1.20874,-0.21994 3.91797,-0.80078 3.91797,-0.80078 l -0.27539,-26.59571 c -0.36654,0 -1.21157,-8.31193 -1.88086,-18.4707 -1.03649,-15.79756 -1.95562,-19.54085 -6.34375,-25.87305 -10.38512,-14.98593 -37.75248,-32.34913 -51.6543,-32.77148 -6.69757,-0.20355 -6.98135,0.0697 -9.28125,8.94141 -2.41654,9.32306 -16.64194,45.83328 -19.8457,50.93554 -0.84328,1.34271 -2.45656,3.34725 -4.32617,5.11524 l -0.17188,-21.42774 c -0.48382,-6.99278 -6.10284,-12.41024 -12.87305,-12.41015 -6.76511,0.007 -12.37817,5.4224 -12.86132,12.41015 l -0.95313,22.42969 c -3.51865,-1.96476 -9.16734,-14.32018 -18.6875,-38.52148 -8.26791,-21.01844 -10.9009,-27.85048 -17.31445,-27.86914 l 0,-0.002 z m 233.70508,0 c -3.13222,-0.009 -7.16709,1.60689 -13.19922,3.99024 -9.85346,4.63048 -20.26313,14.68048 -25.20703,21.04101 -13.65845,17.57204 -8.98459,37.07273 -14.75196,66.80274 0.95426,9.54634 0.95178,9.54601 10.49805,11.92968 14.48642,3.61701 42.11309,8.2476 59.1875,9.91993 0,0 53.89336,3.92702 80.4043,-0.006 14.60241,-1.41607 46.13719,-6.38826 55.61718,-8.76758 1.20873,-0.21994 3.91993,-0.80078 3.91993,-0.80078 l -0.27735,-26.59571 c -0.36653,0 -1.20961,-8.31193 -1.8789,-18.4707 -1.03649,-15.79756 -1.95561,-19.54085 -6.34375,-25.87305 -10.38512,-14.98593 -37.75248,-32.34913 -51.6543,-32.77148 -6.6976,-0.20355 -6.98134,0.0697 -9.28125,8.94141 -2.41653,9.32306 -16.6439,45.83328 -19.84766,50.93554 -0.84329,1.34271 -2.45656,3.34725 -4.32617,5.11524 l -0.17187,-21.42774 c -0.48382,-6.99278 -6.10285,-12.41024 -12.87305,-12.41015 -6.76511,0.007 -12.37816,5.4224 -12.86133,12.41015 l -0.95117,22.42969 c -3.51864,-1.96476 -9.16734,-14.32018 -18.6875,-38.52148 -8.2679,-21.01844 -10.90087,-27.85244 -17.31445,-27.8711 z m 233.70312,0 c -3.13219,-0.009 -7.16511,1.60689 -13.19726,3.99024 -9.85344,4.63048 -20.2651,14.68048 -25.20899,21.04101 -13.65845,17.57204 -8.98458,37.07273 -14.75195,66.80274 0.95426,9.54634 0.95373,9.54601 10.5,11.92968 14.48641,3.61701 42.11309,8.2476 59.1875,9.91993 0,0 53.89141,3.92702 80.40234,-0.006 14.60242,-1.41607 46.13917,-6.38826 55.61914,-8.76758 1.2087,-0.21994 3.91797,-0.80078 3.91797,-0.80078 l -0.27539,-26.59571 c -0.36649,0 -1.21155,-8.31192 -1.88086,-18.4707 -1.03652,-15.79755 -1.9556,-19.54085 -6.34375,-25.87305 -10.38513,-14.98593 -37.75248,-32.34912 -51.6543,-32.77148 -6.69758,-0.20354 -6.98134,0.0697 -9.28125,8.94141 -2.41652,9.32305 -16.64195,45.83328 -19.8457,50.93554 -0.8433,1.34271 -2.45656,3.34724 -4.32617,5.11524 l -0.17188,-21.42774 c -0.48382,-6.99278 -6.10284,-12.41024 -12.87304,-12.41015 -6.76511,0.007 -12.37816,5.42239 -12.86133,12.41015 l -0.95313,22.42969 c -3.51864,-1.96476 -9.16734,-14.32018 -18.6875,-38.52148 -8.26792,-21.01844 -10.9009,-27.85048 -17.31445,-27.86914 l 0,-0.002 z M 134.73731,819.148 c 0.48362,10.9088 6.10269,19.35944 12.87305,19.35937 6.76524,-0.0113 12.37804,-8.45882 12.86132,-19.35937 l -25.73437,0 z m 233.70508,0 c 0.48363,10.9088 6.10268,19.35944 12.87304,19.35937 6.76524,-0.0113 12.37609,-8.45882 12.85938,-19.35937 l -25.73242,0 z m 233.70312,0 c 0.48363,10.9088 6.10269,19.35944 12.87305,19.35937 6.76523,-0.0113 12.37805,-8.45882 12.86133,-19.35937 l -25.73438,0 z m 233.70508,0 c 0.48363,10.9088 6.10268,19.35944 12.87305,19.35937 6.76523,-0.0113 12.37608,-8.45882 12.85937,-19.35937 l -25.73242,0 z"
     id="path4801-7"
     inkscape:connector-curvature="0" />
</svg>
