<?xml version="1.0" encoding="UTF-8" standalone="no"?>
<svg
   xmlns:dc="http://purl.org/dc/elements/1.1/"
   xmlns:cc="http://creativecommons.org/ns#"
   xmlns:rdf="http://www.w3.org/1999/02/22-rdf-syntax-ns#"
   xmlns:svg="http://www.w3.org/2000/svg"
   xmlns="http://www.w3.org/2000/svg"
   width="1000"
   height="1000"
   viewBox="0 0 999.99999 999.99999"
   id="svg7631"
   version="1.1">
  <defs
     id="defs7633">
    <pattern
       id="EMFhbasepattern"
       patternUnits="userSpaceOnUse"
       width="6"
       height="6"
       x="0"
       y="0" />
    <pattern
       id="EMFhbasepattern-8"
       patternUnits="userSpaceOnUse"
       width="6"
       height="6"
       x="0"
       y="0" />
    <pattern
       id="EMFhbasepattern-3"
       patternUnits="userSpaceOnUse"
       width="6"
       height="6"
       x="0"
       y="0" />
    <pattern
       id="EMFhbasepattern-6"
       patternUnits="userSpaceOnUse"
       width="6"
       height="6"
       x="0"
       y="0" />
  </defs>
  <metadata
     id="metadata7636">
    <rdf:RDF>
      <cc:Work
         rdf:about="">
        <dc:format>image/svg+xml</dc:format>
        <dc:type
           rdf:resource="http://purl.org/dc/dcmitype/StillImage" />
        <dc:title></dc:title>
      </cc:Work>
    </rdf:RDF>
  </metadata>
  <path
     style="fill:#000000;fill-opacity:1;fill-rule:nonzero;stroke:none"
     d="m 478.54741,975.80742 c -6.8068,-8.64233 -14.45491,-48.1065 -18.04949,-93.99406 -1.91204,-23.47962 -4.43591,-111.27871 -3.90054,-134.60543 l 0.3824,-19.1202 31.43366,0 31.43368,0 0.15281,24.62683 c 0.22944,42.59886 -3.74758,116.02056 -8.4129,157.85566 -4.20646,36.93928 -11.39568,63.6311 -17.74358,66.07851 -3.82404,1.45313 -13.91953,0.91777 -15.29618,-0.84131 z M 450.17299,697.49533 c -10.32493,-1.14721 -15.14293,-3.74758 -22.86751,-12.31341 -4.4359,-4.8948 -6.80671,-9.17772 -8.41281,-15.14324 -1.30017,-4.5124 -1.98849,-8.87181 -1.52961,-9.63659 0.53537,-0.84132 26.15608,-1.3002 71.20334,-1.3002 60.80134,0 70.43794,0.22944 71.12627,1.98853 1.14721,3.05921 -3.5946,16.82578 -8.3364,23.78555 -2.37093,3.5946 -6.80684,7.72456 -10.32493,9.71309 -6.1175,3.44166 -6.19395,3.44166 -44.43445,3.5946 -21.03225,0.0766 -41.91154,-0.22944 -46.4239,-0.68833 z M 399.00774,628.73999 C 387.07682,622.85094 377.66977,609.84918 376.752,597.91815 l -0.38243,-5.12424 107.91391,-0.38238 c 64.9313,-0.15281 108.37249,0.15281 109.13728,0.91777 1.98853,2.06498 -4.05348,19.80858 -9.02473,26.23297 -2.37092,3.2122 -7.11272,7.26568 -10.40142,9.02473 l -6.04201,3.13574 -81.45118,0 c -81.14578,0 -81.45167,0 -87.49368,-2.98275 z m 88.02905,-66.92085 c -11.2427,-23.78556 -7.64811,-47.41817 11.01326,-72.04399 3.67108,-4.81831 21.33819,-23.25024 39.31121,-40.99382 32.50338,-32.19846 45.27568,-46.80634 54.52988,-62.33197 6.8833,-11.77807 12.23698,-26.0025 13.07825,-35.10374 0.61184,-7.26567 0.3824,-8.10699 -3.28869,-11.77807 -3.74755,-3.74753 -10.09548,-6.42439 -23.32668,-9.86604 -6.42439,-1.6061 -9.94253,-4.51237 -9.94253,-8.03049 0,-1.30017 4.35942,-8.48939 9.6366,-15.98451 28.22147,-39.46417 38.69938,-86.95782 29.21574,-132.08157 -3.5946,-16.97876 -2.60037,-17.28471 8.87177,-2.98275 16.29044,20.26743 26.76836,39.84655 31.66311,59.19524 2.52386,10.01898 2.82981,14.22545 2.21797,32.12199 -0.76482,22.94429 -2.14147,28.37442 -11.39569,45.20025 -4.89475,8.87177 -5.27718,10.40136 -5.27718,20.49685 -0.0767,9.63661 0.53539,12.16047 4.74184,21.18524 2.60034,5.58312 9.25417,16.67283 14.76081,24.54936 11.39567,16.21395 13.91954,20.64986 13.91954,24.4739 0,3.36519 -6.88328,9.25421 -12.23696,10.40142 -4.28292,0.99427 -4.20647,0.84128 -6.04201,14.91378 -0.45888,3.2887 -2.21794,6.88329 -4.43586,9.25421 -3.51814,3.59459 -3.6711,4.28292 -2.14148,8.41288 2.52386,7.03625 2.06498,8.94828 -3.82404,14.22547 -5.81257,5.27718 -6.80682,8.48938 -3.36519,11.39565 3.59463,2.98275 6.1185,9.02476 6.1185,14.83732 0,4.20642 -0.99426,6.65384 -4.4359,10.55438 -8.10699,9.25417 -9.10123,9.40714 -56.44293,9.40714 l -42.29296,0 -7.57162,3.51709 c -9.9425,4.66536 -15.83155,9.78956 -21.87353,19.19671 -6.19495,9.6366 -10.63086,23.25021 -11.93103,36.5579 -0.61187,6.19496 -1.68258,10.40143 -2.75331,10.70733 -1.07076,0.38243 -3.59463,-3.36515 -6.50089,-9.40716 z m -36.48142,-13.07825 c -19.42585,-20.26743 -27.37986,-52.08247 -20.34362,-81.52765 3.82407,-16.13748 10.85998,-30.66883 26.23264,-54.30145 14.5314,-22.4854 22.10302,-38.54643 22.33247,-47.4172 0.0766,-4.89476 -0.61185,-6.57735 -3.74759,-9.25417 -4.35941,-3.74758 -10.32493,-4.28295 -21.33819,-1.68258 -6.19495,1.37665 -7.18917,1.30015 -9.86603,-1.07073 -6.50086,-5.73606 -8.18346,-15.90806 -4.81831,-28.6039 2.9063,-10.78381 6.42441,-17.74354 19.3497,-38.24045 23.32667,-36.78736 33.95754,-57.28422 42.29398,-81.22176 21.56761,-62.33195 14.60783,-118.086058 -21.49118,-172.081219 -3.67108,-5.506555 -6.34791,-10.324818 -5.96551,-10.707211 1.6061,-1.606101 20.19096,13.231082 35.18125,28.221252 31.20422,31.12755 49.78808,64.243488 59.50117,105.925298 3.90052,16.67283 3.51809,57.7431 -0.61188,77.01529 -4.81829,22.1795 -11.70158,41.14676 -25.08572,68.83284 -13.07722,27.15076 -13.38317,28.52741 -7.49415,34.9518 1.52964,1.75906 6.04101,4.05348 10.01802,5.2007 8.0305,2.37093 9.48361,4.66535 7.954,12.5429 -2.29443,12.31241 -11.93101,26.53786 -36.93928,54.30044 -28.75684,32.12201 -40.61138,48.94782 -49.48316,70.43895 -6.88327,16.67284 -9.02476,29.29119 -8.94827,52.92379 0,11.47214 -0.38242,20.8793 -0.84132,20.8793 -0.53534,0 -3.13569,-2.37092 -5.88902,-5.12424 z m -50.32392,-30.97477 c -20.11429,-11.93103 -35.86928,-27.99097 -44.28218,-45.27568 -6.34783,-13.00176 -8.0304,-22.02652 -7.41855,-39.00529 0.68832,-17.43765 3.82403,-24.32094 13.46055,-29.98052 8.71872,-5.04773 8.56578,-7.49515 -1.07075,-26.84484 -18.50824,-36.93925 -27.60942,-66.46092 -27.68587,-89.3287 -0.0767,-23.02078 6.65377,-48.25949 17.74345,-66.99631 7.11265,-11.93103 21.56744,-25.39165 33.65131,-31.28072 25.77387,-12.54285 52.84772,-35.1812 77.47461,-64.70254 8.71882,-10.40142 12.8488,-14.37834 13.84302,-13.38407 0.91777,0.91777 1.37666,9.33059 1.3002,22.25555 -0.22944,44.28246 -13.30768,81.68165 -50.0947,143.6302 -19.04357,31.96902 -23.63244,40.91728 -26.30926,51.62464 -4.35941,16.97876 2.21794,34.26344 19.04365,50.01749 13.46056,12.4664 13.91944,13.53716 9.63649,21.03228 -14.22534,25.23871 -20.11436,42.21749 -21.79685,63.09678 -0.99427,12.16047 0.91777,34.03403 4.28281,48.18198 3.59463,15.37267 3.05926,15.67856 -11.77793,6.95975 z"
     id="path3388" />
</svg>
