<?xml version="1.0" encoding="UTF-8" standalone="no"?>
<svg
   xmlns:dc="http://purl.org/dc/elements/1.1/"
   xmlns:cc="http://creativecommons.org/ns#"
   xmlns:rdf="http://www.w3.org/1999/02/22-rdf-syntax-ns#"
   xmlns:svg="http://www.w3.org/2000/svg"
   xmlns="http://www.w3.org/2000/svg"
   width="1000"
   height="1000"
   viewBox="0 0 999.99999 999.99999"
   id="svg7631"
   version="1.1">
  <defs
     id="defs7633">
    <pattern
       id="EMFhbasepattern"
       patternUnits="userSpaceOnUse"
       width="6"
       height="6"
       x="0"
       y="0" />
    <pattern
       id="EMFhbasepattern-8"
       patternUnits="userSpaceOnUse"
       width="6"
       height="6"
       x="0"
       y="0" />
    <pattern
       id="EMFhbasepattern-3"
       patternUnits="userSpaceOnUse"
       width="6"
       height="6"
       x="0"
       y="0" />
    <pattern
       id="EMFhbasepattern-6"
       patternUnits="userSpaceOnUse"
       width="6"
       height="6"
       x="0"
       y="0" />
  </defs>
  <metadata
     id="metadata7636">
    <rdf:RDF>
      <cc:Work
         rdf:about="">
        <dc:format>image/svg+xml</dc:format>
        <dc:type
           rdf:resource="http://purl.org/dc/dcmitype/StillImage" />
        <dc:title></dc:title>
      </cc:Work>
    </rdf:RDF>
  </metadata>
  <path
     d="m 522.43209,536.37583 c -55.4168,24.663 -195.2648,80.3969 -324.2251,230.0201 -124.350605,144.2747 -79.7239,230.7452 13.5174,174.8823 67.6141,-40.5085 248.3842,-136.8642 413.97319,-413.9727 3.5891,-6.0063 7.0959,-11.8919 11.2891,-18.1342 -34.26189,1.3691 -69.35989,7.0907 -114.55459,27.2045 z m 258.71649,-306.455 c 0,0 -446.00669,354.5411 -485.00719,376.8673 -18.7791,10.7501 -93.6206,69.8489 -133.4174,52.3127 -43.1855,-19.0294 -32.9144,-98.3853 41.3547,-183.4753 61.2928,-70.2231 229.4364,-252.7476 289.0034,-361.3702 0,0 54.8179,-81.310304 -48.4532,-59.668904 -85.6624,14.9499 -283.6502,221.121904 -285.2845,226.025104 -13.0167,7.7594 -25.2383,9.9525 -33.7936,-13.5175 l 104.7604,-135.1748 16.8966,13.5178 c 0,0 343.6473,-259.6638 271.5618,1.4386 -15.0437,71.5539 -253.7826,325.7239 -340.7186,446.9743 -32.9101,56.6596 0.5507,55.7609 63.8822,16.546 176.7231,-109.4279 562.37299,-442.1615 631.30279,-468.3384 25.06,-3.19 27.8338,17.2437 -1.1647,22.2501 l -168.6482,335.963 c 0,0 30.6236,27.9887 20.5209,34.678 -13.4446,8.4728 -21.2599,-21.844 -29.557,-22.0189 -45.1179,62.5226 -250.23239,338.7133 -411.69579,422.4347 -182.4859,94.62207 -184.155805,-34.1365 -170.6578,-63.3632 0,0 40.0719,-79.9092 71.8112,-113.2089 162.238,-170.2118 338.2247,-235.4726 347.6526,-239.5131 59.5662,-19.0112 93.12719,-21.5246 112.21309,-23.5073 147.5393,-247.1419 137.4383,-265.8511 137.4383,-265.8511 z"
     style="fill:#000000;fill-rule:evenodd;stroke:none;stroke-width:1px;stroke-linecap:butt;stroke-linejoin:miter;stroke-opacity:1"
     id="path3916" />
</svg>
