<?xml version="1.0" encoding="UTF-8" standalone="no"?>
<svg
   xmlns:dc="http://purl.org/dc/elements/1.1/"
   xmlns:cc="http://creativecommons.org/ns#"
   xmlns:rdf="http://www.w3.org/1999/02/22-rdf-syntax-ns#"
   xmlns:svg="http://www.w3.org/2000/svg"
   xmlns="http://www.w3.org/2000/svg"
   width="1000"
   height="1000"
   viewBox="0 0 999.99999 999.99999"
   id="svg7631"
   version="1.1">
  <defs
     id="defs7633">
    <pattern
       id="EMFhbasepattern"
       patternUnits="userSpaceOnUse"
       width="6"
       height="6"
       x="0"
       y="0" />
    <pattern
       id="EMFhbasepattern-8"
       patternUnits="userSpaceOnUse"
       width="6"
       height="6"
       x="0"
       y="0" />
    <pattern
       id="EMFhbasepattern-3"
       patternUnits="userSpaceOnUse"
       width="6"
       height="6"
       x="0"
       y="0" />
    <pattern
       id="EMFhbasepattern-6"
       patternUnits="userSpaceOnUse"
       width="6"
       height="6"
       x="0"
       y="0" />
  </defs>
  <metadata
     id="metadata7636">
    <rdf:RDF>
      <cc:Work
         rdf:about="">
        <dc:format>image/svg+xml</dc:format>
        <dc:type
           rdf:resource="http://purl.org/dc/dcmitype/StillImage" />
        <dc:title></dc:title>
      </cc:Work>
    </rdf:RDF>
  </metadata>
  <path
     id="path4096-9"
     d="m 500.76447,22.698231 c -214.5119,-8e-4 -376.20201,196.667199 -376.20141,473.148999 1e-4,38.943 10.2422,97.1333 18.1513,135.6315 3.5366,17.2147 -10.1786,16.4523 6.3968,32.4656 6.9817,6.7452 19.696,16.4939 22.9922,25.1516 3.2956,8.656 -31.3587,-0.3672 -1.748,20.2241 5.108,3.5521 34.5345,25.0658 34.9984,30.631 1.2868,15.4415 -71.4089,-13.1298 -3.4231,30.9341 21.8295,14.1483 -56.9138,5.1323 37.77471,51.7453 6.7614,3.3286 1.9259,9.1719 9.9713,15.8377 5.5073,4.5627 20.6771,7.2244 28.653,12.0143 9.0726,5.4486 10.8558,12.9802 14.4794,17.2205 5.8239,6.815 22.9035,19.1271 26.6939,26.0932 4.1803,7.6823 -4.9167,9.9359 2.3081,15.4319 3.7566,2.8576 17.7318,15.5811 27.1106,15.1557 11.3518,-0.5146 18.2781,-14.2635 22.0181,-10.1309 9.5643,10.5686 -12.6773,37.136 -3.4202,40.5618 13.7922,5.1041 33.6388,-7.5994 48.9798,-6.5024 4.3608,0.3119 -0.015,24.3768 4.4079,26.0066 9.6731,3.5667 23.6227,-21.4362 22.1344,-25.1515 -2.1499,-5.3674 11.5908,11.031 19.81,12.1821 9.1951,1.2879 19.0476,-0.3231 27.2163,1.1879 6.3171,1.1684 16.5817,-19.5184 16.4574,-14.4767 -0.2778,11.2748 25.5717,23.5769 30.3983,23.1842 16.2448,-1.3215 -14.5162,-25.5002 -0.287,-30.0979 7.435,-2.4022 14.6188,-8.868 22.7894,-7.8201 20.5025,2.6297 27.7099,34.7605 26.7264,39.9882 -3.7444,19.9024 20.2921,-40.3312 22.1885,-50.2707 2.5395,-13.31 42.9776,0.6745 44.7397,10.1202 3.9041,20.9276 27.347,-29.3671 33.0446,-46.9667 3.1053,-9.592 10.3131,-2.3065 18.7251,-8.5913 25.3446,-18.9362 58.66147,-47.1767 81.97297,-64.1004 35.6852,-25.9068 13.7033,-35.734 29.021,-46.2606 33.4982,-23.02 9.6472,-37.7954 23.4738,-51.1283 18.3646,-17.709 3.9213,-27.0643 12.6394,-37.1009 8.5254,-9.8148 -0.3178,-18.4402 6.5484,-25.855 5.4545,-5.8902 5.0028,-20.3235 6.6484,-29.1807 6.7377,-36.2636 10.2824,-74.9856 10.2826,-115.9269 5e-4,-276.4806 -160.16177,-485.354399 -374.67247,-485.355499 z m 1.0769,15.1045 c 206.7658,0 347.62757,190.188699 354.54847,456.596899 0.5216,20.0789 -1.0794,73.7955 -8.5967,95.5325 -4.356,12.5958 -14.7532,-5.816 -17.3476,4.9058 -2.6452,10.931 10.5782,22.4702 7.444,28.9859 -9.6217,20.0026 -21.2743,-17.8841 -24.4643,-12.0117 -4.9156,9.0494 18.3911,35.6289 16.0515,42.05 -8.4103,23.0828 -21.2522,-6.34 -33.0176,-21.5417 -8.8322,-11.4121 6.0711,51.959 5.3118,62.8855 -1.4136,20.3413 -25.8666,-17.4886 -26.9781,-15.2559 -10.9458,21.9862 1.6745,57.5571 -9.7386,62.3876 -12.7677,5.4036 -7.1181,-48.3139 -11.0617,-35.7047 -5.097,16.2969 -15.50047,29.0678 -29.80037,39.0763 l -3.3228,-75.3951 -7.0003,-55.7717 -13.47,47.6594 -34.1894,-170.9546 -8.2882,-8.2882 c 8.8653,-14.0728 9.5901,-19.6438 1.5532,-31.083 l -0.2516,-11.4974 2.8411,-14.4063 -7.2517,-17.6128 -4.6624,-40.6673 -4.6623,40.4075 -8.5479,18.1324 3.6259,15.0232 -0.5709,11.5516 c -8.4182,15.5531 -5.7257,18.3355 1.3475,27.8196 l -8.2883,8.5479 0,8.2883 -14.5064,70.454 -15.7295,-70.454 -13.2807,47.6621 -61.4406,-297.9434 4.5243,-4.4703 -16.6468,-14.6308 c 28.7609,-25.8829 -10.89,-31.5758 9.3245,-61.1295 l -12.4309,-49.7348 c 1.1106,-64.027799 42.2411,-37.172199 26.1581,-54.294299 l -29.5757,13.2185 c -12.435,-18.3642 -16.4824,-6.9855 -17.6912,12.109 l 2.4569,76.628799 -4.692,21.753 c 6.3976,-1.0032 7.1302,4.1293 7.801,9.33 -10.1369,7.0436 -15.3385,12.7963 -2.0727,29.0101 l -9.3245,12.4337 4.1455,11.3974 -60.0931,273.5278 -12.6232,-57.111 -14.3169,50.8956 -47.1398,-212.4011 c 8.3922,-6.4264 7.3559,-23.5093 -2.3326,-26.9375 l 0.1164,-20.5839 6.3589,-13.8651 -9.5844,-16.5792 -4.6623,-38.3348 -6.2155,38.3348 -9.0676,15.5427 6.4754,16.5766 -0.2598,18.1323 c -11.3874,4.2399 -9.6627,26.3393 -2.0701,27.7141 l -49.7321,211.3648 -18.3921,-68.3841 -16.8362,59.0594 1.0363,109.8252 -20.7219,-65.275 -20.72191,67.3478 -1.1961,41.8551 c -2.7811,-3.0585 -5.5365,-6.1423 -8.2449,-9.2759 -5.1149,-5.9179 -0.3414,-29.3106 -6.34,-41.7063 -2.73,-5.6414 -10.8415,27.8913 -14.6877,23.4387 -3.9949,-4.6247 3.4184,-23.9465 0.138,-34.5709 -2.7971,-9.0594 -3.9344,23.6872 -9.1325,18.633 -2.0163,-1.9605 -0.2985,-15.8361 -2.9765,-26.0635 -1.5707,-5.9985 -2.9804,7.4637 -5.309,3.5339 -2.5431,-4.2917 -6.2781,-25.5723 -6.3968,-26.2258 -3.9988,-22.0078 -4.7976,-48.0428 -4.7976,-75.9225 3e-4,-266.4968 144.72871,-453.544399 351.49361,-453.544699 z"
     style="fill:#000000;fill-rule:evenodd;stroke:#000000;stroke-width:1.33045352px;stroke-linecap:butt;stroke-linejoin:miter;stroke-opacity:1" />
</svg>
